<?xml version="1.0" encoding="UTF-8" standalone="no"?><svg xmlns="http://www.w3.org/2000/svg" xmlns:xlink="http://www.w3.org/1999/xlink" contentStyleType="text/css" height="1116px" preserveAspectRatio="none" style="width:1399px;height:1116px;background:#FFFFFF;" version="1.1" viewBox="0 0 1399 1116" width="1399px" zoomAndPan="magnify"><defs/><g><!--cluster ska_oso_oet--><g id="cluster_ska_oso_oet"><path d="M8.5,6 L105.5,6 A3.75,3.75 0 0 1 108,8.5 L115,28.2969 L1239.5,28.2969 A2.5,2.5 0 0 1 1242,30.7969 L1242,1107 A2.5,2.5 0 0 1 1239.5,1109.5 L8.5,1109.5 A2.5,2.5 0 0 1 6,1107 L6,8.5 A2.5,2.5 0 0 1 8.5,6 " fill="none" style="stroke:#000000;stroke-width:1.5;"/><line style="stroke:#000000;stroke-width:1.5;" x1="6" x2="115" y1="28.2969" y2="28.2969"/><text fill="#000000" font-family="sans-serif" font-size="14" font-weight="bold" lengthAdjust="spacing" textLength="96" x="10" y="20.9951">ska_oso_oet</text></g><!--cluster main--><g id="cluster_main"><rect fill="none" height="272" rx="2.5" ry="2.5" style="stroke:#181818;stroke-width:1.0;" width="311" x="397" y="49"/><text fill="#000000" font-family="sans-serif" font-size="14" font-weight="bold" lengthAdjust="spacing" textLength="37" x="534" y="63.9951">main</text></g><!--cluster ui--><g id="cluster_ui"><rect fill="none" height="107" rx="2.5" ry="2.5" style="stroke:#181818;stroke-width:1.0;" width="206" x="637" y="345"/><text fill="#000000" font-family="sans-serif" font-size="14" font-weight="bold" lengthAdjust="spacing" textLength="14" x="733" y="359.9951">ui</text></g><!--cluster activity--><g id="cluster_activity"><path d="M32.5,476 L89.5,476 A3.75,3.75 0 0 1 92,478.5 L99,498.2969 L879.5,498.2969 A2.5,2.5 0 0 1 882,500.7969 L882,1083 A2.5,2.5 0 0 1 879.5,1085.5 L32.5,1085.5 A2.5,2.5 0 0 1 30,1083 L30,478.5 A2.5,2.5 0 0 1 32.5,476 " fill="none" style="stroke:#000000;stroke-width:1.5;"/><line style="stroke:#000000;stroke-width:1.5;" x1="30" x2="99" y1="498.2969" y2="498.2969"/><text fill="#000000" font-family="sans-serif" font-size="14" font-weight="bold" lengthAdjust="spacing" textLength="56" x="34" y="490.9951">activity</text></g><!--cluster activity_ui--><g id="cluster_activity_ui"><rect fill="none" height="115" rx="2.5" ry="2.5" style="stroke:#181818;stroke-width:1.0;" width="167" x="647" y="527"/><text fill="#000000" font-family="sans-serif" font-size="14" font-weight="bold" lengthAdjust="spacing" textLength="14" x="723.5" y="541.9951">ui</text></g><!--cluster application--><g id="cluster_application"><rect fill="none" height="371.5" rx="2.5" ry="2.5" style="stroke:#181818;stroke-width:1.0;" width="565" x="62" y="682"/><text fill="#000000" font-family="sans-serif" font-size="14" font-weight="bold" lengthAdjust="spacing" textLength="85" x="302" y="696.9951">application</text></g><!--cluster activity_domain--><g id="cluster_activity_domain"><rect fill="none" height="131" rx="2.5" ry="2.5" style="stroke:#181818;stroke-width:1.0;" width="183" x="667" y="873.5"/><text fill="#000000" font-family="sans-serif" font-size="14" font-weight="bold" lengthAdjust="spacing" textLength="57" x="730" y="888.4951">domain</text></g><!--cluster procedure--><g id="cluster_procedure"><path d="M908.5,822 L992.5,822 A3.75,3.75 0 0 1 995,824.5 L1002,844.2969 L1215.5,844.2969 A2.5,2.5 0 0 1 1218,846.7969 L1218,1034.5 A2.5,2.5 0 0 1 1215.5,1037 L908.5,1037 A2.5,2.5 0 0 1 906,1034.5 L906,824.5 A2.5,2.5 0 0 1 908.5,822 " fill="none" style="stroke:#000000;stroke-width:1.5;"/><line style="stroke:#000000;stroke-width:1.5;" x1="906" x2="1002" y1="844.2969" y2="844.2969"/><text fill="#000000" font-family="sans-serif" font-size="14" font-weight="bold" lengthAdjust="spacing" textLength="83" x="910" y="836.9951">procedure</text></g><!--cluster procedure_domain--><g id="cluster_procedure_domain"><rect fill="none" height="148" rx="2.5" ry="2.5" style="stroke:#181818;stroke-width:1.0;" width="264" x="930" y="865"/><text fill="#000000" font-family="sans-serif" font-size="14" font-weight="bold" lengthAdjust="spacing" textLength="57" x="1033.5" y="879.9951">domain</text></g><!--cluster flask--><g id="cluster_flask"><path d="M1268.5,349 L1306.5,349 A3.75,3.75 0 0 1 1309,351.5 L1316,371.2969 L1389.5,371.2969 A2.5,2.5 0 0 1 1392,373.7969 L1392,631.5 A2.5,2.5 0 0 1 1389.5,634 L1268.5,634 A2.5,2.5 0 0 1 1266,631.5 L1266,351.5 A2.5,2.5 0 0 1 1268.5,349 " fill="none" style="stroke:#000000;stroke-width:1.5;"/><line style="stroke:#000000;stroke-width:1.5;" x1="1266" x2="1316" y1="371.2969" y2="371.2969"/><text fill="#000000" font-family="sans-serif" font-size="14" font-weight="bold" lengthAdjust="spacing" textLength="37" x="1270" y="363.9951">flask</text></g><!--class ActivityWorker--><g id="elem_ActivityWorker"><rect codeLine="7" fill="#F1F1F1" height="64.2969" id="ActivityWorker" rx="2.5" ry="2.5" style="stroke:#181818;stroke-width:0.5;" width="128" x="413" y="241"/><ellipse cx="428" cy="257" fill="#ADD1B2" rx="11" ry="11" style="stroke:#181818;stroke-width:1.0;"/><path d="M430.9688,262.6406 Q430.3906,262.9375 429.75,263.0781 Q429.1094,263.2344 428.4063,263.2344 Q425.9063,263.2344 424.5781,261.5938 Q423.2656,259.9375 423.2656,256.8125 Q423.2656,253.6875 424.5781,252.0313 Q425.9063,250.375 428.4063,250.375 Q429.1094,250.375 429.75,250.5313 Q430.4063,250.6875 430.9688,250.9844 L430.9688,253.7031 Q430.3438,253.125 429.75,252.8594 Q429.1563,252.5781 428.5313,252.5781 Q427.1875,252.5781 426.5,253.6563 Q425.8125,254.7188 425.8125,256.8125 Q425.8125,258.9063 426.5,259.9844 Q427.1875,261.0469 428.5313,261.0469 Q429.1563,261.0469 429.75,260.7813 Q430.3438,260.5 430.9688,259.9219 L430.9688,262.6406 Z " fill="#000000"/><text fill="#000000" font-family="sans-serif" font-size="14" lengthAdjust="spacing" textLength="96" x="442" y="261.8467">ActivityWorker</text><line style="stroke:#181818;stroke-width:0.5;" x1="414" x2="540" y1="273" y2="273"/><line style="stroke:#181818;stroke-width:0.5;" x1="414" x2="540" y1="281" y2="281"/><text fill="#000000" font-family="sans-serif" font-size="14" lengthAdjust="spacing" textLength="45" x="419" y="297.9951">run(...)</text></g><!--class FlaskWorker--><g id="elem_FlaskWorker"><rect codeLine="11" fill="#F1F1F1" height="48" id="FlaskWorker" rx="2.5" ry="2.5" style="stroke:#181818;stroke-width:0.5;" width="116" x="576" y="249"/><ellipse cx="591" cy="265" fill="#ADD1B2" rx="11" ry="11" style="stroke:#181818;stroke-width:1.0;"/><path d="M593.9688,270.6406 Q593.3906,270.9375 592.75,271.0781 Q592.1094,271.2344 591.4063,271.2344 Q588.9063,271.2344 587.5781,269.5938 Q586.2656,267.9375 586.2656,264.8125 Q586.2656,261.6875 587.5781,260.0313 Q588.9063,258.375 591.4063,258.375 Q592.1094,258.375 592.75,258.5313 Q593.4063,258.6875 593.9688,258.9844 L593.9688,261.7031 Q593.3438,261.125 592.75,260.8594 Q592.1563,260.5781 591.5313,260.5781 Q590.1875,260.5781 589.5,261.6563 Q588.8125,262.7188 588.8125,264.8125 Q588.8125,266.9063 589.5,267.9844 Q590.1875,269.0469 591.5313,269.0469 Q592.1563,269.0469 592.75,268.7813 Q593.3438,268.5 593.9688,267.9219 L593.9688,270.6406 Z " fill="#000000"/><text fill="#000000" font-family="sans-serif" font-size="14" lengthAdjust="spacing" textLength="84" x="605" y="269.8467">FlaskWorker</text><line style="stroke:#181818;stroke-width:0.5;" x1="577" x2="691" y1="281" y2="281"/><line style="stroke:#181818;stroke-width:0.5;" x1="577" x2="691" y1="289" y2="289"/></g><!--class EventBusWorker--><g id="elem_EventBusWorker"><rect codeLine="13" fill="#F1F1F1" height="96.8906" id="EventBusWorker" rx="2.5" ry="2.5" style="stroke:#181818;stroke-width:0.5;" width="147" x="478.5" y="84"/><ellipse cx="493.5" cy="100" fill="#ADD1B2" rx="11" ry="11" style="stroke:#181818;stroke-width:1.0;"/><path d="M496.4688,105.6406 Q495.8906,105.9375 495.25,106.0781 Q494.6094,106.2344 493.9063,106.2344 Q491.4063,106.2344 490.0781,104.5938 Q488.7656,102.9375 488.7656,99.8125 Q488.7656,96.6875 490.0781,95.0313 Q491.4063,93.375 493.9063,93.375 Q494.6094,93.375 495.25,93.5313 Q495.9063,93.6875 496.4688,93.9844 L496.4688,96.7031 Q495.8438,96.125 495.25,95.8594 Q494.6563,95.5781 494.0313,95.5781 Q492.6875,95.5781 492,96.6563 Q491.3125,97.7188 491.3125,99.8125 Q491.3125,101.9063 492,102.9844 Q492.6875,104.0469 494.0313,104.0469 Q494.6563,104.0469 495.25,103.7813 Q495.8438,103.5 496.4688,102.9219 L496.4688,105.6406 Z " fill="#000000"/><text fill="#000000" font-family="sans-serif" font-size="14" lengthAdjust="spacing" textLength="115" x="507.5" y="104.8467">EventBusWorker</text><line style="stroke:#181818;stroke-width:0.5;" x1="479.5" x2="624.5" y1="116" y2="116"/><line style="stroke:#181818;stroke-width:0.5;" x1="479.5" x2="624.5" y1="124" y2="124"/><text fill="#000000" font-family="sans-serif" font-size="14" lengthAdjust="spacing" textLength="92" x="484.5" y="140.9951">main_loop(...)</text><text fill="#000000" font-family="sans-serif" font-size="14" lengthAdjust="spacing" textLength="92" x="484.5" y="157.292">main_func(...)</text><text fill="#000000" font-family="sans-serif" font-size="14" lengthAdjust="spacing" textLength="86" x="484.5" y="173.5889">republish(...)</text></g><!--class app--><g id="elem_app"><rect codeLine="25" fill="#F1F1F1" height="56.2656" id="app" rx="2.5" ry="2.5" style="stroke:#181818;stroke-width:0.5;" width="173" x="653.5" y="380"/><ellipse cx="668.5" cy="400.1328" fill="#ADD1B2" rx="11" ry="11" style="stroke:#181818;stroke-width:1.0;"/><path d="M671.4688,405.7734 Q670.8906,406.0703 670.25,406.2109 Q669.6094,406.3672 668.9063,406.3672 Q666.4063,406.3672 665.0781,404.7266 Q663.7656,403.0703 663.7656,399.9453 Q663.7656,396.8203 665.0781,395.1641 Q666.4063,393.5078 668.9063,393.5078 Q669.6094,393.5078 670.25,393.6641 Q670.9063,393.8203 671.4688,394.1172 L671.4688,396.8359 Q670.8438,396.2578 670.25,395.9922 Q669.6563,395.7109 669.0313,395.7109 Q667.6875,395.7109 667,396.7891 Q666.3125,397.8516 666.3125,399.9453 Q666.3125,402.0391 667,403.1172 Q667.6875,404.1797 669.0313,404.1797 Q669.6563,404.1797 670.25,403.9141 Q670.8438,403.6328 671.4688,403.0547 L671.4688,405.7734 Z " fill="#000000"/><text fill="#000000" font-family="sans-serif" font-size="12" font-style="italic" lengthAdjust="spacing" textLength="145" x="680.5" y="396.1387">«function return value»</text><text fill="#000000" font-family="sans-serif" font-size="14" lengthAdjust="spacing" textLength="26" x="740" y="411.9639">app</text><line style="stroke:#181818;stroke-width:0.5;" x1="654.5" x2="825.5" y1="420.2656" y2="420.2656"/><line style="stroke:#181818;stroke-width:0.5;" x1="654.5" x2="825.5" y1="428.2656" y2="428.2656"/></g><!--class ActivityAPI--><g id="elem_ActivityAPI"><rect codeLine="32" fill="#F1F1F1" height="48" id="ActivityAPI" rx="2.5" ry="2.5" style="stroke:#181818;stroke-width:0.5;" width="100" x="690" y="570"/><ellipse cx="705" cy="586" fill="#ADD1B2" rx="11" ry="11" style="stroke:#181818;stroke-width:1.0;"/><path d="M707.9688,591.6406 Q707.3906,591.9375 706.75,592.0781 Q706.1094,592.2344 705.4063,592.2344 Q702.9063,592.2344 701.5781,590.5938 Q700.2656,588.9375 700.2656,585.8125 Q700.2656,582.6875 701.5781,581.0313 Q702.9063,579.375 705.4063,579.375 Q706.1094,579.375 706.75,579.5313 Q707.4063,579.6875 707.9688,579.9844 L707.9688,582.7031 Q707.3438,582.125 706.75,581.8594 Q706.1563,581.5781 705.5313,581.5781 Q704.1875,581.5781 703.5,582.6563 Q702.8125,583.7188 702.8125,585.8125 Q702.8125,587.9063 703.5,588.9844 Q704.1875,590.0469 705.5313,590.0469 Q706.1563,590.0469 706.75,589.7813 Q707.3438,589.5 707.9688,588.9219 L707.9688,591.6406 Z " fill="#000000"/><text fill="#000000" font-family="sans-serif" font-size="14" lengthAdjust="spacing" textLength="68" x="719" y="590.8467">ActivityAPI</text><line style="stroke:#181818;stroke-width:0.5;" x1="691" x2="789" y1="602" y2="602"/><line style="stroke:#181818;stroke-width:0.5;" x1="691" x2="789" y1="610" y2="610"/></g><!--class ActivityCommand--><g id="elem_ActivityCommand"><rect codeLine="39" fill="#F1F1F1" height="113.1875" id="ActivityCommand" rx="2.5" ry="2.5" style="stroke:#181818;stroke-width:0.5;" width="150" x="445" y="892"/><ellipse cx="460" cy="908" fill="#ADD1B2" rx="11" ry="11" style="stroke:#181818;stroke-width:1.0;"/><path d="M462.9688,913.6406 Q462.3906,913.9375 461.75,914.0781 Q461.1094,914.2344 460.4063,914.2344 Q457.9063,914.2344 456.5781,912.5938 Q455.2656,910.9375 455.2656,907.8125 Q455.2656,904.6875 456.5781,903.0313 Q457.9063,901.375 460.4063,901.375 Q461.1094,901.375 461.75,901.5313 Q462.4063,901.6875 462.9688,901.9844 L462.9688,904.7031 Q462.3438,904.125 461.75,903.8594 Q461.1563,903.5781 460.5313,903.5781 Q459.1875,903.5781 458.5,904.6563 Q457.8125,905.7188 457.8125,907.8125 Q457.8125,909.9063 458.5,910.9844 Q459.1875,912.0469 460.5313,912.0469 Q461.1563,912.0469 461.75,911.7813 Q462.3438,911.5 462.9688,910.9219 L462.9688,913.6406 Z " fill="#000000"/><text fill="#000000" font-family="sans-serif" font-size="14" lengthAdjust="spacing" textLength="118" x="474" y="912.8467">ActivityCommand</text><line style="stroke:#181818;stroke-width:0.5;" x1="446" x2="594" y1="924" y2="924"/><text fill="#000000" font-family="sans-serif" font-size="14" lengthAdjust="spacing" textLength="72" x="451" y="940.9951">sbd_id: str</text><text fill="#000000" font-family="sans-serif" font-size="14" lengthAdjust="spacing" textLength="119" x="451" y="957.292">activity_name: str</text><text fill="#000000" font-family="sans-serif" font-size="14" lengthAdjust="spacing" textLength="128" x="451" y="973.5889">prepare_only: bool</text><text fill="#000000" font-family="sans-serif" font-size="14" lengthAdjust="spacing" textLength="121" x="451" y="989.8857">arg_override: Dict</text><line style="stroke:#181818;stroke-width:0.5;" x1="446" x2="594" y1="997.1875" y2="997.1875"/></g><!--class ActivityService--><g id="elem_ActivityService"><rect codeLine="46" fill="#F1F1F1" height="80.5938" id="ActivityService" rx="2.5" ry="2.5" style="stroke:#181818;stroke-width:0.5;" width="338" x="166" y="725"/><ellipse cx="282.25" cy="741" fill="#ADD1B2" rx="11" ry="11" style="stroke:#181818;stroke-width:1.0;"/><path d="M285.2188,746.6406 Q284.6406,746.9375 284,747.0781 Q283.3594,747.2344 282.6563,747.2344 Q280.1563,747.2344 278.8281,745.5938 Q277.5156,743.9375 277.5156,740.8125 Q277.5156,737.6875 278.8281,736.0313 Q280.1563,734.375 282.6563,734.375 Q283.3594,734.375 284,734.5313 Q284.6563,734.6875 285.2188,734.9844 L285.2188,737.7031 Q284.5938,737.125 284,736.8594 Q283.4063,736.5781 282.7813,736.5781 Q281.4375,736.5781 280.75,737.6563 Q280.0625,738.7188 280.0625,740.8125 Q280.0625,742.9063 280.75,743.9844 Q281.4375,745.0469 282.7813,745.0469 Q283.4063,745.0469 284,744.7813 Q284.5938,744.5 285.2188,743.9219 L285.2188,746.6406 Z " fill="#000000"/><text fill="#000000" font-family="sans-serif" font-size="14" lengthAdjust="spacing" textLength="97" x="302.75" y="745.8467">ActivityService</text><line style="stroke:#181818;stroke-width:0.5;" x1="167" x2="503" y1="757" y2="757"/><text fill="#000000" font-family="sans-serif" font-size="14" lengthAdjust="spacing" textLength="199" x="172" y="773.9951">history: List[ActivitySummary]</text><line style="stroke:#181818;stroke-width:0.5;" x1="167" x2="503" y1="781.2969" y2="781.2969"/><text fill="#000000" font-family="sans-serif" font-size="14" lengthAdjust="spacing" textLength="326" x="172" y="798.292">run(cmd: ActivityCommand) -&gt; ActivitySummary</text></g><!--class ActivitySummary--><g id="elem_ActivitySummary"><rect codeLine="51" fill="#F1F1F1" height="162.0781" id="ActivitySummary" rx="2.5" ry="2.5" style="stroke:#181818;stroke-width:0.5;" width="324" x="86" y="867.5"/><ellipse cx="188.25" cy="883.5" fill="#ADD1B2" rx="11" ry="11" style="stroke:#181818;stroke-width:1.0;"/><path d="M191.2188,889.1406 Q190.6406,889.4375 190,889.5781 Q189.3594,889.7344 188.6563,889.7344 Q186.1563,889.7344 184.8281,888.0938 Q183.5156,886.4375 183.5156,883.3125 Q183.5156,880.1875 184.8281,878.5313 Q186.1563,876.875 188.6563,876.875 Q189.3594,876.875 190,877.0313 Q190.6563,877.1875 191.2188,877.4844 L191.2188,880.2031 Q190.5938,879.625 190,879.3594 Q189.4063,879.0781 188.7813,879.0781 Q187.4375,879.0781 186.75,880.1563 Q186.0625,881.2188 186.0625,883.3125 Q186.0625,885.4063 186.75,886.4844 Q187.4375,887.5469 188.7813,887.5469 Q189.4063,887.5469 190,887.2813 Q190.5938,887 191.2188,886.4219 L191.2188,889.1406 Z " fill="#000000"/><text fill="#000000" font-family="sans-serif" font-size="14" lengthAdjust="spacing" textLength="111" x="208.75" y="888.3467">ActivitySummary</text><line style="stroke:#181818;stroke-width:0.5;" x1="87" x2="409" y1="899.5" y2="899.5"/><text fill="#000000" font-family="sans-serif" font-size="14" lengthAdjust="spacing" textLength="91" x="92" y="916.4951">activity_id: int</text><text fill="#000000" font-family="sans-serif" font-size="14" lengthAdjust="spacing" textLength="117" x="92" y="932.792">procedure_id: int</text><text fill="#000000" font-family="sans-serif" font-size="14" lengthAdjust="spacing" textLength="72" x="92" y="949.0889">sbd_id: str</text><text fill="#000000" font-family="sans-serif" font-size="14" lengthAdjust="spacing" textLength="119" x="92" y="965.3857">activity_name: str</text><text fill="#000000" font-family="sans-serif" font-size="14" lengthAdjust="spacing" textLength="128" x="92" y="981.6826">prepare_only: bool</text><text fill="#000000" font-family="sans-serif" font-size="14" lengthAdjust="spacing" textLength="205" x="92" y="997.9795">arg_override: List[ArgCapture]</text><line style="stroke:#181818;stroke-width:0.5;" x1="87" x2="409" y1="1005.2813" y2="1005.2813"/><text fill="#000000" font-family="sans-serif" font-size="14" lengthAdjust="spacing" textLength="312" x="92" y="1022.2764">activity_states: List[(ActivityState, timestamp)]</text></g><!--class ActivityState--><g id="elem_ActivityState"><rect codeLine="64" fill="#F1F1F1" height="64.2969" id="ActivityState" rx="2.5" ry="2.5" style="stroke:#181818;stroke-width:0.5;" width="115" x="710.5" y="916.5"/><ellipse cx="725.5" cy="932.5" fill="#EB937F" rx="11" ry="11" style="stroke:#181818;stroke-width:1.0;"/><path d="M729.6094,938.5 L721.8906,938.5 L721.8906,926.1094 L729.6094,926.1094 L729.6094,928.2656 L724.3438,928.2656 L724.3438,930.9375 L729.1094,930.9375 L729.1094,933.0938 L724.3438,933.0938 L724.3438,936.3438 L729.6094,936.3438 L729.6094,938.5 Z " fill="#000000"/><text fill="#000000" font-family="sans-serif" font-size="14" lengthAdjust="spacing" textLength="83" x="739.5" y="937.3467">ActivityState</text><line style="stroke:#181818;stroke-width:0.5;" x1="711.5" x2="824.5" y1="948.5" y2="948.5"/><text fill="#000000" font-family="sans-serif" font-size="14" lengthAdjust="spacing" textLength="87" x="716.5" y="965.4951">REQUESTED</text><line style="stroke:#181818;stroke-width:0.5;" x1="711.5" x2="824.5" y1="972.7969" y2="972.7969"/></g><!--class ArgCapture--><g id="elem_ArgCapture"><rect codeLine="76" fill="#F1F1F1" height="96.8906" id="ArgCapture" rx="2.5" ry="2.5" style="stroke:#181818;stroke-width:0.5;" width="233" x="945.5" y="900"/><ellipse cx="1018.75" cy="916" fill="#ADD1B2" rx="11" ry="11" style="stroke:#181818;stroke-width:1.0;"/><path d="M1021.7188,921.6406 Q1021.1406,921.9375 1020.5,922.0781 Q1019.8594,922.2344 1019.1563,922.2344 Q1016.6563,922.2344 1015.3281,920.5938 Q1014.0156,918.9375 1014.0156,915.8125 Q1014.0156,912.6875 1015.3281,911.0313 Q1016.6563,909.375 1019.1563,909.375 Q1019.8594,909.375 1020.5,909.5313 Q1021.1563,909.6875 1021.7188,909.9844 L1021.7188,912.7031 Q1021.0938,912.125 1020.5,911.8594 Q1019.9063,911.5781 1019.2813,911.5781 Q1017.9375,911.5781 1017.25,912.6563 Q1016.5625,913.7188 1016.5625,915.8125 Q1016.5625,917.9063 1017.25,918.9844 Q1017.9375,920.0469 1019.2813,920.0469 Q1019.9063,920.0469 1020.5,919.7813 Q1021.0938,919.5 1021.7188,918.9219 L1021.7188,921.6406 Z " fill="#000000"/><text fill="#000000" font-family="sans-serif" font-size="14" lengthAdjust="spacing" textLength="78" x="1039.25" y="920.8467">ArgCapture</text><line style="stroke:#181818;stroke-width:0.5;" x1="946.5" x2="1177.5" y1="932" y2="932"/><text fill="#000000" font-family="sans-serif" font-size="14" lengthAdjust="spacing" textLength="40" x="951.5" y="948.9951">fn: str</text><text fill="#000000" font-family="sans-serif" font-size="14" lengthAdjust="spacing" textLength="221" x="951.5" y="965.292">fn_args: domain.ProcedureInput</text><text fill="#000000" font-family="sans-serif" font-size="14" lengthAdjust="spacing" textLength="68" x="951.5" y="981.5889">time: float</text><line style="stroke:#181818;stroke-width:0.5;" x1="946.5" x2="1177.5" y1="988.8906" y2="988.8906"/></g><!--class Flask--><g id="elem_Flask"><rect codeLine="88" fill="#F1F1F1" height="48" id="Flask" rx="2.5" ry="2.5" style="stroke:#181818;stroke-width:0.5;" width="67" x="1288.5" y="384"/><ellipse cx="1303.5" cy="400" fill="#ADD1B2" rx="11" ry="11" style="stroke:#181818;stroke-width:1.0;"/><path d="M1306.4688,405.6406 Q1305.8906,405.9375 1305.25,406.0781 Q1304.6094,406.2344 1303.9063,406.2344 Q1301.4063,406.2344 1300.0781,404.5938 Q1298.7656,402.9375 1298.7656,399.8125 Q1298.7656,396.6875 1300.0781,395.0313 Q1301.4063,393.375 1303.9063,393.375 Q1304.6094,393.375 1305.25,393.5313 Q1305.9063,393.6875 1306.4688,393.9844 L1306.4688,396.7031 Q1305.8438,396.125 1305.25,395.8594 Q1304.6563,395.5781 1304.0313,395.5781 Q1302.6875,395.5781 1302,396.6563 Q1301.3125,397.7188 1301.3125,399.8125 Q1301.3125,401.9063 1302,402.9844 Q1302.6875,404.0469 1304.0313,404.0469 Q1304.6563,404.0469 1305.25,403.7813 Q1305.8438,403.5 1306.4688,402.9219 L1306.4688,405.6406 Z " fill="#000000"/><text fill="#000000" font-family="sans-serif" font-size="14" lengthAdjust="spacing" textLength="35" x="1317.5" y="404.8467">Flask</text><line style="stroke:#181818;stroke-width:0.5;" x1="1289.5" x2="1354.5" y1="416" y2="416"/><line style="stroke:#181818;stroke-width:0.5;" x1="1289.5" x2="1354.5" y1="424" y2="424"/></g><!--class Blueprint--><g id="elem_Blueprint"><rect codeLine="89" fill="#F1F1F1" height="48" id="Blueprint" rx="2.5" ry="2.5" style="stroke:#181818;stroke-width:0.5;" width="94" x="1282" y="570"/><ellipse cx="1297" cy="586" fill="#ADD1B2" rx="11" ry="11" style="stroke:#181818;stroke-width:1.0;"/><path d="M1299.9688,591.6406 Q1299.3906,591.9375 1298.75,592.0781 Q1298.1094,592.2344 1297.4063,592.2344 Q1294.9063,592.2344 1293.5781,590.5938 Q1292.2656,588.9375 1292.2656,585.8125 Q1292.2656,582.6875 1293.5781,581.0313 Q1294.9063,579.375 1297.4063,579.375 Q1298.1094,579.375 1298.75,579.5313 Q1299.4063,579.6875 1299.9688,579.9844 L1299.9688,582.7031 Q1299.3438,582.125 1298.75,581.8594 Q1298.1563,581.5781 1297.5313,581.5781 Q1296.1875,581.5781 1295.5,582.6563 Q1294.8125,583.7188 1294.8125,585.8125 Q1294.8125,587.9063 1295.5,588.9844 Q1296.1875,590.0469 1297.5313,590.0469 Q1298.1563,590.0469 1298.75,589.7813 Q1299.3438,589.5 1299.9688,588.9219 L1299.9688,591.6406 Z " fill="#000000"/><text fill="#000000" font-family="sans-serif" font-size="14" lengthAdjust="spacing" textLength="62" x="1311" y="590.8467">Blueprint</text><line style="stroke:#181818;stroke-width:0.5;" x1="1283" x2="1375" y1="602" y2="602"/><line style="stroke:#181818;stroke-width:0.5;" x1="1283" x2="1375" y1="610" y2="610"/></g><!--reverse link EventBusWorker to ActivityWorker--><g id="link_EventBusWorker_ActivityWorker"><path codeLine="19" d="M516.41,199.22 C508.56,213.71 500.6,228.41 493.91,240.77 " fill="none" id="EventBusWorker-backto-ActivityWorker" style="stroke:#181818;stroke-width:1.0;"/><polygon fill="none" points="510.51,195.42,526.19,181.16,522.82,202.08,510.51,195.42" style="stroke:#181818;stroke-width:1.0;"/></g><!--reverse link EventBusWorker to FlaskWorker--><g id="link_EventBusWorker_FlaskWorker"><path codeLine="20" d="M590.48,198.5 C601.14,216.49 612.02,234.88 620.24,248.75 " fill="none" id="EventBusWorker-backto-FlaskWorker" style="stroke:#181818;stroke-width:1.0;"/><polygon fill="none" points="584.39,201.94,580.22,181.16,596.43,194.81,584.39,201.94" style="stroke:#181818;stroke-width:1.0;"/></g><!--reverse link app to ActivityAPI--><g id="link_app_ActivityAPI"><path codeLine="34" d="M740,449.41 C740,486.33 740,539.62 740,569.82 " fill="none" id="app-backto-ActivityAPI" style="stroke:#181818;stroke-width:1.0;"/><polygon fill="none" points="740,436.15,736,442.15,740,448.15,744,442.15,740,436.15" style="stroke:#181818;stroke-width:1.0;"/></g><!--reverse link FlaskWorker to app--><g id="link_FlaskWorker_app"><path codeLine="69" d="M660.75,307.57 C678.61,329.98 701.79,359.06 718.46,379.98 " fill="none" id="FlaskWorker-backto-app" style="stroke:#181818;stroke-width:1.0;"/><polygon fill="#181818" points="652.46,297.17,653.0736,304.3549,659.9418,306.552,659.3283,299.3671,652.46,297.17" style="stroke:#181818;stroke-width:1.0;"/></g><!--reverse link ActivityWorker to ActivityService--><g id="link_ActivityWorker_ActivityService"><path codeLine="70" d="M464.32,317.78 C436.96,412.32 372.69,634.3 346.46,724.92 " fill="none" id="ActivityWorker-backto-ActivityService" style="stroke:#181818;stroke-width:1.0;"/><polygon fill="#181818" points="468.01,305.06,462.4994,309.7112,464.6733,316.5868,470.1839,311.9356,468.01,305.06" style="stroke:#181818;stroke-width:1.0;"/></g><!--reverse link ArgCapture to ActivitySummary--><g id="link_ArgCapture_ActivitySummary"><path codeLine="82" d="M992.85,887.44 C948.27,853.65 887.09,817.06 824.5,810 C782.54,805.27 486.46,805.27 444.5,810 C436.57,810.89 434.24,810.64 427,814 C397.03,827.91 367.23,847.41 340.79,867.26 " fill="none" id="ArgCapture-backto-ActivitySummary" style="stroke:#181818;stroke-width:1.0;"/><polygon fill="none" points="997.38,882.1,1008.79,899.95,988.74,893.11,997.38,882.1" style="stroke:#181818;stroke-width:1.0;"/></g><!--link Flask to Blueprint--><!--link app to Flask--><g id="link_app_Flask"><path codeLine="94" d="M826.67,408 C973.74,408 1120.8,408 1267.86,408 " fill="none" id="app-to-Flask" style="stroke:#181818;stroke-width:1.0;"/><polygon fill="none" points="1268.14,401,1288.14,408,1268.14,415,1268.14,401" style="stroke:#181818;stroke-width:1.0;"/></g><!--link ActivityAPI to Blueprint--><g id="link_ActivityAPI_Blueprint"><path codeLine="95" d="M790.04,594 C947.27,594 1104.49,594 1261.72,594 " fill="none" id="ActivityAPI-to-Blueprint" style="stroke:#181818;stroke-width:1.0;"/><polygon fill="none" points="1261.89,587,1281.89,594,1261.89,601,1261.89,587" style="stroke:#181818;stroke-width:1.0;"/></g><!--link activity_ui to application--><!--link application to activity_domain--><!--link ActivitySummary to ActivityCommand--><!--link ActivityService to ActivitySummary--><!--SRC=[lLNBZjiW5Dtp5Umo6TN9FXf5caSgZTJ5TAPL5wF88ZPsK30W7gcYDlzUi1qROvnEDsKHnN2uzznp7ypsMWkrMYu5HKoRYYuoNYqpYfHASe9AYIe01CeEgCHG7L3A5Kyvrl0N0D2kor6528DtTwyuquYL5A_N5uHRjJrudsbo9FhqWyi3blOSUaiQThDOBERTvZcy_jd-7fgxuT7cY9b-C2fgsL5BAUTYQByxAWpBnaSI2xEZHEqdMGNX94OalzS1bGxiaR-2F0z5DUHlaY8XBCH5e0bdbhGsai4ZegQ1zxGZvb4RW6_MSurKXqWZJ7onXlczVtaE7BlbgF8a6Q36VYsAaWpLqKp6FdRvoAiAiJoWvPRQvId9Lr1fEJhhmcEemd68i7M094uvewSLt75EnrPacV8ZbfBariWJoVG0Shx6-mtB8ybmXFUUACsbzVd5_ddlyCR6AK_R4TorJrRPE0D5vZ1Pm-3sFz1hBaJeTT8vRGdJ4U5uXdDZfPj2_E_CD4BAyX49soLuE-rKQQInQc_ST6AutKzGamfRG2NcsoaXp-Ewpdaz8VsUQhUkzHLcfe83_v5Kl6w-Vj-yVTiy1NGYRFmfT6jxqNRRr3YxzLgrhTBO3EdI71iYVT1zDNmWwhO6kqn5OYvOl2WAbjgaszGrRXOl5x_FJ9Xn2RfShc11ETAJueNwN7eYeRZGRextH46hqBb_CWkdU1k0zunvtmzsLWlf6WHqAO99pd-ozpt9SyosYOUnfjqWTNuRGzuuhNSzS_xq3WnwOnRu8pU43MiLW5cTl27A3XZVt4pQzb2sOjnBvpJw452ISZz0riA1sU3T3Dts1i0eEqE3uLW4uG0E0WydvXy0]--></g></svg>