<?xml version="1.0" encoding="UTF-8" standalone="no"?><svg xmlns="http://www.w3.org/2000/svg" xmlns:xlink="http://www.w3.org/1999/xlink" contentScriptType="application/ecmascript" contentStyleType="text/css" height="1556px" preserveAspectRatio="none" style="width:1268px;height:1556px;" version="1.1" viewBox="0 0 1268 1556" width="1268px" zoomAndPan="magnify"><defs><filter height="300%" id="fr1fwmntuld48" width="300%" x="-1" y="-1"><feGaussianBlur result="blurOut" stdDeviation="2.0"/><feColorMatrix in="blurOut" result="blurOut2" type="matrix" values="0 0 0 0 0 0 0 0 0 0 0 0 0 0 0 0 0 0 .4 0"/><feOffset dx="4.0" dy="4.0" in="blurOut2" result="blurOut3"/><feBlend in="SourceGraphic" in2="blurOut3" mode="normal"/></filter></defs><g><!--MD5=[013f5ae47667252d65790964a7603222]
cluster ska_oso_oet--><polygon fill="#FFFFFF" filter="url(#fr1fwmntuld48)" points="14,16,116,16,123,38.2969,1246,38.2969,1246,1444,14,1444,14,16" style="stroke: #000000; stroke-width: 1.5;"/><line style="stroke: #000000; stroke-width: 1.5;" x1="14" x2="123" y1="38.2969" y2="38.2969"/><text fill="#000000" font-family="sans-serif" font-size="14" font-weight="bold" lengthAdjust="spacingAndGlyphs" textLength="96" x="18" y="30.9951">ska_oso_oet</text><!--MD5=[5237f998f19e09220ae26f82b025f45a]
cluster mptools--><rect fill="#FFFFFF" filter="url(#fr1fwmntuld48)" height="106" style="stroke: #000000; stroke-width: 1.5;" width="272" x="936" y="248"/><text fill="#000000" font-family="sans-serif" font-size="14" font-weight="bold" lengthAdjust="spacingAndGlyphs" textLength="63" x="1040.5" y="262.9951">mptools</text><!--MD5=[a70b0d373322012744ecc119c63f921b]
cluster main--><rect fill="#FFFFFF" filter="url(#fr1fwmntuld48)" height="533" style="stroke: #000000; stroke-width: 1.5;" width="532" x="396" y="43"/><text fill="#000000" font-family="sans-serif" font-size="14" font-weight="bold" lengthAdjust="spacingAndGlyphs" textLength="37" x="643.5" y="57.9951">main</text><!--MD5=[d5ac3844f66b12d9e08170e47495e096]
cluster app--><rect fill="#FFFFFF" filter="url(#fr1fwmntuld48)" height="416" style="stroke: #000000; stroke-width: 1.5;" width="373" x="865" y="704"/><text fill="#000000" font-family="sans-serif" font-size="14" font-weight="bold" lengthAdjust="spacingAndGlyphs" textLength="29" x="1037" y="718.9951">app</text><!--MD5=[c52b0ba8ff4254a5e89298d845ed8822]
cluster procedure--><polygon fill="#FFFFFF" filter="url(#fr1fwmntuld48)" points="22,669,111,669,118,691.2969,462,691.2969,462,1436,22,1436,22,669" style="stroke: #000000; stroke-width: 1.5;"/><line style="stroke: #000000; stroke-width: 1.5;" x1="22" x2="118" y1="691.2969" y2="691.2969"/><text fill="#000000" font-family="sans-serif" font-size="14" font-weight="bold" lengthAdjust="spacingAndGlyphs" textLength="83" x="26" y="683.9951">procedure</text><!--MD5=[879f781903a78f2a7bd3ee11bed0cd11]
cluster procedure.application--><rect fill="#FFFFFF" filter="url(#fr1fwmntuld48)" height="732" style="stroke: #000000; stroke-width: 1.5;" width="268" x="186" y="696"/><text fill="#000000" font-family="sans-serif" font-size="14" font-weight="bold" lengthAdjust="spacingAndGlyphs" textLength="173" x="233.5" y="710.9951">procedure.application</text><!--MD5=[6a366f9a1367cc12b2bc220c484cae60]
cluster procedure.application.api--><rect fill="#FFFFFF" filter="url(#fr1fwmntuld48)" height="83" style="stroke: #000000; stroke-width: 1.5;" width="217" x="229" y="1337"/><text fill="#000000" font-family="sans-serif" font-size="14" font-weight="bold" lengthAdjust="spacingAndGlyphs" textLength="201" x="237" y="1351.9951">procedure.application.api</text><!--MD5=[efca47b6bc4d9eeb993729faf280a8b0]
cluster procedure.application.service--><rect fill="#FFFFFF" filter="url(#fr1fwmntuld48)" height="83" style="stroke: #000000; stroke-width: 1.5;" width="252" x="194" y="723"/><text fill="#000000" font-family="sans-serif" font-size="14" font-weight="bold" lengthAdjust="spacingAndGlyphs" textLength="236" x="202" y="737.9951">procedure.application.service</text><!--MD5=[5bfbddd16792521063e0ff2cfd5b35e8]
cluster activity--><polygon fill="#FFFFFF" filter="url(#fr1fwmntuld48)" points="470,669,532,669,539,691.2969,857,691.2969,857,1436,470,1436,470,669" style="stroke: #000000; stroke-width: 1.5;"/><line style="stroke: #000000; stroke-width: 1.5;" x1="470" x2="539" y1="691.2969" y2="691.2969"/><text fill="#000000" font-family="sans-serif" font-size="14" font-weight="bold" lengthAdjust="spacingAndGlyphs" textLength="56" x="474" y="683.9951">activity</text><!--MD5=[bb724f3d5f1e8fe0d53456d34d6b0496]
cluster activity.application--><rect fill="#FFFFFF" filter="url(#fr1fwmntuld48)" height="732" style="stroke: #000000; stroke-width: 1.5;" width="241" x="608" y="696"/><text fill="#000000" font-family="sans-serif" font-size="14" font-weight="bold" lengthAdjust="spacingAndGlyphs" textLength="146" x="655.5" y="710.9951">activity.application</text><!--MD5=[e91bcf010b25ad2aeb81ecc1122c0729]
cluster activity.application.api--><polygon fill="#FFFFFF" filter="url(#fr1fwmntuld48)" points="651,1337,831,1337,838,1359.2969,841,1359.2969,841,1420,651,1420,651,1337" style="stroke: #000000; stroke-width: 1.5;"/><line style="stroke: #000000; stroke-width: 1.5;" x1="651" x2="838" y1="1359.2969" y2="1359.2969"/><text fill="#000000" font-family="sans-serif" font-size="14" font-weight="bold" lengthAdjust="spacingAndGlyphs" textLength="174" x="655" y="1351.9951">activity.application.api</text><!--MD5=[0e0e1b91e4321c5f9c4f8c94f35dd113]
cluster activity.application.service--><polygon fill="#FFFFFF" filter="url(#fr1fwmntuld48)" points="616,723,831,723,838,745.2969,841,745.2969,841,806,616,806,616,723" style="stroke: #000000; stroke-width: 1.5;"/><line style="stroke: #000000; stroke-width: 1.5;" x1="616" x2="838" y1="745.2969" y2="745.2969"/><text fill="#000000" font-family="sans-serif" font-size="14" font-weight="bold" lengthAdjust="spacingAndGlyphs" textLength="209" x="620" y="737.9951">activity.application.service</text><!--MD5=[71c2ab1c1c8272e025db689c64a870a2]
cluster flask--><polygon fill="#FFFFFF" filter="url(#fr1fwmntuld48)" points="816,1461,859,1461,866,1483.2969,1019,1483.2969,1019,1544,816,1544,816,1461" style="stroke: #000000; stroke-width: 1.5;"/><line style="stroke: #000000; stroke-width: 1.5;" x1="816" x2="866" y1="1483.2969" y2="1483.2969"/><text fill="#000000" font-family="sans-serif" font-size="14" font-weight="bold" lengthAdjust="spacingAndGlyphs" textLength="37" x="820" y="1475.9951">flask</text><path d="M943.5,275 L943.5,345.5313 L1164.5,345.5313 L1164.5,285 L1154.5,275 L943.5,275 " fill="#FBFB77" filter="url(#fr1fwmntuld48)" style="stroke: #A80036; stroke-width: 1.0;"/><path d="M1154.5,275 L1154.5,285 L1164.5,285 L1154.5,275 " fill="#FBFB77" style="stroke: #A80036; stroke-width: 1.0;"/><text fill="#000000" font-family="sans-serif" font-size="13" lengthAdjust="spacingAndGlyphs" textLength="200" x="949.5" y="292.0669">See the ScriptExecutionService</text><text fill="#000000" font-family="sans-serif" font-size="13" lengthAdjust="spacingAndGlyphs" textLength="183" x="949.5" y="307.1997">view for more information on</text><text fill="#000000" font-family="sans-serif" font-size="13" lengthAdjust="spacingAndGlyphs" textLength="21" x="949.5" y="322.3325">the</text><text fill="#000000" font-family="monospace" font-size="13" lengthAdjust="spacingAndGlyphs" textLength="56" x="974.5" y="322.3325">mptools</text><text fill="#000000" font-family="sans-serif" font-size="13" lengthAdjust="spacingAndGlyphs" textLength="95" x="1034.5" y="322.3325">module and its</text><text fill="#000000" font-family="sans-serif" font-size="13" lengthAdjust="spacingAndGlyphs" textLength="60" x="949.5" y="337.4653">contents.</text><!--MD5=[33f72e11af6101778dcafb71668d1add]
class ScriptExecutionServiceWorker--><rect fill="#FEFECE" filter="url(#fr1fwmntuld48)" height="99.2188" id="ScriptExecutionServiceWorker" style="stroke: #A80036; stroke-width: 1.5;" width="218" x="404" y="469"/><ellipse cx="419" cy="485" fill="#ADD1B2" rx="11" ry="11" style="stroke: #A80036; stroke-width: 1.0;"/><path d="M421.9688,490.6406 Q421.3906,490.9375 420.75,491.0781 Q420.1094,491.2344 419.4063,491.2344 Q416.9063,491.2344 415.5781,489.5938 Q414.2656,487.9375 414.2656,484.8125 Q414.2656,481.6875 415.5781,480.0313 Q416.9063,478.375 419.4063,478.375 Q420.1094,478.375 420.75,478.5313 Q421.4063,478.6875 421.9688,478.9844 L421.9688,481.7031 Q421.3438,481.125 420.75,480.8594 Q420.1563,480.5781 419.5313,480.5781 Q418.1875,480.5781 417.5,481.6563 Q416.8125,482.7188 416.8125,484.8125 Q416.8125,486.9063 417.5,487.9844 Q418.1875,489.0469 419.5313,489.0469 Q420.1563,489.0469 420.75,488.7813 Q421.3438,488.5 421.9688,487.9219 L421.9688,490.6406 Z "/><text fill="#000000" font-family="sans-serif" font-size="12" lengthAdjust="spacingAndGlyphs" textLength="186" x="433" y="489.1543">ScriptExecutionServiceWorker</text><line style="stroke: #A80036; stroke-width: 1.5;" x1="405" x2="621" y1="501" y2="501"/><line style="stroke: #A80036; stroke-width: 1.5;" x1="405" x2="621" y1="509" y2="509"/><text fill="#000000" font-family="sans-serif" font-size="11" lengthAdjust="spacingAndGlyphs" textLength="65" x="410" y="523.2104">prepare(...)</text><text fill="#000000" font-family="sans-serif" font-size="11" lengthAdjust="spacingAndGlyphs" textLength="47" x="410" y="536.0151">start(...)</text><text fill="#000000" font-family="sans-serif" font-size="11" lengthAdjust="spacingAndGlyphs" textLength="45" x="410" y="548.8198">stop(...)</text><text fill="#000000" font-family="sans-serif" font-size="11" lengthAdjust="spacingAndGlyphs" textLength="37" x="410" y="561.6245">list(...)</text><!--MD5=[b57936688dd02f834049b5feb8e1c3e8]
class ActivityWorker--><rect fill="#FEFECE" filter="url(#fr1fwmntuld48)" height="73.6094" id="ActivityWorker" style="stroke: #A80036; stroke-width: 1.5;" width="119" x="657.5" y="481.5"/><ellipse cx="672.5" cy="497.5" fill="#ADD1B2" rx="11" ry="11" style="stroke: #A80036; stroke-width: 1.0;"/><path d="M675.4688,503.1406 Q674.8906,503.4375 674.25,503.5781 Q673.6094,503.7344 672.9063,503.7344 Q670.4063,503.7344 669.0781,502.0938 Q667.7656,500.4375 667.7656,497.3125 Q667.7656,494.1875 669.0781,492.5313 Q670.4063,490.875 672.9063,490.875 Q673.6094,490.875 674.25,491.0313 Q674.9063,491.1875 675.4688,491.4844 L675.4688,494.2031 Q674.8438,493.625 674.25,493.3594 Q673.6563,493.0781 673.0313,493.0781 Q671.6875,493.0781 671,494.1563 Q670.3125,495.2188 670.3125,497.3125 Q670.3125,499.4063 671,500.4844 Q671.6875,501.5469 673.0313,501.5469 Q673.6563,501.5469 674.25,501.2813 Q674.8438,501 675.4688,500.4219 L675.4688,503.1406 Z "/><text fill="#000000" font-family="sans-serif" font-size="12" lengthAdjust="spacingAndGlyphs" textLength="87" x="686.5" y="501.6543">ActivityWorker</text><line style="stroke: #A80036; stroke-width: 1.5;" x1="658.5" x2="775.5" y1="513.5" y2="513.5"/><line style="stroke: #A80036; stroke-width: 1.5;" x1="658.5" x2="775.5" y1="521.5" y2="521.5"/><text fill="#000000" font-family="sans-serif" font-size="11" lengthAdjust="spacingAndGlyphs" textLength="39" x="663.5" y="535.7104">run(...)</text><text fill="#000000" font-family="sans-serif" font-size="11" lengthAdjust="spacingAndGlyphs" textLength="37" x="663.5" y="548.5151">list(...)</text><!--MD5=[17238aaf72f47361d520c29dfe37cd7f]
class FlaskWorker--><rect fill="#FEFECE" filter="url(#fr1fwmntuld48)" height="48" id="FlaskWorker" style="stroke: #A80036; stroke-width: 1.5;" width="108" x="812" y="494.5"/><ellipse cx="827" cy="510.5" fill="#ADD1B2" rx="11" ry="11" style="stroke: #A80036; stroke-width: 1.0;"/><path d="M829.9688,516.1406 Q829.3906,516.4375 828.75,516.5781 Q828.1094,516.7344 827.4063,516.7344 Q824.9063,516.7344 823.5781,515.0938 Q822.2656,513.4375 822.2656,510.3125 Q822.2656,507.1875 823.5781,505.5313 Q824.9063,503.875 827.4063,503.875 Q828.1094,503.875 828.75,504.0313 Q829.4063,504.1875 829.9688,504.4844 L829.9688,507.2031 Q829.3438,506.625 828.75,506.3594 Q828.1563,506.0781 827.5313,506.0781 Q826.1875,506.0781 825.5,507.1563 Q824.8125,508.2188 824.8125,510.3125 Q824.8125,512.4063 825.5,513.4844 Q826.1875,514.5469 827.5313,514.5469 Q828.1563,514.5469 828.75,514.2813 Q829.3438,514 829.9688,513.4219 L829.9688,516.1406 Z "/><text fill="#000000" font-family="sans-serif" font-size="12" lengthAdjust="spacingAndGlyphs" textLength="76" x="841" y="514.6543">FlaskWorker</text><line style="stroke: #A80036; stroke-width: 1.5;" x1="813" x2="919" y1="526.5" y2="526.5"/><line style="stroke: #A80036; stroke-width: 1.5;" x1="813" x2="919" y1="534.5" y2="534.5"/><!--MD5=[182a5f28d356566e59ae05a80103f461]
class EventBusWorker--><rect fill="#FEFECE" filter="url(#fr1fwmntuld48)" height="60.8047" id="EventBusWorker" style="stroke: #A80036; stroke-width: 1.5;" width="134" x="718" y="70"/><ellipse cx="733" cy="86" fill="#ADD1B2" rx="11" ry="11" style="stroke: #A80036; stroke-width: 1.0;"/><path d="M735.9688,91.6406 Q735.3906,91.9375 734.75,92.0781 Q734.1094,92.2344 733.4063,92.2344 Q730.9063,92.2344 729.5781,90.5938 Q728.2656,88.9375 728.2656,85.8125 Q728.2656,82.6875 729.5781,81.0313 Q730.9063,79.375 733.4063,79.375 Q734.1094,79.375 734.75,79.5313 Q735.4063,79.6875 735.9688,79.9844 L735.9688,82.7031 Q735.3438,82.125 734.75,81.8594 Q734.1563,81.5781 733.5313,81.5781 Q732.1875,81.5781 731.5,82.6563 Q730.8125,83.7188 730.8125,85.8125 Q730.8125,87.9063 731.5,88.9844 Q732.1875,90.0469 733.5313,90.0469 Q734.1563,90.0469 734.75,89.7813 Q735.3438,89.5 735.9688,88.9219 L735.9688,91.6406 Z "/><text fill="#000000" font-family="sans-serif" font-size="12" lengthAdjust="spacingAndGlyphs" textLength="102" x="747" y="90.1543">EventBusWorker</text><line style="stroke: #A80036; stroke-width: 1.5;" x1="719" x2="851" y1="102" y2="102"/><line style="stroke: #A80036; stroke-width: 1.5;" x1="719" x2="851" y1="110" y2="110"/><text fill="#000000" font-family="sans-serif" font-size="11" lengthAdjust="spacingAndGlyphs" textLength="73" x="724" y="124.2104">republish(...)</text><!--MD5=[b8ceac0fa80782f074a52cffc9c838e7]
class main_func--><rect fill="#FEFECE" filter="url(#fr1fwmntuld48)" height="53.9375" id="main_func" style="stroke: #A80036; stroke-width: 1.5;" width="95" x="511.5" y="73.5"/><ellipse cx="526.5" cy="92.4688" fill="#ADD1B2" rx="11" ry="11" style="stroke: #A80036; stroke-width: 1.0;"/><path d="M529.4688,98.1094 Q528.8906,98.4063 528.25,98.5469 Q527.6094,98.7031 526.9063,98.7031 Q524.4063,98.7031 523.0781,97.0625 Q521.7656,95.4063 521.7656,92.2813 Q521.7656,89.1563 523.0781,87.5 Q524.4063,85.8438 526.9063,85.8438 Q527.6094,85.8438 528.25,86 Q528.9063,86.1563 529.4688,86.4531 L529.4688,89.1719 Q528.8438,88.5938 528.25,88.3281 Q527.6563,88.0469 527.0313,88.0469 Q525.6875,88.0469 525,89.125 Q524.3125,90.1875 524.3125,92.2813 Q524.3125,94.375 525,95.4531 Q525.6875,96.5156 527.0313,96.5156 Q527.6563,96.5156 528.25,96.25 Q528.8438,95.9688 529.4688,95.3906 L529.4688,98.1094 Z "/><text fill="#000000" font-family="sans-serif" font-size="12" font-style="italic" lengthAdjust="spacingAndGlyphs" textLength="65" x="539.5" y="89.6387">«function»</text><text fill="#000000" font-family="sans-serif" font-size="12" lengthAdjust="spacingAndGlyphs" textLength="63" x="540.5" y="103.6074">main_func</text><line style="stroke: #A80036; stroke-width: 1.5;" x1="512.5" x2="605.5" y1="111.4375" y2="111.4375"/><line style="stroke: #A80036; stroke-width: 1.5;" x1="512.5" x2="605.5" y1="119.4375" y2="119.4375"/><!--MD5=[ca6a82bc40cebf8d03f527c80d8d0ada]
class create_app--><rect fill="#FEFECE" filter="url(#fr1fwmntuld48)" height="53.9375" id="create_app" style="stroke: #A80036; stroke-width: 1.5;" width="103" x="873.5" y="747"/><ellipse cx="888.5" cy="765.9688" fill="#ADD1B2" rx="11" ry="11" style="stroke: #A80036; stroke-width: 1.0;"/><path d="M891.4688,771.6094 Q890.8906,771.9063 890.25,772.0469 Q889.6094,772.2031 888.9063,772.2031 Q886.4063,772.2031 885.0781,770.5625 Q883.7656,768.9063 883.7656,765.7813 Q883.7656,762.6563 885.0781,761 Q886.4063,759.3438 888.9063,759.3438 Q889.6094,759.3438 890.25,759.5 Q890.9063,759.6563 891.4688,759.9531 L891.4688,762.6719 Q890.8438,762.0938 890.25,761.8281 Q889.6563,761.5469 889.0313,761.5469 Q887.6875,761.5469 887,762.625 Q886.3125,763.6875 886.3125,765.7813 Q886.3125,767.875 887,768.9531 Q887.6875,770.0156 889.0313,770.0156 Q889.6563,770.0156 890.25,769.75 Q890.8438,769.4688 891.4688,768.8906 L891.4688,771.6094 Z "/><text fill="#000000" font-family="sans-serif" font-size="12" font-style="italic" lengthAdjust="spacingAndGlyphs" textLength="65" x="905.5" y="763.1387">«function»</text><text fill="#000000" font-family="sans-serif" font-size="12" lengthAdjust="spacingAndGlyphs" textLength="71" x="902.5" y="777.1074">create_app</text><line style="stroke: #A80036; stroke-width: 1.5;" x1="874.5" x2="975.5" y1="784.9375" y2="784.9375"/><line style="stroke: #A80036; stroke-width: 1.5;" x1="874.5" x2="975.5" y1="792.9375" y2="792.9375"/><!--MD5=[f507219cd4d5c3951ae035b8bcad56fb]
class ServerSentEventsAPI--><rect fill="#FEFECE" filter="url(#fr1fwmntuld48)" height="48" id="ServerSentEventsAPI" style="stroke: #A80036; stroke-width: 1.5;" width="162" x="873" y="1064"/><ellipse cx="888" cy="1080" fill="#ADD1B2" rx="11" ry="11" style="stroke: #A80036; stroke-width: 1.0;"/><path d="M890.9688,1085.6406 Q890.3906,1085.9375 889.75,1086.0781 Q889.1094,1086.2344 888.4063,1086.2344 Q885.9063,1086.2344 884.5781,1084.5938 Q883.2656,1082.9375 883.2656,1079.8125 Q883.2656,1076.6875 884.5781,1075.0313 Q885.9063,1073.375 888.4063,1073.375 Q889.1094,1073.375 889.75,1073.5313 Q890.4063,1073.6875 890.9688,1073.9844 L890.9688,1076.7031 Q890.3438,1076.125 889.75,1075.8594 Q889.1563,1075.5781 888.5313,1075.5781 Q887.1875,1075.5781 886.5,1076.6563 Q885.8125,1077.7188 885.8125,1079.8125 Q885.8125,1081.9063 886.5,1082.9844 Q887.1875,1084.0469 888.5313,1084.0469 Q889.1563,1084.0469 889.75,1083.7813 Q890.3438,1083.5 890.9688,1082.9219 L890.9688,1085.6406 Z "/><text fill="#000000" font-family="sans-serif" font-size="12" lengthAdjust="spacingAndGlyphs" textLength="130" x="902" y="1084.1543">ServerSentEventsAPI</text><line style="stroke: #A80036; stroke-width: 1.5;" x1="874" x2="1034" y1="1096" y2="1096"/><line style="stroke: #A80036; stroke-width: 1.5;" x1="874" x2="1034" y1="1104" y2="1104"/><path d="M1012,731 L1012,770 L976.6797,774 L1012,778 L1012,816.6641 A0,0 0 0 0 1012,816.6641 L1230,816.6641 A0,0 0 0 0 1230,816.6641 L1230,741 L1220,731 L1012,731 A0,0 0 0 0 1012,731 " fill="#FBFB77" filter="url(#fr1fwmntuld48)" style="stroke: #A80036; stroke-width: 1.0;"/><path d="M1220,731 L1220,741 L1230,741 L1220,731 " fill="#FBFB77" style="stroke: #A80036; stroke-width: 1.0;"/><text fill="#000000" font-family="sans-serif" font-size="13" lengthAdjust="spacingAndGlyphs" textLength="149" x="1018" y="748.0669">create_app function will</text><text fill="#000000" font-family="sans-serif" font-size="13" lengthAdjust="spacingAndGlyphs" textLength="162" x="1018" y="763.1997">create a Flask application</text><text fill="#000000" font-family="sans-serif" font-size="13" lengthAdjust="spacingAndGlyphs" textLength="197" x="1018" y="778.3325">using ProcedureAPI, ActivityAPI</text><text fill="#000000" font-family="sans-serif" font-size="13" lengthAdjust="spacingAndGlyphs" textLength="163" x="1018" y="793.4653">and ServerSentEventsAPI</text><text fill="#000000" font-family="sans-serif" font-size="13" lengthAdjust="spacingAndGlyphs" textLength="67" x="1018" y="808.5981">blueprints.</text><!--MD5=[4ce79c04fa80ffb9cb46cd8e2bbde25d]
class ProcedureAPI--><rect fill="#FEFECE" filter="url(#fr1fwmntuld48)" height="48" id="ProcedureAPI" style="stroke: #A80036; stroke-width: 1.5;" width="116" x="287" y="1364"/><ellipse cx="302" cy="1380" fill="#ADD1B2" rx="11" ry="11" style="stroke: #A80036; stroke-width: 1.0;"/><path d="M304.9688,1385.6406 Q304.3906,1385.9375 303.75,1386.0781 Q303.1094,1386.2344 302.4063,1386.2344 Q299.9063,1386.2344 298.5781,1384.5938 Q297.2656,1382.9375 297.2656,1379.8125 Q297.2656,1376.6875 298.5781,1375.0313 Q299.9063,1373.375 302.4063,1373.375 Q303.1094,1373.375 303.75,1373.5313 Q304.4063,1373.6875 304.9688,1373.9844 L304.9688,1376.7031 Q304.3438,1376.125 303.75,1375.8594 Q303.1563,1375.5781 302.5313,1375.5781 Q301.1875,1375.5781 300.5,1376.6563 Q299.8125,1377.7188 299.8125,1379.8125 Q299.8125,1381.9063 300.5,1382.9844 Q301.1875,1384.0469 302.5313,1384.0469 Q303.1563,1384.0469 303.75,1383.7813 Q304.3438,1383.5 304.9688,1382.9219 L304.9688,1385.6406 Z "/><text fill="#000000" font-family="sans-serif" font-size="12" lengthAdjust="spacingAndGlyphs" textLength="84" x="316" y="1384.1543">ProcedureAPI</text><line style="stroke: #A80036; stroke-width: 1.5;" x1="288" x2="402" y1="1396" y2="1396"/><line style="stroke: #A80036; stroke-width: 1.5;" x1="288" x2="402" y1="1404" y2="1404"/><!--MD5=[4048a361f681e6f68b2b7284d5ce3ea6]
class ScriptExecutionService--><rect fill="#FEFECE" filter="url(#fr1fwmntuld48)" height="48" id="ScriptExecutionService" style="stroke: #A80036; stroke-width: 1.5;" width="174" x="229" y="750"/><ellipse cx="244" cy="766" fill="#ADD1B2" rx="11" ry="11" style="stroke: #A80036; stroke-width: 1.0;"/><path d="M246.9688,771.6406 Q246.3906,771.9375 245.75,772.0781 Q245.1094,772.2344 244.4063,772.2344 Q241.9063,772.2344 240.5781,770.5938 Q239.2656,768.9375 239.2656,765.8125 Q239.2656,762.6875 240.5781,761.0313 Q241.9063,759.375 244.4063,759.375 Q245.1094,759.375 245.75,759.5313 Q246.4063,759.6875 246.9688,759.9844 L246.9688,762.7031 Q246.3438,762.125 245.75,761.8594 Q245.1563,761.5781 244.5313,761.5781 Q243.1875,761.5781 242.5,762.6563 Q241.8125,763.7188 241.8125,765.8125 Q241.8125,767.9063 242.5,768.9844 Q243.1875,770.0469 244.5313,770.0469 Q245.1563,770.0469 245.75,769.7813 Q246.3438,769.5 246.9688,768.9219 L246.9688,771.6406 Z "/><text fill="#000000" font-family="sans-serif" font-size="12" lengthAdjust="spacingAndGlyphs" textLength="142" x="258" y="770.1543">ScriptExecutionService</text><line style="stroke: #A80036; stroke-width: 1.5;" x1="230" x2="402" y1="782" y2="782"/><line style="stroke: #A80036; stroke-width: 1.5;" x1="230" x2="402" y1="790" y2="790"/><!--MD5=[e7d8196e07918ae0bfe9845dd523f856]
entity procedure.domain--><rect fill="#FFFFFF" filter="url(#fr1fwmntuld48)" height="36.2969" style="stroke: #000000; stroke-width: 1.5;" width="147" x="30.5" y="756"/><text fill="#000000" font-family="sans-serif" font-size="14" lengthAdjust="spacingAndGlyphs" textLength="127" x="40.5" y="778.9951">procedure.domain</text><!--MD5=[8e7df3b3c6caa2b5fda68bf0406e2b4f]
class ActivityAPI--><rect fill="#FEFECE" filter="url(#fr1fwmntuld48)" height="48" id="ActivityAPI" style="stroke: #A80036; stroke-width: 1.5;" width="94" x="704" y="1364"/><ellipse cx="719" cy="1380" fill="#ADD1B2" rx="11" ry="11" style="stroke: #A80036; stroke-width: 1.0;"/><path d="M721.9688,1385.6406 Q721.3906,1385.9375 720.75,1386.0781 Q720.1094,1386.2344 719.4063,1386.2344 Q716.9063,1386.2344 715.5781,1384.5938 Q714.2656,1382.9375 714.2656,1379.8125 Q714.2656,1376.6875 715.5781,1375.0313 Q716.9063,1373.375 719.4063,1373.375 Q720.1094,1373.375 720.75,1373.5313 Q721.4063,1373.6875 721.9688,1373.9844 L721.9688,1376.7031 Q721.3438,1376.125 720.75,1375.8594 Q720.1563,1375.5781 719.5313,1375.5781 Q718.1875,1375.5781 717.5,1376.6563 Q716.8125,1377.7188 716.8125,1379.8125 Q716.8125,1381.9063 717.5,1382.9844 Q718.1875,1384.0469 719.5313,1384.0469 Q720.1563,1384.0469 720.75,1383.7813 Q721.3438,1383.5 721.9688,1382.9219 L721.9688,1385.6406 Z "/><text fill="#000000" font-family="sans-serif" font-size="12" lengthAdjust="spacingAndGlyphs" textLength="62" x="733" y="1384.1543">ActivityAPI</text><line style="stroke: #A80036; stroke-width: 1.5;" x1="705" x2="797" y1="1396" y2="1396"/><line style="stroke: #A80036; stroke-width: 1.5;" x1="705" x2="797" y1="1404" y2="1404"/><!--MD5=[15ee56ae12769c5f2e72f0b218579190]
class ActivityService--><rect fill="#FEFECE" filter="url(#fr1fwmntuld48)" height="48" id="ActivityService" style="stroke: #A80036; stroke-width: 1.5;" width="120" x="657" y="750"/><ellipse cx="672" cy="766" fill="#ADD1B2" rx="11" ry="11" style="stroke: #A80036; stroke-width: 1.0;"/><path d="M674.9688,771.6406 Q674.3906,771.9375 673.75,772.0781 Q673.1094,772.2344 672.4063,772.2344 Q669.9063,772.2344 668.5781,770.5938 Q667.2656,768.9375 667.2656,765.8125 Q667.2656,762.6875 668.5781,761.0313 Q669.9063,759.375 672.4063,759.375 Q673.1094,759.375 673.75,759.5313 Q674.4063,759.6875 674.9688,759.9844 L674.9688,762.7031 Q674.3438,762.125 673.75,761.8594 Q673.1563,761.5781 672.5313,761.5781 Q671.1875,761.5781 670.5,762.6563 Q669.8125,763.7188 669.8125,765.8125 Q669.8125,767.9063 670.5,768.9844 Q671.1875,770.0469 672.5313,770.0469 Q673.1563,770.0469 673.75,769.7813 Q674.3438,769.5 674.9688,768.9219 L674.9688,771.6406 Z "/><text fill="#000000" font-family="sans-serif" font-size="12" lengthAdjust="spacingAndGlyphs" textLength="88" x="686" y="770.1543">ActivityService</text><line style="stroke: #A80036; stroke-width: 1.5;" x1="658" x2="776" y1="782" y2="782"/><line style="stroke: #A80036; stroke-width: 1.5;" x1="658" x2="776" y1="790" y2="790"/><!--MD5=[0c03983d3823168c70d44b6b75ad3be3]
entity activity.domain--><rect fill="#FFFFFF" filter="url(#fr1fwmntuld48)" height="36.2969" style="stroke: #000000; stroke-width: 1.5;" width="121" x="478.5" y="756"/><text fill="#000000" font-family="sans-serif" font-size="14" lengthAdjust="spacingAndGlyphs" textLength="101" x="488.5" y="778.9951">activity.domain</text><!--MD5=[56dc9bd079fa0794426dfac01e4747ad]
class Flask--><rect fill="#FEFECE" filter="url(#fr1fwmntuld48)" height="48" id="Flask" style="stroke: #A80036; stroke-width: 1.5;" width="64" x="947" y="1488"/><ellipse cx="962" cy="1504" fill="#ADD1B2" rx="11" ry="11" style="stroke: #A80036; stroke-width: 1.0;"/><path d="M964.9688,1509.6406 Q964.3906,1509.9375 963.75,1510.0781 Q963.1094,1510.2344 962.4063,1510.2344 Q959.9063,1510.2344 958.5781,1508.5938 Q957.2656,1506.9375 957.2656,1503.8125 Q957.2656,1500.6875 958.5781,1499.0313 Q959.9063,1497.375 962.4063,1497.375 Q963.1094,1497.375 963.75,1497.5313 Q964.4063,1497.6875 964.9688,1497.9844 L964.9688,1500.7031 Q964.3438,1500.125 963.75,1499.8594 Q963.1563,1499.5781 962.5313,1499.5781 Q961.1875,1499.5781 960.5,1500.6563 Q959.8125,1501.7188 959.8125,1503.8125 Q959.8125,1505.9063 960.5,1506.9844 Q961.1875,1508.0469 962.5313,1508.0469 Q963.1563,1508.0469 963.75,1507.7813 Q964.3438,1507.5 964.9688,1506.9219 L964.9688,1509.6406 Z "/><text fill="#000000" font-family="sans-serif" font-size="12" lengthAdjust="spacingAndGlyphs" textLength="32" x="976" y="1508.1543">Flask</text><line style="stroke: #A80036; stroke-width: 1.5;" x1="948" x2="1010" y1="1520" y2="1520"/><line style="stroke: #A80036; stroke-width: 1.5;" x1="948" x2="1010" y1="1528" y2="1528"/><!--MD5=[687b898a26107f91307f914974ba425d]
class Blueprint--><rect fill="#FEFECE" filter="url(#fr1fwmntuld48)" height="48" id="Blueprint" style="stroke: #A80036; stroke-width: 1.5;" width="88" x="824" y="1488"/><ellipse cx="839" cy="1504" fill="#ADD1B2" rx="11" ry="11" style="stroke: #A80036; stroke-width: 1.0;"/><path d="M841.9688,1509.6406 Q841.3906,1509.9375 840.75,1510.0781 Q840.1094,1510.2344 839.4063,1510.2344 Q836.9063,1510.2344 835.5781,1508.5938 Q834.2656,1506.9375 834.2656,1503.8125 Q834.2656,1500.6875 835.5781,1499.0313 Q836.9063,1497.375 839.4063,1497.375 Q840.1094,1497.375 840.75,1497.5313 Q841.4063,1497.6875 841.9688,1497.9844 L841.9688,1500.7031 Q841.3438,1500.125 840.75,1499.8594 Q840.1563,1499.5781 839.5313,1499.5781 Q838.1875,1499.5781 837.5,1500.6563 Q836.8125,1501.7188 836.8125,1503.8125 Q836.8125,1505.9063 837.5,1506.9844 Q838.1875,1508.0469 839.5313,1508.0469 Q840.1563,1508.0469 840.75,1507.7813 Q841.3438,1507.5 841.9688,1506.9219 L841.9688,1509.6406 Z "/><text fill="#000000" font-family="sans-serif" font-size="12" lengthAdjust="spacingAndGlyphs" textLength="56" x="853" y="1508.1543">Blueprint</text><line style="stroke: #A80036; stroke-width: 1.5;" x1="825" x2="911" y1="1520" y2="1520"/><line style="stroke: #A80036; stroke-width: 1.5;" x1="825" x2="911" y1="1528" y2="1528"/><!--MD5=[2808396a93fd8872cd1a3c3690659d6a]
reverse link EventBusWorker to ScriptExecutionServiceWorker--><path d="M698.3998,116.3287 C653.9382,129.9886 609,155.0396 609,200.5 C609,200.5 609,200.5 609,407.5 C609,430.8126 596.736,451.6407 580.9748,468.782 " fill="none" id="EventBusWorker&lt;-ScriptExecutionServiceWorker" style="stroke: #A80036; stroke-width: 1.0;"/><polygon fill="none" points="696.822,109.5032,717.9599,110.9835,700.5125,123.0081,696.822,109.5032" style="stroke: #A80036; stroke-width: 1.0;"/><!--MD5=[23aba4bc0d158aad32e01ce5d079dae1]
reverse link EventBusWorker to FlaskWorker--><path d="M814.9481,148.7929 C822.2462,164.6721 828,182.803 828,200.5 C828,200.5 828,200.5 828,407.5 C828,438.6643 841.5733,472.2259 852.4956,494.1877 " fill="none" id="EventBusWorker&lt;-FlaskWorker" style="stroke: #A80036; stroke-width: 1.0;"/><polygon fill="none" points="808.7328,152.0131,805.7443,131.0353,821.1625,145.5708,808.7328,152.0131" style="stroke: #A80036; stroke-width: 1.0;"/><!--MD5=[41dc59b21b446ce9253699f860855aeb]
reverse link EventBusWorker to ActivityWorker--><path d="M755.0519,148.7929 C747.7538,164.6721 742,182.803 742,200.5 C742,200.5 742,200.5 742,407.5 C742,432.587 735.8473,460.1011 729.6465,481.46 " fill="none" id="EventBusWorker&lt;-ActivityWorker" style="stroke: #A80036; stroke-width: 1.0;"/><polygon fill="none" points="748.8375,145.5708,764.2557,131.0353,761.2672,152.0131,748.8375,145.5708" style="stroke: #A80036; stroke-width: 1.0;"/><!--MD5=[721b00a1839458ce8d9252232ac3da6d]
reverse link FlaskWorker to create_app--><path d="M874.5202,555.3966 C886.5077,607.3089 908.0744,700.7034 918.7139,746.7781 " fill="none" id="FlaskWorker&lt;-create_app" style="stroke: #A80036; stroke-width: 1.0;"/><polygon fill="#A80036" points="871.5506,542.5368,869.0032,549.283,874.2507,554.2291,876.7981,547.4829,871.5506,542.5368" style="stroke: #A80036; stroke-width: 1.0;"/><!--MD5=[640230681217722b70e4344c1111c0bc]
link ScriptExecutionServiceWorker to ScriptExecutionService--><path d="M474.7828,568.0659 C434.0262,620.9254 370.896,702.8024 337.8545,745.6557 " fill="none" id="ScriptExecutionServiceWorker-&gt;ScriptExecutionService" style="stroke: #A80036; stroke-width: 1.0;"/><polygon fill="#A80036" points="334.7526,749.6787,343.4157,744.9936,337.8056,745.719,337.0802,740.1088,334.7526,749.6787" style="stroke: #A80036; stroke-width: 1.0;"/><!--MD5=[13c1bd68d2b0aee5a572e2ec8090692f]
link ActivityWorker to ActivityService--><path d="M717,555.6519 C717,606.8264 717,697.9621 717,744.6527 " fill="none" id="ActivityWorker-&gt;ActivityService" style="stroke: #A80036; stroke-width: 1.0;"/><polygon fill="#A80036" points="717,749.8481,721,740.8481,717,744.8481,713,740.8481,717,749.8481" style="stroke: #A80036; stroke-width: 1.0;"/><!--MD5=[027343c5ece8ce44fb2ca4550687439a]
link create_app to Flask--><path d="M969.1101,801.0385 C1017.3833,830.8074 1088,874.9599 1088,878.5 C1088,878.5 1088,878.5 1088,1388 C1088,1427.2947 1056.7405,1460.0643 1027.7018,1482.0283 " fill="none" id="create_app-&gt;Flask" style="stroke: #A80036; stroke-width: 1.0;"/><polygon fill="none" points="1031.5037,1487.9121,1011.1141,1493.6794,1023.4569,1476.4557,1031.5037,1487.9121" style="stroke: #A80036; stroke-width: 1.0;"/><!--MD5=[843e1ad0ff8513da99296763a4f7d610]
link ServerSentEventsAPI to Blueprint--><path d="M939.2374,1112.1183 C930.4509,1128.7481 921,1151.7019 921,1173.5 C921,1173.5 921,1173.5 921,1388 C921,1417.0434 908.5542,1447.057 895.7248,1470.2804 " fill="none" id="ServerSentEventsAPI-&gt;Blueprint" style="stroke: #A80036; stroke-width: 1.0;"/><polygon fill="none" points="901.6137,1474.0723,885.3542,1487.6602,889.5914,1466.8985,901.6137,1474.0723" style="stroke: #A80036; stroke-width: 1.0;"/><!--MD5=[dea3d14b7ab0be75006bbcc6baf5ea14]
link ActivityAPI to Blueprint--><path d="M773.8365,1412.2028 C790.1841,1429.5285 812.5401,1453.222 831.3666,1473.1749 " fill="none" id="ActivityAPI-&gt;Blueprint" style="stroke: #A80036; stroke-width: 1.0;"/><polygon fill="none" points="836.5868,1468.5075,845.2211,1487.8582,826.4041,1478.1154,836.5868,1468.5075" style="stroke: #A80036; stroke-width: 1.0;"/><!--MD5=[6223b881f1b87262f92596ed38b8c6aa]
link ProcedureAPI to Blueprint--><path d="M370.7785,1412.253 C384.4051,1423.7034 402.009,1436.4782 420,1444 C488.0584,1472.4543 696.8267,1495.712 803.6197,1506.1165 " fill="none" id="ProcedureAPI-&gt;Blueprint" style="stroke: #A80036; stroke-width: 1.0;"/><polygon fill="none" points="804.6114,1499.1793,823.8537,1508.0526,803.2778,1513.1157,804.6114,1499.1793" style="stroke: #A80036; stroke-width: 1.0;"/><!--MD5=[72bbabe51077bbba87c7933a1735c5c3]
link EventBusWorker to mptools--><path d="M852.05,107.0152 C896.1435,113.0948 956.6948,124.6871 1017.1908,146.5864 C1047.4388,157.5361 1077.673,171.0625 1105.8293,187.765 C1119.9074,196.1163 1133.466,205.2615 1146.2471,215.2757 C1152.6377,220.2828 1158.8339,225.5071 1164.8035,230.9581 C1167.7882,233.6835 1170.7164,236.4656 1173.5838,239.3056 C1175.0175,240.7255 1176.4361,242.16 1177.8389,243.609 C1178.5404,244.3335 1179.2379,245.0617 1179.9314,245.7935 C1180.2782,246.1594 1180.6239,246.5262 1180.9687,246.894 " fill="none" id="EventBusWorker-mptools" style="stroke: #A80036; stroke-width: 1.0; stroke-dasharray: 1.0,3.0;"/><text fill="#000000" font-family="sans-serif" font-size="13" lengthAdjust="spacingAndGlyphs" textLength="30" x="1138" y="205.0669">uses</text><!--MD5=[6459838cede94b1fd55b774a7addb52f]
link procedure.application.service to procedure.application.api--><!--MD5=[b16030726aa42492e27418f8fa35d0a6]
link activity.application.service to activity.application.api--><!--MD5=[f5a00dd37dd57eae4175fefcbf354b0b]
link create_app to ServerSentEventsAPI--><!--MD5=[0d8f35793373d68bb8aa88c94fc339ab]
@startuml

package ska_oso_oet {

    package mptools <<Rectangle>> {
        note as mptools_note
        See the ScriptExecutionService
        view for more information on
        the ""mptools"" module and its
        contents.
        end note
    }

    package main <<Rectangle>> {

        class ScriptExecutionServiceWorker {
            prepare(...)
            start(...)
            stop(...)
            list(...)
        }

        class ActivityWorker {
            run(...)
            list(...)
        }

        class FlaskWorker {
        }

        class EventBusWorker {
            republish(...)
        }

        class main_func <<function>>

        ScriptExecutionServiceWorker -up-|> EventBusWorker
        FlaskWorker -up-|> EventBusWorker
        ActivityWorker -up-|> EventBusWorker
    }

    package app <<Rectangle>> {
        class create_app <<function>>
        class ServerSentEventsAPI

        note as app_note
        create_app function will
        create a Flask application
        using ProcedureAPI, ActivityAPI
        and ServerSentEventsAPI
        blueprints.
        end note

        app_note -left- create_app
    }

    FlaskWorker *- - create_app

    package procedure {

        package procedure.application <<Rectangle>> {

            package procedure.application.api <<Rectangle>> {
                class ProcedureAPI
            }

            package procedure.application.service <<Rectangle>> {
                class ScriptExecutionService
            }
        }

        package procedure.domain <<Rectangle>> {
        }
        ScriptExecutionServiceWorker - -> ScriptExecutionService

    }

    package activity {
        package activity.application <<Rectangle>> {
            package activity.application.api {
                class ActivityAPI
            }

            package activity.application.service {
                class ActivityService
            }
        }

        package activity.domain <<Rectangle>> {

        }
        ActivityWorker - -> ActivityService
    }
}

package flask {
    class Flask
    class Blueprint
}

create_app -|> Flask
ServerSentEventsAPI - -|> Blueprint
ActivityAPI - -|> Blueprint
ProcedureAPI - -|> Blueprint

EventBusWorker -[dotted]- mptools: uses

procedure.application.service -down[hidden]- procedure.application.api
activity.application.service -down[hidden]- activity.application.api
create_app -down[hidden]- ServerSentEventsAPI

@enduml

PlantUML version 1.2020.06(Sun Apr 05 12:38:32 GMT 2020)
(GPL source distribution)
Java Runtime: OpenJDK Runtime Environment
JVM: OpenJDK 64-Bit Server VM
Java Version: 14-ea+33
Operating System: Linux
Default Encoding: UTF-8
Language: en
Country: US
--></g></svg>