<?xml version="1.0" encoding="UTF-8" standalone="no"?><svg xmlns="http://www.w3.org/2000/svg" xmlns:xlink="http://www.w3.org/1999/xlink" contentStyleType="text/css" height="796px" preserveAspectRatio="none" style="width:1252px;height:796px;background:#FFFFFF;" version="1.1" viewBox="0 0 1252 796" width="1252px" zoomAndPan="magnify"><defs/><g><!--cluster ska_oso_oet--><g id="cluster_ska_oso_oet"><path d="M8.5,6 L105.5,6 A3.75,3.75 0 0 1 108,8.5 L115,28.2969 L1242.5,28.2969 A2.5,2.5 0 0 1 1245,30.7969 L1245,786.5 A2.5,2.5 0 0 1 1242.5,789 L8.5,789 A2.5,2.5 0 0 1 6,786.5 L6,8.5 A2.5,2.5 0 0 1 8.5,6 " fill="none" style="stroke:#000000;stroke-width:1.5;"/><line style="stroke:#000000;stroke-width:1.5;" x1="6" x2="115" y1="28.2969" y2="28.2969"/><text fill="#000000" font-family="sans-serif" font-size="14" font-weight="bold" lengthAdjust="spacing" textLength="96" x="10" y="20.9951">ska_oso_oet</text></g><!--cluster mptools--><g id="cluster_mptools"><path d="M927.5,219 L991.5,219 A3.75,3.75 0 0 1 994,221.5 L1001,241.2969 L1210.5,241.2969 A2.5,2.5 0 0 1 1213,243.7969 L1213,354.5 A2.5,2.5 0 0 1 1210.5,357 L927.5,357 A2.5,2.5 0 0 1 925,354.5 L925,221.5 A2.5,2.5 0 0 1 927.5,219 " fill="none" style="stroke:#000000;stroke-width:1.5;"/><line style="stroke:#000000;stroke-width:1.5;" x1="925" x2="1001" y1="241.2969" y2="241.2969"/><text fill="#000000" font-family="sans-serif" font-size="14" font-weight="bold" lengthAdjust="spacing" textLength="63" x="929" y="233.9951">mptools</text></g><!--cluster main--><g id="cluster_main"><rect fill="none" height="321" rx="2.5" ry="2.5" style="stroke:#181818;stroke-width:1.0;" width="600" x="293" y="49"/><text fill="#000000" font-family="sans-serif" font-size="14" font-weight="bold" lengthAdjust="spacing" textLength="37" x="574.5" y="63.9951">main</text></g><!--cluster ui--><g id="cluster_ui"><rect fill="none" height="274.5" rx="2.5" ry="2.5" style="stroke:#181818;stroke-width:1.0;" width="395" x="826" y="450.5"/><text fill="#000000" font-family="sans-serif" font-size="14" font-weight="bold" lengthAdjust="spacing" textLength="14" x="1016.5" y="465.4951">ui</text></g><!--cluster procedure--><g id="cluster_procedure"><path d="M32.5,403 L116.5,403 A3.75,3.75 0 0 1 119,405.5 L126,425.2969 L431.5,425.2969 A2.5,2.5 0 0 1 434,427.7969 L434,762.5 A2.5,2.5 0 0 1 431.5,765 L32.5,765 A2.5,2.5 0 0 1 30,762.5 L30,405.5 A2.5,2.5 0 0 1 32.5,403 " fill="none" style="stroke:#000000;stroke-width:1.5;"/><line style="stroke:#000000;stroke-width:1.5;" x1="30" x2="126" y1="425.2969" y2="425.2969"/><text fill="#000000" font-family="sans-serif" font-size="14" font-weight="bold" lengthAdjust="spacing" textLength="83" x="34" y="417.9951">procedure</text></g><!--cluster procedure_ui--><g id="cluster_procedure_ui"><rect fill="none" height="115" rx="2.5" ry="2.5" style="stroke:#181818;stroke-width:1.0;" width="193" x="145" y="618"/><text fill="#000000" font-family="sans-serif" font-size="14" font-weight="bold" lengthAdjust="spacing" textLength="14" x="234.5" y="632.9951">ui</text></g><!--cluster procedure_application--><g id="cluster_procedure_application"><rect fill="none" height="115" rx="2.5" ry="2.5" style="stroke:#181818;stroke-width:1.0;" width="257" x="145" y="454"/><text fill="#000000" font-family="sans-serif" font-size="14" font-weight="bold" lengthAdjust="spacing" textLength="85" x="231" y="468.9951">application</text></g><!--cluster activity--><g id="cluster_activity"><path d="M460.5,403 L517.5,403 A3.75,3.75 0 0 1 520,405.5 L527,425.2969 L799.5,425.2969 A2.5,2.5 0 0 1 802,427.7969 L802,762.5 A2.5,2.5 0 0 1 799.5,765 L460.5,765 A2.5,2.5 0 0 1 458,762.5 L458,405.5 A2.5,2.5 0 0 1 460.5,403 " fill="none" style="stroke:#000000;stroke-width:1.5;"/><line style="stroke:#000000;stroke-width:1.5;" x1="458" x2="527" y1="425.2969" y2="425.2969"/><text fill="#000000" font-family="sans-serif" font-size="14" font-weight="bold" lengthAdjust="spacing" textLength="56" x="462" y="417.9951">activity</text></g><!--cluster activity_ui--><g id="cluster_activity_ui"><rect fill="none" height="115" rx="2.5" ry="2.5" style="stroke:#181818;stroke-width:1.0;" width="167" x="573" y="618"/><text fill="#000000" font-family="sans-serif" font-size="14" font-weight="bold" lengthAdjust="spacing" textLength="14" x="649.5" y="632.9951">ui</text></g><!--cluster activity_application--><g id="cluster_activity_application"><rect fill="none" height="115" rx="2.5" ry="2.5" style="stroke:#181818;stroke-width:1.0;" width="197" x="573" y="454"/><text fill="#000000" font-family="sans-serif" font-size="14" font-weight="bold" lengthAdjust="spacing" textLength="85" x="629" y="468.9951">application</text></g><g id="elem_mptools_note"><path d="M968.5,262 L968.5,332.5313 L1189.5,332.5313 L1189.5,272 L1179.5,262 L968.5,262 " fill="#FEFFDD" style="stroke:#181818;stroke-width:0.5;"/><path d="M1179.5,262 L1179.5,272 L1189.5,272 L1179.5,262 " fill="#FEFFDD" style="stroke:#181818;stroke-width:1.0;"/><text fill="#000000" font-family="sans-serif" font-size="13" lengthAdjust="spacing" textLength="200" x="974.5" y="279.0669">See the ScriptExecutionService</text><text fill="#000000" font-family="sans-serif" font-size="13" lengthAdjust="spacing" textLength="183" x="974.5" y="294.1997">view for more information on</text><text fill="#000000" font-family="sans-serif" font-size="13" lengthAdjust="spacing" textLength="21" x="974.5" y="309.3325">the</text><text fill="#000000" font-family="monospace" font-size="13" lengthAdjust="spacing" textLength="56" x="999.5" y="309.3325">mptools</text><text fill="#000000" font-family="sans-serif" font-size="13" lengthAdjust="spacing" textLength="95" x="1059.5" y="309.3325">module and its</text><text fill="#000000" font-family="sans-serif" font-size="13" lengthAdjust="spacing" textLength="60" x="974.5" y="324.4653">contents.</text></g><!--class ScriptExecutionServiceWorker--><g id="elem_ScriptExecutionServiceWorker"><rect codeLine="15" fill="#F1F1F1" height="113.1875" id="ScriptExecutionServiceWorker" rx="2.5" ry="2.5" style="stroke:#181818;stroke-width:0.5;" width="238" x="309" y="241"/><ellipse cx="324" cy="257" fill="#ADD1B2" rx="11" ry="11" style="stroke:#181818;stroke-width:1.0;"/><path d="M326.9688,262.6406 Q326.3906,262.9375 325.75,263.0781 Q325.1094,263.2344 324.4063,263.2344 Q321.9063,263.2344 320.5781,261.5938 Q319.2656,259.9375 319.2656,256.8125 Q319.2656,253.6875 320.5781,252.0313 Q321.9063,250.375 324.4063,250.375 Q325.1094,250.375 325.75,250.5313 Q326.4063,250.6875 326.9688,250.9844 L326.9688,253.7031 Q326.3438,253.125 325.75,252.8594 Q325.1563,252.5781 324.5313,252.5781 Q323.1875,252.5781 322.5,253.6563 Q321.8125,254.7188 321.8125,256.8125 Q321.8125,258.9063 322.5,259.9844 Q323.1875,261.0469 324.5313,261.0469 Q325.1563,261.0469 325.75,260.7813 Q326.3438,260.5 326.9688,259.9219 L326.9688,262.6406 Z " fill="#000000"/><text fill="#000000" font-family="sans-serif" font-size="14" lengthAdjust="spacing" textLength="206" x="338" y="261.8467">ScriptExecutionServiceWorker</text><line style="stroke:#181818;stroke-width:0.5;" x1="310" x2="546" y1="273" y2="273"/><line style="stroke:#181818;stroke-width:0.5;" x1="310" x2="546" y1="281" y2="281"/><text fill="#000000" font-family="sans-serif" font-size="14" lengthAdjust="spacing" textLength="76" x="315" y="297.9951">prepare(...)</text><text fill="#000000" font-family="sans-serif" font-size="14" lengthAdjust="spacing" textLength="53" x="315" y="314.292">start(...)</text><text fill="#000000" font-family="sans-serif" font-size="14" lengthAdjust="spacing" textLength="53" x="315" y="330.5889">stop(...)</text><text fill="#000000" font-family="sans-serif" font-size="14" lengthAdjust="spacing" textLength="41" x="315" y="346.8857">list(...)</text></g><!--class ActivityWorker--><g id="elem_ActivityWorker"><rect codeLine="22" fill="#F1F1F1" height="80.5938" id="ActivityWorker" rx="2.5" ry="2.5" style="stroke:#181818;stroke-width:0.5;" width="128" x="582" y="257"/><ellipse cx="597" cy="273" fill="#ADD1B2" rx="11" ry="11" style="stroke:#181818;stroke-width:1.0;"/><path d="M599.9688,278.6406 Q599.3906,278.9375 598.75,279.0781 Q598.1094,279.2344 597.4063,279.2344 Q594.9063,279.2344 593.5781,277.5938 Q592.2656,275.9375 592.2656,272.8125 Q592.2656,269.6875 593.5781,268.0313 Q594.9063,266.375 597.4063,266.375 Q598.1094,266.375 598.75,266.5313 Q599.4063,266.6875 599.9688,266.9844 L599.9688,269.7031 Q599.3438,269.125 598.75,268.8594 Q598.1563,268.5781 597.5313,268.5781 Q596.1875,268.5781 595.5,269.6563 Q594.8125,270.7188 594.8125,272.8125 Q594.8125,274.9063 595.5,275.9844 Q596.1875,277.0469 597.5313,277.0469 Q598.1563,277.0469 598.75,276.7813 Q599.3438,276.5 599.9688,275.9219 L599.9688,278.6406 Z " fill="#000000"/><text fill="#000000" font-family="sans-serif" font-size="14" lengthAdjust="spacing" textLength="96" x="611" y="277.8467">ActivityWorker</text><line style="stroke:#181818;stroke-width:0.5;" x1="583" x2="709" y1="289" y2="289"/><line style="stroke:#181818;stroke-width:0.5;" x1="583" x2="709" y1="297" y2="297"/><text fill="#000000" font-family="sans-serif" font-size="14" lengthAdjust="spacing" textLength="45" x="588" y="313.9951">run(...)</text><text fill="#000000" font-family="sans-serif" font-size="14" lengthAdjust="spacing" textLength="41" x="588" y="330.292">list(...)</text></g><!--class FastAPIWorker--><g id="elem_FastAPIWorker"><rect codeLine="27" fill="#F1F1F1" height="48" id="FastAPIWorker" rx="2.5" ry="2.5" style="stroke:#181818;stroke-width:0.5;" width="131" x="745.5" y="273.5"/><ellipse cx="760.5" cy="289.5" fill="#ADD1B2" rx="11" ry="11" style="stroke:#181818;stroke-width:1.0;"/><path d="M763.4688,295.1406 Q762.8906,295.4375 762.25,295.5781 Q761.6094,295.7344 760.9063,295.7344 Q758.4063,295.7344 757.0781,294.0938 Q755.7656,292.4375 755.7656,289.3125 Q755.7656,286.1875 757.0781,284.5313 Q758.4063,282.875 760.9063,282.875 Q761.6094,282.875 762.25,283.0313 Q762.9063,283.1875 763.4688,283.4844 L763.4688,286.2031 Q762.8438,285.625 762.25,285.3594 Q761.6563,285.0781 761.0313,285.0781 Q759.6875,285.0781 759,286.1563 Q758.3125,287.2188 758.3125,289.3125 Q758.3125,291.4063 759,292.4844 Q759.6875,293.5469 761.0313,293.5469 Q761.6563,293.5469 762.25,293.2813 Q762.8438,293 763.4688,292.4219 L763.4688,295.1406 Z " fill="#000000"/><text fill="#000000" font-family="sans-serif" font-size="14" lengthAdjust="spacing" textLength="99" x="774.5" y="294.3467">FastAPIWorker</text><line style="stroke:#181818;stroke-width:0.5;" x1="746.5" x2="875.5" y1="305.5" y2="305.5"/><line style="stroke:#181818;stroke-width:0.5;" x1="746.5" x2="875.5" y1="313.5" y2="313.5"/></g><!--class EventBusWorker--><g id="elem_EventBusWorker"><rect codeLine="30" fill="#F1F1F1" height="64.2969" id="EventBusWorker" rx="2.5" ry="2.5" style="stroke:#181818;stroke-width:0.5;" width="147" x="650.5" y="84"/><ellipse cx="665.5" cy="100" fill="#ADD1B2" rx="11" ry="11" style="stroke:#181818;stroke-width:1.0;"/><path d="M668.4688,105.6406 Q667.8906,105.9375 667.25,106.0781 Q666.6094,106.2344 665.9063,106.2344 Q663.4063,106.2344 662.0781,104.5938 Q660.7656,102.9375 660.7656,99.8125 Q660.7656,96.6875 662.0781,95.0313 Q663.4063,93.375 665.9063,93.375 Q666.6094,93.375 667.25,93.5313 Q667.9063,93.6875 668.4688,93.9844 L668.4688,96.7031 Q667.8438,96.125 667.25,95.8594 Q666.6563,95.5781 666.0313,95.5781 Q664.6875,95.5781 664,96.6563 Q663.3125,97.7188 663.3125,99.8125 Q663.3125,101.9063 664,102.9844 Q664.6875,104.0469 666.0313,104.0469 Q666.6563,104.0469 667.25,103.7813 Q667.8438,103.5 668.4688,102.9219 L668.4688,105.6406 Z " fill="#000000"/><text fill="#000000" font-family="sans-serif" font-size="14" lengthAdjust="spacing" textLength="115" x="679.5" y="104.8467">EventBusWorker</text><line style="stroke:#181818;stroke-width:0.5;" x1="651.5" x2="796.5" y1="116" y2="116"/><line style="stroke:#181818;stroke-width:0.5;" x1="651.5" x2="796.5" y1="124" y2="124"/><text fill="#000000" font-family="sans-serif" font-size="14" lengthAdjust="spacing" textLength="86" x="656.5" y="140.9951">republish(...)</text></g><!--class main_func--><g id="elem_main_func"><rect codeLine="34" fill="#F1F1F1" height="56.2656" id="main_func" rx="2.5" ry="2.5" style="stroke:#181818;stroke-width:0.5;" width="102" x="447" y="88"/><ellipse cx="462" cy="108.1328" fill="#ADD1B2" rx="11" ry="11" style="stroke:#181818;stroke-width:1.0;"/><path d="M464.9688,113.7734 Q464.3906,114.0703 463.75,114.2109 Q463.1094,114.3672 462.4063,114.3672 Q459.9063,114.3672 458.5781,112.7266 Q457.2656,111.0703 457.2656,107.9453 Q457.2656,104.8203 458.5781,103.1641 Q459.9063,101.5078 462.4063,101.5078 Q463.1094,101.5078 463.75,101.6641 Q464.4063,101.8203 464.9688,102.1172 L464.9688,104.8359 Q464.3438,104.2578 463.75,103.9922 Q463.1563,103.7109 462.5313,103.7109 Q461.1875,103.7109 460.5,104.7891 Q459.8125,105.8516 459.8125,107.9453 Q459.8125,110.0391 460.5,111.1172 Q461.1875,112.1797 462.5313,112.1797 Q463.1563,112.1797 463.75,111.9141 Q464.3438,111.6328 464.9688,111.0547 L464.9688,113.7734 Z " fill="#000000"/><text fill="#000000" font-family="sans-serif" font-size="12" font-style="italic" lengthAdjust="spacing" textLength="65" x="478.5" y="104.1387">«function»</text><text fill="#000000" font-family="sans-serif" font-size="14" lengthAdjust="spacing" textLength="70" x="476" y="119.9639">main_func</text><line style="stroke:#181818;stroke-width:0.5;" x1="448" x2="548" y1="128.2656" y2="128.2656"/><line style="stroke:#181818;stroke-width:0.5;" x1="448" x2="548" y1="136.2656" y2="136.2656"/></g><!--class create_app--><g id="elem_create_app"><rect codeLine="42" fill="#F1F1F1" height="56.2656" id="create_app" rx="2.5" ry="2.5" style="stroke:#181818;stroke-width:0.5;" width="109" x="842.5" y="493"/><ellipse cx="857.5" cy="513.1328" fill="#ADD1B2" rx="11" ry="11" style="stroke:#181818;stroke-width:1.0;"/><path d="M860.4688,518.7734 Q859.8906,519.0703 859.25,519.2109 Q858.6094,519.3672 857.9063,519.3672 Q855.4063,519.3672 854.0781,517.7266 Q852.7656,516.0703 852.7656,512.9453 Q852.7656,509.8203 854.0781,508.1641 Q855.4063,506.5078 857.9063,506.5078 Q858.6094,506.5078 859.25,506.6641 Q859.9063,506.8203 860.4688,507.1172 L860.4688,509.8359 Q859.8438,509.2578 859.25,508.9922 Q858.6563,508.7109 858.0313,508.7109 Q856.6875,508.7109 856,509.7891 Q855.3125,510.8516 855.3125,512.9453 Q855.3125,515.0391 856,516.1172 Q856.6875,517.1797 858.0313,517.1797 Q858.6563,517.1797 859.25,516.9141 Q859.8438,516.6328 860.4688,516.0547 L860.4688,518.7734 Z " fill="#000000"/><text fill="#000000" font-family="sans-serif" font-size="12" font-style="italic" lengthAdjust="spacing" textLength="65" x="877.5" y="509.1387">«function»</text><text fill="#000000" font-family="sans-serif" font-size="14" lengthAdjust="spacing" textLength="77" x="871.5" y="524.9639">create_app</text><line style="stroke:#181818;stroke-width:0.5;" x1="843.5" x2="950.5" y1="533.2656" y2="533.2656"/><line style="stroke:#181818;stroke-width:0.5;" x1="843.5" x2="950.5" y1="541.2656" y2="541.2656"/></g><!--class ServerSentEventsBlueprint--><g id="elem_ServerSentEventsBlueprint"><rect codeLine="43" fill="#F1F1F1" height="48" id="ServerSentEventsBlueprint" rx="2.5" ry="2.5" style="stroke:#181818;stroke-width:0.5;" width="217" x="842.5" y="661"/><ellipse cx="857.5" cy="677" fill="#ADD1B2" rx="11" ry="11" style="stroke:#181818;stroke-width:1.0;"/><path d="M860.4688,682.6406 Q859.8906,682.9375 859.25,683.0781 Q858.6094,683.2344 857.9063,683.2344 Q855.4063,683.2344 854.0781,681.5938 Q852.7656,679.9375 852.7656,676.8125 Q852.7656,673.6875 854.0781,672.0313 Q855.4063,670.375 857.9063,670.375 Q858.6094,670.375 859.25,670.5313 Q859.9063,670.6875 860.4688,670.9844 L860.4688,673.7031 Q859.8438,673.125 859.25,672.8594 Q858.6563,672.5781 858.0313,672.5781 Q856.6875,672.5781 856,673.6563 Q855.3125,674.7188 855.3125,676.8125 Q855.3125,678.9063 856,679.9844 Q856.6875,681.0469 858.0313,681.0469 Q858.6563,681.0469 859.25,680.7813 Q859.8438,680.5 860.4688,679.9219 L860.4688,682.6406 Z " fill="#000000"/><text fill="#000000" font-family="sans-serif" font-size="14" lengthAdjust="spacing" textLength="185" x="871.5" y="681.8467">ServerSentEventsBlueprint</text><line style="stroke:#181818;stroke-width:0.5;" x1="843.5" x2="1058.5" y1="693" y2="693"/><line style="stroke:#181818;stroke-width:0.5;" x1="843.5" x2="1058.5" y1="701" y2="701"/></g><g id="elem_app_note"><path d="M987,485.5 L987,517 L951.8,521 L987,525 L987,556.0313 A0,0 0 0 0 987,556.0313 L1205,556.0313 A0,0 0 0 0 1205,556.0313 L1205,495.5 L1195,485.5 L987,485.5 A0,0 0 0 0 987,485.5 " fill="#FEFFDD" style="stroke:#181818;stroke-width:0.5;"/><path d="M1195,485.5 L1195,495.5 L1205,495.5 L1195,485.5 " fill="#FEFFDD" style="stroke:#181818;stroke-width:0.5;"/><text fill="#000000" font-family="sans-serif" font-size="13" lengthAdjust="spacing" textLength="149" x="993" y="502.5669">create_app function will</text><text fill="#000000" font-family="sans-serif" font-size="13" lengthAdjust="spacing" textLength="177" x="993" y="517.6997">create a FastAPI application</text><text fill="#000000" font-family="sans-serif" font-size="13" lengthAdjust="spacing" textLength="197" x="993" y="532.8325">using ProcedureAPI, ActivityAPI</text><text fill="#000000" font-family="sans-serif" font-size="13" lengthAdjust="spacing" textLength="132" x="993" y="547.9653">and SSE API routers.</text></g><!--class ProcedureAPI--><g id="elem_ProcedureAPI"><rect codeLine="60" fill="#F1F1F1" height="48" id="ProcedureAPI" rx="2.5" ry="2.5" style="stroke:#181818;stroke-width:0.5;" width="125" x="188.5" y="661"/><ellipse cx="203.5" cy="677" fill="#ADD1B2" rx="11" ry="11" style="stroke:#181818;stroke-width:1.0;"/><path d="M206.4688,682.6406 Q205.8906,682.9375 205.25,683.0781 Q204.6094,683.2344 203.9063,683.2344 Q201.4063,683.2344 200.0781,681.5938 Q198.7656,679.9375 198.7656,676.8125 Q198.7656,673.6875 200.0781,672.0313 Q201.4063,670.375 203.9063,670.375 Q204.6094,670.375 205.25,670.5313 Q205.9063,670.6875 206.4688,670.9844 L206.4688,673.7031 Q205.8438,673.125 205.25,672.8594 Q204.6563,672.5781 204.0313,672.5781 Q202.6875,672.5781 202,673.6563 Q201.3125,674.7188 201.3125,676.8125 Q201.3125,678.9063 202,679.9844 Q202.6875,681.0469 204.0313,681.0469 Q204.6563,681.0469 205.25,680.7813 Q205.8438,680.5 206.4688,679.9219 L206.4688,682.6406 Z " fill="#000000"/><text fill="#000000" font-family="sans-serif" font-size="14" lengthAdjust="spacing" textLength="93" x="217.5" y="681.8467">ProcedureAPI</text><line style="stroke:#181818;stroke-width:0.5;" x1="189.5" x2="312.5" y1="693" y2="693"/><line style="stroke:#181818;stroke-width:0.5;" x1="189.5" x2="312.5" y1="701" y2="701"/></g><!--class ScriptExecutionService--><g id="elem_ScriptExecutionService"><rect codeLine="64" fill="#F1F1F1" height="48" id="ScriptExecutionService" rx="2.5" ry="2.5" style="stroke:#181818;stroke-width:0.5;" width="189" x="188.5" y="497"/><ellipse cx="203.5" cy="513" fill="#ADD1B2" rx="11" ry="11" style="stroke:#181818;stroke-width:1.0;"/><path d="M206.4688,518.6406 Q205.8906,518.9375 205.25,519.0781 Q204.6094,519.2344 203.9063,519.2344 Q201.4063,519.2344 200.0781,517.5938 Q198.7656,515.9375 198.7656,512.8125 Q198.7656,509.6875 200.0781,508.0313 Q201.4063,506.375 203.9063,506.375 Q204.6094,506.375 205.25,506.5313 Q205.9063,506.6875 206.4688,506.9844 L206.4688,509.7031 Q205.8438,509.125 205.25,508.8594 Q204.6563,508.5781 204.0313,508.5781 Q202.6875,508.5781 202,509.6563 Q201.3125,510.7188 201.3125,512.8125 Q201.3125,514.9063 202,515.9844 Q202.6875,517.0469 204.0313,517.0469 Q204.6563,517.0469 205.25,516.7813 Q205.8438,516.5 206.4688,515.9219 L206.4688,518.6406 Z " fill="#000000"/><text fill="#000000" font-family="sans-serif" font-size="14" lengthAdjust="spacing" textLength="157" x="217.5" y="517.8467">ScriptExecutionService</text><line style="stroke:#181818;stroke-width:0.5;" x1="189.5" x2="376.5" y1="529" y2="529"/><line style="stroke:#181818;stroke-width:0.5;" x1="189.5" x2="376.5" y1="537" y2="537"/></g><!--entity procedure_domain--><g id="elem_procedure_domain"><rect fill="#F1F1F1" height="36.2969" rx="2.5" ry="2.5" style="stroke:#181818;stroke-width:0.5;" width="71" x="46.5" y="503"/><text fill="#000000" font-family="sans-serif" font-size="14" lengthAdjust="spacing" textLength="51" x="56.5" y="525.9951">domain</text></g><!--class ActivityAPI--><g id="elem_ActivityAPI"><rect codeLine="75" fill="#F1F1F1" height="48" id="ActivityAPI" rx="2.5" ry="2.5" style="stroke:#181818;stroke-width:0.5;" width="100" x="616" y="661"/><ellipse cx="631" cy="677" fill="#ADD1B2" rx="11" ry="11" style="stroke:#181818;stroke-width:1.0;"/><path d="M633.9688,682.6406 Q633.3906,682.9375 632.75,683.0781 Q632.1094,683.2344 631.4063,683.2344 Q628.9063,683.2344 627.5781,681.5938 Q626.2656,679.9375 626.2656,676.8125 Q626.2656,673.6875 627.5781,672.0313 Q628.9063,670.375 631.4063,670.375 Q632.1094,670.375 632.75,670.5313 Q633.4063,670.6875 633.9688,670.9844 L633.9688,673.7031 Q633.3438,673.125 632.75,672.8594 Q632.1563,672.5781 631.5313,672.5781 Q630.1875,672.5781 629.5,673.6563 Q628.8125,674.7188 628.8125,676.8125 Q628.8125,678.9063 629.5,679.9844 Q630.1875,681.0469 631.5313,681.0469 Q632.1563,681.0469 632.75,680.7813 Q633.3438,680.5 633.9688,679.9219 L633.9688,682.6406 Z " fill="#000000"/><text fill="#000000" font-family="sans-serif" font-size="14" lengthAdjust="spacing" textLength="68" x="645" y="681.8467">ActivityAPI</text><line style="stroke:#181818;stroke-width:0.5;" x1="617" x2="715" y1="693" y2="693"/><line style="stroke:#181818;stroke-width:0.5;" x1="617" x2="715" y1="701" y2="701"/></g><!--class ActivityService--><g id="elem_ActivityService"><rect codeLine="79" fill="#F1F1F1" height="48" id="ActivityService" rx="2.5" ry="2.5" style="stroke:#181818;stroke-width:0.5;" width="129" x="616.5" y="497"/><ellipse cx="631.5" cy="513" fill="#ADD1B2" rx="11" ry="11" style="stroke:#181818;stroke-width:1.0;"/><path d="M634.4688,518.6406 Q633.8906,518.9375 633.25,519.0781 Q632.6094,519.2344 631.9063,519.2344 Q629.4063,519.2344 628.0781,517.5938 Q626.7656,515.9375 626.7656,512.8125 Q626.7656,509.6875 628.0781,508.0313 Q629.4063,506.375 631.9063,506.375 Q632.6094,506.375 633.25,506.5313 Q633.9063,506.6875 634.4688,506.9844 L634.4688,509.7031 Q633.8438,509.125 633.25,508.8594 Q632.6563,508.5781 632.0313,508.5781 Q630.6875,508.5781 630,509.6563 Q629.3125,510.7188 629.3125,512.8125 Q629.3125,514.9063 630,515.9844 Q630.6875,517.0469 632.0313,517.0469 Q632.6563,517.0469 633.25,516.7813 Q633.8438,516.5 634.4688,515.9219 L634.4688,518.6406 Z " fill="#000000"/><text fill="#000000" font-family="sans-serif" font-size="14" lengthAdjust="spacing" textLength="97" x="645.5" y="517.8467">ActivityService</text><line style="stroke:#181818;stroke-width:0.5;" x1="617.5" x2="744.5" y1="529" y2="529"/><line style="stroke:#181818;stroke-width:0.5;" x1="617.5" x2="744.5" y1="537" y2="537"/></g><!--entity activity_domain--><g id="elem_activity_domain"><rect fill="#F1F1F1" height="36.2969" rx="2.5" ry="2.5" style="stroke:#181818;stroke-width:0.5;" width="71" x="474.5" y="503"/><text fill="#000000" font-family="sans-serif" font-size="14" lengthAdjust="spacing" textLength="51" x="484.5" y="525.9951">domain</text></g><!--reverse link EventBusWorker to ScriptExecutionServiceWorker--><g id="link_EventBusWorker_ScriptExecutionServiceWorker"><path codeLine="36" d="M645.31,157.49 C619.41,171.37 590.68,187.35 565,203 C545.7,214.76 525.35,228.11 506.42,240.95 " fill="none" id="EventBusWorker-backto-ScriptExecutionServiceWorker" style="stroke:#181818;stroke-width:1.0;"/><polygon fill="none" points="642.2,151.22,663.15,148.03,648.76,163.59,642.2,151.22" style="stroke:#181818;stroke-width:1.0;"/></g><!--reverse link EventBusWorker to FastAPIWorker--><g id="link_EventBusWorker_FastAPIWorker"><path codeLine="37" d="M747.94,166.4 C764.84,201.26 786.71,246.38 799.75,273.29 " fill="none" id="EventBusWorker-backto-FastAPIWorker" style="stroke:#181818;stroke-width:1.0;"/><polygon fill="none" points="741.58,169.32,739.15,148.27,754.18,163.21,741.58,169.32" style="stroke:#181818;stroke-width:1.0;"/></g><!--reverse link EventBusWorker to ActivityWorker--><g id="link_EventBusWorker_ActivityWorker"><path codeLine="38" d="M702.42,166.67 C690.07,195.08 674.79,230.24 663.25,256.8 " fill="none" id="EventBusWorker-backto-ActivityWorker" style="stroke:#181818;stroke-width:1.0;"/><polygon fill="none" points="696.02,163.82,710.41,148.27,708.86,169.4,696.02,163.82" style="stroke:#181818;stroke-width:1.0;"/></g><!--reverse link FastAPIWorker to create_app--><g id="link_FastAPIWorker_create_app"><path codeLine="55" d="M824.76,333.94 C841.95,378.2 870.97,452.96 886.48,492.91 " fill="none" id="FastAPIWorker-backto-create_app" style="stroke:#181818;stroke-width:1.0;"/><polygon fill="#181818" points="820.04,321.79,818.4783,328.83,824.376,332.9792,825.9377,325.9393,820.04,321.79" style="stroke:#181818;stroke-width:1.0;"/></g><!--link ScriptExecutionServiceWorker to ScriptExecutionService--><g id="link_ScriptExecutionServiceWorker_ScriptExecutionService"><path codeLine="69" d="M391.6,354.11 C362.78,398.14 323.73,457.78 301.17,492.25 " fill="none" id="ScriptExecutionServiceWorker-to-ScriptExecutionService" style="stroke:#181818;stroke-width:1.0;"/><polygon fill="#181818" points="298.23,496.74,306.5085,491.4046,300.9705,492.5579,299.8172,487.0199,298.23,496.74" style="stroke:#181818;stroke-width:1.0;"/></g><!--link ActivityWorker to ActivityService--><g id="link_ActivityWorker_ActivityService"><path codeLine="84" d="M652.26,338.1 C659.24,382.28 670.36,452.66 676.52,491.66 " fill="none" id="ActivityWorker-to-ActivityService" style="stroke:#181818;stroke-width:1.0;"/><polygon fill="#181818" points="677.32,496.72,679.8575,487.2036,676.5351,491.782,671.9567,488.4596,677.32,496.72" style="stroke:#181818;stroke-width:1.0;"/></g><!--link EventBusWorker to mptools--><g id="link_EventBusWorker_mptools"><path codeLine="88" d="M797.79,141.37 C830.4,155.19 867.13,175.35 893,203 C908.2,219.245 918.1275,242.15 924.29,261.2238 C924.4826,261.8198 924.6715,262.4121 924.8568,263.0004 C924.9031,263.1474 924.9492,263.2942 924.995,263.4408 " fill="none" id="EventBusWorker-mptools" style="stroke:#181818;stroke-width:1.0;stroke-dasharray:1.0,3.0;"/><text fill="#000000" font-family="sans-serif" font-size="13" lengthAdjust="spacing" textLength="30" x="883" y="191.0669">uses</text></g><!--link procedure_application to procedure_ui--><!--link activity_application to activity_ui--><!--link create_app to ServerSentEventsBlueprint--><!--SRC=[dLLDRzim3BtxLmYvx0DpSYyA0osG0RiLys67OZ0qcKc4o98WKSc6BVzzSc0hig9yjBua9f_uo2UI_h11rFPXiT22IdITc3FLBPYWrfOjfsj3kwBGb6tf6eZTqaPPrIX0yhSeY7z6LwTHAM6zcGoFL0Y4sj7JzE_1MGCGt02fcU4Qbx-1EUHArc1sd9rWEmvxibA6TCe0uTB_xMWF94e6K1zdDXjePZEFRPtmrB8b76s0CIKH9Dfvi817XAmEIJsKI_Bu-1qOKhaMK5LHQKTvBkJ-Gvajc0XyZ6f0KmCVv_Fvfud38ZMOCojzRXNS9jWXwLDEJmpvZkEVR1R6oNS5_KejFhryEujv1bpklC3FpkRPGRjVdcrpWwrNlbavoRpy_K-lRLMTK5TbBvqk_rL98k7ej93hs4J9o-2aSHo_qJRC04LegDRJ0fFcycM1gJtRaT8-2mVQS8d5sO3vIDFXYXZ6-6JFXKW0X8w2z244PyV92Y1dkLoJ5wCOjCw0Xtq9elYNWEldhAwNf8zZb4CmkH4xmOTiIIbWXMMKRApczAO-bnFSH6yz9ZXkfEGol401qbovd9FqSScvDXs3Hw9DMMB7RReRAp13tAhZTffm3hPBT8SxnwUiBkMJwtKwj4D4D5L-1DmdVAwxRkiUEDuc-qZs9hq3rzrofsl42vnZFXIUDrcVvMkh4A7zMOxVq0S_b63zzpZRQcMhzl9rmziMf3yJTtsH5Iav45rM4QsG17LvCVq7]--></g></svg>