<?xml version="1.0" encoding="UTF-8" standalone="no"?><svg xmlns="http://www.w3.org/2000/svg" xmlns:xlink="http://www.w3.org/1999/xlink" contentStyleType="text/css" height="1302px" preserveAspectRatio="none" style="width:1837px;height:1302px;background:#FFFFFF;" version="1.1" viewBox="0 0 1837 1302" width="1837px" zoomAndPan="magnify"><defs/><g><!--MD5=[4caa97c3b43e5ccb768f5326915ee1d4]
cluster ska_oso_oet.procedure--><g id="cluster_ska_oso_oet.procedure"><path d="M8.5,6 L171.5,6 A3.75,3.75 0 0 1 174,8.5 L181,28.4883 L1633.5,28.4883 A2.5,2.5 0 0 1 1636,30.9883 L1636,1292.5 A2.5,2.5 0 0 1 1633.5,1295 L8.5,1295 A2.5,2.5 0 0 1 6,1292.5 L6,8.5 A2.5,2.5 0 0 1 8.5,6 " style="stroke:#000000;stroke-width:1.5;fill:none;"/><line style="stroke:#000000;stroke-width:1.5;fill:none;" x1="6" x2="181" y1="28.4883" y2="28.4883"/><text fill="#000000" font-family="sans-serif" font-size="14" font-weight="bold" lengthAdjust="spacing" textLength="162" x="10" y="21.5352">ska_oso_oet.procedure</text></g><!--MD5=[5237f998f19e09220ae26f82b025f45a]
cluster mptools--><g id="cluster_mptools"><rect height="138" rx="2.5" ry="2.5" style="stroke:#181818;stroke-width:1.0;fill:none;" width="279" x="1309" y="568.5"/><text fill="#000000" font-family="sans-serif" font-size="14" font-weight="bold" lengthAdjust="spacing" textLength="60" x="1418.5" y="584.0352">mptools</text></g><!--MD5=[e05846e0557a046bf7b9258196848ed8]
cluster application_pkg--><g id="cluster_application_pkg"><path d="M40.5,57 L121.5,57 A3.75,3.75 0 0 1 124,59.5 L131,79.4883 L1274.5,79.4883 A2.5,2.5 0 0 1 1277,81.9883 L1277,1260.5 A2.5,2.5 0 0 1 1274.5,1263 L40.5,1263 A2.5,2.5 0 0 1 38,1260.5 L38,59.5 A2.5,2.5 0 0 1 40.5,57 " style="stroke:#000000;stroke-width:1.5;fill:none;"/><line style="stroke:#000000;stroke-width:1.5;fill:none;" x1="38" x2="131" y1="79.4883" y2="79.4883"/><text fill="#000000" font-family="sans-serif" font-size="14" font-weight="bold" lengthAdjust="spacing" textLength="80" x="42" y="72.5352">application</text></g><!--MD5=[c1d103f90895134f040fa18b35926cd5]
cluster restclient--><g id="cluster_restclient"><rect height="198" rx="2.5" ry="2.5" style="stroke:#181818;stroke-width:1.0;fill:none;" width="148" x="1105" y="100"/><text fill="#000000" font-family="sans-serif" font-size="14" font-weight="bold" lengthAdjust="spacing" textLength="68" x="1145" y="115.5352">restclient</text></g><!--MD5=[a70b0d373322012744ecc119c63f921b]
cluster main--><g id="cluster_main"><rect height="373.5" rx="2.5" ry="2.5" style="stroke:#181818;stroke-width:1.0;fill:none;" width="454" x="619" y="108.5"/><text fill="#000000" font-family="sans-serif" font-size="14" font-weight="bold" lengthAdjust="spacing" textLength="36" x="828" y="124.0352">main</text></g><!--MD5=[01b908eab77bdc64a587d21ad331408b]
cluster restserver--><g id="cluster_restserver"><rect height="298.5" rx="2.5" ry="2.5" style="stroke:#181818;stroke-width:1.0;fill:none;" width="357" x="888" y="575.5"/><text fill="#000000" font-family="sans-serif" font-size="14" font-weight="bold" lengthAdjust="spacing" textLength="72" x="1030.5" y="591.0352">restserver</text></g><!--MD5=[3ff016c1aa5003d713567a073e2181a6]
cluster application--><g id="cluster_application"><rect height="684" rx="2.5" ry="2.5" style="stroke:#181818;stroke-width:1.0;fill:none;" width="778" x="70" y="547"/><text fill="#000000" font-family="sans-serif" font-size="14" font-weight="bold" lengthAdjust="spacing" textLength="80" x="419" y="562.5352">application</text></g><!--MD5=[71c2ab1c1c8272e025db689c64a870a2]
cluster flask--><g id="cluster_flask"><path d="M1678.5,759 L1715.5,759 A3.75,3.75 0 0 1 1718,761.5 L1725,781.4883 L1823.5,781.4883 A2.5,2.5 0 0 1 1826,783.9883 L1826,1038 A2.5,2.5 0 0 1 1823.5,1040.5 L1678.5,1040.5 A2.5,2.5 0 0 1 1676,1038 L1676,761.5 A2.5,2.5 0 0 1 1678.5,759 " style="stroke:#000000;stroke-width:1.5;fill:none;"/><line style="stroke:#000000;stroke-width:1.5;fill:none;" x1="1676" x2="1725" y1="781.4883" y2="781.4883"/><text fill="#000000" font-family="sans-serif" font-size="14" font-weight="bold" lengthAdjust="spacing" textLength="36" x="1680" y="774.5352">flask</text></g><g id="elem_mptools_note"><path d="M1352,611.5 L1352,682.7422 L1564,682.7422 L1564,621.5 L1554,611.5 L1352,611.5 " fill="#FEFFDD" style="stroke:#181818;stroke-width:0.5;"/><path d="M1554,611.5 L1554,621.5 L1564,621.5 L1554,611.5 " fill="#FEFFDD" style="stroke:#181818;stroke-width:1.0;"/><text fill="#000000" font-family="sans-serif" font-size="13" lengthAdjust="spacing" textLength="191" x="1358" y="629.0684">See the ScriptExecutionService</text><text fill="#000000" font-family="sans-serif" font-size="13" lengthAdjust="spacing" textLength="184" x="1358" y="644.3789">view for more information on</text><text fill="#000000" font-family="sans-serif" font-size="13" lengthAdjust="spacing" textLength="20" x="1358" y="659.6895">the</text><text fill="#000000" font-family="monospace" font-size="13" lengthAdjust="spacing" textLength="56" x="1382" y="659.3657">mptools</text><text fill="#000000" font-family="sans-serif" font-size="13" lengthAdjust="spacing" textLength="94" x="1442" y="659.6895">module and its</text><text fill="#000000" font-family="sans-serif" font-size="13" lengthAdjust="spacing" textLength="59" x="1358" y="675">contents.</text></g><!--MD5=[9d427ac4c893214c110f9de4912e3cde]
class RestClientUI--><g id="elem_RestClientUI"><rect codeLine="17" fill="#F1F1F1" height="146.9297" id="RestClientUI" rx="2.5" ry="2.5" style="stroke:#181818;stroke-width:0.5;" width="115" x="1121.5" y="135"/><ellipse cx="1136.5" cy="151" fill="#ADD1B2" rx="11" ry="11" style="stroke:#181818;stroke-width:1.0;"/><path d="M1138.9731,157.1431 Q1138.3921,157.4419 1137.7529,157.5913 Q1137.1138,157.7407 1136.4082,157.7407 Q1133.9014,157.7407 1132.5815,156.0889 Q1131.2617,154.437 1131.2617,151.3159 Q1131.2617,148.1865 1132.5815,146.5347 Q1133.9014,144.8828 1136.4082,144.8828 Q1137.1138,144.8828 1137.7612,145.0322 Q1138.4087,145.1816 1138.9731,145.4805 L1138.9731,148.2031 Q1138.3423,147.6221 1137.7488,147.3523 Q1137.1553,147.0825 1136.5244,147.0825 Q1135.1797,147.0825 1134.4949,148.1492 Q1133.8101,149.2158 1133.8101,151.3159 Q1133.8101,153.4077 1134.4949,154.4744 Q1135.1797,155.541 1136.5244,155.541 Q1137.1553,155.541 1137.7488,155.2712 Q1138.3423,155.0015 1138.9731,154.4204 Z " fill="#000000"/><text fill="#000000" font-family="sans-serif" font-size="14" lengthAdjust="spacing" textLength="83" x="1150.5" y="156.291">RestClientUI</text><line style="stroke:#181818;stroke-width:0.5;" x1="1122.5" x2="1235.5" y1="167" y2="167"/><line style="stroke:#181818;stroke-width:0.5;" x1="1122.5" x2="1235.5" y1="175" y2="175"/><text fill="#000000" font-family="sans-serif" font-size="14" lengthAdjust="spacing" textLength="64" x="1127.5" y="192.5352">create(...)</text><text fill="#000000" font-family="sans-serif" font-size="14" lengthAdjust="spacing" textLength="53" x="1127.5" y="209.0234">start(...)</text><text fill="#000000" font-family="sans-serif" font-size="14" lengthAdjust="spacing" textLength="52" x="1127.5" y="225.5117">stop(...)</text><text fill="#000000" font-family="sans-serif" font-size="14" lengthAdjust="spacing" textLength="42" x="1127.5" y="242">list(...)</text><text fill="#000000" font-family="sans-serif" font-size="14" lengthAdjust="spacing" textLength="80" x="1127.5" y="258.4883">describe(...)</text><text fill="#000000" font-family="sans-serif" font-size="14" lengthAdjust="spacing" textLength="59" x="1127.5" y="274.9766">listen(...)</text></g><!--MD5=[33f72e11af6101778dcafb71668d1add]
class ScriptExecutionServiceWorker--><g id="elem_ScriptExecutionServiceWorker"><rect codeLine="28" fill="#F1F1F1" height="113.9531" id="ScriptExecutionServiceWorker" rx="2.5" ry="2.5" style="stroke:#181818;stroke-width:0.5;" width="236" x="662" y="151.5"/><ellipse cx="677" cy="167.5" fill="#ADD1B2" rx="11" ry="11" style="stroke:#181818;stroke-width:1.0;"/><path d="M679.4731,173.6431 Q678.8921,173.9419 678.2529,174.0913 Q677.6138,174.2407 676.9082,174.2407 Q674.4014,174.2407 673.0815,172.5889 Q671.7617,170.937 671.7617,167.8159 Q671.7617,164.6865 673.0815,163.0347 Q674.4014,161.3828 676.9082,161.3828 Q677.6138,161.3828 678.2612,161.5322 Q678.9087,161.6816 679.4731,161.9805 L679.4731,164.7031 Q678.8423,164.1221 678.2488,163.8523 Q677.6553,163.5825 677.0244,163.5825 Q675.6797,163.5825 674.9949,164.6492 Q674.3101,165.7158 674.3101,167.8159 Q674.3101,169.9077 674.9949,170.9744 Q675.6797,172.041 677.0244,172.041 Q677.6553,172.041 678.2488,171.7712 Q678.8423,171.5015 679.4731,170.9204 Z " fill="#000000"/><text fill="#000000" font-family="sans-serif" font-size="14" lengthAdjust="spacing" textLength="204" x="691" y="172.791">ScriptExecutionServiceWorker</text><line style="stroke:#181818;stroke-width:0.5;" x1="663" x2="897" y1="183.5" y2="183.5"/><line style="stroke:#181818;stroke-width:0.5;" x1="663" x2="897" y1="191.5" y2="191.5"/><text fill="#000000" font-family="sans-serif" font-size="14" lengthAdjust="spacing" textLength="76" x="668" y="209.0352">prepare(...)</text><text fill="#000000" font-family="sans-serif" font-size="14" lengthAdjust="spacing" textLength="53" x="668" y="225.5234">start(...)</text><text fill="#000000" font-family="sans-serif" font-size="14" lengthAdjust="spacing" textLength="52" x="668" y="242.0117">stop(...)</text><text fill="#000000" font-family="sans-serif" font-size="14" lengthAdjust="spacing" textLength="42" x="668" y="258.5">list(...)</text></g><!--MD5=[17238aaf72f47361d520c29dfe37cd7f]
class FlaskWorker--><g id="elem_FlaskWorker"><rect codeLine="35" fill="#F1F1F1" height="48" id="FlaskWorker" rx="2.5" ry="2.5" style="stroke:#181818;stroke-width:0.5;" width="116" x="933" y="184.5"/><ellipse cx="948" cy="200.5" fill="#ADD1B2" rx="11" ry="11" style="stroke:#181818;stroke-width:1.0;"/><path d="M950.4731,206.6431 Q949.8921,206.9419 949.2529,207.0913 Q948.6138,207.2407 947.9082,207.2407 Q945.4014,207.2407 944.0815,205.5889 Q942.7617,203.937 942.7617,200.8159 Q942.7617,197.6865 944.0815,196.0347 Q945.4014,194.3828 947.9082,194.3828 Q948.6138,194.3828 949.2612,194.5322 Q949.9087,194.6816 950.4731,194.9805 L950.4731,197.7031 Q949.8423,197.1221 949.2488,196.8523 Q948.6553,196.5825 948.0244,196.5825 Q946.6797,196.5825 945.9949,197.6492 Q945.3101,198.7158 945.3101,200.8159 Q945.3101,202.9077 945.9949,203.9744 Q946.6797,205.041 948.0244,205.041 Q948.6553,205.041 949.2488,204.7712 Q949.8423,204.5015 950.4731,203.9204 Z " fill="#000000"/><text fill="#000000" font-family="sans-serif" font-size="14" lengthAdjust="spacing" textLength="84" x="962" y="205.791">FlaskWorker</text><line style="stroke:#181818;stroke-width:0.5;" x1="934" x2="1048" y1="216.5" y2="216.5"/><line style="stroke:#181818;stroke-width:0.5;" x1="934" x2="1048" y1="224.5" y2="224.5"/></g><!--MD5=[182a5f28d356566e59ae05a80103f461]
class EventBusWorker--><g id="elem_EventBusWorker"><rect codeLine="38" fill="#F1F1F1" height="97.4648" id="EventBusWorker" rx="2.5" ry="2.5" style="stroke:#181818;stroke-width:0.5;" width="142" x="907" y="361"/><ellipse cx="922" cy="377" fill="#ADD1B2" rx="11" ry="11" style="stroke:#181818;stroke-width:1.0;"/><path d="M924.4731,383.1431 Q923.8921,383.4419 923.2529,383.5913 Q922.6138,383.7407 921.9082,383.7407 Q919.4014,383.7407 918.0815,382.0889 Q916.7617,380.437 916.7617,377.3159 Q916.7617,374.1865 918.0815,372.5347 Q919.4014,370.8828 921.9082,370.8828 Q922.6138,370.8828 923.2612,371.0322 Q923.9087,371.1816 924.4731,371.4805 L924.4731,374.2031 Q923.8423,373.6221 923.2488,373.3523 Q922.6553,373.0825 922.0244,373.0825 Q920.6797,373.0825 919.9949,374.1492 Q919.3101,375.2158 919.3101,377.3159 Q919.3101,379.4077 919.9949,380.4744 Q920.6797,381.541 922.0244,381.541 Q922.6553,381.541 923.2488,381.2712 Q923.8423,381.0015 924.4731,380.4204 Z " fill="#000000"/><text fill="#000000" font-family="sans-serif" font-size="14" lengthAdjust="spacing" textLength="110" x="936" y="382.291">EventBusWorker</text><line style="stroke:#181818;stroke-width:0.5;" x1="908" x2="1048" y1="393" y2="393"/><line style="stroke:#181818;stroke-width:0.5;" x1="908" x2="1048" y1="401" y2="401"/><text fill="#000000" font-family="sans-serif" font-size="14" lengthAdjust="spacing" textLength="94" x="913" y="418.5352">main_loop(...)</text><text fill="#000000" font-family="sans-serif" font-size="14" lengthAdjust="spacing" textLength="93" x="913" y="435.0234">main_func(...)</text><text fill="#000000" font-family="sans-serif" font-size="14" lengthAdjust="spacing" textLength="87" x="913" y="451.5117">republish(...)</text></g><!--MD5=[d26137e5d461602f48e26353ca7979f6]
class app--><g id="elem_app"><rect codeLine="49" fill="#F1F1F1" height="56.6211" id="app" rx="2.5" ry="2.5" style="stroke:#181818;stroke-width:0.5;" width="158" x="970" y="618.5"/><ellipse cx="985" cy="638.8105" fill="#ADD1B2" rx="11" ry="11" style="stroke:#181818;stroke-width:1.0;"/><path d="M987.4731,644.9536 Q986.8921,645.2524 986.2529,645.4019 Q985.6138,645.5513 984.9082,645.5513 Q982.4014,645.5513 981.0815,643.8994 Q979.7617,642.2476 979.7617,639.1265 Q979.7617,635.9971 981.0815,634.3452 Q982.4014,632.6934 984.9082,632.6934 Q985.6138,632.6934 986.2612,632.8428 Q986.9087,632.9922 987.4731,633.291 L987.4731,636.0137 Q986.8423,635.4326 986.2488,635.1628 Q985.6553,634.8931 985.0244,634.8931 Q983.6797,634.8931 982.9949,635.9597 Q982.3101,637.0264 982.3101,639.1265 Q982.3101,641.2183 982.9949,642.2849 Q983.6797,643.3516 985.0244,643.3516 Q985.6553,643.3516 986.2488,643.0818 Q986.8423,642.812 987.4731,642.231 Z " fill="#000000"/><text fill="#000000" font-family="sans-serif" font-size="12" font-style="italic" lengthAdjust="spacing" textLength="130" x="997" y="635.1016">«function return value»</text><text fill="#000000" font-family="sans-serif" font-size="14" lengthAdjust="spacing" textLength="26" x="1049" y="651.168">app</text><line style="stroke:#181818;stroke-width:0.5;" x1="971" x2="1127" y1="659.1211" y2="659.1211"/><line style="stroke:#181818;stroke-width:0.5;" x1="971" x2="1127" y1="667.1211" y2="667.1211"/></g><!--MD5=[68767c78be08caa96780c014af9fbeaa]
class API--><g id="elem_API"><rect codeLine="52" fill="#F1F1F1" height="48" id="API" rx="2.5" ry="2.5" style="stroke:#181818;stroke-width:0.5;" width="54" x="912" y="802"/><ellipse cx="927" cy="818" fill="#ADD1B2" rx="11" ry="11" style="stroke:#181818;stroke-width:1.0;"/><path d="M929.4731,824.1431 Q928.8921,824.4419 928.2529,824.5913 Q927.6138,824.7407 926.9082,824.7407 Q924.4014,824.7407 923.0815,823.0889 Q921.7617,821.437 921.7617,818.3159 Q921.7617,815.1865 923.0815,813.5347 Q924.4014,811.8828 926.9082,811.8828 Q927.6138,811.8828 928.2612,812.0322 Q928.9087,812.1816 929.4731,812.4805 L929.4731,815.2031 Q928.8423,814.6221 928.2488,814.3523 Q927.6553,814.0825 927.0244,814.0825 Q925.6797,814.0825 924.9949,815.1492 Q924.3101,816.2158 924.3101,818.3159 Q924.3101,820.4077 924.9949,821.4744 Q925.6797,822.541 927.0244,822.541 Q927.6553,822.541 928.2488,822.2712 Q928.8423,822.0015 929.4731,821.4204 Z " fill="#000000"/><text fill="#000000" font-family="sans-serif" font-size="14" lengthAdjust="spacing" textLength="22" x="941" y="823.291">API</text><line style="stroke:#181818;stroke-width:0.5;" x1="913" x2="965" y1="834" y2="834"/><line style="stroke:#181818;stroke-width:0.5;" x1="913" x2="965" y1="842" y2="842"/></g><!--MD5=[ac5fbc7e172a153817156d672bf2c325]
class ServerSentEventsBlueprint--><g id="elem_ServerSentEventsBlueprint"><rect codeLine="54" fill="#F1F1F1" height="48" id="ServerSentEventsBlueprint" rx="2.5" ry="2.5" style="stroke:#181818;stroke-width:0.5;" width="211" x="1001.5" y="802"/><ellipse cx="1016.5" cy="818" fill="#ADD1B2" rx="11" ry="11" style="stroke:#181818;stroke-width:1.0;"/><path d="M1018.9731,824.1431 Q1018.3921,824.4419 1017.7529,824.5913 Q1017.1138,824.7407 1016.4082,824.7407 Q1013.9014,824.7407 1012.5815,823.0889 Q1011.2617,821.437 1011.2617,818.3159 Q1011.2617,815.1865 1012.5815,813.5347 Q1013.9014,811.8828 1016.4082,811.8828 Q1017.1138,811.8828 1017.7612,812.0322 Q1018.4087,812.1816 1018.9731,812.4805 L1018.9731,815.2031 Q1018.3423,814.6221 1017.7488,814.3523 Q1017.1553,814.0825 1016.5244,814.0825 Q1015.1797,814.0825 1014.4949,815.1492 Q1013.8101,816.2158 1013.8101,818.3159 Q1013.8101,820.4077 1014.4949,821.4744 Q1015.1797,822.541 1016.5244,822.541 Q1017.1553,822.541 1017.7488,822.2712 Q1018.3423,822.0015 1018.9731,821.4204 Z " fill="#000000"/><text fill="#000000" font-family="sans-serif" font-size="14" lengthAdjust="spacing" textLength="179" x="1030.5" y="823.291">ServerSentEventsBlueprint</text><line style="stroke:#181818;stroke-width:0.5;" x1="1002.5" x2="1211.5" y1="834" y2="834"/><line style="stroke:#181818;stroke-width:0.5;" x1="1002.5" x2="1211.5" y1="842" y2="842"/></g><g id="elem_N1"><path d="M598.5,596 L598.5,697.8633 L823.5,697.8633 L823.5,606 L813.5,596 L598.5,596 " fill="#FEFFDD" style="stroke:#181818;stroke-width:0.5;"/><path d="M813.5,596 L813.5,606 L823.5,606 L813.5,596 " fill="#FEFFDD" style="stroke:#181818;stroke-width:1.0;"/><text fill="#000000" font-family="sans-serif" font-size="13" lengthAdjust="spacing" textLength="202" x="604.5" y="613.5684">See the Script Execution module</text><text fill="#000000" font-family="sans-serif" font-size="13" lengthAdjust="spacing" textLength="198" x="604.5" y="628.8789">view for information on objects</text><text fill="#000000" font-family="sans-serif" font-size="13" lengthAdjust="spacing" textLength="54" x="604.5" y="644.1895">from the</text><text fill="#000000" font-family="monospace" font-size="13" lengthAdjust="spacing" textLength="48" x="662.5" y="643.8657">domain</text><text fill="#000000" font-family="sans-serif" font-size="13" lengthAdjust="spacing" textLength="94" x="714.5" y="644.1895">Python module</text><text fill="#000000" font-family="sans-serif" font-size="13" lengthAdjust="spacing" textLength="201" x="604.5" y="659.5">that are held as class properties</text><text fill="#000000" font-family="sans-serif" font-size="13" lengthAdjust="spacing" textLength="182" x="604.5" y="674.8105">of some of the classes in the</text><text fill="#000000" font-family="monospace" font-size="13" lengthAdjust="spacing" textLength="88" x="604.5" y="689.7974">application</text><text fill="#000000" font-family="sans-serif" font-size="13" lengthAdjust="spacing" textLength="56" x="696.5" y="690.1211">package.</text></g><!--MD5=[4048a361f681e6f68b2b7284d5ce3ea6]
class ScriptExecutionService--><g id="elem_ScriptExecutionService"><rect codeLine="70" fill="#F1F1F1" height="113.9531" id="ScriptExecutionService" rx="2.5" ry="2.5" style="stroke:#181818;stroke-width:0.5;" width="450" x="113" y="590"/><ellipse cx="256.25" cy="606" fill="#ADD1B2" rx="11" ry="11" style="stroke:#181818;stroke-width:1.0;"/><path d="M258.7231,612.1431 Q258.1421,612.4419 257.5029,612.5913 Q256.8638,612.7407 256.1582,612.7407 Q253.6514,612.7407 252.3315,611.0889 Q251.0117,609.437 251.0117,606.3159 Q251.0117,603.1865 252.3315,601.5347 Q253.6514,599.8828 256.1582,599.8828 Q256.8638,599.8828 257.5112,600.0322 Q258.1587,600.1816 258.7231,600.4805 L258.7231,603.2031 Q258.0923,602.6221 257.4988,602.3523 Q256.9053,602.0825 256.2744,602.0825 Q254.9297,602.0825 254.2449,603.1492 Q253.5601,604.2158 253.5601,606.3159 Q253.5601,608.4077 254.2449,609.4744 Q254.9297,610.541 256.2744,610.541 Q256.9053,610.541 257.4988,610.2712 Q258.0923,610.0015 258.7231,609.4204 Z " fill="#000000"/><text fill="#000000" font-family="sans-serif" font-size="14" lengthAdjust="spacing" textLength="155" x="276.75" y="611.291">ScriptExecutionService</text><line style="stroke:#181818;stroke-width:0.5;" x1="114" x2="562" y1="622" y2="622"/><line style="stroke:#181818;stroke-width:0.5;" x1="114" x2="562" y1="630" y2="630"/><text fill="#000000" font-family="sans-serif" font-size="14" lengthAdjust="spacing" textLength="438" x="119" y="647.5352">prepare(cmd: PrepareProcessCommand) -&gt; ProcedureSummary</text><text fill="#000000" font-family="sans-serif" font-size="14" lengthAdjust="spacing" textLength="394" x="119" y="664.0234">start(cmd: StartProcessCommand) -&gt; ProcedureSummary</text><text fill="#000000" font-family="sans-serif" font-size="14" lengthAdjust="spacing" textLength="425" x="119" y="680.5117">stop(cmd: StopProcessCommand) -&gt; List[ProcedureSummary]</text><text fill="#000000" font-family="sans-serif" font-size="14" lengthAdjust="spacing" textLength="372" x="119" y="697">summarise(pids: List[int]) -&gt; List[[ProcedureSummary]</text></g><!--MD5=[6400ffe083689ac1542ec7825ea5fe0e]
class ProcedureSummary--><g id="elem_ProcedureSummary"><rect codeLine="77" fill="#F1F1F1" height="113.9531" id="ProcedureSummary" rx="2.5" ry="2.5" style="stroke:#181818;stroke-width:0.5;" width="228" x="451" y="769"/><ellipse cx="493.9" cy="785" fill="#ADD1B2" rx="11" ry="11" style="stroke:#181818;stroke-width:1.0;"/><path d="M496.3731,791.1431 Q495.7921,791.4419 495.1529,791.5913 Q494.5138,791.7407 493.8082,791.7407 Q491.3014,791.7407 489.9815,790.0889 Q488.6617,788.437 488.6617,785.3159 Q488.6617,782.1865 489.9815,780.5347 Q491.3014,778.8828 493.8082,778.8828 Q494.5138,778.8828 495.1612,779.0322 Q495.8087,779.1816 496.3731,779.4805 L496.3731,782.2031 Q495.7423,781.6221 495.1488,781.3523 Q494.5553,781.0825 493.9244,781.0825 Q492.5797,781.0825 491.8949,782.1492 Q491.2101,783.2158 491.2101,785.3159 Q491.2101,787.4077 491.8949,788.4744 Q492.5797,789.541 493.9244,789.541 Q494.5553,789.541 495.1488,789.2712 Q495.7423,789.0015 496.3731,788.4204 Z " fill="#000000"/><text fill="#000000" font-family="sans-serif" font-size="14" lengthAdjust="spacing" textLength="134" x="514.1" y="790.291">ProcedureSummary</text><line style="stroke:#181818;stroke-width:0.5;" x1="452" x2="678" y1="801" y2="801"/><text fill="#000000" font-family="sans-serif" font-size="14" lengthAdjust="spacing" textLength="39" x="457" y="818.5352">id: int</text><text fill="#000000" font-family="sans-serif" font-size="14" lengthAdjust="spacing" textLength="216" x="457" y="835.0234">script: domain.ExecutableScript</text><text fill="#000000" font-family="sans-serif" font-size="14" lengthAdjust="spacing" textLength="95" x="457" y="851.5117">script_args: ...</text><text fill="#000000" font-family="sans-serif" font-size="14" lengthAdjust="spacing" textLength="201" x="457" y="868">state: domain.ProcedureState</text><line style="stroke:#181818;stroke-width:0.5;" x1="452" x2="678" y1="874.9531" y2="874.9531"/></g><!--MD5=[22b6e3484d9aeab608aa525a34a7a5de]
class ProcedureHistory--><g id="elem_ProcedureHistory"><rect codeLine="84" fill="#F1F1F1" height="80.9766" id="ProcedureHistory" rx="2.5" ry="2.5" style="stroke:#181818;stroke-width:0.5;" width="305" x="451.5" y="952"/><ellipse cx="540.75" cy="968" fill="#ADD1B2" rx="11" ry="11" style="stroke:#181818;stroke-width:1.0;"/><path d="M543.2231,974.1431 Q542.6421,974.4419 542.0029,974.5913 Q541.3638,974.7407 540.6582,974.7407 Q538.1514,974.7407 536.8315,973.0889 Q535.5117,971.437 535.5117,968.3159 Q535.5117,965.1865 536.8315,963.5347 Q538.1514,961.8828 540.6582,961.8828 Q541.3638,961.8828 542.0112,962.0322 Q542.6587,962.1816 543.2231,962.4805 L543.2231,965.2031 Q542.5923,964.6221 541.9988,964.3523 Q541.4053,964.0825 540.7744,964.0825 Q539.4297,964.0825 538.7449,965.1492 Q538.0601,966.2158 538.0601,968.3159 Q538.0601,970.4077 538.7449,971.4744 Q539.4297,972.541 540.7744,972.541 Q541.4053,972.541 541.9988,972.2712 Q542.5923,972.0015 543.2231,971.4204 Z " fill="#000000"/><text fill="#000000" font-family="sans-serif" font-size="14" lengthAdjust="spacing" textLength="118" x="561.25" y="973.291">ProcedureHistory</text><line style="stroke:#181818;stroke-width:0.5;" x1="452.5" x2="755.5" y1="984" y2="984"/><text fill="#000000" font-family="sans-serif" font-size="14" lengthAdjust="spacing" textLength="293" x="457.5" y="1001.5352">process_states: List[(ProcedureState, time)]</text><text fill="#000000" font-family="sans-serif" font-size="14" lengthAdjust="spacing" textLength="164" x="457.5" y="1018.0234">stacktrace: Optional[str]</text><line style="stroke:#181818;stroke-width:0.5;" x1="452.5" x2="755.5" y1="1024.9766" y2="1024.9766"/></g><!--MD5=[b160dcce9b08a809ce85f2ff29fa367c]
class PrepareProcessCommand--><g id="elem_PrepareProcessCommand"><rect codeLine="91" fill="#F1F1F1" height="80.9766" id="PrepareProcessCommand" rx="2.5" ry="2.5" style="stroke:#181818;stroke-width:0.5;" width="241" x="174.5" y="785.5"/><ellipse cx="204.35" cy="801.5" fill="#ADD1B2" rx="11" ry="11" style="stroke:#181818;stroke-width:1.0;"/><path d="M206.8231,807.6431 Q206.2421,807.9419 205.6029,808.0913 Q204.9638,808.2407 204.2582,808.2407 Q201.7514,808.2407 200.4315,806.5889 Q199.1117,804.937 199.1117,801.8159 Q199.1117,798.6865 200.4315,797.0347 Q201.7514,795.3828 204.2582,795.3828 Q204.9638,795.3828 205.6112,795.5322 Q206.2587,795.6816 206.8231,795.9805 L206.8231,798.7031 Q206.1923,798.1221 205.5988,797.8523 Q205.0053,797.5825 204.3744,797.5825 Q203.0297,797.5825 202.3449,798.6492 Q201.6601,799.7158 201.6601,801.8159 Q201.6601,803.9077 202.3449,804.9744 Q203.0297,806.041 204.3744,806.041 Q205.0053,806.041 205.5988,805.7712 Q206.1923,805.5015 206.8231,804.9204 Z " fill="#000000"/><text fill="#000000" font-family="sans-serif" font-size="14" lengthAdjust="spacing" textLength="176" x="221.65" y="806.791">PrepareProcessCommand</text><line style="stroke:#181818;stroke-width:0.5;" x1="175.5" x2="414.5" y1="817.5" y2="817.5"/><text fill="#000000" font-family="sans-serif" font-size="14" lengthAdjust="spacing" textLength="216" x="180.5" y="835.0352">script: domain.ExecutableScript</text><text fill="#000000" font-family="sans-serif" font-size="14" lengthAdjust="spacing" textLength="229" x="180.5" y="851.5234">init_args: domain.ProcedureInput</text><line style="stroke:#181818;stroke-width:0.5;" x1="175.5" x2="414.5" y1="858.4766" y2="858.4766"/></g><!--MD5=[0a8e784e9ba9565fe84d8c228ee2a213]
class StartProcessCommand--><g id="elem_StartProcessCommand"><rect codeLine="96" fill="#F1F1F1" height="97.4648" id="StartProcessCommand" rx="2.5" ry="2.5" style="stroke:#181818;stroke-width:0.5;" width="243" x="173.5" y="944"/><ellipse cx="213.7" cy="960" fill="#ADD1B2" rx="11" ry="11" style="stroke:#181818;stroke-width:1.0;"/><path d="M216.1731,966.1431 Q215.5921,966.4419 214.9529,966.5913 Q214.3138,966.7407 213.6082,966.7407 Q211.1014,966.7407 209.7815,965.0889 Q208.4617,963.437 208.4617,960.3159 Q208.4617,957.1865 209.7815,955.5347 Q211.1014,953.8828 213.6082,953.8828 Q214.3138,953.8828 214.9612,954.0322 Q215.6087,954.1816 216.1731,954.4805 L216.1731,957.2031 Q215.5423,956.6221 214.9488,956.3523 Q214.3553,956.0825 213.7244,956.0825 Q212.3797,956.0825 211.6949,957.1492 Q211.0101,958.2158 211.0101,960.3159 Q211.0101,962.4077 211.6949,963.4744 Q212.3797,964.541 213.7244,964.541 Q214.3553,964.541 214.9488,964.2712 Q215.5423,964.0015 216.1731,963.4204 Z " fill="#000000"/><text fill="#000000" font-family="sans-serif" font-size="14" lengthAdjust="spacing" textLength="155" x="233.3" y="965.291">StartProcessCommand</text><line style="stroke:#181818;stroke-width:0.5;" x1="174.5" x2="415.5" y1="976" y2="976"/><text fill="#000000" font-family="sans-serif" font-size="14" lengthAdjust="spacing" textLength="108" x="179.5" y="993.5352">process_uid: int</text><text fill="#000000" font-family="sans-serif" font-size="14" lengthAdjust="spacing" textLength="85" x="179.5" y="1010.0234">fn_name: str</text><text fill="#000000" font-family="sans-serif" font-size="14" lengthAdjust="spacing" textLength="231" x="179.5" y="1026.5117">run_args: domain.ProcedureInput</text><line style="stroke:#181818;stroke-width:0.5;" x1="174.5" x2="415.5" y1="1033.4648" y2="1033.4648"/></g><!--MD5=[333b187127690081bdcb02f6bb878b0d]
class StopProcessCommand--><g id="elem_StopProcessCommand"><rect codeLine="102" fill="#F1F1F1" height="80.9766" id="StopProcessCommand" rx="2.5" ry="2.5" style="stroke:#181818;stroke-width:0.5;" width="186" x="202" y="1102"/><ellipse cx="217" cy="1118" fill="#ADD1B2" rx="11" ry="11" style="stroke:#181818;stroke-width:1.0;"/><path d="M219.4731,1124.1431 Q218.8921,1124.4419 218.2529,1124.5913 Q217.6138,1124.7407 216.9082,1124.7407 Q214.4014,1124.7407 213.0815,1123.0889 Q211.7617,1121.437 211.7617,1118.3159 Q211.7617,1115.1865 213.0815,1113.5347 Q214.4014,1111.8828 216.9082,1111.8828 Q217.6138,1111.8828 218.2612,1112.0322 Q218.9087,1112.1816 219.4731,1112.4805 L219.4731,1115.2031 Q218.8423,1114.6221 218.2488,1114.3523 Q217.6553,1114.0825 217.0244,1114.0825 Q215.6797,1114.0825 214.9949,1115.1492 Q214.3101,1116.2158 214.3101,1118.3159 Q214.3101,1120.4077 214.9949,1121.4744 Q215.6797,1122.541 217.0244,1122.541 Q217.6553,1122.541 218.2488,1122.2712 Q218.8423,1122.0015 219.4731,1121.4204 Z " fill="#000000"/><text fill="#000000" font-family="sans-serif" font-size="14" lengthAdjust="spacing" textLength="154" x="231" y="1123.291">StopProcessCommand</text><line style="stroke:#181818;stroke-width:0.5;" x1="203" x2="387" y1="1134" y2="1134"/><text fill="#000000" font-family="sans-serif" font-size="14" lengthAdjust="spacing" textLength="108" x="208" y="1151.5352">process_uid: int</text><text fill="#000000" font-family="sans-serif" font-size="14" lengthAdjust="spacing" textLength="107" x="208" y="1168.0234">run_abort: bool</text><line style="stroke:#181818;stroke-width:0.5;" x1="203" x2="387" y1="1174.9766" y2="1174.9766"/></g><!--MD5=[56dc9bd079fa0794426dfac01e4747ad]
class Flask--><g id="elem_Flask"><rect codeLine="117" fill="#F1F1F1" height="48" id="Flask" rx="2.5" ry="2.5" style="stroke:#181818;stroke-width:0.5;" width="67" x="1706.5" y="802"/><ellipse cx="1721.5" cy="818" fill="#ADD1B2" rx="11" ry="11" style="stroke:#181818;stroke-width:1.0;"/><path d="M1723.9731,824.1431 Q1723.3921,824.4419 1722.7529,824.5913 Q1722.1138,824.7407 1721.4082,824.7407 Q1718.9014,824.7407 1717.5815,823.0889 Q1716.2617,821.437 1716.2617,818.3159 Q1716.2617,815.1865 1717.5815,813.5347 Q1718.9014,811.8828 1721.4082,811.8828 Q1722.1138,811.8828 1722.7612,812.0322 Q1723.4087,812.1816 1723.9731,812.4805 L1723.9731,815.2031 Q1723.3423,814.6221 1722.7488,814.3523 Q1722.1553,814.0825 1721.5244,814.0825 Q1720.1797,814.0825 1719.4949,815.1492 Q1718.8101,816.2158 1718.8101,818.3159 Q1718.8101,820.4077 1719.4949,821.4744 Q1720.1797,822.541 1721.5244,822.541 Q1722.1553,822.541 1722.7488,822.2712 Q1723.3423,822.0015 1723.9731,821.4204 Z " fill="#000000"/><text fill="#000000" font-family="sans-serif" font-size="14" lengthAdjust="spacing" textLength="35" x="1735.5" y="823.291">Flask</text><line style="stroke:#181818;stroke-width:0.5;" x1="1707.5" x2="1772.5" y1="834" y2="834"/><line style="stroke:#181818;stroke-width:0.5;" x1="1707.5" x2="1772.5" y1="842" y2="842"/></g><!--MD5=[687b898a26107f91307f914974ba425d]
class Blueprint--><g id="elem_Blueprint"><rect codeLine="118" fill="#F1F1F1" height="48" id="Blueprint" rx="2.5" ry="2.5" style="stroke:#181818;stroke-width:0.5;" width="94" x="1700" y="968.5"/><ellipse cx="1715" cy="984.5" fill="#ADD1B2" rx="11" ry="11" style="stroke:#181818;stroke-width:1.0;"/><path d="M1717.4731,990.6431 Q1716.8921,990.9419 1716.2529,991.0913 Q1715.6138,991.2407 1714.9082,991.2407 Q1712.4014,991.2407 1711.0815,989.5889 Q1709.7617,987.937 1709.7617,984.8159 Q1709.7617,981.6865 1711.0815,980.0347 Q1712.4014,978.3828 1714.9082,978.3828 Q1715.6138,978.3828 1716.2612,978.5322 Q1716.9087,978.6816 1717.4731,978.9805 L1717.4731,981.7031 Q1716.8423,981.1221 1716.2488,980.8523 Q1715.6553,980.5825 1715.0244,980.5825 Q1713.6797,980.5825 1712.9949,981.6492 Q1712.3101,982.7158 1712.3101,984.8159 Q1712.3101,986.9077 1712.9949,987.9744 Q1713.6797,989.041 1715.0244,989.041 Q1715.6553,989.041 1716.2488,988.7712 Q1716.8423,988.5015 1717.4731,987.9204 Z " fill="#000000"/><text fill="#000000" font-family="sans-serif" font-size="14" lengthAdjust="spacing" textLength="62" x="1729" y="989.791">Blueprint</text><line style="stroke:#181818;stroke-width:0.5;" x1="1701" x2="1793" y1="1000.5" y2="1000.5"/><line style="stroke:#181818;stroke-width:0.5;" x1="1701" x2="1793" y1="1008.5" y2="1008.5"/></g><path d="M1662.5,383 L1731.5,383 A3.75,3.75 0 0 1 1734,385.5 L1741,405.4883 L1745.5,405.4883 A2.5,2.5 0 0 1 1748,407.9883 L1748,433.4766 A2.5,2.5 0 0 1 1745.5,435.9766 L1662.5,435.9766 A2.5,2.5 0 0 1 1660,433.4766 L1660,385.5 A2.5,2.5 0 0 1 1662.5,383 " fill="#F1F1F1" style="stroke:#181818;stroke-width:0.5;"/><line style="stroke:#181818;stroke-width:0.5;" x1="1660" x2="1741" y1="405.4883" y2="405.4883"/><text fill="#000000" font-family="sans-serif" font-size="14" lengthAdjust="spacing" textLength="68" x="1664" y="398.5352">pypubsub</text><!--MD5=[2dcef3fd26659446edefb67ee5b3bba0]
link ScriptExecutionServiceWorker to EventBusWorker--><g id="link_ScriptExecutionServiceWorker_EventBusWorker"><path codeLine="44" d="M835.94,265.73 C861.01,290.92 890.65,320.71 916.36,346.54 " fill="none" id="ScriptExecutionServiceWorker-to-EventBusWorker" style="stroke:#181818;stroke-width:1.0;"/><polygon fill="none" points="921.43,341.72,930.57,360.83,911.5,351.59,921.43,341.72" style="stroke:#181818;stroke-width:1.0;"/></g><!--MD5=[0588a888a6ac03d9a4287ccaf86a00ac]
link FlaskWorker to EventBusWorker--><g id="link_FlaskWorker_EventBusWorker"><path codeLine="45" d="M989.48,232.72 C987.76,259.1 984.87,303.37 982.42,340.88 " fill="none" id="FlaskWorker-to-EventBusWorker" style="stroke:#181818;stroke-width:1.0;"/><polygon fill="none" points="989.4,341.37,981.11,360.87,975.43,340.46,989.4,341.37" style="stroke:#181818;stroke-width:1.0;"/></g><!--MD5=[0356016a1e2e5ea6770c3cc70902a29d]
reverse link app to API--><g id="link_app_API"><path codeLine="56" d="M1021.42,686.46 C1009.52,703.52 995.67,724 984,743 C972.1,762.37 959.76,785.08 951.01,801.68 " fill="none" id="app-backto-API" style="stroke:#181818;stroke-width:1.0;"/><polygon fill="none" points="1028.92,675.79,1022.1988,678.4025,1022.0252,685.6115,1028.7464,682.999,1028.92,675.79" style="stroke:#181818;stroke-width:1.0;"/></g><!--MD5=[71723dd1a6f45f6c1cc9bac83e5a3aed]
reverse link app to ServerSentEventsBlueprint--><g id="link_app_ServerSentEventsBlueprint"><path codeLine="57" d="M1062.21,688.31 C1073.7,723.38 1089.95,772.96 1099.39,801.77 " fill="none" id="app-backto-ServerSentEventsBlueprint" style="stroke:#181818;stroke-width:1.0;"/><polygon fill="none" points="1058.06,675.66,1056.1336,682.609,1061.8072,687.0599,1063.7336,680.1109,1058.06,675.66" style="stroke:#181818;stroke-width:1.0;"/></g><!--MD5=[670a92a197175b32c692a49afe2e6446]
link ProcedureSummary to ProcedureHistory--><g id="link_ProcedureSummary_ProcedureHistory"><path codeLine="88" d="M578.31,883.15 C583.26,904 588.79,927.35 593.45,947.02 " fill="none" id="ProcedureSummary-to-ProcedureHistory" style="stroke:#181818;stroke-width:1.0;"/><polygon fill="#181818" points="594.62,951.93,596.4318,942.2492,593.4645,947.0654,588.6483,944.0981,594.62,951.93" style="stroke:#181818;stroke-width:1.0;"/></g><!--MD5=[650b803e1eaf2fa6d530be6fd187ebab]
link PrepareProcessCommand to StartProcessCommand--><!--MD5=[39ddc06e72d877b4e817c92e8dcb1a3f]
link StartProcessCommand to StopProcessCommand--><!--MD5=[e4f2f32f24c45f71dd786268467d1361]
reverse link FlaskWorker to app--><g id="link_FlaskWorker_app"><path codeLine="110" d="M972.79,244.1 C959.66,265.48 939.89,291.53 915,306 C894.41,317.98 877.54,295.94 862,314 C801.42,384.41 817.92,441.24 862,523 C886.07,567.64 934.19,598.73 975.59,618.48 " fill="none" id="FlaskWorker-backto-app" style="stroke:#181818;stroke-width:1.0;"/><polygon fill="#181818" points="979.4,232.8,972.9202,235.9641,973.3486,243.1625,979.8285,239.9984,979.4,232.8" style="stroke:#181818;stroke-width:1.0;"/></g><!--MD5=[640230681217722b70e4344c1111c0bc]
link ScriptExecutionServiceWorker to ScriptExecutionService--><g id="link_ScriptExecutionServiceWorker_ScriptExecutionService"><path codeLine="111" d="M723.12,265.67 C639.61,348.14 484.47,501.35 398.79,585.97 " fill="none" id="ScriptExecutionServiceWorker-to-ScriptExecutionService" style="stroke:#181818;stroke-width:1.0;"/><polygon fill="#181818" points="395.01,589.7,404.2236,586.2202,398.5669,586.186,398.6012,580.5292,395.01,589.7" style="stroke:#181818;stroke-width:1.0;"/></g><!--MD5=[ba95c7f4237f35f52038bfc61d34fc99]
link Flask to Blueprint--><!--MD5=[7bc91e66d2a1940da7a755ed03b9f1fc]
link app to Flask--><g id="link_app_Flask"><path codeLine="123" d="M1072.35,675.69 C1087.63,691.94 1108.98,711.4 1132,722.5 C1157.05,734.58 1542.15,794.6 1686.18,816.76 " fill="none" id="app-to-Flask" style="stroke:#181818;stroke-width:1.0;"/><polygon fill="none" points="1687.67,809.91,1706.38,819.86,1685.55,823.75,1687.67,809.91" style="stroke:#181818;stroke-width:1.0;"/></g><!--MD5=[a3eba69965b048e9f5b00c0279c27b63]
link API to Blueprint--><g id="link_API_Blueprint"><path codeLine="124" d="M949.57,850.28 C957.13,864.14 968.68,880.79 984,890 C1100.84,960.26 1516.19,983 1679.94,989.34 " fill="none" id="API-to-Blueprint" style="stroke:#181818;stroke-width:1.0;"/><polygon fill="none" points="1680.25,982.34,1699.97,990.08,1679.73,996.33,1680.25,982.34" style="stroke:#181818;stroke-width:1.0;"/></g><!--MD5=[ba85647e1184cfa2d18c00395cb919e8]
link ServerSentEventsBlueprint to Blueprint--><g id="link_ServerSentEventsBlueprint_Blueprint"><path codeLine="125" d="M1196.66,850.05 C1326.64,883.45 1564.46,944.58 1680.19,974.33 " fill="none" id="ServerSentEventsBlueprint-to-Blueprint" style="stroke:#181818;stroke-width:1.0;"/><polygon fill="none" points="1682.04,967.58,1699.67,979.33,1678.56,981.14,1682.04,967.58" style="stroke:#181818;stroke-width:1.0;"/></g><!--MD5=[06a4b4d53303a9e5740e1be151afed20]
link ska_oso_oet.procedure to pypubsub--><g id="link_ska_oso_oet.procedure_pypubsub"><path d="M1636.1116,230.7326 C1636.1823,230.9179 1636.2535,231.1042 1636.325,231.2914 C1636.468,231.6659 1636.6124,232.0443 1636.7584,232.4265 C1637.0502,233.1909 1637.3479,233.9705 1637.6512,234.7647 C1638.2577,236.3532 1638.8866,238.0002 1639.536,239.7009 C1640.8347,243.1021 1642.2154,246.718 1643.6632,250.5095 C1646.5588,258.0925 1649.7228,266.3781 1653.0363,275.055 C1666.29,309.7625 1681.935,350.73 1692.36,378.03 " fill="none" id="ska_oso_oet.procedure-to-pypubsub" style="stroke:#181818;stroke-width:1.0;stroke-dasharray:7.0,7.0;"/><polygon fill="#181818" points="1694.19,382.82,1694.7127,372.985,1692.4047,378.1496,1687.2401,375.8415,1694.19,382.82" style="stroke:#181818;stroke-width:1.0;"/><text fill="#000000" font-family="sans-serif" font-size="13" lengthAdjust="spacing" textLength="29" x="1673" y="327.5684">uses</text></g><!--MD5=[300e9285ec805b9a8d2729f84a85b227]
link main to application--><!--MD5=[605d9347a921b61a607f7c4a5e0cd06a]
link restserver to application--><!--MD5=[9e40e20377711443ecd082752ec33bb9]
link restserver to flask--><!--MD5=[b07931159a4624d0b61c6220108084ac]
link FlaskWorker to restserver--><!--MD5=[ce8f21cae804bb116fe015a0ab75054a]
link ScriptExecutionService to ProcedureSummary--><!--MD5=[799f727a92f89361974a63b4ee7bc2b5]
link ScriptExecutionService to PrepareProcessCommand--><!--MD5=[adba8a5627530cfec0071e7729ee5ecf]
link PrepareProcessCommand to ProcedureSummary--><!--MD5=[72bbabe51077bbba87c7933a1735c5c3]
link EventBusWorker to mptools--><g id="link_EventBusWorker_mptools"><path codeLine="138" d="M1049.15,427.87 C1109.27,445.53 1194.67,477.96 1253,531 C1274.3,550.37 1290.1375,578.53 1300.7287,602.1363 C1303.3766,608.0378 1305.6965,613.6548 1307.6919,618.7786 C1307.9413,619.4191 1308.1857,620.0519 1308.425,620.6765 C1308.5446,620.9889 1308.663,621.2992 1308.7801,621.6074 C1308.8387,621.7615 1308.8969,621.9151 1308.9548,622.0682 " fill="none" id="EventBusWorker-mptools" style="stroke:#181818;stroke-width:1.0;stroke-dasharray:1.0,3.0;"/><text fill="#000000" font-family="sans-serif" font-size="13" lengthAdjust="spacing" textLength="29" x="1242" y="519.5684">uses</text></g><!--MD5=[6cb1fdca42ac8e288cd7c7d8f2abfc5d]
@startuml
'https://plantuml.com/class-diagram

package ska_oso_oet.procedure {

    package mptools <<Rectangle>> {
        note as mptools_note
        See the ScriptExecutionService
        view for more information on
        the ""mptools"" module and its
        contents.
        end note
    }

    package application as application_pkg {

        package restclient <<Rectangle>> {
            class RestClientUI {
                create(...)
                start(...)
                stop(...)
                list(...)
                describe(...)
                listen(...)
            }
        }

        package main <<Rectangle>> {
            class ScriptExecutionServiceWorker {
                prepare(...)
                start(...)
                stop(...)
                list(...)
            }

            class FlaskWorker {
            }

            class EventBusWorker {
                main_loop(...)
                main_func(...)
                republish(...)
            }

            ScriptExecutionServiceWorker - -|> EventBusWorker
            FlaskWorker - -|> EventBusWorker
        }

        package restserver <<Rectangle>> {
            class app <<function return value>> {
            }

            class API

            class ServerSentEventsBlueprint

            app o- - API
            app o- - ServerSentEventsBlueprint
        }

        package application <<Rectangle>> {
            note as N1
            See the Script Execution module
            view for information on objects
            from the ""domain"" Python module
            that are held as class properties
            of some of the classes in the
            ""application"" package.
            end note

            class ScriptExecutionService {
                prepare(cmd: PrepareProcessCommand) -> ProcedureSummary
                start(cmd: StartProcessCommand) -> ProcedureSummary
                stop(cmd: StopProcessCommand) -> List[ProcedureSummary]
                summarise(pids: List[int]) -> List[[ProcedureSummary]
            }

            class ProcedureSummary {
                id: int
                script: domain.ExecutableScript
                script_args: ...
                state: domain.ProcedureState
            }

            class ProcedureHistory {
                {field} process_states: List[(ProcedureState, time)]
                stacktrace: Optional[str]
            }
            ProcedureSummary - -> ProcedureHistory

            together {
            class PrepareProcessCommand {
                script: domain.ExecutableScript
                init_args: domain.ProcedureInput
            }

            class StartProcessCommand {
                process_uid: int
                fn_name: str
                run_args: domain.ProcedureInput
            }

            class StopProcessCommand {
                process_uid: int
                run_abort: bool
            }
            }
            PrepareProcessCommand -[hidden]- StartProcessCommand
            StartProcessCommand -[hidden]- StopProcessCommand
        }
        FlaskWorker *- - app
        ScriptExecutionServiceWorker - -> ScriptExecutionService

    }
}

package flask {
    class Flask
    class Blueprint

    Flask -down[hidden]- Blueprint
}

app -|> Flask
API -|> Blueprint
ServerSentEventsBlueprint - -|> Blueprint

package pypubsub {
}
ska_oso_oet.procedure -[dashed]-> pypubsub: uses

main -down[hidden]- -> application
restserver -left[hidden]- -> application
restserver -right[hidden]- -> flask
FlaskWorker -down[hidden]- -> restserver
ScriptExecutionService -down[hidden]- ProcedureSummary
ScriptExecutionService -down[hidden]- PrepareProcessCommand
PrepareProcessCommand -right[hidden]- ProcedureSummary
EventBusWorker -[dotted]- mptools: uses

@enduml

@startuml

package ska_oso_oet.procedure {

    package mptools <<Rectangle>> {
        note as mptools_note
        See the ScriptExecutionService
        view for more information on
        the ""mptools"" module and its
        contents.
        end note
    }

    package application as application_pkg {

        package restclient <<Rectangle>> {
            class RestClientUI {
                create(...)
                start(...)
                stop(...)
                list(...)
                describe(...)
                listen(...)
            }
        }

        package main <<Rectangle>> {
            class ScriptExecutionServiceWorker {
                prepare(...)
                start(...)
                stop(...)
                list(...)
            }

            class FlaskWorker {
            }

            class EventBusWorker {
                main_loop(...)
                main_func(...)
                republish(...)
            }

            ScriptExecutionServiceWorker - -|> EventBusWorker
            FlaskWorker - -|> EventBusWorker
        }

        package restserver <<Rectangle>> {
            class app <<function return value>> {
            }

            class API

            class ServerSentEventsBlueprint

            app o- - API
            app o- - ServerSentEventsBlueprint
        }

        package application <<Rectangle>> {
            note as N1
            See the Script Execution module
            view for information on objects
            from the ""domain"" Python module
            that are held as class properties
            of some of the classes in the
            ""application"" package.
            end note

            class ScriptExecutionService {
                prepare(cmd: PrepareProcessCommand) -> ProcedureSummary
                start(cmd: StartProcessCommand) -> ProcedureSummary
                stop(cmd: StopProcessCommand) -> List[ProcedureSummary]
                summarise(pids: List[int]) -> List[[ProcedureSummary]
            }

            class ProcedureSummary {
                id: int
                script: domain.ExecutableScript
                script_args: ...
                state: domain.ProcedureState
            }

            class ProcedureHistory {
                {field} process_states: List[(ProcedureState, time)]
                stacktrace: Optional[str]
            }
            ProcedureSummary - -> ProcedureHistory

            together {
            class PrepareProcessCommand {
                script: domain.ExecutableScript
                init_args: domain.ProcedureInput
            }

            class StartProcessCommand {
                process_uid: int
                fn_name: str
                run_args: domain.ProcedureInput
            }

            class StopProcessCommand {
                process_uid: int
                run_abort: bool
            }
            }
            PrepareProcessCommand -[hidden]- StartProcessCommand
            StartProcessCommand -[hidden]- StopProcessCommand
        }
        FlaskWorker *- - app
        ScriptExecutionServiceWorker - -> ScriptExecutionService

    }
}

package flask {
    class Flask
    class Blueprint

    Flask -down[hidden]- Blueprint
}

app -|> Flask
API -|> Blueprint
ServerSentEventsBlueprint - -|> Blueprint

package pypubsub {
}
ska_oso_oet.procedure -[dashed]-> pypubsub: uses

main -down[hidden]- -> application
restserver -left[hidden]- -> application
restserver -right[hidden]- -> flask
FlaskWorker -down[hidden]- -> restserver
ScriptExecutionService -down[hidden]- ProcedureSummary
ScriptExecutionService -down[hidden]- PrepareProcessCommand
PrepareProcessCommand -right[hidden]- ProcedureSummary
EventBusWorker -[dotted]- mptools: uses

@enduml

PlantUML version 1.2022.5(Sat Apr 30 11:55:52 BST 2022)
(GPL source distribution)
Java Runtime: OpenJDK Runtime Environment
JVM: OpenJDK 64-Bit Server VM
Default Encoding: UTF-8
Language: en
Country: GB
--></g></svg>