<?xml version="1.0" encoding="UTF-8" standalone="no"?><svg xmlns="http://www.w3.org/2000/svg" xmlns:xlink="http://www.w3.org/1999/xlink" contentStyleType="text/css" height="1796px" preserveAspectRatio="none" style="width:1325px;height:1796px;background:#FFFFFF;" version="1.1" viewBox="0 0 1325 1796" width="1325px" zoomAndPan="magnify"><defs/><g><!--cluster ska_oso_oet_client--><g id="cluster_ska_oso_oet_client"><path d="M1124.5,6 L1271.5,6 A3.75,3.75 0 0 1 1274,8.5 L1281,28.2969 L1315.5,28.2969 A2.5,2.5 0 0 1 1318,30.7969 L1318,267.5 A2.5,2.5 0 0 1 1315.5,270 L1124.5,270 A2.5,2.5 0 0 1 1122,267.5 L1122,8.5 A2.5,2.5 0 0 1 1124.5,6 " fill="none" style="stroke:#000000;stroke-width:1.5;"/><line style="stroke:#000000;stroke-width:1.5;" x1="1122" x2="1281" y1="28.2969" y2="28.2969"/><text fill="#000000" font-family="sans-serif" font-size="14" font-weight="bold" lengthAdjust="spacing" textLength="146" x="1126" y="20.9951">ska_oso_oet_client</text></g><!--cluster restclient--><g id="cluster_restclient"><rect fill="none" height="197" rx="2.5" ry="2.5" style="stroke:#181818;stroke-width:1.0;" width="148" x="1146" y="49"/><text fill="#000000" font-family="sans-serif" font-size="14" font-weight="bold" lengthAdjust="spacing" textLength="75" x="1182.5" y="63.9951">restclient</text></g><!--cluster ska_oso_oet--><g id="cluster_ska_oso_oet"><path d="M8.5,30.5 L105.5,30.5 A3.75,3.75 0 0 1 108,33 L115,52.7969 L1095.5,52.7969 A2.5,2.5 0 0 1 1098,55.2969 L1098,1786.5 A2.5,2.5 0 0 1 1095.5,1789 L8.5,1789 A2.5,2.5 0 0 1 6,1786.5 L6,33 A2.5,2.5 0 0 1 8.5,30.5 " fill="none" style="stroke:#000000;stroke-width:1.5;"/><line style="stroke:#000000;stroke-width:1.5;" x1="6" x2="115" y1="52.7969" y2="52.7969"/><text fill="#000000" font-family="sans-serif" font-size="14" font-weight="bold" lengthAdjust="spacing" textLength="96" x="10" y="45.4951">ska_oso_oet</text></g><!--cluster main--><g id="cluster_main"><rect fill="none" height="410.5" rx="2.5" ry="2.5" style="stroke:#181818;stroke-width:1.0;" width="421" x="557" y="73.5"/><text fill="#000000" font-family="sans-serif" font-size="14" font-weight="bold" lengthAdjust="spacing" textLength="37" x="749" y="88.4951">main</text></g><!--cluster ui--><g id="cluster_ui"><rect fill="none" height="107" rx="2.5" ry="2.5" style="stroke:#181818;stroke-width:1.0;" width="206" x="868" y="508"/><text fill="#000000" font-family="sans-serif" font-size="14" font-weight="bold" lengthAdjust="spacing" textLength="14" x="964" y="522.9951">ui</text></g><!--cluster procedure--><g id="cluster_procedure"><path d="M32.5,639 L116.5,639 A3.75,3.75 0 0 1 119,641.5 L126,661.2969 L1071.5,661.2969 A2.5,2.5 0 0 1 1074,663.7969 L1074,1762.5 A2.5,2.5 0 0 1 1071.5,1765 L32.5,1765 A2.5,2.5 0 0 1 30,1762.5 L30,641.5 A2.5,2.5 0 0 1 32.5,639 " fill="none" style="stroke:#000000;stroke-width:1.5;"/><line style="stroke:#000000;stroke-width:1.5;" x1="30" x2="126" y1="661.2969" y2="661.2969"/><text fill="#000000" font-family="sans-serif" font-size="14" font-weight="bold" lengthAdjust="spacing" textLength="83" x="34" y="653.9951">procedure</text></g><!--cluster procedure_ui--><g id="cluster_procedure_ui"><rect fill="none" height="99" rx="2.5" ry="2.5" style="stroke:#181818;stroke-width:1.0;" width="158" x="892" y="714.5"/><text fill="#000000" font-family="sans-serif" font-size="14" font-weight="bold" lengthAdjust="spacing" textLength="14" x="964" y="729.4951">ui</text></g><!--cluster application--><g id="cluster_application"><rect fill="none" height="635" rx="2.5" ry="2.5" style="stroke:#181818;stroke-width:1.0;" width="814" x="54" y="682"/><text fill="#000000" font-family="sans-serif" font-size="14" font-weight="bold" lengthAdjust="spacing" textLength="85" x="418.5" y="696.9951">application</text></g><!--cluster domain--><g id="cluster_domain"><rect fill="none" height="354" rx="2.5" ry="2.5" style="stroke:#181818;stroke-width:1.0;" width="891" x="153" y="1387"/><text fill="#000000" font-family="sans-serif" font-size="14" font-weight="bold" lengthAdjust="spacing" textLength="57" x="570" y="1401.9951">domain</text></g><!--cluster flask--><g id="cluster_flask"><path d="M1124.5,512 L1162.5,512 A3.75,3.75 0 0 1 1165,514.5 L1172,534.2969 L1245.5,534.2969 A2.5,2.5 0 0 1 1248,536.7969 L1248,811 A2.5,2.5 0 0 1 1245.5,813.5 L1124.5,813.5 A2.5,2.5 0 0 1 1122,811 L1122,514.5 A2.5,2.5 0 0 1 1124.5,512 " fill="none" style="stroke:#000000;stroke-width:1.5;"/><line style="stroke:#000000;stroke-width:1.5;" x1="1122" x2="1172" y1="534.2969" y2="534.2969"/><text fill="#000000" font-family="sans-serif" font-size="14" font-weight="bold" lengthAdjust="spacing" textLength="37" x="1126" y="526.9951">flask</text></g><!--class RestClientUI--><g id="elem_RestClientUI"><rect codeLine="5" fill="#F1F1F1" height="145.7813" id="RestClientUI" rx="2.5" ry="2.5" style="stroke:#181818;stroke-width:0.5;" width="116" x="1162" y="84"/><ellipse cx="1177" cy="100" fill="#ADD1B2" rx="11" ry="11" style="stroke:#181818;stroke-width:1.0;"/><path d="M1179.9688,105.6406 Q1179.3906,105.9375 1178.75,106.0781 Q1178.1094,106.2344 1177.4063,106.2344 Q1174.9063,106.2344 1173.5781,104.5938 Q1172.2656,102.9375 1172.2656,99.8125 Q1172.2656,96.6875 1173.5781,95.0313 Q1174.9063,93.375 1177.4063,93.375 Q1178.1094,93.375 1178.75,93.5313 Q1179.4063,93.6875 1179.9688,93.9844 L1179.9688,96.7031 Q1179.3438,96.125 1178.75,95.8594 Q1178.1563,95.5781 1177.5313,95.5781 Q1176.1875,95.5781 1175.5,96.6563 Q1174.8125,97.7188 1174.8125,99.8125 Q1174.8125,101.9063 1175.5,102.9844 Q1176.1875,104.0469 1177.5313,104.0469 Q1178.1563,104.0469 1178.75,103.7813 Q1179.3438,103.5 1179.9688,102.9219 L1179.9688,105.6406 Z " fill="#000000"/><text fill="#000000" font-family="sans-serif" font-size="14" lengthAdjust="spacing" textLength="84" x="1191" y="104.8467">RestClientUI</text><line style="stroke:#181818;stroke-width:0.5;" x1="1163" x2="1277" y1="116" y2="116"/><line style="stroke:#181818;stroke-width:0.5;" x1="1163" x2="1277" y1="124" y2="124"/><text fill="#000000" font-family="sans-serif" font-size="14" lengthAdjust="spacing" textLength="66" x="1168" y="140.9951">create(...)</text><text fill="#000000" font-family="sans-serif" font-size="14" lengthAdjust="spacing" textLength="53" x="1168" y="157.292">start(...)</text><text fill="#000000" font-family="sans-serif" font-size="14" lengthAdjust="spacing" textLength="53" x="1168" y="173.5889">stop(...)</text><text fill="#000000" font-family="sans-serif" font-size="14" lengthAdjust="spacing" textLength="41" x="1168" y="189.8857">list(...)</text><text fill="#000000" font-family="sans-serif" font-size="14" lengthAdjust="spacing" textLength="82" x="1168" y="206.1826">describe(...)</text><text fill="#000000" font-family="sans-serif" font-size="14" lengthAdjust="spacing" textLength="59" x="1168" y="222.4795">listen(...)</text></g><!--class ScriptExecutionServiceWorker--><g id="elem_ScriptExecutionServiceWorker"><rect codeLine="19" fill="#F1F1F1" height="178.375" id="ScriptExecutionServiceWorker" rx="2.5" ry="2.5" style="stroke:#181818;stroke-width:0.5;" width="238" x="573" y="290"/><ellipse cx="588" cy="306" fill="#ADD1B2" rx="11" ry="11" style="stroke:#181818;stroke-width:1.0;"/><path d="M590.9688,311.6406 Q590.3906,311.9375 589.75,312.0781 Q589.1094,312.2344 588.4063,312.2344 Q585.9063,312.2344 584.5781,310.5938 Q583.2656,308.9375 583.2656,305.8125 Q583.2656,302.6875 584.5781,301.0313 Q585.9063,299.375 588.4063,299.375 Q589.1094,299.375 589.75,299.5313 Q590.4063,299.6875 590.9688,299.9844 L590.9688,302.7031 Q590.3438,302.125 589.75,301.8594 Q589.1563,301.5781 588.5313,301.5781 Q587.1875,301.5781 586.5,302.6563 Q585.8125,303.7188 585.8125,305.8125 Q585.8125,307.9063 586.5,308.9844 Q587.1875,310.0469 588.5313,310.0469 Q589.1563,310.0469 589.75,309.7813 Q590.3438,309.5 590.9688,308.9219 L590.9688,311.6406 Z " fill="#000000"/><text fill="#000000" font-family="sans-serif" font-size="14" lengthAdjust="spacing" textLength="206" x="602" y="310.8467">ScriptExecutionServiceWorker</text><line style="stroke:#181818;stroke-width:0.5;" x1="574" x2="810" y1="322" y2="322"/><line style="stroke:#181818;stroke-width:0.5;" x1="574" x2="810" y1="330" y2="330"/><text fill="#000000" font-family="sans-serif" font-size="14" lengthAdjust="spacing" textLength="76" x="579" y="346.9951">prepare(...)</text><text fill="#000000" font-family="sans-serif" font-size="14" lengthAdjust="spacing" textLength="53" x="579" y="363.292">start(...)</text><text fill="#000000" font-family="sans-serif" font-size="14" lengthAdjust="spacing" textLength="53" x="579" y="379.5889">stop(...)</text><text fill="#000000" font-family="sans-serif" font-size="14" lengthAdjust="spacing" textLength="41" x="579" y="395.8857">list(...)</text><text fill="#000000" font-family="sans-serif" font-size="14" lengthAdjust="spacing" textLength="196" x="579" y="412.1826">on_load(evt: EventMessage)</text><text fill="#000000" font-family="sans-serif" font-size="14" lengthAdjust="spacing" textLength="190" x="579" y="428.4795">on_run(evt: EventMessage)</text><text fill="#000000" font-family="sans-serif" font-size="14" lengthAdjust="spacing" textLength="192" x="579" y="444.7764">on_env(evt: EventMessage)</text><text fill="#000000" font-family="sans-serif" font-size="14" lengthAdjust="spacing" textLength="220" x="579" y="461.0732">on_pubsub(evt: EventMessage)</text></g><!--class FlaskWorker--><g id="elem_FlaskWorker"><rect codeLine="30" fill="#F1F1F1" height="48" id="FlaskWorker" rx="2.5" ry="2.5" style="stroke:#181818;stroke-width:0.5;" width="116" x="846" y="355"/><ellipse cx="861" cy="371" fill="#ADD1B2" rx="11" ry="11" style="stroke:#181818;stroke-width:1.0;"/><path d="M863.9688,376.6406 Q863.3906,376.9375 862.75,377.0781 Q862.1094,377.2344 861.4063,377.2344 Q858.9063,377.2344 857.5781,375.5938 Q856.2656,373.9375 856.2656,370.8125 Q856.2656,367.6875 857.5781,366.0313 Q858.9063,364.375 861.4063,364.375 Q862.1094,364.375 862.75,364.5313 Q863.4063,364.6875 863.9688,364.9844 L863.9688,367.7031 Q863.3438,367.125 862.75,366.8594 Q862.1563,366.5781 861.5313,366.5781 Q860.1875,366.5781 859.5,367.6563 Q858.8125,368.7188 858.8125,370.8125 Q858.8125,372.9063 859.5,373.9844 Q860.1875,375.0469 861.5313,375.0469 Q862.1563,375.0469 862.75,374.7813 Q863.3438,374.5 863.9688,373.9219 L863.9688,376.6406 Z " fill="#000000"/><text fill="#000000" font-family="sans-serif" font-size="14" lengthAdjust="spacing" textLength="84" x="875" y="375.8467">FlaskWorker</text><line style="stroke:#181818;stroke-width:0.5;" x1="847" x2="961" y1="387" y2="387"/><line style="stroke:#181818;stroke-width:0.5;" x1="847" x2="961" y1="395" y2="395"/></g><!--class EventBusWorker--><g id="elem_EventBusWorker"><rect codeLine="33" fill="#F1F1F1" height="96.8906" id="EventBusWorker" rx="2.5" ry="2.5" style="stroke:#181818;stroke-width:0.5;" width="147" x="716.5" y="108.5"/><ellipse cx="731.5" cy="124.5" fill="#ADD1B2" rx="11" ry="11" style="stroke:#181818;stroke-width:1.0;"/><path d="M734.4688,130.1406 Q733.8906,130.4375 733.25,130.5781 Q732.6094,130.7344 731.9063,130.7344 Q729.4063,130.7344 728.0781,129.0938 Q726.7656,127.4375 726.7656,124.3125 Q726.7656,121.1875 728.0781,119.5313 Q729.4063,117.875 731.9063,117.875 Q732.6094,117.875 733.25,118.0313 Q733.9063,118.1875 734.4688,118.4844 L734.4688,121.2031 Q733.8438,120.625 733.25,120.3594 Q732.6563,120.0781 732.0313,120.0781 Q730.6875,120.0781 730,121.1563 Q729.3125,122.2188 729.3125,124.3125 Q729.3125,126.4063 730,127.4844 Q730.6875,128.5469 732.0313,128.5469 Q732.6563,128.5469 733.25,128.2813 Q733.8438,128 734.4688,127.4219 L734.4688,130.1406 Z " fill="#000000"/><text fill="#000000" font-family="sans-serif" font-size="14" lengthAdjust="spacing" textLength="115" x="745.5" y="129.3467">EventBusWorker</text><line style="stroke:#181818;stroke-width:0.5;" x1="717.5" x2="862.5" y1="140.5" y2="140.5"/><line style="stroke:#181818;stroke-width:0.5;" x1="717.5" x2="862.5" y1="148.5" y2="148.5"/><text fill="#000000" font-family="sans-serif" font-size="14" lengthAdjust="spacing" textLength="92" x="722.5" y="165.4951">main_loop(...)</text><text fill="#000000" font-family="sans-serif" font-size="14" lengthAdjust="spacing" textLength="92" x="722.5" y="181.792">main_func(...)</text><text fill="#000000" font-family="sans-serif" font-size="14" lengthAdjust="spacing" textLength="86" x="722.5" y="198.0889">republish(...)</text></g><!--class app--><g id="elem_app"><rect codeLine="44" fill="#F1F1F1" height="56.2656" id="app" rx="2.5" ry="2.5" style="stroke:#181818;stroke-width:0.5;" width="173" x="884.5" y="543"/><ellipse cx="899.5" cy="563.1328" fill="#ADD1B2" rx="11" ry="11" style="stroke:#181818;stroke-width:1.0;"/><path d="M902.4688,568.7734 Q901.8906,569.0703 901.25,569.2109 Q900.6094,569.3672 899.9063,569.3672 Q897.4063,569.3672 896.0781,567.7266 Q894.7656,566.0703 894.7656,562.9453 Q894.7656,559.8203 896.0781,558.1641 Q897.4063,556.5078 899.9063,556.5078 Q900.6094,556.5078 901.25,556.6641 Q901.9063,556.8203 902.4688,557.1172 L902.4688,559.8359 Q901.8438,559.2578 901.25,558.9922 Q900.6563,558.7109 900.0313,558.7109 Q898.6875,558.7109 898,559.7891 Q897.3125,560.8516 897.3125,562.9453 Q897.3125,565.0391 898,566.1172 Q898.6875,567.1797 900.0313,567.1797 Q900.6563,567.1797 901.25,566.9141 Q901.8438,566.6328 902.4688,566.0547 L902.4688,568.7734 Z " fill="#000000"/><text fill="#000000" font-family="sans-serif" font-size="12" font-style="italic" lengthAdjust="spacing" textLength="145" x="911.5" y="559.1387">«function return value»</text><text fill="#000000" font-family="sans-serif" font-size="14" lengthAdjust="spacing" textLength="26" x="971" y="574.9639">app</text><line style="stroke:#181818;stroke-width:0.5;" x1="885.5" x2="1056.5" y1="583.2656" y2="583.2656"/><line style="stroke:#181818;stroke-width:0.5;" x1="885.5" x2="1056.5" y1="591.2656" y2="591.2656"/></g><!--class ProcedureAPI--><g id="elem_ProcedureAPI"><rect codeLine="50" fill="#F1F1F1" height="48" id="ProcedureAPI" rx="2.5" ry="2.5" style="stroke:#181818;stroke-width:0.5;" width="125" x="908.5" y="749.5"/><ellipse cx="923.5" cy="765.5" fill="#ADD1B2" rx="11" ry="11" style="stroke:#181818;stroke-width:1.0;"/><path d="M926.4688,771.1406 Q925.8906,771.4375 925.25,771.5781 Q924.6094,771.7344 923.9063,771.7344 Q921.4063,771.7344 920.0781,770.0938 Q918.7656,768.4375 918.7656,765.3125 Q918.7656,762.1875 920.0781,760.5313 Q921.4063,758.875 923.9063,758.875 Q924.6094,758.875 925.25,759.0313 Q925.9063,759.1875 926.4688,759.4844 L926.4688,762.2031 Q925.8438,761.625 925.25,761.3594 Q924.6563,761.0781 924.0313,761.0781 Q922.6875,761.0781 922,762.1563 Q921.3125,763.2188 921.3125,765.3125 Q921.3125,767.4063 922,768.4844 Q922.6875,769.5469 924.0313,769.5469 Q924.6563,769.5469 925.25,769.2813 Q925.8438,769 926.4688,768.4219 L926.4688,771.1406 Z " fill="#000000"/><text fill="#000000" font-family="sans-serif" font-size="14" lengthAdjust="spacing" textLength="93" x="937.5" y="770.3467">ProcedureAPI</text><line style="stroke:#181818;stroke-width:0.5;" x1="909.5" x2="1032.5" y1="781.5" y2="781.5"/><line style="stroke:#181818;stroke-width:0.5;" x1="909.5" x2="1032.5" y1="789.5" y2="789.5"/></g><!--class ScriptExecutionService--><g id="elem_ScriptExecutionService"><rect codeLine="55" fill="#F1F1F1" height="113.1875" id="ScriptExecutionService" rx="2.5" ry="2.5" style="stroke:#181818;stroke-width:0.5;" width="457" x="395.5" y="717"/><ellipse cx="541.25" cy="733" fill="#ADD1B2" rx="11" ry="11" style="stroke:#181818;stroke-width:1.0;"/><path d="M544.2188,738.6406 Q543.6406,738.9375 543,739.0781 Q542.3594,739.2344 541.6563,739.2344 Q539.1563,739.2344 537.8281,737.5938 Q536.5156,735.9375 536.5156,732.8125 Q536.5156,729.6875 537.8281,728.0313 Q539.1563,726.375 541.6563,726.375 Q542.3594,726.375 543,726.5313 Q543.6563,726.6875 544.2188,726.9844 L544.2188,729.7031 Q543.5938,729.125 543,728.8594 Q542.4063,728.5781 541.7813,728.5781 Q540.4375,728.5781 539.75,729.6563 Q539.0625,730.7188 539.0625,732.8125 Q539.0625,734.9063 539.75,735.9844 Q540.4375,737.0469 541.7813,737.0469 Q542.4063,737.0469 543,736.7813 Q543.5938,736.5 544.2188,735.9219 L544.2188,738.6406 Z " fill="#000000"/><text fill="#000000" font-family="sans-serif" font-size="14" lengthAdjust="spacing" textLength="157" x="561.75" y="737.8467">ScriptExecutionService</text><line style="stroke:#181818;stroke-width:0.5;" x1="396.5" x2="851.5" y1="749" y2="749"/><line style="stroke:#181818;stroke-width:0.5;" x1="396.5" x2="851.5" y1="757" y2="757"/><text fill="#000000" font-family="sans-serif" font-size="14" lengthAdjust="spacing" textLength="445" x="401.5" y="773.9951">prepare(cmd: PrepareProcessCommand) -&gt; ProcedureSummary</text><text fill="#000000" font-family="sans-serif" font-size="14" lengthAdjust="spacing" textLength="400" x="401.5" y="790.292">start(cmd: StartProcessCommand) -&gt; ProcedureSummary</text><text fill="#000000" font-family="sans-serif" font-size="14" lengthAdjust="spacing" textLength="433" x="401.5" y="806.5889">stop(cmd: StopProcessCommand) -&gt; List[ProcedureSummary]</text><text fill="#000000" font-family="sans-serif" font-size="14" lengthAdjust="spacing" textLength="373" x="401.5" y="822.8857">summarise(pids: List[int]) -&gt; List[[ProcedureSummary]</text></g><!--class ProcedureSummary--><g id="elem_ProcedureSummary"><rect codeLine="62" fill="#F1F1F1" height="113.1875" id="ProcedureSummary" rx="2.5" ry="2.5" style="stroke:#181818;stroke-width:0.5;" width="229" x="175.5" y="1047"/><ellipse cx="217.95" cy="1063" fill="#ADD1B2" rx="11" ry="11" style="stroke:#181818;stroke-width:1.0;"/><path d="M220.9188,1068.6406 Q220.3406,1068.9375 219.7,1069.0781 Q219.0594,1069.2344 218.3563,1069.2344 Q215.8563,1069.2344 214.5281,1067.5938 Q213.2156,1065.9375 213.2156,1062.8125 Q213.2156,1059.6875 214.5281,1058.0313 Q215.8563,1056.375 218.3563,1056.375 Q219.0594,1056.375 219.7,1056.5313 Q220.3563,1056.6875 220.9188,1056.9844 L220.9188,1059.7031 Q220.2938,1059.125 219.7,1058.8594 Q219.1063,1058.5781 218.4813,1058.5781 Q217.1375,1058.5781 216.45,1059.6563 Q215.7625,1060.7188 215.7625,1062.8125 Q215.7625,1064.9063 216.45,1065.9844 Q217.1375,1067.0469 218.4813,1067.0469 Q219.1063,1067.0469 219.7,1066.7813 Q220.2938,1066.5 220.9188,1065.9219 L220.9188,1068.6406 Z " fill="#000000"/><text fill="#000000" font-family="sans-serif" font-size="14" lengthAdjust="spacing" textLength="136" x="238.05" y="1067.8467">ProcedureSummary</text><line style="stroke:#181818;stroke-width:0.5;" x1="176.5" x2="403.5" y1="1079" y2="1079"/><text fill="#000000" font-family="sans-serif" font-size="14" lengthAdjust="spacing" textLength="38" x="181.5" y="1095.9951">id: int</text><text fill="#000000" font-family="sans-serif" font-size="14" lengthAdjust="spacing" textLength="217" x="181.5" y="1112.292">script: domain.ExecutableScript</text><text fill="#000000" font-family="sans-serif" font-size="14" lengthAdjust="spacing" textLength="195" x="181.5" y="1128.5889">script_args: List[ArgCapture]</text><text fill="#000000" font-family="sans-serif" font-size="14" lengthAdjust="spacing" textLength="207" x="181.5" y="1144.8857">state: domain.ProcedureState</text><line style="stroke:#181818;stroke-width:0.5;" x1="176.5" x2="403.5" y1="1152.1875" y2="1152.1875"/></g><!--class ArgCapture--><g id="elem_ArgCapture"><rect codeLine="69" fill="#F1F1F1" height="96.8906" id="ArgCapture" rx="2.5" ry="2.5" style="stroke:#181818;stroke-width:0.5;" width="233" x="560.5" y="1055"/><ellipse cx="633.75" cy="1071" fill="#ADD1B2" rx="11" ry="11" style="stroke:#181818;stroke-width:1.0;"/><path d="M636.7188,1076.6406 Q636.1406,1076.9375 635.5,1077.0781 Q634.8594,1077.2344 634.1563,1077.2344 Q631.6563,1077.2344 630.3281,1075.5938 Q629.0156,1073.9375 629.0156,1070.8125 Q629.0156,1067.6875 630.3281,1066.0313 Q631.6563,1064.375 634.1563,1064.375 Q634.8594,1064.375 635.5,1064.5313 Q636.1563,1064.6875 636.7188,1064.9844 L636.7188,1067.7031 Q636.0938,1067.125 635.5,1066.8594 Q634.9063,1066.5781 634.2813,1066.5781 Q632.9375,1066.5781 632.25,1067.6563 Q631.5625,1068.7188 631.5625,1070.8125 Q631.5625,1072.9063 632.25,1073.9844 Q632.9375,1075.0469 634.2813,1075.0469 Q634.9063,1075.0469 635.5,1074.7813 Q636.0938,1074.5 636.7188,1073.9219 L636.7188,1076.6406 Z " fill="#000000"/><text fill="#000000" font-family="sans-serif" font-size="14" lengthAdjust="spacing" textLength="78" x="654.25" y="1075.8467">ArgCapture</text><line style="stroke:#181818;stroke-width:0.5;" x1="561.5" x2="792.5" y1="1087" y2="1087"/><text fill="#000000" font-family="sans-serif" font-size="14" lengthAdjust="spacing" textLength="40" x="566.5" y="1103.9951">fn: str</text><text fill="#000000" font-family="sans-serif" font-size="14" lengthAdjust="spacing" textLength="221" x="566.5" y="1120.292">fn_args: domain.ProcedureInput</text><text fill="#000000" font-family="sans-serif" font-size="14" lengthAdjust="spacing" textLength="68" x="566.5" y="1136.5889">time: float</text><line style="stroke:#181818;stroke-width:0.5;" x1="561.5" x2="792.5" y1="1143.8906" y2="1143.8906"/></g><!--class ProcedureHistory--><g id="elem_ProcedureHistory"><rect codeLine="76" fill="#F1F1F1" height="80.5938" id="ProcedureHistory" rx="2.5" ry="2.5" style="stroke:#181818;stroke-width:0.5;" width="316" x="73" y="1220"/><ellipse cx="167.25" cy="1236" fill="#ADD1B2" rx="11" ry="11" style="stroke:#181818;stroke-width:1.0;"/><path d="M170.2188,1241.6406 Q169.6406,1241.9375 169,1242.0781 Q168.3594,1242.2344 167.6563,1242.2344 Q165.1563,1242.2344 163.8281,1240.5938 Q162.5156,1238.9375 162.5156,1235.8125 Q162.5156,1232.6875 163.8281,1231.0313 Q165.1563,1229.375 167.6563,1229.375 Q168.3594,1229.375 169,1229.5313 Q169.6563,1229.6875 170.2188,1229.9844 L170.2188,1232.7031 Q169.5938,1232.125 169,1231.8594 Q168.4063,1231.5781 167.7813,1231.5781 Q166.4375,1231.5781 165.75,1232.6563 Q165.0625,1233.7188 165.0625,1235.8125 Q165.0625,1237.9063 165.75,1238.9844 Q166.4375,1240.0469 167.7813,1240.0469 Q168.4063,1240.0469 169,1239.7813 Q169.5938,1239.5 170.2188,1238.9219 L170.2188,1241.6406 Z " fill="#000000"/><text fill="#000000" font-family="sans-serif" font-size="14" lengthAdjust="spacing" textLength="119" x="187.75" y="1240.8467">ProcedureHistory</text><line style="stroke:#181818;stroke-width:0.5;" x1="74" x2="388" y1="1252" y2="1252"/><text fill="#000000" font-family="sans-serif" font-size="14" lengthAdjust="spacing" textLength="304" x="79" y="1268.9951">process_states: List[(ProcedureState, time)]</text><text fill="#000000" font-family="sans-serif" font-size="14" lengthAdjust="spacing" textLength="166" x="79" y="1285.292">stacktrace: Optional[str]</text><line style="stroke:#181818;stroke-width:0.5;" x1="74" x2="388" y1="1292.5938" y2="1292.5938"/></g><!--class PrepareProcessCommand--><g id="elem_PrepareProcessCommand"><rect codeLine="82" fill="#F1F1F1" height="80.5938" id="PrepareProcessCommand" rx="2.5" ry="2.5" style="stroke:#181818;stroke-width:0.5;" width="240" x="575" y="898"/><ellipse cx="602.15" cy="914" fill="#ADD1B2" rx="11" ry="11" style="stroke:#181818;stroke-width:1.0;"/><path d="M605.1188,919.6406 Q604.5406,919.9375 603.9,920.0781 Q603.2594,920.2344 602.5563,920.2344 Q600.0563,920.2344 598.7281,918.5938 Q597.4156,916.9375 597.4156,913.8125 Q597.4156,910.6875 598.7281,909.0313 Q600.0563,907.375 602.5563,907.375 Q603.2594,907.375 603.9,907.5313 Q604.5563,907.6875 605.1188,907.9844 L605.1188,910.7031 Q604.4938,910.125 603.9,909.8594 Q603.3063,909.5781 602.6813,909.5781 Q601.3375,909.5781 600.65,910.6563 Q599.9625,911.7188 599.9625,913.8125 Q599.9625,915.9063 600.65,916.9844 Q601.3375,918.0469 602.6813,918.0469 Q603.3063,918.0469 603.9,917.7813 Q604.4938,917.5 605.1188,916.9219 L605.1188,919.6406 Z " fill="#000000"/><text fill="#000000" font-family="sans-serif" font-size="14" lengthAdjust="spacing" textLength="181" x="618.85" y="918.8467">PrepareProcessCommand</text><line style="stroke:#181818;stroke-width:0.5;" x1="576" x2="814" y1="930" y2="930"/><text fill="#000000" font-family="sans-serif" font-size="14" lengthAdjust="spacing" textLength="217" x="581" y="946.9951">script: domain.ExecutableScript</text><text fill="#000000" font-family="sans-serif" font-size="14" lengthAdjust="spacing" textLength="228" x="581" y="963.292">init_args: domain.ProcedureInput</text><line style="stroke:#181818;stroke-width:0.5;" x1="576" x2="814" y1="970.5938" y2="970.5938"/></g><!--class StartProcessCommand--><g id="elem_StartProcessCommand"><rect codeLine="87" fill="#F1F1F1" height="96.8906" id="StartProcessCommand" rx="2.5" ry="2.5" style="stroke:#181818;stroke-width:0.5;" width="243" x="70.5" y="890"/><ellipse cx="108.9" cy="906" fill="#ADD1B2" rx="11" ry="11" style="stroke:#181818;stroke-width:1.0;"/><path d="M111.8688,911.6406 Q111.2906,911.9375 110.65,912.0781 Q110.0094,912.2344 109.3063,912.2344 Q106.8063,912.2344 105.4781,910.5938 Q104.1656,908.9375 104.1656,905.8125 Q104.1656,902.6875 105.4781,901.0313 Q106.8063,899.375 109.3063,899.375 Q110.0094,899.375 110.65,899.5313 Q111.3063,899.6875 111.8688,899.9844 L111.8688,902.7031 Q111.2438,902.125 110.65,901.8594 Q110.0563,901.5781 109.4313,901.5781 Q108.0875,901.5781 107.4,902.6563 Q106.7125,903.7188 106.7125,905.8125 Q106.7125,907.9063 107.4,908.9844 Q108.0875,910.0469 109.4313,910.0469 Q110.0563,910.0469 110.65,909.7813 Q111.2438,909.5 111.8688,908.9219 L111.8688,911.6406 Z " fill="#000000"/><text fill="#000000" font-family="sans-serif" font-size="14" lengthAdjust="spacing" textLength="159" x="128.1" y="910.8467">StartProcessCommand</text><line style="stroke:#181818;stroke-width:0.5;" x1="71.5" x2="312.5" y1="922" y2="922"/><text fill="#000000" font-family="sans-serif" font-size="14" lengthAdjust="spacing" textLength="110" x="76.5" y="938.9951">process_uid: int</text><text fill="#000000" font-family="sans-serif" font-size="14" lengthAdjust="spacing" textLength="86" x="76.5" y="955.292">fn_name: str</text><text fill="#000000" font-family="sans-serif" font-size="14" lengthAdjust="spacing" textLength="231" x="76.5" y="971.5889">run_args: domain.ProcedureInput</text><line style="stroke:#181818;stroke-width:0.5;" x1="71.5" x2="312.5" y1="978.8906" y2="978.8906"/></g><!--class StopProcessCommand--><g id="elem_StopProcessCommand"><rect codeLine="93" fill="#F1F1F1" height="80.5938" id="StopProcessCommand" rx="2.5" ry="2.5" style="stroke:#181818;stroke-width:0.5;" width="191" x="348.5" y="898"/><ellipse cx="363.5" cy="914" fill="#ADD1B2" rx="11" ry="11" style="stroke:#181818;stroke-width:1.0;"/><path d="M366.4688,919.6406 Q365.8906,919.9375 365.25,920.0781 Q364.6094,920.2344 363.9063,920.2344 Q361.4063,920.2344 360.0781,918.5938 Q358.7656,916.9375 358.7656,913.8125 Q358.7656,910.6875 360.0781,909.0313 Q361.4063,907.375 363.9063,907.375 Q364.6094,907.375 365.25,907.5313 Q365.9063,907.6875 366.4688,907.9844 L366.4688,910.7031 Q365.8438,910.125 365.25,909.8594 Q364.6563,909.5781 364.0313,909.5781 Q362.6875,909.5781 362,910.6563 Q361.3125,911.7188 361.3125,913.8125 Q361.3125,915.9063 362,916.9844 Q362.6875,918.0469 364.0313,918.0469 Q364.6563,918.0469 365.25,917.7813 Q365.8438,917.5 366.4688,916.9219 L366.4688,919.6406 Z " fill="#000000"/><text fill="#000000" font-family="sans-serif" font-size="14" lengthAdjust="spacing" textLength="159" x="377.5" y="918.8467">StopProcessCommand</text><line style="stroke:#181818;stroke-width:0.5;" x1="349.5" x2="538.5" y1="930" y2="930"/><text fill="#000000" font-family="sans-serif" font-size="14" lengthAdjust="spacing" textLength="110" x="354.5" y="946.9951">process_uid: int</text><text fill="#000000" font-family="sans-serif" font-size="14" lengthAdjust="spacing" textLength="105" x="354.5" y="963.292">run_abort: bool</text><line style="stroke:#181818;stroke-width:0.5;" x1="349.5" x2="538.5" y1="970.5938" y2="970.5938"/></g><!--class ExecutableScript--><g id="elem_ExecutableScript"><rect codeLine="104" fill="#F1F1F1" height="48" id="ExecutableScript" rx="2.5" ry="2.5" style="stroke:#181818;stroke-width:0.5;" width="148" x="757" y="1677"/><ellipse cx="772" cy="1693" fill="#A9DCDF" rx="11" ry="11" style="stroke:#181818;stroke-width:1.0;"/><path d="M772.1094,1688.3438 L770.9531,1693.4219 L773.2813,1693.4219 L772.1094,1688.3438 Z M770.625,1686.1094 L773.6094,1686.1094 L776.9688,1698.5 L774.5156,1698.5 L773.75,1695.4375 L770.4688,1695.4375 L769.7188,1698.5 L767.2813,1698.5 L770.625,1686.1094 Z " fill="#000000"/><text fill="#000000" font-family="sans-serif" font-size="14" font-style="italic" lengthAdjust="spacing" textLength="116" x="786" y="1697.8467">ExecutableScript</text><line style="stroke:#181818;stroke-width:0.5;" x1="758" x2="904" y1="1709" y2="1709"/><line style="stroke:#181818;stroke-width:0.5;" x1="758" x2="904" y1="1717" y2="1717"/></g><!--class GitScript--><g id="elem_GitScript"><rect codeLine="105" fill="#F1F1F1" height="48" id="GitScript" rx="2.5" ry="2.5" style="stroke:#181818;stroke-width:0.5;" width="90" x="938" y="1495.5"/><ellipse cx="953" cy="1511.5" fill="#ADD1B2" rx="11" ry="11" style="stroke:#181818;stroke-width:1.0;"/><path d="M955.9688,1517.1406 Q955.3906,1517.4375 954.75,1517.5781 Q954.1094,1517.7344 953.4063,1517.7344 Q950.9063,1517.7344 949.5781,1516.0938 Q948.2656,1514.4375 948.2656,1511.3125 Q948.2656,1508.1875 949.5781,1506.5313 Q950.9063,1504.875 953.4063,1504.875 Q954.1094,1504.875 954.75,1505.0313 Q955.4063,1505.1875 955.9688,1505.4844 L955.9688,1508.2031 Q955.3438,1507.625 954.75,1507.3594 Q954.1563,1507.0781 953.5313,1507.0781 Q952.1875,1507.0781 951.5,1508.1563 Q950.8125,1509.2188 950.8125,1511.3125 Q950.8125,1513.4063 951.5,1514.4844 Q952.1875,1515.5469 953.5313,1515.5469 Q954.1563,1515.5469 954.75,1515.2813 Q955.3438,1515 955.9688,1514.4219 L955.9688,1517.1406 Z " fill="#000000"/><text fill="#000000" font-family="sans-serif" font-size="14" lengthAdjust="spacing" textLength="58" x="967" y="1516.3467">GitScript</text><line style="stroke:#181818;stroke-width:0.5;" x1="939" x2="1027" y1="1527.5" y2="1527.5"/><line style="stroke:#181818;stroke-width:0.5;" x1="939" x2="1027" y1="1535.5" y2="1535.5"/></g><!--class FilesystemScript--><g id="elem_FilesystemScript"><rect codeLine="106" fill="#F1F1F1" height="48" id="FilesystemScript" rx="2.5" ry="2.5" style="stroke:#181818;stroke-width:0.5;" width="144" x="759" y="1495.5"/><ellipse cx="774" cy="1511.5" fill="#ADD1B2" rx="11" ry="11" style="stroke:#181818;stroke-width:1.0;"/><path d="M776.9688,1517.1406 Q776.3906,1517.4375 775.75,1517.5781 Q775.1094,1517.7344 774.4063,1517.7344 Q771.9063,1517.7344 770.5781,1516.0938 Q769.2656,1514.4375 769.2656,1511.3125 Q769.2656,1508.1875 770.5781,1506.5313 Q771.9063,1504.875 774.4063,1504.875 Q775.1094,1504.875 775.75,1505.0313 Q776.4063,1505.1875 776.9688,1505.4844 L776.9688,1508.2031 Q776.3438,1507.625 775.75,1507.3594 Q775.1563,1507.0781 774.5313,1507.0781 Q773.1875,1507.0781 772.5,1508.1563 Q771.8125,1509.2188 771.8125,1511.3125 Q771.8125,1513.4063 772.5,1514.4844 Q773.1875,1515.5469 774.5313,1515.5469 Q775.1563,1515.5469 775.75,1515.2813 Q776.3438,1515 776.9688,1514.4219 L776.9688,1517.1406 Z " fill="#000000"/><text fill="#000000" font-family="sans-serif" font-size="14" lengthAdjust="spacing" textLength="112" x="788" y="1516.3467">FilesystemScript</text><line style="stroke:#181818;stroke-width:0.5;" x1="760" x2="902" y1="1527.5" y2="1527.5"/><line style="stroke:#181818;stroke-width:0.5;" x1="760" x2="902" y1="1535.5" y2="1535.5"/></g><!--class EmbeddedStringScript--><g id="elem_EmbeddedStringScript"><rect codeLine="107" fill="#F1F1F1" height="48" id="EmbeddedStringScript" rx="2.5" ry="2.5" style="stroke:#181818;stroke-width:0.5;" width="187" x="536.5" y="1495.5"/><ellipse cx="551.5" cy="1511.5" fill="#ADD1B2" rx="11" ry="11" style="stroke:#181818;stroke-width:1.0;"/><path d="M554.4688,1517.1406 Q553.8906,1517.4375 553.25,1517.5781 Q552.6094,1517.7344 551.9063,1517.7344 Q549.4063,1517.7344 548.0781,1516.0938 Q546.7656,1514.4375 546.7656,1511.3125 Q546.7656,1508.1875 548.0781,1506.5313 Q549.4063,1504.875 551.9063,1504.875 Q552.6094,1504.875 553.25,1505.0313 Q553.9063,1505.1875 554.4688,1505.4844 L554.4688,1508.2031 Q553.8438,1507.625 553.25,1507.3594 Q552.6563,1507.0781 552.0313,1507.0781 Q550.6875,1507.0781 550,1508.1563 Q549.3125,1509.2188 549.3125,1511.3125 Q549.3125,1513.4063 550,1514.4844 Q550.6875,1515.5469 552.0313,1515.5469 Q552.6563,1515.5469 553.25,1515.2813 Q553.8438,1515 554.4688,1514.4219 L554.4688,1517.1406 Z " fill="#000000"/><text fill="#000000" font-family="sans-serif" font-size="14" lengthAdjust="spacing" textLength="155" x="565.5" y="1516.3467">EmbeddedStringScript</text><line style="stroke:#181818;stroke-width:0.5;" x1="537.5" x2="722.5" y1="1527.5" y2="1527.5"/><line style="stroke:#181818;stroke-width:0.5;" x1="537.5" x2="722.5" y1="1535.5" y2="1535.5"/></g><!--class ProcedureState--><g id="elem_ProcedureState"><rect codeLine="112" fill="#F1F1F1" height="194.6719" id="ProcedureState" rx="2.5" ry="2.5" style="stroke:#181818;stroke-width:0.5;" width="140" x="169" y="1422"/><ellipse cx="184" cy="1438" fill="#EB937F" rx="11" ry="11" style="stroke:#181818;stroke-width:1.0;"/><path d="M188.1094,1444 L180.3906,1444 L180.3906,1431.6094 L188.1094,1431.6094 L188.1094,1433.7656 L182.8438,1433.7656 L182.8438,1436.4375 L187.6094,1436.4375 L187.6094,1438.5938 L182.8438,1438.5938 L182.8438,1441.8438 L188.1094,1441.8438 L188.1094,1444 Z " fill="#000000"/><text fill="#000000" font-family="sans-serif" font-size="14" lengthAdjust="spacing" textLength="108" x="198" y="1442.8467">ProcedureState</text><line style="stroke:#181818;stroke-width:0.5;" x1="170" x2="308" y1="1454" y2="1454"/><text fill="#000000" font-family="sans-serif" font-size="14" lengthAdjust="spacing" textLength="73" x="175" y="1470.9951">UNKNOWN</text><text fill="#000000" font-family="sans-serif" font-size="14" lengthAdjust="spacing" textLength="71" x="175" y="1487.292">CREATING</text><text fill="#000000" font-family="sans-serif" font-size="14" lengthAdjust="spacing" textLength="30" x="175" y="1503.5889">IDLE</text><text fill="#000000" font-family="sans-serif" font-size="14" lengthAdjust="spacing" textLength="62" x="175" y="1519.8857">LOADING</text><text fill="#000000" font-family="sans-serif" font-size="14" lengthAdjust="spacing" textLength="48" x="175" y="1536.1826">READY</text><text fill="#000000" font-family="sans-serif" font-size="14" lengthAdjust="spacing" textLength="64" x="175" y="1552.4795">RUNNING</text><text fill="#000000" font-family="sans-serif" font-size="14" lengthAdjust="spacing" textLength="76" x="175" y="1568.7764">COMPLETE</text><text fill="#000000" font-family="sans-serif" font-size="14" lengthAdjust="spacing" textLength="67" x="175" y="1585.0732">STOPPED</text><text fill="#000000" font-family="sans-serif" font-size="14" lengthAdjust="spacing" textLength="47" x="175" y="1601.3701">FAILED</text><line style="stroke:#181818;stroke-width:0.5;" x1="170" x2="308" y1="1608.6719" y2="1608.6719"/></g><!--class ProcedureInput--><g id="elem_ProcedureInput"><rect codeLine="124" fill="#F1F1F1" height="80.5938" id="ProcedureInput" rx="2.5" ry="2.5" style="stroke:#181818;stroke-width:0.5;" width="158" x="344" y="1479"/><ellipse cx="367.55" cy="1495" fill="#ADD1B2" rx="11" ry="11" style="stroke:#181818;stroke-width:1.0;"/><path d="M370.5188,1500.6406 Q369.9406,1500.9375 369.3,1501.0781 Q368.6594,1501.2344 367.9563,1501.2344 Q365.4563,1501.2344 364.1281,1499.5938 Q362.8156,1497.9375 362.8156,1494.8125 Q362.8156,1491.6875 364.1281,1490.0313 Q365.4563,1488.375 367.9563,1488.375 Q368.6594,1488.375 369.3,1488.5313 Q369.9563,1488.6875 370.5188,1488.9844 L370.5188,1491.7031 Q369.8938,1491.125 369.3,1490.8594 Q368.7063,1490.5781 368.0813,1490.5781 Q366.7375,1490.5781 366.05,1491.6563 Q365.3625,1492.7188 365.3625,1494.8125 Q365.3625,1496.9063 366.05,1497.9844 Q366.7375,1499.0469 368.0813,1499.0469 Q368.7063,1499.0469 369.3,1498.7813 Q369.8938,1498.5 370.5188,1497.9219 L370.5188,1500.6406 Z " fill="#000000"/><text fill="#000000" font-family="sans-serif" font-size="14" lengthAdjust="spacing" textLength="107" x="383.45" y="1499.8467">ProcedureInput</text><line style="stroke:#181818;stroke-width:0.5;" x1="345" x2="501" y1="1511" y2="1511"/><text fill="#000000" font-family="sans-serif" font-size="14" lengthAdjust="spacing" textLength="62" x="350" y="1527.9951">args: List</text><text fill="#000000" font-family="sans-serif" font-size="14" lengthAdjust="spacing" textLength="146" x="350" y="1544.292">kwargs: Dict[str, Any]</text><line style="stroke:#181818;stroke-width:0.5;" x1="345" x2="501" y1="1551.5938" y2="1551.5938"/></g><!--class Flask--><g id="elem_Flask"><rect codeLine="136" fill="#F1F1F1" height="48" id="Flask" rx="2.5" ry="2.5" style="stroke:#181818;stroke-width:0.5;" width="67" x="1144.5" y="547"/><ellipse cx="1159.5" cy="563" fill="#ADD1B2" rx="11" ry="11" style="stroke:#181818;stroke-width:1.0;"/><path d="M1162.4688,568.6406 Q1161.8906,568.9375 1161.25,569.0781 Q1160.6094,569.2344 1159.9063,569.2344 Q1157.4063,569.2344 1156.0781,567.5938 Q1154.7656,565.9375 1154.7656,562.8125 Q1154.7656,559.6875 1156.0781,558.0313 Q1157.4063,556.375 1159.9063,556.375 Q1160.6094,556.375 1161.25,556.5313 Q1161.9063,556.6875 1162.4688,556.9844 L1162.4688,559.7031 Q1161.8438,559.125 1161.25,558.8594 Q1160.6563,558.5781 1160.0313,558.5781 Q1158.6875,558.5781 1158,559.6563 Q1157.3125,560.7188 1157.3125,562.8125 Q1157.3125,564.9063 1158,565.9844 Q1158.6875,567.0469 1160.0313,567.0469 Q1160.6563,567.0469 1161.25,566.7813 Q1161.8438,566.5 1162.4688,565.9219 L1162.4688,568.6406 Z " fill="#000000"/><text fill="#000000" font-family="sans-serif" font-size="14" lengthAdjust="spacing" textLength="35" x="1173.5" y="567.8467">Flask</text><line style="stroke:#181818;stroke-width:0.5;" x1="1145.5" x2="1210.5" y1="579" y2="579"/><line style="stroke:#181818;stroke-width:0.5;" x1="1145.5" x2="1210.5" y1="587" y2="587"/></g><!--class Blueprint--><g id="elem_Blueprint"><rect codeLine="137" fill="#F1F1F1" height="48" id="Blueprint" rx="2.5" ry="2.5" style="stroke:#181818;stroke-width:0.5;" width="94" x="1138" y="749.5"/><ellipse cx="1153" cy="765.5" fill="#ADD1B2" rx="11" ry="11" style="stroke:#181818;stroke-width:1.0;"/><path d="M1155.9688,771.1406 Q1155.3906,771.4375 1154.75,771.5781 Q1154.1094,771.7344 1153.4063,771.7344 Q1150.9063,771.7344 1149.5781,770.0938 Q1148.2656,768.4375 1148.2656,765.3125 Q1148.2656,762.1875 1149.5781,760.5313 Q1150.9063,758.875 1153.4063,758.875 Q1154.1094,758.875 1154.75,759.0313 Q1155.4063,759.1875 1155.9688,759.4844 L1155.9688,762.2031 Q1155.3438,761.625 1154.75,761.3594 Q1154.1563,761.0781 1153.5313,761.0781 Q1152.1875,761.0781 1151.5,762.1563 Q1150.8125,763.2188 1150.8125,765.3125 Q1150.8125,767.4063 1151.5,768.4844 Q1152.1875,769.5469 1153.5313,769.5469 Q1154.1563,769.5469 1154.75,769.2813 Q1155.3438,769 1155.9688,768.4219 L1155.9688,771.1406 Z " fill="#000000"/><text fill="#000000" font-family="sans-serif" font-size="14" lengthAdjust="spacing" textLength="62" x="1167" y="770.3467">Blueprint</text><line style="stroke:#181818;stroke-width:0.5;" x1="1139" x2="1231" y1="781.5" y2="781.5"/><line style="stroke:#181818;stroke-width:0.5;" x1="1139" x2="1231" y1="789.5" y2="789.5"/></g><!--reverse link EventBusWorker to ScriptExecutionServiceWorker--><g id="link_EventBusWorker_ScriptExecutionServiceWorker"><path codeLine="39" d="M766.66,210.4 C756.11,234.08 743.36,262.71 731.39,289.56 " fill="none" id="EventBusWorker-backto-ScriptExecutionServiceWorker" style="stroke:#181818;stroke-width:1.0;"/><polygon fill="#181818" points="768.74,205.74,761.4161,212.3249,766.7,210.3049,768.72,215.5888,768.74,205.74" style="stroke:#181818;stroke-width:1.0;"/></g><!--reverse link EventBusWorker to FlaskWorker--><g id="link_EventBusWorker_FlaskWorker"><path codeLine="40" d="M817.15,210.4 C840.96,256.34 874.43,320.94 892.06,354.96 " fill="none" id="EventBusWorker-backto-FlaskWorker" style="stroke:#181818;stroke-width:1.0;"/><polygon fill="#181818" points="814.74,205.74,815.3254,215.5714,817.0387,210.1803,822.4298,211.8936,814.74,205.74" style="stroke:#181818;stroke-width:1.0;"/></g><!--reverse link app to ProcedureAPI--><g id="link_app_ProcedureAPI"><path codeLine="51" d="M971,612.09 C971,653.21 971,715.75 971,749.3 " fill="none" id="app-backto-ProcedureAPI" style="stroke:#181818;stroke-width:1.0;"/><polygon fill="none" points="971,599.04,967,605.04,971,611.04,975,605.04,971,599.04" style="stroke:#181818;stroke-width:1.0;"/></g><!--link ProcedureSummary to ArgCapture--><g id="link_ProcedureSummary_ArgCapture"><path codeLine="74" d="M404.51,1103.5 C449.79,1103.5 495.07,1103.5 540.35,1103.5 " fill="none" id="ProcedureSummary-to-ArgCapture" style="stroke:#181818;stroke-width:1.0;"/><polygon fill="none" points="540.45,1096.5,560.45,1103.5,540.45,1110.5,540.45,1096.5" style="stroke:#181818;stroke-width:1.0;"/></g><!--link ProcedureSummary to ProcedureHistory--><g id="link_ProcedureSummary_ProcedureHistory"><path codeLine="80" d="M268.87,1160.02 C261.98,1178.12 254.42,1197.97 247.88,1215.14 " fill="none" id="ProcedureSummary-to-ProcedureHistory" style="stroke:#181818;stroke-width:1.0;"/><polygon fill="#181818" points="246.07,1219.91,253.0012,1212.913,247.8428,1215.2348,245.521,1210.0765,246.07,1219.91" style="stroke:#181818;stroke-width:1.0;"/></g><!--link StartProcessCommand to PrepareProcessCommand--><!--link PrepareProcessCommand to StartProcessCommand--><!--link StopProcessCommand to StartProcessCommand--><!--link StartProcessCommand to StopProcessCommand--><!--reverse link FlaskWorker to app--><g id="link_FlaskWorker_app"><path codeLine="100" d="M916.67,415.93 C929.69,452.84 949.66,509.48 961.42,542.83 " fill="none" id="FlaskWorker-backto-app" style="stroke:#181818;stroke-width:1.0;"/><polygon fill="#181818" points="912.22,403.3,910.4462,410.2895,916.2159,414.6152,917.9897,407.6256,912.22,403.3" style="stroke:#181818;stroke-width:1.0;"/></g><!--reverse link ScriptExecutionServiceWorker to ScriptExecutionService--><g id="link_ScriptExecutionServiceWorker_ScriptExecutionService"><path codeLine="101" d="M674.45,481.32 C661.45,556.33 644.23,655.7 633.65,716.82 " fill="none" id="ScriptExecutionServiceWorker-backto-ScriptExecutionService" style="stroke:#181818;stroke-width:1.0;"/><polygon fill="#181818" points="676.74,468.08,671.7758,473.3104,674.6945,479.9044,679.6587,474.674,676.74,468.08" style="stroke:#181818;stroke-width:1.0;"/></g><!--link GitScript to ExecutableScript--><g id="link_GitScript_ExecutableScript"><path codeLine="108" d="M969.95,1543.82 C958.12,1564.07 939.58,1593.73 920,1617 C902.8,1637.44 880.88,1657.94 863.1,1673.45 " fill="none" id="GitScript-to-ExecutableScript" style="stroke:#181818;stroke-width:1.0;"/><polygon fill="#181818" points="859.14,1676.88,868.5589,1674.0016,862.9161,1673.6026,863.3151,1667.9599,859.14,1676.88" style="stroke:#181818;stroke-width:1.0;"/></g><!--link FilesystemScript to ExecutableScript--><g id="link_FilesystemScript_ExecutableScript"><path codeLine="109" d="M831,1543.6 C831,1576.45 831,1636.59 831,1671.96 " fill="none" id="FilesystemScript-to-ExecutableScript" style="stroke:#181818;stroke-width:1.0;"/><polygon fill="#181818" points="831,1676.99,835,1667.99,831,1671.99,827,1667.99,831,1676.99" style="stroke:#181818;stroke-width:1.0;"/></g><!--link EmbeddedStringScript to ExecutableScript--><g id="link_EmbeddedStringScript_ExecutableScript"><path codeLine="110" d="M655.87,1543.6 C693.1,1576.85 761.66,1638.08 801.05,1673.25 " fill="none" id="EmbeddedStringScript-to-ExecutableScript" style="stroke:#181818;stroke-width:1.0;"/><polygon fill="#181818" points="805.23,1676.99,801.1799,1668.0124,801.5001,1673.6602,795.8523,1673.9803,805.23,1676.99" style="stroke:#181818;stroke-width:1.0;"/></g><!--link ProcedureHistory to ProcedureState--><g id="link_ProcedureHistory_ProcedureState"><path codeLine="129" d="M232.23,1301.09 C233.19,1331.88 234.57,1376.03 235.83,1416.51 " fill="none" id="ProcedureHistory-to-ProcedureState" style="stroke:#181818;stroke-width:1.0;"/><polygon fill="#181818" points="235.99,1421.94,239.7053,1412.8188,235.8329,1416.9425,231.7093,1413.0701,235.99,1421.94" style="stroke:#181818;stroke-width:1.0;"/></g><!--link ProcedureSummary to ProcedureInput--><g id="link_ProcedureSummary_ProcedureInput"><path codeLine="130" d="M362.27,1160.16 C379.61,1177.36 395.98,1197.71 406,1220 C443.45,1303.36 437.43,1413.23 430.02,1473.73 " fill="none" id="ProcedureSummary-to-ProcedureInput" style="stroke:#181818;stroke-width:1.0;"/><polygon fill="#181818" points="429.39,1478.72,434.4904,1470.2947,430.019,1473.7597,426.5539,1469.2883,429.39,1478.72" style="stroke:#181818;stroke-width:1.0;"/></g><!--link app to Flask--><g id="link_app_Flask"><path codeLine="140" d="M1057.52,571 C1079.62,571 1101.72,571 1123.82,571 " fill="none" id="app-to-Flask" style="stroke:#181818;stroke-width:1.0;"/><polygon fill="none" points="1124.11,564,1144.11,571,1124.11,578,1124.11,564" style="stroke:#181818;stroke-width:1.0;"/></g><!--link ProcedureAPI to Blueprint--><g id="link_ProcedureAPI_Blueprint"><path codeLine="141" d="M1033.7,773.5 C1061.6,773.5 1089.5,773.5 1117.4,773.5 " fill="none" id="ProcedureAPI-to-Blueprint" style="stroke:#181818;stroke-width:1.0;"/><polygon fill="none" points="1117.72,766.5,1137.72,773.5,1117.72,780.5,1117.72,766.5" style="stroke:#181818;stroke-width:1.0;"/></g><!--link Flask to Blueprint--><!--link ScriptExecutionService to ArgCapture--><!--link ScriptExecutionService to StopProcessCommand--><!--link StartProcessCommand to ProcedureSummary--><!--SRC=[jLTTZzew47tdL-JjxbOD-uwgbIYmBIe5jEogkbeXv2I6jKXiotPeLxtyzpjsW7nu2BHLUK1XV3m-SyOp4_vvDKRgtjsTJ0atUPPsOv7TnIdHEamOsIYITJgIn5koeO7UafNGOYMeMSKfezm4Fpi1V8u0HRKvB7puy4XZG_WcfVVt1vZzEDV18m073lWyhYmwWAB4q9jkjtjRisj3bC7CGlhMb6a4cr0TAnPH74zvtRxl5DzxL01WNGiz8unV27e1Xqip-a7Zt3315rJjM4o_2RMbgY62L5GIzNTK47oL2fBSq9tf1QCTvE0hrHfYy60gvrUWADzTWP9vfFEe3RZlDFHwWE-j9uy7Szu-vXeLqgO5miNKSKlhdCV-4gYVHw3UQ_D6d1vRSndcChnly3hjh4Pr5hYlNwwSNRXQH4f0s60i6-1lSiM37KdpEdgFUPTAn3J95Qq0AoSJNI9MBKnADlCZl3yVrvOjJH66EA2Yxl5qmASi9YwcoyVYEMb0gzKLPqaFkBWVZfBM0v5bX2Ut0UJbn7AHWr6zUNwAOdHU5lRnztp0tJou41BnC84YVccwMVf-t0BJz4QoHFUAROoRPUdaWfUA_aWg3riGDHbmXuDyHYuTlI0HjjAwHLv8bD8YJsVmAw8sH_fzjHaG2LUPBZ7j3JqvBsbQy-MmIiz8G6lU0_SAiH_8DGyTSvdxyHYM0S4rz5hJ85JzvGaSAhPvDU5_znMIhPdv3589D3C_ruocoRueNwrNJhEZk3TrpTuxlhUeqF7MA193C3Df2ukaBo3FyfU2gfR2WJ0U55ACI6I_UhSOP-RgvA4t1YbmjBCKIkVdYWBk42VsNc0N3ERjdv9ijf3VuUXeH4A1lf4GQMkUiNJ1L7jvPKb2-JB4TAkvm7HjE6Z6rF79L8VgEnWmC3Yk6zKMZ0FyQLGafNKGaKZRKZ77LvEsUrb0FZ5pTks1fLI_mPjfTXOooY8AGYKBenZV8B2JVrU3hOIQnrtUWPsExwfjeppFWdhxGUxfy_JBTFPjwja7ZwF-qtZwoLiO3oSZppYPzOSO69mC__MjpzCfXXxCliudeoVV_U9fDf-FXfxzeJ-UDCpjyzLLEA92EGwzfUttOd78OcCxylkWpz_EjUNooHiSOQqxroTeUoSlsn84L_cVjBRbU0YcyYvV-VqHtaobijq7jjdNGZlm2b3rvT2PI-pfgTuYYdsTCzt8pTCZ6Er7Q0zgRlEwq9dNpJ0Httd9hJB4hzk0dEGduKA7_Hy0]--></g></svg>