<?xml version="1.0" encoding="UTF-8" standalone="no"?><svg xmlns="http://www.w3.org/2000/svg" xmlns:xlink="http://www.w3.org/1999/xlink" contentStyleType="text/css" height="1116px" preserveAspectRatio="none" style="width:1249px;height:1116px;background:#FFFFFF;" version="1.1" viewBox="0 0 1249 1116" width="1249px" zoomAndPan="magnify"><defs/><g><!--cluster ska_oso_oet--><g id="cluster_ska_oso_oet"><path d="M8.5,6 L105.5,6 A3.75,3.75 0 0 1 108,8.5 L115,28.2969 L1239.5,28.2969 A2.5,2.5 0 0 1 1242,30.7969 L1242,1107 A2.5,2.5 0 0 1 1239.5,1109.5 L8.5,1109.5 A2.5,2.5 0 0 1 6,1107 L6,8.5 A2.5,2.5 0 0 1 8.5,6 " fill="none" style="stroke:#000000;stroke-width:1.5;"/><line style="stroke:#000000;stroke-width:1.5;" x1="6" x2="115" y1="28.2969" y2="28.2969"/><text fill="#000000" font-family="sans-serif" font-size="14" font-weight="bold" lengthAdjust="spacing" textLength="96" x="10" y="20.9951">ska_oso_oet</text></g><!--cluster main--><g id="cluster_main"><rect fill="none" height="272" rx="2.5" ry="2.5" style="stroke:#181818;stroke-width:1.0;" width="327" x="290" y="49"/><text fill="#000000" font-family="sans-serif" font-size="14" font-weight="bold" lengthAdjust="spacing" textLength="37" x="435" y="63.9951">main</text></g><!--cluster ui--><g id="cluster_ui"><rect fill="none" height="107" rx="2.5" ry="2.5" style="stroke:#181818;stroke-width:1.0;" width="206" x="450" y="345"/><text fill="#000000" font-family="sans-serif" font-size="14" font-weight="bold" lengthAdjust="spacing" textLength="14" x="546" y="359.9951">ui</text></g><!--cluster activity--><g id="cluster_activity"><path d="M32.5,476 L89.5,476 A3.75,3.75 0 0 1 92,478.5 L99,498.2969 L879.5,498.2969 A2.5,2.5 0 0 1 882,500.7969 L882,1083 A2.5,2.5 0 0 1 879.5,1085.5 L32.5,1085.5 A2.5,2.5 0 0 1 30,1083 L30,478.5 A2.5,2.5 0 0 1 32.5,476 " fill="none" style="stroke:#000000;stroke-width:1.5;"/><line style="stroke:#000000;stroke-width:1.5;" x1="30" x2="99" y1="498.2969" y2="498.2969"/><text fill="#000000" font-family="sans-serif" font-size="14" font-weight="bold" lengthAdjust="spacing" textLength="56" x="34" y="490.9951">activity</text></g><!--cluster activity_ui--><g id="cluster_activity_ui"><rect fill="none" height="115" rx="2.5" ry="2.5" style="stroke:#181818;stroke-width:1.0;" width="167" x="602" y="527"/><text fill="#000000" font-family="sans-serif" font-size="14" font-weight="bold" lengthAdjust="spacing" textLength="14" x="678.5" y="541.9951">ui</text></g><!--cluster application--><g id="cluster_application"><rect fill="none" height="371.5" rx="2.5" ry="2.5" style="stroke:#181818;stroke-width:1.0;" width="565" x="62" y="682"/><text fill="#000000" font-family="sans-serif" font-size="14" font-weight="bold" lengthAdjust="spacing" textLength="85" x="302" y="696.9951">application</text></g><!--cluster activity_domain--><g id="cluster_activity_domain"><rect fill="none" height="131" rx="2.5" ry="2.5" style="stroke:#181818;stroke-width:1.0;" width="183" x="667" y="873.5"/><text fill="#000000" font-family="sans-serif" font-size="14" font-weight="bold" lengthAdjust="spacing" textLength="57" x="730" y="888.4951">domain</text></g><!--cluster procedure--><g id="cluster_procedure"><path d="M908.5,822 L992.5,822 A3.75,3.75 0 0 1 995,824.5 L1002,844.2969 L1215.5,844.2969 A2.5,2.5 0 0 1 1218,846.7969 L1218,1034.5 A2.5,2.5 0 0 1 1215.5,1037 L908.5,1037 A2.5,2.5 0 0 1 906,1034.5 L906,824.5 A2.5,2.5 0 0 1 908.5,822 " fill="none" style="stroke:#000000;stroke-width:1.5;"/><line style="stroke:#000000;stroke-width:1.5;" x1="906" x2="1002" y1="844.2969" y2="844.2969"/><text fill="#000000" font-family="sans-serif" font-size="14" font-weight="bold" lengthAdjust="spacing" textLength="83" x="910" y="836.9951">procedure</text></g><!--cluster procedure_domain--><g id="cluster_procedure_domain"><rect fill="none" height="148" rx="2.5" ry="2.5" style="stroke:#181818;stroke-width:1.0;" width="264" x="930" y="865"/><text fill="#000000" font-family="sans-serif" font-size="14" font-weight="bold" lengthAdjust="spacing" textLength="57" x="1033.5" y="879.9951">domain</text></g><!--class ActivityWorker--><g id="elem_ActivityWorker"><rect codeLine="7" fill="#F1F1F1" height="64.2969" id="ActivityWorker" rx="2.5" ry="2.5" style="stroke:#181818;stroke-width:0.5;" width="128" x="306" y="241"/><ellipse cx="321" cy="257" fill="#ADD1B2" rx="11" ry="11" style="stroke:#181818;stroke-width:1.0;"/><path d="M323.9688,262.6406 Q323.3906,262.9375 322.75,263.0781 Q322.1094,263.2344 321.4063,263.2344 Q318.9063,263.2344 317.5781,261.5938 Q316.2656,259.9375 316.2656,256.8125 Q316.2656,253.6875 317.5781,252.0313 Q318.9063,250.375 321.4063,250.375 Q322.1094,250.375 322.75,250.5313 Q323.4063,250.6875 323.9688,250.9844 L323.9688,253.7031 Q323.3438,253.125 322.75,252.8594 Q322.1563,252.5781 321.5313,252.5781 Q320.1875,252.5781 319.5,253.6563 Q318.8125,254.7188 318.8125,256.8125 Q318.8125,258.9063 319.5,259.9844 Q320.1875,261.0469 321.5313,261.0469 Q322.1563,261.0469 322.75,260.7813 Q323.3438,260.5 323.9688,259.9219 L323.9688,262.6406 Z " fill="#000000"/><text fill="#000000" font-family="sans-serif" font-size="14" lengthAdjust="spacing" textLength="96" x="335" y="261.8467">ActivityWorker</text><line style="stroke:#181818;stroke-width:0.5;" x1="307" x2="433" y1="273" y2="273"/><line style="stroke:#181818;stroke-width:0.5;" x1="307" x2="433" y1="281" y2="281"/><text fill="#000000" font-family="sans-serif" font-size="14" lengthAdjust="spacing" textLength="45" x="312" y="297.9951">run(...)</text></g><!--class FastAPIWorker--><g id="elem_FastAPIWorker"><rect codeLine="11" fill="#F1F1F1" height="48" id="FastAPIWorker" rx="2.5" ry="2.5" style="stroke:#181818;stroke-width:0.5;" width="131" x="469.5" y="249"/><ellipse cx="484.5" cy="265" fill="#ADD1B2" rx="11" ry="11" style="stroke:#181818;stroke-width:1.0;"/><path d="M487.4688,270.6406 Q486.8906,270.9375 486.25,271.0781 Q485.6094,271.2344 484.9063,271.2344 Q482.4063,271.2344 481.0781,269.5938 Q479.7656,267.9375 479.7656,264.8125 Q479.7656,261.6875 481.0781,260.0313 Q482.4063,258.375 484.9063,258.375 Q485.6094,258.375 486.25,258.5313 Q486.9063,258.6875 487.4688,258.9844 L487.4688,261.7031 Q486.8438,261.125 486.25,260.8594 Q485.6563,260.5781 485.0313,260.5781 Q483.6875,260.5781 483,261.6563 Q482.3125,262.7188 482.3125,264.8125 Q482.3125,266.9063 483,267.9844 Q483.6875,269.0469 485.0313,269.0469 Q485.6563,269.0469 486.25,268.7813 Q486.8438,268.5 487.4688,267.9219 L487.4688,270.6406 Z " fill="#000000"/><text fill="#000000" font-family="sans-serif" font-size="14" lengthAdjust="spacing" textLength="99" x="498.5" y="269.8467">FastAPIWorker</text><line style="stroke:#181818;stroke-width:0.5;" x1="470.5" x2="599.5" y1="281" y2="281"/><line style="stroke:#181818;stroke-width:0.5;" x1="470.5" x2="599.5" y1="289" y2="289"/></g><!--class EventBusWorker--><g id="elem_EventBusWorker"><rect codeLine="13" fill="#F1F1F1" height="96.8906" id="EventBusWorker" rx="2.5" ry="2.5" style="stroke:#181818;stroke-width:0.5;" width="147" x="379.5" y="84"/><ellipse cx="394.5" cy="100" fill="#ADD1B2" rx="11" ry="11" style="stroke:#181818;stroke-width:1.0;"/><path d="M397.4688,105.6406 Q396.8906,105.9375 396.25,106.0781 Q395.6094,106.2344 394.9063,106.2344 Q392.4063,106.2344 391.0781,104.5938 Q389.7656,102.9375 389.7656,99.8125 Q389.7656,96.6875 391.0781,95.0313 Q392.4063,93.375 394.9063,93.375 Q395.6094,93.375 396.25,93.5313 Q396.9063,93.6875 397.4688,93.9844 L397.4688,96.7031 Q396.8438,96.125 396.25,95.8594 Q395.6563,95.5781 395.0313,95.5781 Q393.6875,95.5781 393,96.6563 Q392.3125,97.7188 392.3125,99.8125 Q392.3125,101.9063 393,102.9844 Q393.6875,104.0469 395.0313,104.0469 Q395.6563,104.0469 396.25,103.7813 Q396.8438,103.5 397.4688,102.9219 L397.4688,105.6406 Z " fill="#000000"/><text fill="#000000" font-family="sans-serif" font-size="14" lengthAdjust="spacing" textLength="115" x="408.5" y="104.8467">EventBusWorker</text><line style="stroke:#181818;stroke-width:0.5;" x1="380.5" x2="525.5" y1="116" y2="116"/><line style="stroke:#181818;stroke-width:0.5;" x1="380.5" x2="525.5" y1="124" y2="124"/><text fill="#000000" font-family="sans-serif" font-size="14" lengthAdjust="spacing" textLength="92" x="385.5" y="140.9951">main_loop(...)</text><text fill="#000000" font-family="sans-serif" font-size="14" lengthAdjust="spacing" textLength="92" x="385.5" y="157.292">main_func(...)</text><text fill="#000000" font-family="sans-serif" font-size="14" lengthAdjust="spacing" textLength="86" x="385.5" y="173.5889">republish(...)</text></g><!--class app--><g id="elem_app"><rect codeLine="25" fill="#F1F1F1" height="56.2656" id="app" rx="2.5" ry="2.5" style="stroke:#181818;stroke-width:0.5;" width="173" x="466.5" y="380"/><ellipse cx="481.5" cy="400.1328" fill="#ADD1B2" rx="11" ry="11" style="stroke:#181818;stroke-width:1.0;"/><path d="M484.4688,405.7734 Q483.8906,406.0703 483.25,406.2109 Q482.6094,406.3672 481.9063,406.3672 Q479.4063,406.3672 478.0781,404.7266 Q476.7656,403.0703 476.7656,399.9453 Q476.7656,396.8203 478.0781,395.1641 Q479.4063,393.5078 481.9063,393.5078 Q482.6094,393.5078 483.25,393.6641 Q483.9063,393.8203 484.4688,394.1172 L484.4688,396.8359 Q483.8438,396.2578 483.25,395.9922 Q482.6563,395.7109 482.0313,395.7109 Q480.6875,395.7109 480,396.7891 Q479.3125,397.8516 479.3125,399.9453 Q479.3125,402.0391 480,403.1172 Q480.6875,404.1797 482.0313,404.1797 Q482.6563,404.1797 483.25,403.9141 Q483.8438,403.6328 484.4688,403.0547 L484.4688,405.7734 Z " fill="#000000"/><text fill="#000000" font-family="sans-serif" font-size="12" font-style="italic" lengthAdjust="spacing" textLength="145" x="493.5" y="396.1387">«function return value»</text><text fill="#000000" font-family="sans-serif" font-size="14" lengthAdjust="spacing" textLength="26" x="553" y="411.9639">app</text><line style="stroke:#181818;stroke-width:0.5;" x1="467.5" x2="638.5" y1="420.2656" y2="420.2656"/><line style="stroke:#181818;stroke-width:0.5;" x1="467.5" x2="638.5" y1="428.2656" y2="428.2656"/></g><!--class ActivityAPI--><g id="elem_ActivityAPI"><rect codeLine="32" fill="#F1F1F1" height="48" id="ActivityAPI" rx="2.5" ry="2.5" style="stroke:#181818;stroke-width:0.5;" width="100" x="645" y="570"/><ellipse cx="660" cy="586" fill="#ADD1B2" rx="11" ry="11" style="stroke:#181818;stroke-width:1.0;"/><path d="M662.9688,591.6406 Q662.3906,591.9375 661.75,592.0781 Q661.1094,592.2344 660.4063,592.2344 Q657.9063,592.2344 656.5781,590.5938 Q655.2656,588.9375 655.2656,585.8125 Q655.2656,582.6875 656.5781,581.0313 Q657.9063,579.375 660.4063,579.375 Q661.1094,579.375 661.75,579.5313 Q662.4063,579.6875 662.9688,579.9844 L662.9688,582.7031 Q662.3438,582.125 661.75,581.8594 Q661.1563,581.5781 660.5313,581.5781 Q659.1875,581.5781 658.5,582.6563 Q657.8125,583.7188 657.8125,585.8125 Q657.8125,587.9063 658.5,588.9844 Q659.1875,590.0469 660.5313,590.0469 Q661.1563,590.0469 661.75,589.7813 Q662.3438,589.5 662.9688,588.9219 L662.9688,591.6406 Z " fill="#000000"/><text fill="#000000" font-family="sans-serif" font-size="14" lengthAdjust="spacing" textLength="68" x="674" y="590.8467">ActivityAPI</text><line style="stroke:#181818;stroke-width:0.5;" x1="646" x2="744" y1="602" y2="602"/><line style="stroke:#181818;stroke-width:0.5;" x1="646" x2="744" y1="610" y2="610"/></g><!--class ActivityCommand--><g id="elem_ActivityCommand"><rect codeLine="39" fill="#F1F1F1" height="113.1875" id="ActivityCommand" rx="2.5" ry="2.5" style="stroke:#181818;stroke-width:0.5;" width="150" x="445" y="892"/><ellipse cx="460" cy="908" fill="#ADD1B2" rx="11" ry="11" style="stroke:#181818;stroke-width:1.0;"/><path d="M462.9688,913.6406 Q462.3906,913.9375 461.75,914.0781 Q461.1094,914.2344 460.4063,914.2344 Q457.9063,914.2344 456.5781,912.5938 Q455.2656,910.9375 455.2656,907.8125 Q455.2656,904.6875 456.5781,903.0313 Q457.9063,901.375 460.4063,901.375 Q461.1094,901.375 461.75,901.5313 Q462.4063,901.6875 462.9688,901.9844 L462.9688,904.7031 Q462.3438,904.125 461.75,903.8594 Q461.1563,903.5781 460.5313,903.5781 Q459.1875,903.5781 458.5,904.6563 Q457.8125,905.7188 457.8125,907.8125 Q457.8125,909.9063 458.5,910.9844 Q459.1875,912.0469 460.5313,912.0469 Q461.1563,912.0469 461.75,911.7813 Q462.3438,911.5 462.9688,910.9219 L462.9688,913.6406 Z " fill="#000000"/><text fill="#000000" font-family="sans-serif" font-size="14" lengthAdjust="spacing" textLength="118" x="474" y="912.8467">ActivityCommand</text><line style="stroke:#181818;stroke-width:0.5;" x1="446" x2="594" y1="924" y2="924"/><text fill="#000000" font-family="sans-serif" font-size="14" lengthAdjust="spacing" textLength="72" x="451" y="940.9951">sbd_id: str</text><text fill="#000000" font-family="sans-serif" font-size="14" lengthAdjust="spacing" textLength="119" x="451" y="957.292">activity_name: str</text><text fill="#000000" font-family="sans-serif" font-size="14" lengthAdjust="spacing" textLength="128" x="451" y="973.5889">prepare_only: bool</text><text fill="#000000" font-family="sans-serif" font-size="14" lengthAdjust="spacing" textLength="121" x="451" y="989.8857">arg_override: Dict</text><line style="stroke:#181818;stroke-width:0.5;" x1="446" x2="594" y1="997.1875" y2="997.1875"/></g><!--class ActivityService--><g id="elem_ActivityService"><rect codeLine="46" fill="#F1F1F1" height="80.5938" id="ActivityService" rx="2.5" ry="2.5" style="stroke:#181818;stroke-width:0.5;" width="338" x="121" y="725"/><ellipse cx="237.25" cy="741" fill="#ADD1B2" rx="11" ry="11" style="stroke:#181818;stroke-width:1.0;"/><path d="M240.2188,746.6406 Q239.6406,746.9375 239,747.0781 Q238.3594,747.2344 237.6563,747.2344 Q235.1563,747.2344 233.8281,745.5938 Q232.5156,743.9375 232.5156,740.8125 Q232.5156,737.6875 233.8281,736.0313 Q235.1563,734.375 237.6563,734.375 Q238.3594,734.375 239,734.5313 Q239.6563,734.6875 240.2188,734.9844 L240.2188,737.7031 Q239.5938,737.125 239,736.8594 Q238.4063,736.5781 237.7813,736.5781 Q236.4375,736.5781 235.75,737.6563 Q235.0625,738.7188 235.0625,740.8125 Q235.0625,742.9063 235.75,743.9844 Q236.4375,745.0469 237.7813,745.0469 Q238.4063,745.0469 239,744.7813 Q239.5938,744.5 240.2188,743.9219 L240.2188,746.6406 Z " fill="#000000"/><text fill="#000000" font-family="sans-serif" font-size="14" lengthAdjust="spacing" textLength="97" x="257.75" y="745.8467">ActivityService</text><line style="stroke:#181818;stroke-width:0.5;" x1="122" x2="458" y1="757" y2="757"/><text fill="#000000" font-family="sans-serif" font-size="14" lengthAdjust="spacing" textLength="199" x="127" y="773.9951">history: List[ActivitySummary]</text><line style="stroke:#181818;stroke-width:0.5;" x1="122" x2="458" y1="781.2969" y2="781.2969"/><text fill="#000000" font-family="sans-serif" font-size="14" lengthAdjust="spacing" textLength="326" x="127" y="798.292">run(cmd: ActivityCommand) -&gt; ActivitySummary</text></g><!--class ActivitySummary--><g id="elem_ActivitySummary"><rect codeLine="51" fill="#F1F1F1" height="162.0781" id="ActivitySummary" rx="2.5" ry="2.5" style="stroke:#181818;stroke-width:0.5;" width="324" x="86" y="867.5"/><ellipse cx="188.25" cy="883.5" fill="#ADD1B2" rx="11" ry="11" style="stroke:#181818;stroke-width:1.0;"/><path d="M191.2188,889.1406 Q190.6406,889.4375 190,889.5781 Q189.3594,889.7344 188.6563,889.7344 Q186.1563,889.7344 184.8281,888.0938 Q183.5156,886.4375 183.5156,883.3125 Q183.5156,880.1875 184.8281,878.5313 Q186.1563,876.875 188.6563,876.875 Q189.3594,876.875 190,877.0313 Q190.6563,877.1875 191.2188,877.4844 L191.2188,880.2031 Q190.5938,879.625 190,879.3594 Q189.4063,879.0781 188.7813,879.0781 Q187.4375,879.0781 186.75,880.1563 Q186.0625,881.2188 186.0625,883.3125 Q186.0625,885.4063 186.75,886.4844 Q187.4375,887.5469 188.7813,887.5469 Q189.4063,887.5469 190,887.2813 Q190.5938,887 191.2188,886.4219 L191.2188,889.1406 Z " fill="#000000"/><text fill="#000000" font-family="sans-serif" font-size="14" lengthAdjust="spacing" textLength="111" x="208.75" y="888.3467">ActivitySummary</text><line style="stroke:#181818;stroke-width:0.5;" x1="87" x2="409" y1="899.5" y2="899.5"/><text fill="#000000" font-family="sans-serif" font-size="14" lengthAdjust="spacing" textLength="91" x="92" y="916.4951">activity_id: int</text><text fill="#000000" font-family="sans-serif" font-size="14" lengthAdjust="spacing" textLength="117" x="92" y="932.792">procedure_id: int</text><text fill="#000000" font-family="sans-serif" font-size="14" lengthAdjust="spacing" textLength="72" x="92" y="949.0889">sbd_id: str</text><text fill="#000000" font-family="sans-serif" font-size="14" lengthAdjust="spacing" textLength="119" x="92" y="965.3857">activity_name: str</text><text fill="#000000" font-family="sans-serif" font-size="14" lengthAdjust="spacing" textLength="128" x="92" y="981.6826">prepare_only: bool</text><text fill="#000000" font-family="sans-serif" font-size="14" lengthAdjust="spacing" textLength="205" x="92" y="997.9795">arg_override: List[ArgCapture]</text><line style="stroke:#181818;stroke-width:0.5;" x1="87" x2="409" y1="1005.2813" y2="1005.2813"/><text fill="#000000" font-family="sans-serif" font-size="14" lengthAdjust="spacing" textLength="312" x="92" y="1022.2764">activity_states: List[(ActivityState, timestamp)]</text></g><!--class ActivityState--><g id="elem_ActivityState"><rect codeLine="64" fill="#F1F1F1" height="64.2969" id="ActivityState" rx="2.5" ry="2.5" style="stroke:#181818;stroke-width:0.5;" width="115" x="710.5" y="916.5"/><ellipse cx="725.5" cy="932.5" fill="#EB937F" rx="11" ry="11" style="stroke:#181818;stroke-width:1.0;"/><path d="M729.6094,938.5 L721.8906,938.5 L721.8906,926.1094 L729.6094,926.1094 L729.6094,928.2656 L724.3438,928.2656 L724.3438,930.9375 L729.1094,930.9375 L729.1094,933.0938 L724.3438,933.0938 L724.3438,936.3438 L729.6094,936.3438 L729.6094,938.5 Z " fill="#000000"/><text fill="#000000" font-family="sans-serif" font-size="14" lengthAdjust="spacing" textLength="83" x="739.5" y="937.3467">ActivityState</text><line style="stroke:#181818;stroke-width:0.5;" x1="711.5" x2="824.5" y1="948.5" y2="948.5"/><text fill="#000000" font-family="sans-serif" font-size="14" lengthAdjust="spacing" textLength="87" x="716.5" y="965.4951">REQUESTED</text><line style="stroke:#181818;stroke-width:0.5;" x1="711.5" x2="824.5" y1="972.7969" y2="972.7969"/></g><!--class ArgCapture--><g id="elem_ArgCapture"><rect codeLine="76" fill="#F1F1F1" height="96.8906" id="ArgCapture" rx="2.5" ry="2.5" style="stroke:#181818;stroke-width:0.5;" width="233" x="945.5" y="900"/><ellipse cx="1018.75" cy="916" fill="#ADD1B2" rx="11" ry="11" style="stroke:#181818;stroke-width:1.0;"/><path d="M1021.7188,921.6406 Q1021.1406,921.9375 1020.5,922.0781 Q1019.8594,922.2344 1019.1563,922.2344 Q1016.6563,922.2344 1015.3281,920.5938 Q1014.0156,918.9375 1014.0156,915.8125 Q1014.0156,912.6875 1015.3281,911.0313 Q1016.6563,909.375 1019.1563,909.375 Q1019.8594,909.375 1020.5,909.5313 Q1021.1563,909.6875 1021.7188,909.9844 L1021.7188,912.7031 Q1021.0938,912.125 1020.5,911.8594 Q1019.9063,911.5781 1019.2813,911.5781 Q1017.9375,911.5781 1017.25,912.6563 Q1016.5625,913.7188 1016.5625,915.8125 Q1016.5625,917.9063 1017.25,918.9844 Q1017.9375,920.0469 1019.2813,920.0469 Q1019.9063,920.0469 1020.5,919.7813 Q1021.0938,919.5 1021.7188,918.9219 L1021.7188,921.6406 Z " fill="#000000"/><text fill="#000000" font-family="sans-serif" font-size="14" lengthAdjust="spacing" textLength="78" x="1039.25" y="920.8467">ArgCapture</text><line style="stroke:#181818;stroke-width:0.5;" x1="946.5" x2="1177.5" y1="932" y2="932"/><text fill="#000000" font-family="sans-serif" font-size="14" lengthAdjust="spacing" textLength="40" x="951.5" y="948.9951">fn: str</text><text fill="#000000" font-family="sans-serif" font-size="14" lengthAdjust="spacing" textLength="221" x="951.5" y="965.292">fn_args: domain.ProcedureInput</text><text fill="#000000" font-family="sans-serif" font-size="14" lengthAdjust="spacing" textLength="68" x="951.5" y="981.5889">time: float</text><line style="stroke:#181818;stroke-width:0.5;" x1="946.5" x2="1177.5" y1="988.8906" y2="988.8906"/></g><!--reverse link EventBusWorker to ActivityWorker--><g id="link_EventBusWorker_ActivityWorker"><path codeLine="19" d="M413.91,198.74 C405.13,213.39 396.2,228.28 388.71,240.77 " fill="none" id="EventBusWorker-backto-ActivityWorker" style="stroke:#181818;stroke-width:1.0;"/><polygon fill="none" points="408.15,194.72,424.44,181.16,420.16,201.92,408.15,194.72" style="stroke:#181818;stroke-width:1.0;"/></g><!--reverse link EventBusWorker to FastAPIWorker--><g id="link_EventBusWorker_FastAPIWorker"><path codeLine="20" d="M491.48,198.5 C502.14,216.49 513.02,234.88 521.24,248.75 " fill="none" id="EventBusWorker-backto-FastAPIWorker" style="stroke:#181818;stroke-width:1.0;"/><polygon fill="none" points="485.39,201.94,481.22,181.16,497.43,194.81,485.39,201.94" style="stroke:#181818;stroke-width:1.0;"/></g><!--reverse link app to ActivityAPI--><g id="link_app_ActivityAPI"><path codeLine="34" d="M614.9,443.78 C624.43,450.94 633.56,459.06 641,468 C666.4,498.53 681.72,542.82 689.25,569.67 " fill="none" id="app-backto-ActivityAPI" style="stroke:#181818;stroke-width:1.0;"/><polygon fill="none" points="604.04,436.11,606.6319,442.8392,613.8403,443.0349,611.2484,436.3057,604.04,436.11" style="stroke:#181818;stroke-width:1.0;"/></g><!--reverse link FastAPIWorker to app--><g id="link_FastAPIWorker_app"><path codeLine="69" d="M539.92,310.35 C542.9,332.34 546.63,359.91 549.34,379.98 " fill="none" id="FastAPIWorker-backto-app" style="stroke:#181818;stroke-width:1.0;"/><polygon fill="#181818" points="538.14,297.17,534.9803,303.652,539.7484,309.0617,542.9081,302.5797,538.14,297.17" style="stroke:#181818;stroke-width:1.0;"/></g><!--reverse link ActivityWorker to ActivityService--><g id="link_ActivityWorker_ActivityService"><path codeLine="70" d="M362.81,318.08 C347.37,412.78 311.22,634.4 296.46,724.92 " fill="none" id="ActivityWorker-backto-ActivityService" style="stroke:#181818;stroke-width:1.0;"/><polygon fill="#181818" points="364.93,305.06,360.0133,310.335,362.9914,316.9024,367.9082,311.6274,364.93,305.06" style="stroke:#181818;stroke-width:1.0;"/></g><!--reverse link ArgCapture to ActivitySummary--><g id="link_ArgCapture_ActivitySummary"><path codeLine="82" d="M992.85,887.44 C948.27,853.65 887.09,817.06 824.5,810 C782.65,805.28 487.35,805.28 445.5,810 C437.57,810.89 435.24,810.65 428,814 C397.9,827.92 367.95,847.42 341.36,867.27 " fill="none" id="ArgCapture-backto-ActivitySummary" style="stroke:#181818;stroke-width:1.0;"/><polygon fill="none" points="997.38,882.1,1008.79,899.95,988.74,893.11,997.38,882.1" style="stroke:#181818;stroke-width:1.0;"/></g><!--link activity_ui to application--><!--link application to activity_domain--><!--link ActivitySummary to ActivityCommand--><!--link ActivityService to ActivitySummary--><!--SRC=[lLNBRXen5DtFLtYN47LWZoAaDA5If2xIf5KN4HePZnai_98VLAZbttiDmpmy7jfkwXKQ7zzxphaFRhREQJkVpJJ7qdd1fqI96U7Oshnak39OP9d6P8ShYkmE5yggGb67VcOPWdEv4fX9T7__Ied3ik9qiRWWmZd5Gm_4iJrpX-_AxAY1UzGvnilRwNGwQJuUu-UVi7KFBy_dr_7bSa-b- -XjCdOWLt2bT3z3SxNnaWol3DL-pPdTZlAA1ELUvxyM4PK6tAD_1Nli6-lPdsp5MWCaQ71CIQ3jl95eZxa_mrlYYV2ubj0DsqcDROCe4aowTlLh34gZnE44gYhFUwXXNa1nHl19pQZsOSf79GIMPKGh7Bik2rREaNLcSDV8arZGD4H39s132oNvOOxMIl5X55CLQa-DOIK4UMB4zI37QxpVgDapGXEyjymwPI3dP_Zntk0zw3I7rG0UHeW8q1avCa7v0aMl_u7U-K62NcDTy9P9bp1E4Lfwi6uCyRyhSpRIL8zOmvJGrNXIwx2ZjdvnsvWHldv0ZWaA0A4dgp4ZZyE-BjLfItPdglvqRQwez0BryYTAyRhyyctvzdNv5D59iEdleJkOHfYtiPLsrndMkazJMwGfT6gDjBBRVlWBtNKNDhLAgDx8T5jiP05bX-ATqqnVBdcVfVR39WpLdACDLzYDsXVxSvcAdDED2vky9PhL3e57tTsPb-g7VD-oigHobNUNNDPTU36itobPTdCohe-2yUw6kp7Gd1Qg5Vvd0hzHOFIV50TjusG3tOPLspPml7AoUBb5ik9jz1i0]--></g></svg>