<?xml version="1.0" encoding="UTF-8" standalone="no"?><svg xmlns="http://www.w3.org/2000/svg" xmlns:xlink="http://www.w3.org/1999/xlink" contentStyleType="text/css" height="1770px" preserveAspectRatio="none" style="width:1763px;height:1770px;background:#FFFFFF;" version="1.1" viewBox="0 0 1763 1770" width="1763px" zoomAndPan="magnify"><defs/><g><rect fill="#FFFFFF" height="1749.4141" style="stroke:#181818;stroke-width:1.5;" width="1752" x="5" y="15"/><path d="M200,15 L200,24.2969 L190,34.2969 L5,34.2969 " fill="none" style="stroke:#181818;stroke-width:1.5;"/><text fill="#000000" font-family="sans-serif" font-size="14" font-weight="bold" lengthAdjust="spacing" textLength="185" x="8" y="28.9951">Scripting API over REST</text><rect fill="none" height="996.3203" style="stroke:#000000;stroke-width:1.5;" width="1720" x="20" y="689.2031"/><rect fill="none" height="163.9297" style="stroke:#000000;stroke-width:1.5;" width="732" x="355" y="1153.9297"/><rect fill="none" height="82.5313" style="stroke:#000000;stroke-width:1.5;" width="533" x="365" y="1228.3281"/><rect fill="none" height="82.5313" style="stroke:#000000;stroke-width:1.5;" width="924" x="30" y="1384.125"/><rect fill="none" height="197.8672" style="stroke:#000000;stroke-width:1.5;" width="930" x="30" y="1480.6563"/><line style="stroke:#181818;stroke-width:0.5;stroke-dasharray:5.0,5.0;" x1="89" x2="89" y1="90.8906" y2="1702.5234"/><line style="stroke:#181818;stroke-width:0.5;stroke-dasharray:5.0,5.0;" x1="372" x2="372" y1="90.8906" y2="1702.5234"/><line style="stroke:#181818;stroke-width:0.5;stroke-dasharray:5.0,5.0;" x1="541.5" x2="541.5" y1="90.8906" y2="1702.5234"/><line style="stroke:#181818;stroke-width:0.5;stroke-dasharray:5.0,5.0;" x1="736" x2="736" y1="346.1484" y2="1702.5234"/><line style="stroke:#181818;stroke-width:0.5;stroke-dasharray:5.0,5.0;" x1="849" x2="849" y1="407.6445" y2="1702.5234"/><line style="stroke:#181818;stroke-width:0.5;stroke-dasharray:5.0,5.0;" x1="987" x2="987" y1="90.8906" y2="1702.5234"/><line style="stroke:#181818;stroke-width:0.5;stroke-dasharray:5.0,5.0;" x1="1165" x2="1165" y1="90.8906" y2="1702.5234"/><line style="stroke:#181818;stroke-width:0.5;stroke-dasharray:5.0,5.0;" x1="1439" x2="1439" y1="90.8906" y2="1702.5234"/><line style="stroke:#181818;stroke-width:0.5;stroke-dasharray:5.0,5.0;" x1="1644" x2="1644" y1="90.8906" y2="1702.5234"/><rect fill="#90EE90" height="46.5938" rx="2.5" ry="2.5" style="stroke:#181818;stroke-width:0.5;" width="98" x="40" y="43.2969"/><text fill="#000000" font-family="sans-serif" font-size="14" lengthAdjust="spacing" textLength="29" x="74.5" y="63.292">CLI :</text><text fill="#000000" font-family="sans-serif" font-size="14" lengthAdjust="spacing" textLength="84" x="47" y="79.5889">RestClientUI</text><rect fill="#90EE90" height="46.5938" rx="2.5" ry="2.5" style="stroke:#181818;stroke-width:0.5;" width="98" x="40" y="1701.5234"/><text fill="#000000" font-family="sans-serif" font-size="14" lengthAdjust="spacing" textLength="29" x="74.5" y="1721.5186">CLI :</text><text fill="#000000" font-family="sans-serif" font-size="14" lengthAdjust="spacing" textLength="84" x="47" y="1737.8154">RestClientUI</text><rect fill="#ADD8E6" height="46.5938" rx="2.5" ry="2.5" style="stroke:#181818;stroke-width:0.5;" width="124" x="310" y="43.2969"/><text fill="#000000" font-family="sans-serif" font-size="14" lengthAdjust="spacing" textLength="110" x="317" y="63.292">REST backend :</text><text fill="#000000" font-family="sans-serif" font-size="14" lengthAdjust="spacing" textLength="99" x="322.5" y="79.5889">FastAPIWorker</text><rect fill="#ADD8E6" height="46.5938" rx="2.5" ry="2.5" style="stroke:#181818;stroke-width:0.5;" width="124" x="310" y="1701.5234"/><text fill="#000000" font-family="sans-serif" font-size="14" lengthAdjust="spacing" textLength="110" x="317" y="1721.5186">REST backend :</text><text fill="#000000" font-family="sans-serif" font-size="14" lengthAdjust="spacing" textLength="99" x="322.5" y="1737.8154">FastAPIWorker</text><rect fill="#ADD8E6" height="46.5938" rx="2.5" ry="2.5" style="stroke:#181818;stroke-width:0.5;" width="143" x="470.5" y="43.2969"/><text fill="#000000" font-family="sans-serif" font-size="14" lengthAdjust="spacing" textLength="129" x="477.5" y="63.292">call_and_respond :</text><text fill="#000000" font-family="sans-serif" font-size="14" lengthAdjust="spacing" textLength="56" x="514" y="79.5889">function</text><rect fill="#ADD8E6" height="46.5938" rx="2.5" ry="2.5" style="stroke:#181818;stroke-width:0.5;" width="143" x="470.5" y="1701.5234"/><text fill="#000000" font-family="sans-serif" font-size="14" lengthAdjust="spacing" textLength="129" x="477.5" y="1721.5186">call_and_respond :</text><text fill="#000000" font-family="sans-serif" font-size="14" lengthAdjust="spacing" textLength="56" x="514" y="1737.8154">function</text><rect fill="#ADD8E6" height="46.5938" rx="2.5" ry="2.5" style="stroke:#181818;stroke-width:0.5;" width="68" x="702" y="1701.5234"/><text fill="#000000" font-family="sans-serif" font-size="14" lengthAdjust="spacing" textLength="54" x="709" y="1721.5186">queue :</text><text fill="#000000" font-family="sans-serif" font-size="14" lengthAdjust="spacing" textLength="47" x="712.5" y="1737.8154">Queue</text><rect fill="#ADD8E6" height="46.5938" rx="2.5" ry="2.5" style="stroke:#181818;stroke-width:0.5;" width="78" x="810" y="1701.5234"/><text fill="#000000" font-family="sans-serif" font-size="14" lengthAdjust="spacing" textLength="64" x="817" y="1721.5186">callback :</text><text fill="#000000" font-family="sans-serif" font-size="14" lengthAdjust="spacing" textLength="56" x="821" y="1737.8154">function</text><rect fill="#ADD8E6" height="46.5938" rx="2.5" ry="2.5" style="stroke:#181818;stroke-width:0.5;" width="179" x="898" y="43.2969"/><text fill="#000000" font-family="sans-serif" font-size="14" lengthAdjust="spacing" textLength="165" x="905" y="63.292">FastAPIWorker pubsub :</text><text fill="#000000" font-family="sans-serif" font-size="14" lengthAdjust="spacing" textLength="69" x="953" y="79.5889">pypubsub</text><rect fill="#ADD8E6" height="46.5938" rx="2.5" ry="2.5" style="stroke:#181818;stroke-width:0.5;" width="179" x="898" y="1701.5234"/><text fill="#000000" font-family="sans-serif" font-size="14" lengthAdjust="spacing" textLength="165" x="905" y="1721.5186">FastAPIWorker pubsub :</text><text fill="#000000" font-family="sans-serif" font-size="14" lengthAdjust="spacing" textLength="69" x="953" y="1737.8154">pypubsub</text><rect fill="#E2E2F0" height="46.5938" rx="2.5" ry="2.5" style="stroke:#181818;stroke-width:0.5;" width="156" x="1087" y="43.2969"/><text fill="#000000" font-family="sans-serif" font-size="14" lengthAdjust="spacing" textLength="142" x="1094" y="63.292">SESWorker pubsub :</text><text fill="#000000" font-family="sans-serif" font-size="14" lengthAdjust="spacing" textLength="69" x="1130.5" y="79.5889">pypubsub</text><rect fill="#E2E2F0" height="46.5938" rx="2.5" ry="2.5" style="stroke:#181818;stroke-width:0.5;" width="156" x="1087" y="1701.5234"/><text fill="#000000" font-family="sans-serif" font-size="14" lengthAdjust="spacing" textLength="142" x="1094" y="1721.5186">SESWorker pubsub :</text><text fill="#000000" font-family="sans-serif" font-size="14" lengthAdjust="spacing" textLength="69" x="1130.5" y="1737.8154">pypubsub</text><rect fill="#E2E2F0" height="46.5938" rx="2.5" ry="2.5" style="stroke:#181818;stroke-width:0.5;" width="220" x="1329" y="43.2969"/><text fill="#000000" font-family="sans-serif" font-size="14" lengthAdjust="spacing" textLength="85" x="1396.5" y="63.292">SESWorker :</text><text fill="#000000" font-family="sans-serif" font-size="14" lengthAdjust="spacing" textLength="206" x="1336" y="79.5889">ScriptExecutionServiceWorker</text><rect fill="#E2E2F0" height="46.5938" rx="2.5" ry="2.5" style="stroke:#181818;stroke-width:0.5;" width="220" x="1329" y="1701.5234"/><text fill="#000000" font-family="sans-serif" font-size="14" lengthAdjust="spacing" textLength="85" x="1396.5" y="1721.5186">SESWorker :</text><text fill="#000000" font-family="sans-serif" font-size="14" lengthAdjust="spacing" textLength="206" x="1336" y="1737.8154">ScriptExecutionServiceWorker</text><rect fill="#E2E2F0" height="46.5938" rx="2.5" ry="2.5" style="stroke:#181818;stroke-width:0.5;" width="171" x="1559" y="43.2969"/><text fill="#000000" font-family="sans-serif" font-size="14" lengthAdjust="spacing" textLength="145" x="1572" y="63.292">Script Execution API :</text><text fill="#000000" font-family="sans-serif" font-size="14" lengthAdjust="spacing" textLength="157" x="1566" y="79.5889">ScriptExecutionService</text><rect fill="#E2E2F0" height="46.5938" rx="2.5" ry="2.5" style="stroke:#181818;stroke-width:0.5;" width="171" x="1559" y="1701.5234"/><text fill="#000000" font-family="sans-serif" font-size="14" lengthAdjust="spacing" textLength="145" x="1572" y="1721.5186">Script Execution API :</text><text fill="#000000" font-family="sans-serif" font-size="14" lengthAdjust="spacing" textLength="157" x="1566" y="1737.8154">ScriptExecutionService</text><polygon fill="#181818" points="360,151.2891,370,155.2891,360,159.2891,364,155.2891" style="stroke:#181818;stroke-width:1.0;"/><line style="stroke:#181818;stroke-width:1.0;" x1="89" x2="366" y1="155.2891" y2="155.2891"/><text fill="#000000" font-family="sans-serif" font-size="13" font-weight="bold" lengthAdjust="spacing" textLength="9" x="96" y="150.2231">1</text><text fill="#000000" font-family="sans-serif" font-size="13" lengthAdjust="spacing" textLength="70" x="109" y="150.2231">HTTP POST</text><path d="M377,105.8906 L377,190.8906 L675,190.8906 L675,115.8906 L665,105.8906 L377,105.8906 " fill="#FEFFDD" style="stroke:#181818;stroke-width:0.5;"/><path d="M665,105.8906 L665,115.8906 L675,115.8906 L665,105.8906 " fill="#FEFFDD" style="stroke:#181818;stroke-width:0.5;"/><text fill="#000000" font-family="sans-serif" font-size="13" lengthAdjust="spacing" textLength="277" x="383" y="122.9575">The User executes an OET CLI command at</text><text fill="#000000" font-family="sans-serif" font-size="13" lengthAdjust="spacing" textLength="269" x="383" y="138.0903">the terminal. The OET CLI uses HTTP POST</text><text fill="#000000" font-family="sans-serif" font-size="13" lengthAdjust="spacing" textLength="264" x="383" y="153.2231">to sends a JSON object encapsulating the</text><text fill="#000000" font-family="sans-serif" font-size="13" lengthAdjust="spacing" textLength="268" x="383" y="168.356">request (script location, script arguments,</text><text fill="#000000" font-family="sans-serif" font-size="13" lengthAdjust="spacing" textLength="169" x="383" y="183.4888">etc.) to the REST backend.</text><polygon fill="#181818" points="530,254.5195,540,258.5195,530,262.5195,534,258.5195" style="stroke:#181818;stroke-width:1.0;"/><line style="stroke:#181818;stroke-width:1.0;" x1="372" x2="536" y1="258.5195" y2="258.5195"/><text fill="#000000" font-family="sans-serif" font-size="13" font-weight="bold" lengthAdjust="spacing" textLength="9" x="379" y="253.4536">2</text><text fill="#000000" font-family="sans-serif" font-size="13" lengthAdjust="spacing" textLength="133" x="392" y="253.4536">call_and_respond(...)</text><path d="M547,201.5547 L547,301.5547 L912,301.5547 L912,211.5547 L902,201.5547 L547,201.5547 " fill="#FEFFDD" style="stroke:#181818;stroke-width:0.5;"/><path d="M902,201.5547 L902,211.5547 L912,211.5547 L902,201.5547 " fill="#FEFFDD" style="stroke:#181818;stroke-width:0.5;"/><text fill="#000000" font-family="monospace" font-size="13" lengthAdjust="spacing" textLength="104" x="553" y="218.6216">FastAPIWorker</text><text fill="#000000" font-family="sans-serif" font-size="13" lengthAdjust="spacing" textLength="60" x="661" y="218.6216">creates a</text><text fill="#000000" font-family="monospace" font-size="13" lengthAdjust="spacing" textLength="168" x="725" y="218.6216">PrepareProcessCommand</text><text fill="#000000" font-family="sans-serif" font-size="13" lengthAdjust="spacing" textLength="318" x="553" y="233.7544">encapsulating the request details and invokes the</text><text fill="#000000" font-family="sans-serif" font-size="13" lengthAdjust="spacing" textLength="4" x="553" y="248.8872"> </text><text fill="#000000" font-family="monospace" font-size="13" lengthAdjust="spacing" textLength="128" x="557" y="248.8872">call_and_respond</text><text fill="#000000" font-family="sans-serif" font-size="13" lengthAdjust="spacing" textLength="179" x="689" y="248.8872">helper function to announce</text><text fill="#000000" font-family="sans-serif" font-size="13" lengthAdjust="spacing" textLength="106" x="553" y="264.02">the event on the</text><text fill="#000000" font-family="sans-serif" font-size="13" font-style="italic" lengthAdjust="spacing" textLength="181" x="663" y="264.02">Create Procedure requested</text><text fill="#000000" font-family="sans-serif" font-size="13" lengthAdjust="spacing" textLength="49" x="848" y="264.02">request</text><text fill="#000000" font-family="sans-serif" font-size="13" lengthAdjust="spacing" textLength="243" x="553" y="279.1528">topic and to expect a response on the</text><text fill="#000000" font-family="sans-serif" font-size="13" font-style="italic" lengthAdjust="spacing" textLength="65" x="800" y="279.1528">Procedure</text><text fill="#000000" font-family="sans-serif" font-size="13" font-style="italic" lengthAdjust="spacing" textLength="49" x="553" y="294.2856">created</text><text fill="#000000" font-family="sans-serif" font-size="13" lengthAdjust="spacing" textLength="98" x="606" y="294.2856">response topic.</text><polygon fill="#181818" points="690,324.4844,700,328.4844,690,332.4844,694,328.4844" style="stroke:#181818;stroke-width:1.0;"/><line style="stroke:#181818;stroke-width:1.0;" x1="542" x2="696" y1="328.4844" y2="328.4844"/><text fill="#000000" font-family="sans-serif" font-size="13" font-weight="bold" lengthAdjust="spacing" textLength="9" x="549" y="323.4185">3</text><text fill="#000000" font-family="sans-serif" font-size="13" lengthAdjust="spacing" textLength="57" x="562" y="323.4185">«create»</text><rect fill="#ADD8E6" height="46.5938" rx="2.5" ry="2.5" style="stroke:#181818;stroke-width:0.5;" width="68" x="702" y="307.3516"/><text fill="#000000" font-family="sans-serif" font-size="14" lengthAdjust="spacing" textLength="54" x="709" y="327.3467">queue :</text><text fill="#000000" font-family="sans-serif" font-size="14" lengthAdjust="spacing" textLength="47" x="712.5" y="343.6436">Queue</text><path d="M775,316.0156 L775,356.0156 L1159,356.0156 L1159,326.0156 L1149,316.0156 L775,316.0156 " fill="#FEFFDD" style="stroke:#181818;stroke-width:0.5;"/><path d="M1149,316.0156 L1149,326.0156 L1159,326.0156 L1149,316.0156 " fill="#FEFFDD" style="stroke:#181818;stroke-width:0.5;"/><text fill="#000000" font-family="monospace" font-size="13" lengthAdjust="spacing" textLength="128" x="781" y="333.0825">call_and_respond</text><text fill="#000000" font-family="sans-serif" font-size="13" lengthAdjust="spacing" textLength="60" x="913" y="333.0825">creates a</text><text fill="#000000" font-family="monospace" font-size="13" lengthAdjust="spacing" textLength="40" x="977" y="333.0825">Queue</text><text fill="#000000" font-family="sans-serif" font-size="13" lengthAdjust="spacing" textLength="123" x="1021" y="333.0825">that will receive the</text><text fill="#000000" font-family="sans-serif" font-size="13" lengthAdjust="spacing" textLength="332" x="781" y="348.2153">response event emitted in response to this request.</text><polygon fill="#181818" points="798,382.0781,808,386.0781,798,390.0781,802,386.0781" style="stroke:#181818;stroke-width:1.0;"/><line style="stroke:#181818;stroke-width:1.0;" x1="542" x2="804" y1="386.0781" y2="386.0781"/><text fill="#000000" font-family="sans-serif" font-size="13" font-weight="bold" lengthAdjust="spacing" textLength="9" x="549" y="381.0122">4</text><text fill="#000000" font-family="sans-serif" font-size="13" lengthAdjust="spacing" textLength="57" x="562" y="381.0122">«create»</text><rect fill="#ADD8E6" height="46.5938" rx="2.5" ry="2.5" style="stroke:#181818;stroke-width:0.5;" width="78" x="810" y="368.8477"/><text fill="#000000" font-family="sans-serif" font-size="14" lengthAdjust="spacing" textLength="64" x="817" y="388.8428">callback :</text><text fill="#000000" font-family="sans-serif" font-size="14" lengthAdjust="spacing" textLength="56" x="821" y="405.1396">function</text><path d="M893,369.9453 L893,424.9453 L1261,424.9453 L1261,379.9453 L1251,369.9453 L893,369.9453 " fill="#FEFFDD" style="stroke:#181818;stroke-width:0.5;"/><path d="M1251,369.9453 L1251,379.9453 L1261,379.9453 L1251,369.9453 " fill="#FEFFDD" style="stroke:#181818;stroke-width:0.5;"/><text fill="#000000" font-family="sans-serif" font-size="13" lengthAdjust="spacing" textLength="347" x="899" y="387.0122">A callback function is created whose sole responsibility</text><text fill="#000000" font-family="sans-serif" font-size="13" lengthAdjust="spacing" textLength="318" x="899" y="402.145">is to put events onto a queue if the event payload</text><text fill="#000000" font-family="sans-serif" font-size="13" lengthAdjust="spacing" textLength="204" x="899" y="417.2778">includes a unique correlation ID.</text><polygon fill="#181818" points="975.5,465.6094,985.5,469.6094,975.5,473.6094,979.5,469.6094" style="stroke:#181818;stroke-width:1.0;"/><line style="stroke:#181818;stroke-width:1.0;" x1="542" x2="981.5" y1="469.6094" y2="469.6094"/><text fill="#000000" font-family="sans-serif" font-size="13" font-weight="bold" lengthAdjust="spacing" textLength="9" x="549" y="464.5435">5</text><text fill="#000000" font-family="sans-serif" font-size="13" lengthAdjust="spacing" textLength="167" x="562" y="464.5435">subscribe(callback, topic=</text><text fill="#000000" font-family="sans-serif" font-size="13" font-style="italic" lengthAdjust="spacing" textLength="110" x="729" y="464.5435">«response topic»</text><text fill="#000000" font-family="sans-serif" font-size="13" lengthAdjust="spacing" textLength="5" x="839" y="464.5435">)</text><path d="M992,435.3438 L992,490.3438 L1381,490.3438 L1381,445.3438 L1371,435.3438 L992,435.3438 " fill="#FEFFDD" style="stroke:#181818;stroke-width:0.5;"/><path d="M1371,435.3438 L1371,445.3438 L1381,445.3438 L1371,435.3438 " fill="#FEFFDD" style="stroke:#181818;stroke-width:0.5;"/><text fill="#000000" font-family="sans-serif" font-size="13" lengthAdjust="spacing" textLength="364" x="998" y="452.4106">The callback function is subscribed to the response topic.</text><text fill="#000000" font-family="sans-serif" font-size="13" lengthAdjust="spacing" textLength="338" x="998" y="467.5435">Thereafter, pypubsub will invoke the callback function</text><text fill="#000000" font-family="sans-serif" font-size="13" lengthAdjust="spacing" textLength="368" x="998" y="482.6763">whenever for any events published on the response topic.</text><polygon fill="#181818" points="975.5,591.5391,985.5,595.5391,975.5,599.5391,979.5,595.5391" style="stroke:#181818;stroke-width:1.0;"/><line style="stroke:#181818;stroke-width:1.0;" x1="542" x2="981.5" y1="595.5391" y2="595.5391"/><text fill="#000000" font-family="sans-serif" font-size="13" font-weight="bold" lengthAdjust="spacing" textLength="9" x="549" y="590.4731">6</text><text fill="#000000" font-family="sans-serif" font-size="13" lengthAdjust="spacing" textLength="93" x="562" y="590.4731">sendMessage(</text><text fill="#000000" font-family="sans-serif" font-size="13" font-style="italic" lengthAdjust="spacing" textLength="100" x="655" y="590.4731">«request topic»</text><text fill="#000000" font-family="sans-serif" font-size="13" lengthAdjust="spacing" textLength="25" x="755" y="590.4731">, ...)</text><path d="M992,500.7422 L992,676.7422 L1393,676.7422 L1393,510.7422 L1383,500.7422 L992,500.7422 " fill="#FEFFDD" style="stroke:#181818;stroke-width:0.5;"/><path d="M1383,500.7422 L1383,510.7422 L1393,510.7422 L1383,500.7422 " fill="#FEFFDD" style="stroke:#181818;stroke-width:0.5;"/><text fill="#000000" font-family="sans-serif" font-size="13" lengthAdjust="spacing" textLength="339" x="998" y="517.8091">An event is published announcing a user request was</text><text fill="#000000" font-family="sans-serif" font-size="13" lengthAdjust="spacing" textLength="354" x="998" y="532.9419">received, the type of requested denoted by the request</text><text fill="#000000" font-family="sans-serif" font-size="13" lengthAdjust="spacing" textLength="323" x="998" y="548.0747">topic. The event payload includes all positional and</text><text fill="#000000" font-family="sans-serif" font-size="13" lengthAdjust="spacing" textLength="378" x="998" y="563.2075">keyword arguments passed to call_and_respond and varies</text><text fill="#000000" font-family="sans-serif" font-size="13" lengthAdjust="spacing" textLength="355" x="998" y="578.3403">depending on context. For instance, a 'prepare process'</text><text fill="#000000" font-family="sans-serif" font-size="13" lengthAdjust="spacing" textLength="373" x="998" y="593.4731">request would include details of the script to run and script</text><text fill="#000000" font-family="sans-serif" font-size="13" lengthAdjust="spacing" textLength="352" x="998" y="608.606">initialisation arguments; a 'start process' request would</text><text fill="#000000" font-family="sans-serif" font-size="13" lengthAdjust="spacing" textLength="380" x="998" y="623.7388">contain details of the process ID to start and the method to</text><text fill="#000000" font-family="sans-serif" font-size="13" lengthAdjust="spacing" textLength="374" x="998" y="638.8716">call, etc. The helper function inserts a unique correlation ID</text><text fill="#000000" font-family="sans-serif" font-size="13" lengthAdjust="spacing" textLength="370" x="998" y="654.0044">to the event payload, the same correlation ID given to the</text><text fill="#000000" font-family="sans-serif" font-size="13" lengthAdjust="spacing" textLength="229" x="998" y="669.1372">callback function for filtering events.</text><path d="M20,689.2031 L90,689.2031 L90,696.3359 L80,706.3359 L20,706.3359 L20,689.2031 " fill="#EEEEEE" style="stroke:#000000;stroke-width:1.5;"/><rect fill="none" height="996.3203" style="stroke:#000000;stroke-width:1.5;" width="1720" x="20" y="689.2031"/><text fill="#000000" font-family="sans-serif" font-size="13" font-weight="bold" lengthAdjust="spacing" textLength="25" x="35" y="702.27">par</text><rect fill="none" height="39.1016" style="stroke:#000000;stroke-width:1.5;" width="351" x="895" y="706.3359"/><path d="M895,706.3359 L961,706.3359 L961,713.3359 L951,723.3359 L895,723.3359 L895,706.3359 " fill="#EEEEEE" style="stroke:#000000;stroke-width:2.0;"/><text fill="#000000" font-family="sans-serif" font-size="13" font-weight="bold" lengthAdjust="spacing" textLength="21" x="908" y="720.4028">ref</text><text fill="#000000" font-family="sans-serif" font-size="12" font-weight="bold" lengthAdjust="spacing" textLength="152" x="994.5" y="738.4746">inter-process pubsub</text><polygon fill="#181818" points="1427,808.4023,1437,812.4023,1427,816.4023,1431,812.4023" style="stroke:#181818;stroke-width:1.0;"/><line style="stroke:#181818;stroke-width:1.0;" x1="1165" x2="1433" y1="812.4023" y2="812.4023"/><text fill="#000000" font-family="sans-serif" font-size="13" font-weight="bold" lengthAdjust="spacing" textLength="9" x="1172" y="807.3364">7</text><text fill="#000000" font-family="sans-serif" font-size="13" lengthAdjust="spacing" textLength="43" x="1185" y="807.3364">call(...)</text><path d="M767,755.4375 L767,855.4375 L1160,855.4375 L1160,765.4375 L1150,755.4375 L767,755.4375 " fill="#FEFFDD" style="stroke:#181818;stroke-width:0.5;"/><path d="M1150,755.4375 L1150,765.4375 L1160,765.4375 L1150,755.4375 " fill="#FEFFDD" style="stroke:#181818;stroke-width:0.5;"/><text fill="#000000" font-family="sans-serif" font-size="13" lengthAdjust="spacing" textLength="342" x="773" y="772.5044">SESWorker has its various methods subscribed to the</text><text fill="#000000" font-family="sans-serif" font-size="13" lengthAdjust="spacing" textLength="285" x="773" y="787.6372">appropriate request topics. For example, the</text><text fill="#000000" font-family="monospace" font-size="13" lengthAdjust="spacing" textLength="56" x="1066" y="787.6372">prepare</text><text fill="#000000" font-family="sans-serif" font-size="13" lengthAdjust="spacing" textLength="179" x="773" y="802.77">method is subscribed to the</text><text fill="#000000" font-family="sans-serif" font-size="13" font-style="italic" lengthAdjust="spacing" textLength="157" x="956" y="802.77">Prepare Process request</text><text fill="#000000" font-family="sans-serif" font-size="13" lengthAdjust="spacing" textLength="60" x="773" y="817.9028">topic; the</text><text fill="#000000" font-family="monospace" font-size="13" lengthAdjust="spacing" textLength="40" x="837" y="817.9028">start</text><text fill="#000000" font-family="sans-serif" font-size="13" lengthAdjust="spacing" textLength="179" x="881" y="817.9028">method is subscribed to the</text><text fill="#000000" font-family="sans-serif" font-size="13" font-style="italic" lengthAdjust="spacing" textLength="30" x="1064" y="817.9028">start</text><text fill="#000000" font-family="sans-serif" font-size="13" font-style="italic" lengthAdjust="spacing" textLength="103" x="773" y="833.0356">process request</text><text fill="#000000" font-family="sans-serif" font-size="13" lengthAdjust="spacing" textLength="265" x="880" y="833.0356">topic, and so on. The appropriate method</text><text fill="#000000" font-family="sans-serif" font-size="13" lengthAdjust="spacing" textLength="371" x="773" y="848.1685">for this event request topic is called with the event details.</text><polygon fill="#181818" points="1632.5,911.6328,1642.5,915.6328,1632.5,919.6328,1636.5,915.6328" style="stroke:#181818;stroke-width:1.0;"/><line style="stroke:#181818;stroke-width:1.0;" x1="1439" x2="1638.5" y1="915.6328" y2="915.6328"/><text fill="#000000" font-family="sans-serif" font-size="13" font-weight="bold" lengthAdjust="spacing" textLength="9" x="1446" y="910.5669">8</text><text fill="#000000" font-family="sans-serif" font-size="13" lengthAdjust="spacing" textLength="4" x="1459" y="910.5669"> </text><path d="M939,866.2344 L939,951.2344 L1434,951.2344 L1434,876.2344 L1424,866.2344 L939,866.2344 " fill="#FEFFDD" style="stroke:#181818;stroke-width:0.5;"/><path d="M1424,866.2344 L1424,876.2344 L1434,876.2344 L1424,866.2344 " fill="#FEFFDD" style="stroke:#181818;stroke-width:0.5;"/><text fill="#000000" font-family="sans-serif" font-size="13" lengthAdjust="spacing" textLength="379" x="945" y="883.3013">SESWorker method extracts details of the request from the</text><text fill="#000000" font-family="sans-serif" font-size="13" lengthAdjust="spacing" textLength="294" x="945" y="898.4341">event and calls the appropriate method of the</text><text fill="#000000" font-family="monospace" font-size="13" lengthAdjust="spacing" textLength="176" x="1243" y="898.4341">ScriptExecutionService</text><text fill="#000000" font-family="sans-serif" font-size="13" lengthAdjust="spacing" textLength="219" x="945" y="913.5669">with the extracted arguments. Ths</text><text fill="#000000" font-family="monospace" font-size="13" lengthAdjust="spacing" textLength="176" x="1168" y="913.5669">ScriptExecutionService</text><text fill="#000000" font-family="sans-serif" font-size="13" lengthAdjust="spacing" textLength="18" x="1348" y="913.5669">will</text><text fill="#000000" font-family="sans-serif" font-size="13" lengthAdjust="spacing" textLength="431" x="945" y="928.6997">perform the appropriate action (load a script, start script execution,</text><text fill="#000000" font-family="sans-serif" font-size="13" lengthAdjust="spacing" textLength="126" x="945" y="943.8325">abort a script, etc.).</text><polygon fill="#181818" points="1450,977.0313,1440,981.0313,1450,985.0313,1446,981.0313" style="stroke:#181818;stroke-width:1.0;"/><line style="stroke:#181818;stroke-width:1.0;" x1="1444" x2="1643.5" y1="981.0313" y2="981.0313"/><text fill="#000000" font-family="sans-serif" font-size="13" font-weight="bold" lengthAdjust="spacing" textLength="9" x="1456" y="975.9653">9</text><text fill="#000000" font-family="sans-serif" font-size="13" lengthAdjust="spacing" textLength="36" x="1469" y="975.9653">result</text><path d="M1091,961.8984 L1091,986.8984 L1434,986.8984 L1434,971.8984 L1424,961.8984 L1091,961.8984 " fill="#FEFFDD" style="stroke:#181818;stroke-width:0.5;"/><path d="M1424,961.8984 L1424,971.8984 L1434,971.8984 L1424,961.8984 " fill="#FEFFDD" style="stroke:#181818;stroke-width:0.5;"/><text fill="#000000" font-family="sans-serif" font-size="13" lengthAdjust="spacing" textLength="23" x="1097" y="978.9653">The</text><text fill="#000000" font-family="monospace" font-size="13" lengthAdjust="spacing" textLength="176" x="1124" y="978.9653">ScriptExecutionService</text><text fill="#000000" font-family="sans-serif" font-size="13" lengthAdjust="spacing" textLength="115" x="1304" y="978.9653">returns the result.</text><polygon fill="#181818" points="1176,1049.9961,1166,1053.9961,1176,1057.9961,1172,1053.9961" style="stroke:#181818;stroke-width:1.0;"/><line style="stroke:#181818;stroke-width:1.0;" x1="1170" x2="1438" y1="1053.9961" y2="1053.9961"/><text fill="#000000" font-family="sans-serif" font-size="13" font-weight="bold" lengthAdjust="spacing" textLength="18" x="1182" y="1048.9302">10</text><text fill="#000000" font-family="sans-serif" font-size="13" lengthAdjust="spacing" textLength="93" x="1204" y="1048.9302">sendMessage(</text><text fill="#000000" font-family="sans-serif" font-size="13" font-style="italic" lengthAdjust="spacing" textLength="110" x="1297" y="1048.9302">«response topic»</text><text fill="#000000" font-family="sans-serif" font-size="13" lengthAdjust="spacing" textLength="25" x="1407" y="1048.9302">, ...)</text><path d="M770,997.0313 L770,1097.0313 L1160,1097.0313 L1160,1007.0313 L1150,997.0313 L770,997.0313 " fill="#FEFFDD" style="stroke:#181818;stroke-width:0.5;"/><path d="M1150,997.0313 L1150,1007.0313 L1160,1007.0313 L1150,997.0313 " fill="#FEFFDD" style="stroke:#181818;stroke-width:0.5;"/><text fill="#000000" font-family="sans-serif" font-size="13" lengthAdjust="spacing" textLength="337" x="776" y="1014.0981">SESWorker publishes an event on the response topic</text><text fill="#000000" font-family="sans-serif" font-size="13" lengthAdjust="spacing" textLength="212" x="776" y="1029.231">The event payload will either be a</text><text fill="#000000" font-family="monospace" font-size="13" lengthAdjust="spacing" textLength="128" x="992" y="1029.231">ProcedureSummary</text><text fill="#000000" font-family="sans-serif" font-size="13" lengthAdjust="spacing" textLength="353" x="776" y="1044.3638">if the call was successful or a stacktrace representation</text><text fill="#000000" font-family="sans-serif" font-size="13" lengthAdjust="spacing" textLength="369" x="776" y="1059.4966">if the call failed. The response event payload also includes</text><text fill="#000000" font-family="sans-serif" font-size="13" lengthAdjust="spacing" textLength="354" x="776" y="1074.6294">the correlation ID included in the request event payload</text><text fill="#000000" font-family="sans-serif" font-size="13" lengthAdjust="spacing" textLength="171" x="776" y="1089.7622">which triggered this action.</text><rect fill="none" height="39.1016" style="stroke:#000000;stroke-width:1.5;" width="351" x="895" y="1102.8281"/><path d="M895,1102.8281 L961,1102.8281 L961,1109.8281 L951,1119.8281 L895,1119.8281 L895,1102.8281 " fill="#EEEEEE" style="stroke:#000000;stroke-width:2.0;"/><text fill="#000000" font-family="sans-serif" font-size="13" font-weight="bold" lengthAdjust="spacing" textLength="21" x="908" y="1116.895">ref</text><text fill="#000000" font-family="sans-serif" font-size="12" font-weight="bold" lengthAdjust="spacing" textLength="152" x="994.5" y="1134.9668">inter-process pubsub</text><path d="M355,1153.9297 L432,1153.9297 L432,1161.0625 L422,1171.0625 L355,1171.0625 L355,1153.9297 " fill="#EEEEEE" style="stroke:#000000;stroke-width:1.5;"/><rect fill="none" height="163.9297" style="stroke:#000000;stroke-width:1.5;" width="732" x="355" y="1153.9297"/><text fill="#000000" font-family="sans-serif" font-size="13" font-weight="bold" lengthAdjust="spacing" textLength="32" x="370" y="1166.9966">loop</text><text fill="#000000" font-family="sans-serif" font-size="11" font-weight="bold" lengthAdjust="spacing" textLength="267" x="447" y="1166.1401">[each event published on response topic]</text><polygon fill="#181818" points="860,1198.7617,850,1202.7617,860,1206.7617,856,1202.7617" style="stroke:#181818;stroke-width:1.0;"/><line style="stroke:#181818;stroke-width:1.0;" x1="854" x2="986.5" y1="1202.7617" y2="1202.7617"/><text fill="#000000" font-family="sans-serif" font-size="13" font-weight="bold" lengthAdjust="spacing" textLength="18" x="866" y="1197.6958">11</text><text fill="#000000" font-family="sans-serif" font-size="13" lengthAdjust="spacing" textLength="43" x="888" y="1197.6958">call(...)</text><path d="M501,1176.0625 L501,1216.0625 L844,1216.0625 L844,1186.0625 L834,1176.0625 L501,1176.0625 " fill="#FEFFDD" style="stroke:#181818;stroke-width:0.5;"/><path d="M834,1176.0625 L834,1186.0625 L844,1186.0625 L834,1176.0625 " fill="#FEFFDD" style="stroke:#181818;stroke-width:0.5;"/><text fill="#000000" font-family="sans-serif" font-size="13" lengthAdjust="spacing" textLength="322" x="507" y="1193.1294">As a subscriber to the response topic, the callback</text><text fill="#000000" font-family="sans-serif" font-size="13" lengthAdjust="spacing" textLength="204" x="507" y="1208.2622">function is called with the event.</text><path d="M365,1228.3281 L435,1228.3281 L435,1235.4609 L425,1245.4609 L365,1245.4609 L365,1228.3281 " fill="#EEEEEE" style="stroke:#000000;stroke-width:1.5;"/><rect fill="none" height="82.5313" style="stroke:#000000;stroke-width:1.5;" width="533" x="365" y="1228.3281"/><text fill="#000000" font-family="sans-serif" font-size="13" font-weight="bold" lengthAdjust="spacing" textLength="25" x="380" y="1241.395">opt</text><text fill="#000000" font-family="sans-serif" font-size="11" font-weight="bold" lengthAdjust="spacing" textLength="214" x="450" y="1240.5386">[response ID matches request ID]</text><polygon fill="#181818" points="747,1280.7266,737,1284.7266,747,1288.7266,743,1284.7266" style="stroke:#181818;stroke-width:1.0;"/><line style="stroke:#181818;stroke-width:1.0;" x1="741" x2="848" y1="1284.7266" y2="1284.7266"/><text fill="#000000" font-family="sans-serif" font-size="13" font-weight="bold" lengthAdjust="spacing" textLength="18" x="753" y="1279.6606">12</text><text fill="#000000" font-family="sans-serif" font-size="13" lengthAdjust="spacing" textLength="67" x="775" y="1279.6606">put(event)</text><path d="M375,1250.4609 L375,1305.4609 L731,1305.4609 L731,1260.4609 L721,1250.4609 L375,1250.4609 " fill="#FEFFDD" style="stroke:#181818;stroke-width:0.5;"/><path d="M721,1250.4609 L721,1260.4609 L731,1260.4609 L721,1250.4609 " fill="#FEFFDD" style="stroke:#181818;stroke-width:0.5;"/><text fill="#000000" font-family="sans-serif" font-size="13" lengthAdjust="spacing" textLength="324" x="381" y="1267.5278">If the correlation ID in the response event matches</text><text fill="#000000" font-family="sans-serif" font-size="13" lengthAdjust="spacing" textLength="335" x="381" y="1282.6606">the correlation ID in the request, the response event</text><text fill="#000000" font-family="sans-serif" font-size="13" lengthAdjust="spacing" textLength="144" x="381" y="1297.7935">is added to the queue.</text><line style="stroke:#000000;stroke-width:1.0;stroke-dasharray:2.0,2.0;" x1="20" x2="1740" y1="1325.8594" y2="1325.8594"/><polygon fill="#181818" points="724,1354.5586,734,1358.5586,724,1362.5586,728,1358.5586" style="stroke:#181818;stroke-width:1.0;"/><line style="stroke:#181818;stroke-width:1.0;" x1="542" x2="730" y1="1358.5586" y2="1358.5586"/><text fill="#000000" font-family="sans-serif" font-size="13" font-weight="bold" lengthAdjust="spacing" textLength="18" x="549" y="1353.4927">13</text><text fill="#000000" font-family="sans-serif" font-size="13" lengthAdjust="spacing" textLength="148" x="571" y="1353.4927">get(timeout=TIMEOUT)</text><path d="M155,1331.8594 L155,1371.8594 L537,1371.8594 L537,1341.8594 L527,1331.8594 L155,1331.8594 " fill="#FEFFDD" style="stroke:#181818;stroke-width:0.5;"/><path d="M527,1331.8594 L527,1341.8594 L537,1341.8594 L527,1331.8594 " fill="#FEFFDD" style="stroke:#181818;stroke-width:0.5;"/><text fill="#000000" font-family="sans-serif" font-size="13" lengthAdjust="spacing" textLength="70" x="161" y="1348.9263">Meanwhile.</text><text fill="#000000" font-family="monospace" font-size="13" lengthAdjust="spacing" textLength="128" x="235" y="1348.9263">call_and_respond</text><text fill="#000000" font-family="sans-serif" font-size="13" lengthAdjust="spacing" textLength="146" x="367" y="1348.9263">waits at most TIMEOUT</text><text fill="#000000" font-family="sans-serif" font-size="13" lengthAdjust="spacing" textLength="361" x="161" y="1364.0591">seconds for the response event to appear on the queue.</text><path d="M30,1384.125 L100,1384.125 L100,1391.2578 L90,1401.2578 L30,1401.2578 L30,1384.125 " fill="#EEEEEE" style="stroke:#000000;stroke-width:1.5;"/><rect fill="none" height="82.5313" style="stroke:#000000;stroke-width:1.5;" width="924" x="30" y="1384.125"/><text fill="#000000" font-family="sans-serif" font-size="13" font-weight="bold" lengthAdjust="spacing" textLength="25" x="45" y="1397.1919">opt</text><text fill="#000000" font-family="sans-serif" font-size="11" font-weight="bold" lengthAdjust="spacing" textLength="245" x="115" y="1396.3354">[no response received within timeout]</text><polygon fill="#181818" points="100,1436.5234,90,1440.5234,100,1444.5234,96,1440.5234" style="stroke:#181818;stroke-width:1.0;"/><line style="stroke:#181818;stroke-width:1.0;stroke-dasharray:2.0,2.0;" x1="94" x2="541" y1="1440.5234" y2="1440.5234"/><text fill="#000000" font-family="sans-serif" font-size="13" font-weight="bold" lengthAdjust="spacing" textLength="18" x="106" y="1435.4575">14</text><text fill="#000000" font-family="sans-serif" font-size="13" lengthAdjust="spacing" textLength="196" x="128" y="1435.4575">HTTP error + JSON error object</text><path d="M547,1406.2578 L547,1461.2578 L939,1461.2578 L939,1416.2578 L929,1406.2578 L547,1406.2578 " fill="#FEFFDD" style="stroke:#181818;stroke-width:0.5;"/><path d="M929,1406.2578 L929,1416.2578 L939,1416.2578 L929,1406.2578 " fill="#FEFFDD" style="stroke:#181818;stroke-width:0.5;"/><text fill="#000000" font-family="sans-serif" font-size="13" lengthAdjust="spacing" textLength="371" x="553" y="1423.3247">If a result is not received within the timeout period, a HTTP</text><text fill="#000000" font-family="sans-serif" font-size="13" lengthAdjust="spacing" textLength="355" x="553" y="1438.4575">error response is returned to the client including a JSON</text><text fill="#000000" font-family="sans-serif" font-size="13" lengthAdjust="spacing" textLength="289" x="553" y="1453.5903">object containing details of the timeout error.</text><path d="M30,1480.6563 L94,1480.6563 L94,1487.7891 L84,1497.7891 L30,1497.7891 L30,1480.6563 " fill="#EEEEEE" style="stroke:#000000;stroke-width:1.5;"/><rect fill="none" height="197.8672" style="stroke:#000000;stroke-width:1.5;" width="930" x="30" y="1480.6563"/><text fill="#000000" font-family="sans-serif" font-size="13" font-weight="bold" lengthAdjust="spacing" textLength="19" x="45" y="1493.7231">alt</text><text fill="#000000" font-family="sans-serif" font-size="11" font-weight="bold" lengthAdjust="spacing" textLength="187" x="109" y="1492.8667">[response indicates success]</text><polygon fill="#181818" points="383,1525.4883,373,1529.4883,383,1533.4883,379,1529.4883" style="stroke:#181818;stroke-width:1.0;"/><line style="stroke:#181818;stroke-width:1.0;stroke-dasharray:2.0,2.0;" x1="377" x2="541" y1="1529.4883" y2="1529.4883"/><text fill="#000000" font-family="sans-serif" font-size="13" font-weight="bold" lengthAdjust="spacing" textLength="18" x="389" y="1524.4224">15</text><text fill="#000000" font-family="sans-serif" font-size="13" lengthAdjust="spacing" textLength="90" x="411" y="1524.4224">event payload</text><path d="M547,1502.7891 L547,1542.7891 L929,1542.7891 L929,1512.7891 L919,1502.7891 L547,1502.7891 " fill="#FEFFDD" style="stroke:#181818;stroke-width:0.5;"/><path d="M919,1502.7891 L919,1512.7891 L929,1512.7891 L919,1502.7891 " fill="#FEFFDD" style="stroke:#181818;stroke-width:0.5;"/><text fill="#000000" font-family="sans-serif" font-size="13" lengthAdjust="spacing" textLength="320" x="553" y="1519.856">If the response event indicates success, the event</text><text fill="#000000" font-family="sans-serif" font-size="13" lengthAdjust="spacing" textLength="361" x="553" y="1534.9888">payload is extracted and returned to the calling function.</text><polygon fill="#181818" points="100,1575.7539,90,1579.7539,100,1583.7539,96,1579.7539" style="stroke:#181818;stroke-width:1.0;"/><line style="stroke:#181818;stroke-width:1.0;stroke-dasharray:2.0,2.0;" x1="94" x2="371" y1="1579.7539" y2="1579.7539"/><text fill="#000000" font-family="sans-serif" font-size="13" font-weight="bold" lengthAdjust="spacing" textLength="18" x="106" y="1574.688">16</text><text fill="#000000" font-family="sans-serif" font-size="13" lengthAdjust="spacing" textLength="237" x="128" y="1574.688">HTTP OK + ProcedureSummary JSON</text><path d="M377,1553.0547 L377,1593.0547 L757,1593.0547 L757,1563.0547 L747,1553.0547 L377,1553.0547 " fill="#FEFFDD" style="stroke:#181818;stroke-width:0.5;"/><path d="M747,1553.0547 L747,1563.0547 L757,1563.0547 L747,1553.0547 " fill="#FEFFDD" style="stroke:#181818;stroke-width:0.5;"/><text fill="#000000" font-family="sans-serif" font-size="13" lengthAdjust="spacing" textLength="184" x="383" y="1570.1216">A JSON representation of the</text><text fill="#000000" font-family="monospace" font-size="13" lengthAdjust="spacing" textLength="128" x="571" y="1570.1216">ProcedureSummary</text><text fill="#000000" font-family="sans-serif" font-size="13" lengthAdjust="spacing" textLength="39" x="703" y="1570.1216">object</text><text fill="#000000" font-family="sans-serif" font-size="13" lengthAdjust="spacing" textLength="331" x="383" y="1585.2544">in the response is created and returned to the user.</text><line style="stroke:#000000;stroke-width:1.0;stroke-dasharray:2.0,2.0;" x1="30" x2="960" y1="1599.3203" y2="1599.3203"/><text fill="#000000" font-family="sans-serif" font-size="11" font-weight="bold" lengthAdjust="spacing" textLength="167" x="35" y="1609.5308">[response indicates error]</text><polygon fill="#181818" points="100,1648.3906,90,1652.3906,100,1656.3906,96,1652.3906" style="stroke:#181818;stroke-width:1.0;"/><line style="stroke:#181818;stroke-width:1.0;stroke-dasharray:2.0,2.0;" x1="94" x2="541" y1="1652.3906" y2="1652.3906"/><text fill="#000000" font-family="sans-serif" font-size="13" font-weight="bold" lengthAdjust="spacing" textLength="18" x="106" y="1647.3247">17</text><text fill="#000000" font-family="sans-serif" font-size="13" lengthAdjust="spacing" textLength="196" x="128" y="1647.3247">HTTP error + JSON error object</text><path d="M547,1618.125 L547,1673.125 L945,1673.125 L945,1628.125 L935,1618.125 L547,1618.125 " fill="#FEFFDD" style="stroke:#181818;stroke-width:0.5;"/><path d="M935,1618.125 L935,1628.125 L945,1628.125 L935,1618.125 " fill="#FEFFDD" style="stroke:#181818;stroke-width:0.5;"/><text fill="#000000" font-family="sans-serif" font-size="13" lengthAdjust="spacing" textLength="371" x="553" y="1635.1919">If a result is not received within the timeout period, a HTTP</text><text fill="#000000" font-family="sans-serif" font-size="13" lengthAdjust="spacing" textLength="377" x="553" y="1650.3247">error response is returned to the UI including a JSON object</text><text fill="#000000" font-family="sans-serif" font-size="13" lengthAdjust="spacing" textLength="369" x="553" y="1665.4575">containing details of the exception described in the event.</text><!--SRC=[rLXDSnit4htZLw2u1yiAHTwLpLQv5BcYR1mf4LrxIPKBd6cIYC2PMG0ZIhyfFo4t_x9z3M0-EQIzbLCETb4Se3zUltxTmpSxxojtlLnMHXM-tfj5LkwNZlvRKv7HLQxLrggz46AlTB71HvANbu-PrPNNnLQ-UxYJvJDP-Ulju-hoKWXL-xAezskoGbJAUftf2ePbPhHKJivkVhgJrxyLlvBpDqPJuJ_UpUG_ZDxk_DOI5ODBxvNpyF2VqZx11LzdDtAjiYSgShOpED4OMfkQXiwLCPzKaN-ovAeIDzdKqPSmjwcBpEkoE6a9iDGKhiTFkFCBVpXvuGPUEDxMPVZZQrnj3f-gUktgTRWwX28zW9dgDNu-QSQHwzjvl7qyRMDmCHRvzeMockDy9FkiC-hLeZC56-TEVutTQ34yakspGA-JncT2CAkk_ZNaoRNyORLwa0_tZojHb9waPLp4QaVoeqEm5CoGawgGzxShoOm4v_UAUU65npbFTgyBPHQIRpM7Qa3Pi-rBO5lai2D_VBp_MPRhtodp4csZAbSR5Ve3reJbPd9UNhYOdYapnMdCPVf2sMszHokukI2VBTvAcEOm-cHV26OyvoF4a0l8VqpbwwDlBXQBnTi-7BCXesOpcLbI0HOvcprOGidemPOPENSJqPdDn55oiaak9w-qOL1pgOldyWcME7aO6yS2Npio5K9lUe0JLaLHuayA1Q1dm27v0VvOBcz2Q3A4azUszKhvSjbyHZqgdGN_i4Ol5HT3oUZJKMUijR9SYkKoPXtjf9F1K1_lU2RslZYI3U0VdbpBpt_4av__728z0K0Vx2WWCuIdl3neOn1AHlgP4djIM14JsckFU85nFs2SrAv1OYBqHeKcesyUdahWdMnrgoqOl2Nav65N8WPN6ceYqcjjj7yLE8JGgjh7s1rgm8LE8getiYjrfLvDgNAXYypKUG2cBZGEeZMj9HCQHjvzFyXj8fTMDAyb_kF-MjD54_uyblQxvVBp7yDgV_vpkNmxLel9h5khUTEbOzxWAf3PG4Fcib7MMDRO5-7IaMrns551F4at9UIrU6qmWm6ZtGx-4eFFyFGBWE3a1xIpsj95X22sRel0N8vLubsHwgFxWQHMPGbGh8gsLO63SYAHDv-7QFrhXTxRT1qBfM07kLo_zWKajcyKt04bP4S9G5YLJZDSod2dYoTwFPGsxnGKjvoBjJaU-lZthAmc9tAg00Od050pq99U_4A-1_AwS5v1XkP8xKqLPL1MKGVVj59-A6lJHjPgNnaPdLGT8TYw25xZDo0tObS0CRAv3VfRzWMtrhUUvC2Ju12nVuqzfTFe2_OMBGG1nBCz-Lt9G0HQp2LFbe3kM7kHCLb_ikD4elcWAB6sZhV1uMcvHUcBr1hYk8EOt1jjq1mCVgHudyA0Mm3bJLmgM_BEUskCkBpKA9YzQhAFNsFvX1aXUliEw7zkBObJiZSP3MsywBQQ7LOI3M2OCsNj4g8J4Y1KXLWggrbg1rtb8gdeHUqhGn4rA7xY5GPggjAaiF2eYlnBSxYnZS4Lh7yRZirceV0O8EUDXLDXvbLZSp7OUUHgYPw8JEcd5MqBhb-ODP4EWsJ3K02YF1Eqt_LOasZRB_JPxV9auQud2vNoHWzRbQ5WeovfWjpOSX_A5OFYP3dSiATCvDfSdyrEh9ypqQKPNLDFYHX2T-Po60a2dGX8zqSXgDWk5q41LHAGUMhn933Ks9mBjIwvzTjpOOtyCjnVxX1ePsry3_NLMKHmtjUsSCsWmjt_f-XTxqvDg_70xe-h4IEQMHMM_C4oEJGZZiTDcDI4miBCcj8sd3R6nngBi7r5vTFomlpXeOU6oxYbDhMHFBwvKDaJSu8zejsHZGyQERYv0KqfZyqsslEQS9H1GpOZCEp68y5Dpy96s6VxSAywx7G6gcAgRx6TvB678ydw1VfBoYjCMLQI51mbv_tLPGHyztOxs42d5FaTpwPMqUpqtZKVh5LYiAXEQL8_wxBodJL0kbS-O-uqK688jg_ntRQFlVOYcEh7UfUgEwxHCE88Jt8Zpbq80SmdRlDohVAy4_WGLIyhBaae2nbtzgrbI_x2wpsLjVzkTVVXzlxZgf_H1r85s6DeCVqgTr0y8_7ciYy1LJA0AOoL1RCopekZrFareAf8sQOjnz67cXHbTw_PAaCP6PuOSVW5u9zNLnElmE5DdQn51D_4D_JuHtnFxs-vA9fAQiLymPDZTxpAHfSIcgtBd1T4TY6YrJRGy1x68jYL9Wi_TALEZLipnoFIBmPfkUC7eydLU0mkXhML04W8PNhCrTXei_1McTHez4F1D4n3dHYYCb6v8oVphgT4kxAx_aH4i4U880pEjsdJmLjCgkZKZpht_qOjnt8SmHoyi8Po3uMt6-V7SjvmOjodlRVSgIpurQSVENVQL3b2-VuMJFruTyJI9ehJBAMNZAe0CKPKsZfJ86EfvG_Wh0ZAz3y0]--></g></svg>