<?xml version="1.0" encoding="UTF-8" standalone="no"?><svg xmlns="http://www.w3.org/2000/svg" xmlns:xlink="http://www.w3.org/1999/xlink" contentStyleType="text/css" height="1537px" preserveAspectRatio="none" style="width:1772px;height:1537px;background:#FFFFFF;" version="1.1" viewBox="0 0 1772 1537" width="1772px" zoomAndPan="magnify"><defs/><g><!--cluster ska_oso_oet--><g id="cluster_ska_oso_oet"><path d="M8.5,6 L105.5,6 A3.75,3.75 0 0 1 108,8.5 L115,28.2969 L1762.5,28.2969 A2.5,2.5 0 0 1 1765,30.7969 L1765,1395.5 A2.5,2.5 0 0 1 1762.5,1398 L8.5,1398 A2.5,2.5 0 0 1 6,1395.5 L6,8.5 A2.5,2.5 0 0 1 8.5,6 " fill="none" style="stroke:#000000;stroke-width:1.5;"/><line style="stroke:#000000;stroke-width:1.5;" x1="6" x2="115" y1="28.2969" y2="28.2969"/><text fill="#000000" font-family="sans-serif" font-size="14" font-weight="bold" lengthAdjust="spacing" textLength="96" x="10" y="20.9951">ska_oso_oet</text></g><!--cluster main--><g id="cluster_main"><rect fill="none" height="132" rx="2.5" ry="2.5" style="stroke:#181818;stroke-width:1.0;" width="180" x="390" y="594"/><text fill="#000000" font-family="sans-serif" font-size="14" font-weight="bold" lengthAdjust="spacing" textLength="37" x="461.5" y="608.9951">main</text></g><!--cluster mptools--><g id="cluster_mptools"><rect fill="none" height="595" rx="2.5" ry="2.5" style="stroke:#181818;stroke-width:1.0;" width="610" x="30" y="779"/><text fill="#000000" font-family="sans-serif" font-size="14" font-weight="bold" lengthAdjust="spacing" textLength="63" x="303.5" y="793.9951">mptools</text></g><!--cluster procedure--><g id="cluster_procedure"><path d="M666.5,49 L750.5,49 A3.75,3.75 0 0 1 753,51.5 L760,71.2969 L1738.5,71.2969 A2.5,2.5 0 0 1 1741,73.7969 L1741,1021.5 A2.5,2.5 0 0 1 1738.5,1024 L666.5,1024 A2.5,2.5 0 0 1 664,1021.5 L664,51.5 A2.5,2.5 0 0 1 666.5,49 " fill="none" style="stroke:#000000;stroke-width:1.5;"/><line style="stroke:#000000;stroke-width:1.5;" x1="664" x2="760" y1="71.2969" y2="71.2969"/><text fill="#000000" font-family="sans-serif" font-size="14" font-weight="bold" lengthAdjust="spacing" textLength="83" x="668" y="63.9951">procedure</text></g><!--cluster application--><g id="cluster_application"><rect fill="none" height="164" rx="2.5" ry="2.5" style="stroke:#181818;stroke-width:1.0;" width="488" x="688" y="202"/><text fill="#000000" font-family="sans-serif" font-size="14" font-weight="bold" lengthAdjust="spacing" textLength="85" x="889.5" y="216.9951">application</text></g><!--cluster environment--><g id="cluster_environment"><rect fill="none" height="349" rx="2.5" ry="2.5" style="stroke:#181818;stroke-width:1.0;" width="212" x="1505" y="594"/><text fill="#000000" font-family="sans-serif" font-size="14" font-weight="bold" lengthAdjust="spacing" textLength="100" x="1561" y="608.9951">environment</text></g><!--cluster domain--><g id="cluster_domain"><rect fill="none" height="601" rx="2.5" ry="2.5" style="stroke:#181818;stroke-width:1.0;" width="793" x="688" y="399"/><text fill="#000000" font-family="sans-serif" font-size="14" font-weight="bold" lengthAdjust="spacing" textLength="57" x="1056" y="413.9951">domain</text></g><!--cluster multiprocessing--><g id="cluster_multiprocessing"><path d="M153.5,1431 L280.5,1431 A3.75,3.75 0 0 1 283,1433.5 L290,1453.2969 L365.5,1453.2969 A2.5,2.5 0 0 1 368,1455.7969 L368,1527.5 A2.5,2.5 0 0 1 365.5,1530 L153.5,1530 A2.5,2.5 0 0 1 151,1527.5 L151,1433.5 A2.5,2.5 0 0 1 153.5,1431 " fill="none" style="stroke:#000000;stroke-width:1.5;"/><line style="stroke:#000000;stroke-width:1.5;" x1="151" x2="290" y1="1453.2969" y2="1453.2969"/><text fill="#000000" font-family="sans-serif" font-size="14" font-weight="bold" lengthAdjust="spacing" textLength="126" x="155" y="1445.9951">multiprocessing</text></g><g id="elem_GMN5"><path d="M397,455 L397,525.5313 A0,0 0 0 0 397,525.5313 L476,525.5313 L480,628.79 L484,525.5313 L563,525.5313 A0,0 0 0 0 563,525.5313 L563,465 L553,455 L397,455 A0,0 0 0 0 397,455 " fill="#FEFFDD" style="stroke:#181818;stroke-width:0.5;"/><path d="M553,455 L553,465 L563,465 L553,455 " fill="#FEFFDD" style="stroke:#181818;stroke-width:0.5;"/><text fill="#000000" font-family="sans-serif" font-size="13" lengthAdjust="spacing" textLength="145" x="403" y="472.0669">See UI and Service API</text><text fill="#000000" font-family="sans-serif" font-size="13" lengthAdjust="spacing" textLength="138" x="403" y="487.1997">module view for more</text><text fill="#000000" font-family="sans-serif" font-size="13" lengthAdjust="spacing" textLength="93" x="403" y="502.3325">information on</text><text fill="#000000" font-family="monospace" font-size="13" lengthAdjust="spacing" textLength="112" x="403" y="517.4653">EventBusWorker</text><text fill="#000000" font-family="sans-serif" font-size="13" lengthAdjust="spacing" textLength="27" x="519" y="517.4653">use.</text></g><!--class EventBusWorker--><g id="elem_EventBusWorker"><rect codeLine="6" fill="#F1F1F1" height="80.5938" id="EventBusWorker" rx="2.5" ry="2.5" style="stroke:#181818;stroke-width:0.5;" width="147" x="406.5" y="629"/><ellipse cx="421.5" cy="645" fill="#ADD1B2" rx="11" ry="11" style="stroke:#181818;stroke-width:1.0;"/><path d="M424.4688,650.6406 Q423.8906,650.9375 423.25,651.0781 Q422.6094,651.2344 421.9063,651.2344 Q419.4063,651.2344 418.0781,649.5938 Q416.7656,647.9375 416.7656,644.8125 Q416.7656,641.6875 418.0781,640.0313 Q419.4063,638.375 421.9063,638.375 Q422.6094,638.375 423.25,638.5313 Q423.9063,638.6875 424.4688,638.9844 L424.4688,641.7031 Q423.8438,641.125 423.25,640.8594 Q422.6563,640.5781 422.0313,640.5781 Q420.6875,640.5781 420,641.6563 Q419.3125,642.7188 419.3125,644.8125 Q419.3125,646.9063 420,647.9844 Q420.6875,649.0469 422.0313,649.0469 Q422.6563,649.0469 423.25,648.7813 Q423.8438,648.5 424.4688,647.9219 L424.4688,650.6406 Z " fill="#000000"/><text fill="#000000" font-family="sans-serif" font-size="14" lengthAdjust="spacing" textLength="115" x="435.5" y="649.8467">EventBusWorker</text><line style="stroke:#181818;stroke-width:0.5;" x1="407.5" x2="552.5" y1="661" y2="661"/><text fill="#000000" font-family="sans-serif" font-size="14" lengthAdjust="spacing" textLength="126" x="412.5" y="677.9951">work_q: MPQueue</text><line style="stroke:#181818;stroke-width:0.5;" x1="407.5" x2="552.5" y1="685.2969" y2="685.2969"/><text fill="#000000" font-family="sans-serif" font-size="14" lengthAdjust="spacing" textLength="119" x="412.5" y="702.292">main_func(event)</text></g><!--class MainContext--><g id="elem_MainContext"><rect codeLine="19" fill="#F1F1F1" height="129.4844" id="MainContext" rx="2.5" ry="2.5" style="stroke:#181818;stroke-width:0.5;" width="183" x="143.5" y="814"/><ellipse cx="187.75" cy="830" fill="#ADD1B2" rx="11" ry="11" style="stroke:#181818;stroke-width:1.0;"/><path d="M190.7188,835.6406 Q190.1406,835.9375 189.5,836.0781 Q188.8594,836.2344 188.1563,836.2344 Q185.6563,836.2344 184.3281,834.5938 Q183.0156,832.9375 183.0156,829.8125 Q183.0156,826.6875 184.3281,825.0313 Q185.6563,823.375 188.1563,823.375 Q188.8594,823.375 189.5,823.5313 Q190.1563,823.6875 190.7188,823.9844 L190.7188,826.7031 Q190.0938,826.125 189.5,825.8594 Q188.9063,825.5781 188.2813,825.5781 Q186.9375,825.5781 186.25,826.6563 Q185.5625,827.7188 185.5625,829.8125 Q185.5625,831.9063 186.25,832.9844 Q186.9375,834.0469 188.2813,834.0469 Q188.9063,834.0469 189.5,833.7813 Q190.0938,833.5 190.7188,832.9219 L190.7188,835.6406 Z " fill="#000000"/><text fill="#000000" font-family="sans-serif" font-size="14" lengthAdjust="spacing" textLength="86" x="208.25" y="834.8467">MainContext</text><line style="stroke:#181818;stroke-width:0.5;" x1="144.5" x2="325.5" y1="846" y2="846"/><text fill="#000000" font-family="sans-serif" font-size="14" lengthAdjust="spacing" textLength="163" x="149.5" y="862.9951">queues: List[MPQueue]</text><line style="stroke:#181818;stroke-width:0.5;" x1="144.5" x2="325.5" y1="870.2969" y2="870.2969"/><text fill="#000000" font-family="sans-serif" font-size="14" lengthAdjust="spacing" textLength="97" x="149.5" y="887.292">Proc() -&gt; Proc</text><text fill="#000000" font-family="sans-serif" font-size="14" lengthAdjust="spacing" textLength="171" x="149.5" y="903.5889">MPQueue() -&gt; MPQueue</text><text fill="#000000" font-family="sans-serif" font-size="14" lengthAdjust="spacing" textLength="87" x="149.5" y="919.8857">stop_procs()</text><text fill="#000000" font-family="sans-serif" font-size="14" lengthAdjust="spacing" textLength="101" x="149.5" y="936.1826">stop_queues()</text></g><!--class Proc--><g id="elem_Proc"><rect codeLine="27" fill="#F1F1F1" height="96.8906" id="Proc" rx="2.5" ry="2.5" style="stroke:#181818;stroke-width:0.5;" width="132" x="169" y="1087"/><ellipse cx="215.25" cy="1103" fill="#ADD1B2" rx="11" ry="11" style="stroke:#181818;stroke-width:1.0;"/><path d="M218.2188,1108.6406 Q217.6406,1108.9375 217,1109.0781 Q216.3594,1109.2344 215.6563,1109.2344 Q213.1563,1109.2344 211.8281,1107.5938 Q210.5156,1105.9375 210.5156,1102.8125 Q210.5156,1099.6875 211.8281,1098.0313 Q213.1563,1096.375 215.6563,1096.375 Q216.3594,1096.375 217,1096.5313 Q217.6563,1096.6875 218.2188,1096.9844 L218.2188,1099.7031 Q217.5938,1099.125 217,1098.8594 Q216.4063,1098.5781 215.7813,1098.5781 Q214.4375,1098.5781 213.75,1099.6563 Q213.0625,1100.7188 213.0625,1102.8125 Q213.0625,1104.9063 213.75,1105.9844 Q214.4375,1107.0469 215.7813,1107.0469 Q216.4063,1107.0469 217,1106.7813 Q217.5938,1106.5 218.2188,1105.9219 L218.2188,1108.6406 Z " fill="#000000"/><text fill="#000000" font-family="sans-serif" font-size="14" lengthAdjust="spacing" textLength="31" x="235.75" y="1107.8467">Proc</text><line style="stroke:#181818;stroke-width:0.5;" x1="170" x2="300" y1="1119" y2="1119"/><text fill="#000000" font-family="sans-serif" font-size="14" lengthAdjust="spacing" textLength="120" x="175" y="1135.9951">proc: ProcWorker</text><line style="stroke:#181818;stroke-width:0.5;" x1="170" x2="300" y1="1143.2969" y2="1143.2969"/><text fill="#000000" font-family="sans-serif" font-size="14" lengthAdjust="spacing" textLength="67" x="175" y="1160.292">full_stop()</text><text fill="#000000" font-family="sans-serif" font-size="14" lengthAdjust="spacing" textLength="76" x="175" y="1176.5889">terminate()</text></g><!--class ProcWorker--><g id="elem_ProcWorker"><rect codeLine="33" fill="#F1F1F1" height="129.4844" id="ProcWorker" rx="2.5" ry="2.5" style="stroke:#181818;stroke-width:0.5;" width="289" x="335.5" y="1071"/><ellipse cx="435.75" cy="1087" fill="#ADD1B2" rx="11" ry="11" style="stroke:#181818;stroke-width:1.0;"/><path d="M438.7188,1092.6406 Q438.1406,1092.9375 437.5,1093.0781 Q436.8594,1093.2344 436.1563,1093.2344 Q433.6563,1093.2344 432.3281,1091.5938 Q431.0156,1089.9375 431.0156,1086.8125 Q431.0156,1083.6875 432.3281,1082.0313 Q433.6563,1080.375 436.1563,1080.375 Q436.8594,1080.375 437.5,1080.5313 Q438.1563,1080.6875 438.7188,1080.9844 L438.7188,1083.7031 Q438.0938,1083.125 437.5,1082.8594 Q436.9063,1082.5781 436.2813,1082.5781 Q434.9375,1082.5781 434.25,1083.6563 Q433.5625,1084.7188 433.5625,1086.8125 Q433.5625,1088.9063 434.25,1089.9844 Q434.9375,1091.0469 436.2813,1091.0469 Q436.9063,1091.0469 437.5,1090.7813 Q438.0938,1090.5 438.7188,1089.9219 L438.7188,1092.6406 Z " fill="#000000"/><text fill="#000000" font-family="sans-serif" font-size="14" lengthAdjust="spacing" textLength="80" x="456.25" y="1091.8467">ProcWorker</text><line style="stroke:#181818;stroke-width:0.5;" x1="336.5" x2="623.5" y1="1103" y2="1103"/><text fill="#000000" font-family="sans-serif" font-size="14" lengthAdjust="spacing" textLength="257" x="341.5" y="1119.9951">startup_event: multiprocessing.Event</text><text fill="#000000" font-family="sans-serif" font-size="14" lengthAdjust="spacing" textLength="277" x="341.5" y="1136.292">shutdown_event: multiprocessing.Event</text><line style="stroke:#181818;stroke-width:0.5;" x1="336.5" x2="623.5" y1="1143.5938" y2="1143.5938"/><text fill="#000000" font-family="sans-serif" font-size="14" font-style="italic" lengthAdjust="spacing" textLength="80" x="341.5" y="1160.5889">main_func()</text><text fill="#000000" font-family="sans-serif" font-size="14" lengthAdjust="spacing" textLength="80" x="341.5" y="1176.8857">main_loop()</text><text fill="#000000" font-family="sans-serif" font-size="14" lengthAdjust="spacing" textLength="12" x="341.5" y="1193.1826">...</text></g><!--class QueueProcWorker--><g id="elem_QueueProcWorker"><rect codeLine="41" fill="#F1F1F1" height="80.5938" id="QueueProcWorker" rx="2.5" ry="2.5" style="stroke:#181818;stroke-width:0.5;" width="159" x="400.5" y="838"/><ellipse cx="415.5" cy="854" fill="#ADD1B2" rx="11" ry="11" style="stroke:#181818;stroke-width:1.0;"/><path d="M418.4688,859.6406 Q417.8906,859.9375 417.25,860.0781 Q416.6094,860.2344 415.9063,860.2344 Q413.4063,860.2344 412.0781,858.5938 Q410.7656,856.9375 410.7656,853.8125 Q410.7656,850.6875 412.0781,849.0313 Q413.4063,847.375 415.9063,847.375 Q416.6094,847.375 417.25,847.5313 Q417.9063,847.6875 418.4688,847.9844 L418.4688,850.7031 Q417.8438,850.125 417.25,849.8594 Q416.6563,849.5781 416.0313,849.5781 Q414.6875,849.5781 414,850.6563 Q413.3125,851.7188 413.3125,853.8125 Q413.3125,855.9063 414,856.9844 Q414.6875,858.0469 416.0313,858.0469 Q416.6563,858.0469 417.25,857.7813 Q417.8438,857.5 418.4688,856.9219 L418.4688,859.6406 Z " fill="#000000"/><text fill="#000000" font-family="sans-serif" font-size="14" lengthAdjust="spacing" textLength="127" x="429.5" y="858.8467">QueueProcWorker</text><line style="stroke:#181818;stroke-width:0.5;" x1="401.5" x2="558.5" y1="870" y2="870"/><line style="stroke:#181818;stroke-width:0.5;" x1="401.5" x2="558.5" y1="878" y2="878"/><text fill="#000000" font-family="sans-serif" font-size="14" font-style="italic" lengthAdjust="spacing" textLength="120" x="406.5" y="894.9951">main_func(event)</text><text fill="#000000" font-family="sans-serif" font-size="14" lengthAdjust="spacing" textLength="80" x="406.5" y="911.292">main_loop()</text></g><!--class MPQueue--><g id="elem_MPQueue"><rect codeLine="46" fill="#F1F1F1" height="80.5938" id="MPQueue" rx="2.5" ry="2.5" style="stroke:#181818;stroke-width:0.5;" width="131" x="140.5" y="1277"/><ellipse cx="169.45" cy="1293" fill="#ADD1B2" rx="11" ry="11" style="stroke:#181818;stroke-width:1.0;"/><path d="M172.4188,1298.6406 Q171.8406,1298.9375 171.2,1299.0781 Q170.5594,1299.2344 169.8563,1299.2344 Q167.3563,1299.2344 166.0281,1297.5938 Q164.7156,1295.9375 164.7156,1292.8125 Q164.7156,1289.6875 166.0281,1288.0313 Q167.3563,1286.375 169.8563,1286.375 Q170.5594,1286.375 171.2,1286.5313 Q171.8563,1286.6875 172.4188,1286.9844 L172.4188,1289.7031 Q171.7938,1289.125 171.2,1288.8594 Q170.6063,1288.5781 169.9813,1288.5781 Q168.6375,1288.5781 167.95,1289.6563 Q167.2625,1290.7188 167.2625,1292.8125 Q167.2625,1294.9063 167.95,1295.9844 Q168.6375,1297.0469 169.9813,1297.0469 Q170.6063,1297.0469 171.2,1296.7813 Q171.7938,1296.5 172.4188,1295.9219 L172.4188,1298.6406 Z " fill="#000000"/><text fill="#000000" font-family="sans-serif" font-size="14" lengthAdjust="spacing" textLength="68" x="186.55" y="1297.8467">MPQueue</text><line style="stroke:#181818;stroke-width:0.5;" x1="141.5" x2="270.5" y1="1309" y2="1309"/><line style="stroke:#181818;stroke-width:0.5;" x1="141.5" x2="270.5" y1="1317" y2="1317"/><text fill="#000000" font-family="sans-serif" font-size="14" lengthAdjust="spacing" textLength="33" x="146.5" y="1333.9951">put()</text><text fill="#000000" font-family="sans-serif" font-size="14" lengthAdjust="spacing" textLength="119" x="146.5" y="1350.292">safe_get() -&gt; Any</text></g><g id="elem_GMN22"><path d="M819.5,84 L819.5,154.5313 A0,0 0 0 0 819.5,154.5313 L928,154.5313 L932,236.75 L936,154.5313 L1044.5,154.5313 A0,0 0 0 0 1044.5,154.5313 L1044.5,94 L1034.5,84 L819.5,84 A0,0 0 0 0 819.5,84 " fill="#FEFFDD" style="stroke:#181818;stroke-width:0.5;"/><path d="M1034.5,84 L1034.5,94 L1044.5,94 L1034.5,84 " fill="#FEFFDD" style="stroke:#181818;stroke-width:0.5;"/><text fill="#000000" font-family="sans-serif" font-size="13" lengthAdjust="spacing" textLength="176" x="825.5" y="101.0669">See UI and Service API view</text><text fill="#000000" font-family="sans-serif" font-size="13" lengthAdjust="spacing" textLength="175" x="825.5" y="116.1997">for information on the input</text><text fill="#000000" font-family="sans-serif" font-size="13" lengthAdjust="spacing" textLength="204" x="825.5" y="131.3325">arguments and output types for</text><text fill="#000000" font-family="monospace" font-size="13" lengthAdjust="spacing" textLength="176" x="825.5" y="146.4653">ScriptExecutionService</text><text fill="#000000" font-family="sans-serif" font-size="13" lengthAdjust="spacing" textLength="4" x="1001.5" y="146.4653">.</text></g><!--class ScriptExecutionService--><g id="elem_ScriptExecutionService"><rect codeLine="60" fill="#F1F1F1" height="113.1875" id="ScriptExecutionService" rx="2.5" ry="2.5" style="stroke:#181818;stroke-width:0.5;" width="457" x="703.5" y="237"/><ellipse cx="849.25" cy="253" fill="#ADD1B2" rx="11" ry="11" style="stroke:#181818;stroke-width:1.0;"/><path d="M852.2188,258.6406 Q851.6406,258.9375 851,259.0781 Q850.3594,259.2344 849.6563,259.2344 Q847.1563,259.2344 845.8281,257.5938 Q844.5156,255.9375 844.5156,252.8125 Q844.5156,249.6875 845.8281,248.0313 Q847.1563,246.375 849.6563,246.375 Q850.3594,246.375 851,246.5313 Q851.6563,246.6875 852.2188,246.9844 L852.2188,249.7031 Q851.5938,249.125 851,248.8594 Q850.4063,248.5781 849.7813,248.5781 Q848.4375,248.5781 847.75,249.6563 Q847.0625,250.7188 847.0625,252.8125 Q847.0625,254.9063 847.75,255.9844 Q848.4375,257.0469 849.7813,257.0469 Q850.4063,257.0469 851,256.7813 Q851.5938,256.5 852.2188,255.9219 L852.2188,258.6406 Z " fill="#000000"/><text fill="#000000" font-family="sans-serif" font-size="14" lengthAdjust="spacing" textLength="157" x="869.75" y="257.8467">ScriptExecutionService</text><line style="stroke:#181818;stroke-width:0.5;" x1="704.5" x2="1159.5" y1="269" y2="269"/><line style="stroke:#181818;stroke-width:0.5;" x1="704.5" x2="1159.5" y1="277" y2="277"/><text fill="#000000" font-family="sans-serif" font-size="14" lengthAdjust="spacing" textLength="445" x="709.5" y="293.9951">prepare(cmd: PrepareProcessCommand) -&gt; ProcedureSummary</text><text fill="#000000" font-family="sans-serif" font-size="14" lengthAdjust="spacing" textLength="400" x="709.5" y="310.292">start(cmd: StartProcessCommand) -&gt; ProcedureSummary</text><text fill="#000000" font-family="sans-serif" font-size="14" lengthAdjust="spacing" textLength="433" x="709.5" y="326.5889">stop(cmd: StopProcessCommand) -&gt; List[ProcedureSummary]</text><text fill="#000000" font-family="sans-serif" font-size="14" lengthAdjust="spacing" textLength="373" x="709.5" y="342.8857">summarise(pids: List[int]) -&gt; List[[ProcedureSummary]</text></g><!--class EnvironmentManager--><g id="elem_EnvironmentManager"><rect codeLine="75" fill="#F1F1F1" height="80.5938" id="EnvironmentManager" rx="2.5" ry="2.5" style="stroke:#181818;stroke-width:0.5;" width="179" x="1521.5" y="629"/><ellipse cx="1536.5" cy="645" fill="#ADD1B2" rx="11" ry="11" style="stroke:#181818;stroke-width:1.0;"/><path d="M1539.4688,650.6406 Q1538.8906,650.9375 1538.25,651.0781 Q1537.6094,651.2344 1536.9063,651.2344 Q1534.4063,651.2344 1533.0781,649.5938 Q1531.7656,647.9375 1531.7656,644.8125 Q1531.7656,641.6875 1533.0781,640.0313 Q1534.4063,638.375 1536.9063,638.375 Q1537.6094,638.375 1538.25,638.5313 Q1538.9063,638.6875 1539.4688,638.9844 L1539.4688,641.7031 Q1538.8438,641.125 1538.25,640.8594 Q1537.6563,640.5781 1537.0313,640.5781 Q1535.6875,640.5781 1535,641.6563 Q1534.3125,642.7188 1534.3125,644.8125 Q1534.3125,646.9063 1535,647.9844 Q1535.6875,649.0469 1537.0313,649.0469 Q1537.6563,649.0469 1538.25,648.7813 Q1538.8438,648.5 1539.4688,647.9219 L1539.4688,650.6406 Z " fill="#000000"/><text fill="#000000" font-family="sans-serif" font-size="14" lengthAdjust="spacing" textLength="147" x="1550.5" y="649.8467">EnvironmentManager</text><line style="stroke:#181818;stroke-width:0.5;" x1="1522.5" x2="1699.5" y1="661" y2="661"/><line style="stroke:#181818;stroke-width:0.5;" x1="1522.5" x2="1699.5" y1="669" y2="669"/><text fill="#000000" font-family="sans-serif" font-size="14" lengthAdjust="spacing" textLength="98" x="1527.5" y="685.9951">create_env(...)</text><text fill="#000000" font-family="sans-serif" font-size="14" lengthAdjust="spacing" textLength="98" x="1527.5" y="702.292">delete_env(...)</text></g><!--class Environment--><g id="elem_Environment"><rect codeLine="80" fill="#F1F1F1" height="96.8906" id="Environment" rx="2.5" ry="2.5" style="stroke:#181818;stroke-width:0.5;" width="138" x="1531" y="830"/><ellipse cx="1554.55" cy="846" fill="#ADD1B2" rx="11" ry="11" style="stroke:#181818;stroke-width:1.0;"/><path d="M1557.5188,851.6406 Q1556.9406,851.9375 1556.3,852.0781 Q1555.6594,852.2344 1554.9563,852.2344 Q1552.4563,852.2344 1551.1281,850.5938 Q1549.8156,848.9375 1549.8156,845.8125 Q1549.8156,842.6875 1551.1281,841.0313 Q1552.4563,839.375 1554.9563,839.375 Q1555.6594,839.375 1556.3,839.5313 Q1556.9563,839.6875 1557.5188,839.9844 L1557.5188,842.7031 Q1556.8938,842.125 1556.3,841.8594 Q1555.7063,841.5781 1555.0813,841.5781 Q1553.7375,841.5781 1553.05,842.6563 Q1552.3625,843.7188 1552.3625,845.8125 Q1552.3625,847.9063 1553.05,848.9844 Q1553.7375,850.0469 1555.0813,850.0469 Q1555.7063,850.0469 1556.3,849.7813 Q1556.8938,849.5 1557.5188,848.9219 L1557.5188,851.6406 Z " fill="#000000"/><text fill="#000000" font-family="sans-serif" font-size="14" lengthAdjust="spacing" textLength="87" x="1570.45" y="850.8467">Environment</text><line style="stroke:#181818;stroke-width:0.5;" x1="1532" x2="1668" y1="862" y2="862"/><text fill="#000000" font-family="sans-serif" font-size="14" lengthAdjust="spacing" textLength="109" x="1537" y="878.9951">env_id: abstract</text><text fill="#000000" font-family="sans-serif" font-size="14" lengthAdjust="spacing" textLength="126" x="1537" y="895.292">site_packages: str</text><text fill="#000000" font-family="sans-serif" font-size="14" lengthAdjust="spacing" textLength="12" x="1537" y="911.5889">...</text><line style="stroke:#181818;stroke-width:0.5;" x1="1532" x2="1668" y1="918.8906" y2="918.8906"/></g><!--class ProcessManager--><g id="elem_ProcessManager"><rect codeLine="88" fill="#F1F1F1" height="113.1875" id="ProcessManager" rx="2.5" ry="2.5" style="stroke:#181818;stroke-width:0.5;" width="234" x="704" y="434"/><ellipse cx="758.75" cy="450" fill="#ADD1B2" rx="11" ry="11" style="stroke:#181818;stroke-width:1.0;"/><path d="M761.7188,455.6406 Q761.1406,455.9375 760.5,456.0781 Q759.8594,456.2344 759.1563,456.2344 Q756.6563,456.2344 755.3281,454.5938 Q754.0156,452.9375 754.0156,449.8125 Q754.0156,446.6875 755.3281,445.0313 Q756.6563,443.375 759.1563,443.375 Q759.8594,443.375 760.5,443.5313 Q761.1563,443.6875 761.7188,443.9844 L761.7188,446.7031 Q761.0938,446.125 760.5,445.8594 Q759.9063,445.5781 759.2813,445.5781 Q757.9375,445.5781 757.25,446.6563 Q756.5625,447.7188 756.5625,449.8125 Q756.5625,451.9063 757.25,452.9844 Q757.9375,454.0469 759.2813,454.0469 Q759.9063,454.0469 760.5,453.7813 Q761.0938,453.5 761.7188,452.9219 L761.7188,455.6406 Z " fill="#000000"/><text fill="#000000" font-family="sans-serif" font-size="14" lengthAdjust="spacing" textLength="116" x="779.25" y="454.8467">ProcessManager</text><line style="stroke:#181818;stroke-width:0.5;" x1="705" x2="937" y1="466" y2="466"/><text fill="#000000" font-family="sans-serif" font-size="14" lengthAdjust="spacing" textLength="222" x="710" y="482.9951">states: Dict[int, ProcedureState]</text><line style="stroke:#181818;stroke-width:0.5;" x1="705" x2="937" y1="490.2969" y2="490.2969"/><text fill="#000000" font-family="sans-serif" font-size="14" lengthAdjust="spacing" textLength="66" x="710" y="507.292">create(...)</text><text fill="#000000" font-family="sans-serif" font-size="14" lengthAdjust="spacing" textLength="45" x="710" y="523.5889">run(...)</text><text fill="#000000" font-family="sans-serif" font-size="14" lengthAdjust="spacing" textLength="53" x="710" y="539.8857">stop(...)</text></g><!--class ScriptWorker--><g id="elem_ScriptWorker"><rect codeLine="95" fill="#F1F1F1" height="129.4844" id="ScriptWorker" rx="2.5" ry="2.5" style="stroke:#181818;stroke-width:0.5;" width="213" x="1044.5" y="814"/><ellipse cx="1102.75" cy="830" fill="#ADD1B2" rx="11" ry="11" style="stroke:#181818;stroke-width:1.0;"/><path d="M1105.7188,835.6406 Q1105.1406,835.9375 1104.5,836.0781 Q1103.8594,836.2344 1103.1563,836.2344 Q1100.6563,836.2344 1099.3281,834.5938 Q1098.0156,832.9375 1098.0156,829.8125 Q1098.0156,826.6875 1099.3281,825.0313 Q1100.6563,823.375 1103.1563,823.375 Q1103.8594,823.375 1104.5,823.5313 Q1105.1563,823.6875 1105.7188,823.9844 L1105.7188,826.7031 Q1105.0938,826.125 1104.5,825.8594 Q1103.9063,825.5781 1103.2813,825.5781 Q1101.9375,825.5781 1101.25,826.6563 Q1100.5625,827.7188 1100.5625,829.8125 Q1100.5625,831.9063 1101.25,832.9844 Q1101.9375,834.0469 1103.2813,834.0469 Q1103.9063,834.0469 1104.5,833.7813 Q1105.0938,833.5 1105.7188,832.9219 L1105.7188,835.6406 Z " fill="#000000"/><text fill="#000000" font-family="sans-serif" font-size="14" lengthAdjust="spacing" textLength="88" x="1123.25" y="834.8467">ScriptWorker</text><line style="stroke:#181818;stroke-width:0.5;" x1="1045.5" x2="1256.5" y1="846" y2="846"/><text fill="#000000" font-family="sans-serif" font-size="14" lengthAdjust="spacing" textLength="186" x="1050.5" y="862.9951">work_q: mptools.MPQueue</text><line style="stroke:#181818;stroke-width:0.5;" x1="1045.5" x2="1256.5" y1="870.2969" y2="870.2969"/><text fill="#000000" font-family="sans-serif" font-size="14" lengthAdjust="spacing" textLength="80" x="1050.5" y="887.292">main_func()</text><text fill="#000000" font-family="sans-serif" font-size="14" lengthAdjust="spacing" textLength="80" x="1050.5" y="903.5889">main_loop()</text><text fill="#000000" font-family="sans-serif" font-size="14" lengthAdjust="spacing" textLength="201" x="1050.5" y="919.8857">load(script: ExecutableScript)</text><text fill="#000000" font-family="sans-serif" font-size="14" lengthAdjust="spacing" textLength="64" x="1050.5" y="936.1826">call_fn(...)</text></g><!--class ExecutableScript--><g id="elem_ExecutableScript"><rect codeLine="103" fill="#F1F1F1" height="48" id="ExecutableScript" rx="2.5" ry="2.5" style="stroke:#181818;stroke-width:0.5;" width="148" x="1194" y="645.5"/><ellipse cx="1209" cy="661.5" fill="#A9DCDF" rx="11" ry="11" style="stroke:#181818;stroke-width:1.0;"/><path d="M1209.1094,656.8438 L1207.9531,661.9219 L1210.2813,661.9219 L1209.1094,656.8438 Z M1207.625,654.6094 L1210.6094,654.6094 L1213.9688,667 L1211.5156,667 L1210.75,663.9375 L1207.4688,663.9375 L1206.7188,667 L1204.2813,667 L1207.625,654.6094 Z " fill="#000000"/><text fill="#000000" font-family="sans-serif" font-size="14" font-style="italic" lengthAdjust="spacing" textLength="116" x="1223" y="666.3467">ExecutableScript</text><line style="stroke:#181818;stroke-width:0.5;" x1="1195" x2="1341" y1="677.5" y2="677.5"/><line style="stroke:#181818;stroke-width:0.5;" x1="1195" x2="1341" y1="685.5" y2="685.5"/></g><!--class GitScript--><g id="elem_GitScript"><rect codeLine="104" fill="#F1F1F1" height="48" id="GitScript" rx="2.5" ry="2.5" style="stroke:#181818;stroke-width:0.5;" width="90" x="1375" y="466.5"/><ellipse cx="1390" cy="482.5" fill="#ADD1B2" rx="11" ry="11" style="stroke:#181818;stroke-width:1.0;"/><path d="M1392.9688,488.1406 Q1392.3906,488.4375 1391.75,488.5781 Q1391.1094,488.7344 1390.4063,488.7344 Q1387.9063,488.7344 1386.5781,487.0938 Q1385.2656,485.4375 1385.2656,482.3125 Q1385.2656,479.1875 1386.5781,477.5313 Q1387.9063,475.875 1390.4063,475.875 Q1391.1094,475.875 1391.75,476.0313 Q1392.4063,476.1875 1392.9688,476.4844 L1392.9688,479.2031 Q1392.3438,478.625 1391.75,478.3594 Q1391.1563,478.0781 1390.5313,478.0781 Q1389.1875,478.0781 1388.5,479.1563 Q1387.8125,480.2188 1387.8125,482.3125 Q1387.8125,484.4063 1388.5,485.4844 Q1389.1875,486.5469 1390.5313,486.5469 Q1391.1563,486.5469 1391.75,486.2813 Q1392.3438,486 1392.9688,485.4219 L1392.9688,488.1406 Z " fill="#000000"/><text fill="#000000" font-family="sans-serif" font-size="14" lengthAdjust="spacing" textLength="58" x="1404" y="487.3467">GitScript</text><line style="stroke:#181818;stroke-width:0.5;" x1="1376" x2="1464" y1="498.5" y2="498.5"/><line style="stroke:#181818;stroke-width:0.5;" x1="1376" x2="1464" y1="506.5" y2="506.5"/></g><!--class FilesystemScript--><g id="elem_FilesystemScript"><rect codeLine="105" fill="#F1F1F1" height="48" id="FilesystemScript" rx="2.5" ry="2.5" style="stroke:#181818;stroke-width:0.5;" width="144" x="1196" y="466.5"/><ellipse cx="1211" cy="482.5" fill="#ADD1B2" rx="11" ry="11" style="stroke:#181818;stroke-width:1.0;"/><path d="M1213.9688,488.1406 Q1213.3906,488.4375 1212.75,488.5781 Q1212.1094,488.7344 1211.4063,488.7344 Q1208.9063,488.7344 1207.5781,487.0938 Q1206.2656,485.4375 1206.2656,482.3125 Q1206.2656,479.1875 1207.5781,477.5313 Q1208.9063,475.875 1211.4063,475.875 Q1212.1094,475.875 1212.75,476.0313 Q1213.4063,476.1875 1213.9688,476.4844 L1213.9688,479.2031 Q1213.3438,478.625 1212.75,478.3594 Q1212.1563,478.0781 1211.5313,478.0781 Q1210.1875,478.0781 1209.5,479.1563 Q1208.8125,480.2188 1208.8125,482.3125 Q1208.8125,484.4063 1209.5,485.4844 Q1210.1875,486.5469 1211.5313,486.5469 Q1212.1563,486.5469 1212.75,486.2813 Q1213.3438,486 1213.9688,485.4219 L1213.9688,488.1406 Z " fill="#000000"/><text fill="#000000" font-family="sans-serif" font-size="14" lengthAdjust="spacing" textLength="112" x="1225" y="487.3467">FilesystemScript</text><line style="stroke:#181818;stroke-width:0.5;" x1="1197" x2="1339" y1="498.5" y2="498.5"/><line style="stroke:#181818;stroke-width:0.5;" x1="1197" x2="1339" y1="506.5" y2="506.5"/></g><!--class EmbeddedStringScript--><g id="elem_EmbeddedStringScript"><rect codeLine="106" fill="#F1F1F1" height="48" id="EmbeddedStringScript" rx="2.5" ry="2.5" style="stroke:#181818;stroke-width:0.5;" width="187" x="973.5" y="466.5"/><ellipse cx="988.5" cy="482.5" fill="#ADD1B2" rx="11" ry="11" style="stroke:#181818;stroke-width:1.0;"/><path d="M991.4688,488.1406 Q990.8906,488.4375 990.25,488.5781 Q989.6094,488.7344 988.9063,488.7344 Q986.4063,488.7344 985.0781,487.0938 Q983.7656,485.4375 983.7656,482.3125 Q983.7656,479.1875 985.0781,477.5313 Q986.4063,475.875 988.9063,475.875 Q989.6094,475.875 990.25,476.0313 Q990.9063,476.1875 991.4688,476.4844 L991.4688,479.2031 Q990.8438,478.625 990.25,478.3594 Q989.6563,478.0781 989.0313,478.0781 Q987.6875,478.0781 987,479.1563 Q986.3125,480.2188 986.3125,482.3125 Q986.3125,484.4063 987,485.4844 Q987.6875,486.5469 989.0313,486.5469 Q989.6563,486.5469 990.25,486.2813 Q990.8438,486 991.4688,485.4219 L991.4688,488.1406 Z " fill="#000000"/><text fill="#000000" font-family="sans-serif" font-size="14" lengthAdjust="spacing" textLength="155" x="1002.5" y="487.3467">EmbeddedStringScript</text><line style="stroke:#181818;stroke-width:0.5;" x1="974.5" x2="1159.5" y1="498.5" y2="498.5"/><line style="stroke:#181818;stroke-width:0.5;" x1="974.5" x2="1159.5" y1="506.5" y2="506.5"/></g><!--class ProcedureState--><g id="elem_ProcedureState"><rect codeLine="111" fill="#F1F1F1" height="210.9688" id="ProcedureState" rx="2.5" ry="2.5" style="stroke:#181818;stroke-width:0.5;" width="140" x="1293" y="773"/><ellipse cx="1308" cy="789" fill="#EB937F" rx="11" ry="11" style="stroke:#181818;stroke-width:1.0;"/><path d="M1312.1094,795 L1304.3906,795 L1304.3906,782.6094 L1312.1094,782.6094 L1312.1094,784.7656 L1306.8438,784.7656 L1306.8438,787.4375 L1311.6094,787.4375 L1311.6094,789.5938 L1306.8438,789.5938 L1306.8438,792.8438 L1312.1094,792.8438 L1312.1094,795 Z " fill="#000000"/><text fill="#000000" font-family="sans-serif" font-size="14" lengthAdjust="spacing" textLength="108" x="1322" y="793.8467">ProcedureState</text><line style="stroke:#181818;stroke-width:0.5;" x1="1294" x2="1432" y1="805" y2="805"/><text fill="#000000" font-family="sans-serif" font-size="14" lengthAdjust="spacing" textLength="73" x="1299" y="821.9951">UNKNOWN</text><text fill="#000000" font-family="sans-serif" font-size="14" lengthAdjust="spacing" textLength="71" x="1299" y="838.292">CREATING</text><text fill="#000000" font-family="sans-serif" font-size="14" lengthAdjust="spacing" textLength="30" x="1299" y="854.5889">IDLE</text><text fill="#000000" font-family="sans-serif" font-size="14" lengthAdjust="spacing" textLength="72" x="1299" y="870.8857">PREP_ENV</text><text fill="#000000" font-family="sans-serif" font-size="14" lengthAdjust="spacing" textLength="62" x="1299" y="887.1826">LOADING</text><text fill="#000000" font-family="sans-serif" font-size="14" lengthAdjust="spacing" textLength="48" x="1299" y="903.4795">READY</text><text fill="#000000" font-family="sans-serif" font-size="14" lengthAdjust="spacing" textLength="64" x="1299" y="919.7764">RUNNING</text><text fill="#000000" font-family="sans-serif" font-size="14" lengthAdjust="spacing" textLength="76" x="1299" y="936.0732">COMPLETE</text><text fill="#000000" font-family="sans-serif" font-size="14" lengthAdjust="spacing" textLength="67" x="1299" y="952.3701">STOPPED</text><text fill="#000000" font-family="sans-serif" font-size="14" lengthAdjust="spacing" textLength="47" x="1299" y="968.667">FAILED</text><line style="stroke:#181818;stroke-width:0.5;" x1="1294" x2="1432" y1="975.9688" y2="975.9688"/></g><!--class ProcedureInput--><g id="elem_ProcedureInput"><rect codeLine="124" fill="#F1F1F1" height="80.5938" id="ProcedureInput" rx="2.5" ry="2.5" style="stroke:#181818;stroke-width:0.5;" width="158" x="852" y="838"/><ellipse cx="875.55" cy="854" fill="#ADD1B2" rx="11" ry="11" style="stroke:#181818;stroke-width:1.0;"/><path d="M878.5188,859.6406 Q877.9406,859.9375 877.3,860.0781 Q876.6594,860.2344 875.9563,860.2344 Q873.4563,860.2344 872.1281,858.5938 Q870.8156,856.9375 870.8156,853.8125 Q870.8156,850.6875 872.1281,849.0313 Q873.4563,847.375 875.9563,847.375 Q876.6594,847.375 877.3,847.5313 Q877.9563,847.6875 878.5188,847.9844 L878.5188,850.7031 Q877.8938,850.125 877.3,849.8594 Q876.7063,849.5781 876.0813,849.5781 Q874.7375,849.5781 874.05,850.6563 Q873.3625,851.7188 873.3625,853.8125 Q873.3625,855.9063 874.05,856.9844 Q874.7375,858.0469 876.0813,858.0469 Q876.7063,858.0469 877.3,857.7813 Q877.8938,857.5 878.5188,856.9219 L878.5188,859.6406 Z " fill="#000000"/><text fill="#000000" font-family="sans-serif" font-size="14" lengthAdjust="spacing" textLength="107" x="891.45" y="858.8467">ProcedureInput</text><line style="stroke:#181818;stroke-width:0.5;" x1="853" x2="1009" y1="870" y2="870"/><text fill="#000000" font-family="sans-serif" font-size="14" lengthAdjust="spacing" textLength="62" x="858" y="886.9951">args: List</text><text fill="#000000" font-family="sans-serif" font-size="14" lengthAdjust="spacing" textLength="146" x="858" y="903.292">kwargs: Dict[str, Any]</text><line style="stroke:#181818;stroke-width:0.5;" x1="853" x2="1009" y1="910.5938" y2="910.5938"/></g><!--class Event--><g id="elem_Event"><rect codeLine="145" fill="#F1F1F1" height="48" id="Event" rx="2.5" ry="2.5" style="stroke:#181818;stroke-width:0.5;" width="71" x="280.5" y="1466"/><ellipse cx="295.5" cy="1482" fill="#ADD1B2" rx="11" ry="11" style="stroke:#181818;stroke-width:1.0;"/><path d="M298.4688,1487.6406 Q297.8906,1487.9375 297.25,1488.0781 Q296.6094,1488.2344 295.9063,1488.2344 Q293.4063,1488.2344 292.0781,1486.5938 Q290.7656,1484.9375 290.7656,1481.8125 Q290.7656,1478.6875 292.0781,1477.0313 Q293.4063,1475.375 295.9063,1475.375 Q296.6094,1475.375 297.25,1475.5313 Q297.9063,1475.6875 298.4688,1475.9844 L298.4688,1478.7031 Q297.8438,1478.125 297.25,1477.8594 Q296.6563,1477.5781 296.0313,1477.5781 Q294.6875,1477.5781 294,1478.6563 Q293.3125,1479.7188 293.3125,1481.8125 Q293.3125,1483.9063 294,1484.9844 Q294.6875,1486.0469 296.0313,1486.0469 Q296.6563,1486.0469 297.25,1485.7813 Q297.8438,1485.5 298.4688,1484.9219 L298.4688,1487.6406 Z " fill="#000000"/><text fill="#000000" font-family="sans-serif" font-size="14" lengthAdjust="spacing" textLength="39" x="309.5" y="1486.8467">Event</text><line style="stroke:#181818;stroke-width:0.5;" x1="281.5" x2="350.5" y1="1498" y2="1498"/><line style="stroke:#181818;stroke-width:0.5;" x1="281.5" x2="350.5" y1="1506" y2="1506"/></g><!--class Queue--><g id="elem_Queue"><rect codeLine="146" fill="#F1F1F1" height="48" id="Queue" rx="2.5" ry="2.5" style="stroke:#181818;stroke-width:0.5;" width="79" x="166.5" y="1466"/><ellipse cx="181.5" cy="1482" fill="#ADD1B2" rx="11" ry="11" style="stroke:#181818;stroke-width:1.0;"/><path d="M184.4688,1487.6406 Q183.8906,1487.9375 183.25,1488.0781 Q182.6094,1488.2344 181.9063,1488.2344 Q179.4063,1488.2344 178.0781,1486.5938 Q176.7656,1484.9375 176.7656,1481.8125 Q176.7656,1478.6875 178.0781,1477.0313 Q179.4063,1475.375 181.9063,1475.375 Q182.6094,1475.375 183.25,1475.5313 Q183.9063,1475.6875 184.4688,1475.9844 L184.4688,1478.7031 Q183.8438,1478.125 183.25,1477.8594 Q182.6563,1477.5781 182.0313,1477.5781 Q180.6875,1477.5781 180,1478.6563 Q179.3125,1479.7188 179.3125,1481.8125 Q179.3125,1483.9063 180,1484.9844 Q180.6875,1486.0469 182.0313,1486.0469 Q182.6563,1486.0469 183.25,1485.7813 Q183.8438,1485.5 184.4688,1484.9219 L184.4688,1487.6406 Z " fill="#000000"/><text fill="#000000" font-family="sans-serif" font-size="14" lengthAdjust="spacing" textLength="47" x="195.5" y="1486.8467">Queue</text><line style="stroke:#181818;stroke-width:0.5;" x1="167.5" x2="244.5" y1="1498" y2="1498"/><line style="stroke:#181818;stroke-width:0.5;" x1="167.5" x2="244.5" y1="1506" y2="1506"/></g><!--reverse link MainContext to Proc--><g id="link_MainContext_Proc"><path codeLine="51" d="M235,956.34 C235,998.78 235,1050.17 235,1086.83 " fill="none" id="MainContext-backto-Proc" style="stroke:#181818;stroke-width:1.0;"/><polygon fill="#181818" points="235,943.19,231,949.19,235,955.19,239,949.19,235,943.19" style="stroke:#181818;stroke-width:1.0;"/><text fill="#000000" font-family="sans-serif" font-size="13" lengthAdjust="spacing" textLength="23" x="210.3828" y="1076.015">0..*</text></g><!--reverse link Proc to ProcWorker--><g id="link_Proc_ProcWorker"><path codeLine="52" d="M314.15,1135.5 C321.2,1135.5 328.24,1135.5 335.29,1135.5 " fill="none" id="Proc-backto-ProcWorker" style="stroke:#181818;stroke-width:1.0;"/><polygon fill="#181818" points="301.04,1135.5,307.04,1139.5,313.04,1135.5,307.04,1131.5,301.04,1135.5" style="stroke:#181818;stroke-width:1.0;"/><text fill="#000000" font-family="sans-serif" font-size="13" lengthAdjust="spacing" textLength="8" x="309.1384" y="1131.7137">1</text><text fill="#000000" font-family="sans-serif" font-size="13" lengthAdjust="spacing" textLength="8" x="319.6221" y="1132.1711">1</text></g><!--link QueueProcWorker to ProcWorker--><g id="link_QueueProcWorker_ProcWorker"><path codeLine="53" d="M480,919.06 C480,954.17 480,1006.6 480,1050.96 " fill="none" id="QueueProcWorker-to-ProcWorker" style="stroke:#181818;stroke-width:1.0;"/><polygon fill="none" points="487,1051,480,1071,473,1051,487,1051" style="stroke:#181818;stroke-width:1.0;"/></g><!--reverse link ProcWorker to MPQueue--><g id="link_ProcWorker_MPQueue"><path codeLine="54" d="M371.94,1207.49 C335.96,1231.13 297.18,1256.6 266.16,1276.98 " fill="none" id="ProcWorker-backto-MPQueue" style="stroke:#181818;stroke-width:1.0;"/><polygon fill="none" points="383.01,1200.21,375.7991,1200.1617,372.981,1206.7993,380.192,1206.8477,383.01,1200.21" style="stroke:#181818;stroke-width:1.0;"/><text fill="#000000" font-family="sans-serif" font-size="13" lengthAdjust="spacing" textLength="51" x="335" y="1243.0669">event_q</text><text fill="#000000" font-family="sans-serif" font-size="13" lengthAdjust="spacing" textLength="8" x="267.8125" y="1265.8398">1</text></g><!--reverse link MainContext to MPQueue--><g id="link_MainContext_MPQueue"><path codeLine="55" d="M166.11,953.54 C139.7,986.83 112.64,1028.23 99,1071 C81.58,1125.62 78.19,1146.58 99,1200 C110.61,1229.81 133.82,1256.62 155.65,1276.98 " fill="none" id="MainContext-backto-MPQueue" style="stroke:#181818;stroke-width:1.0;"/><polygon fill="#181818" points="174.65,943.02,167.7646,945.1628,167.0943,952.3426,173.9797,950.1999,174.65,943.02" style="stroke:#181818;stroke-width:1.0;"/><text fill="#000000" font-family="sans-serif" font-size="13" lengthAdjust="spacing" textLength="51" x="100" y="1140.0669">event_q</text><text fill="#000000" font-family="sans-serif" font-size="13" lengthAdjust="spacing" textLength="8" x="138.3086" y="1265.8398">1</text></g><!--link GitScript to ExecutableScript--><g id="link_GitScript_ExecutableScript"><path codeLine="107" d="M1400.13,514.64 C1374.98,543.92 1331.31,594.78 1301.09,629.96 " fill="none" id="GitScript-to-ExecutableScript" style="stroke:#181818;stroke-width:1.0;"/><polygon fill="none" points="1306.22,634.74,1287.88,645.35,1295.6,625.62,1306.22,634.74" style="stroke:#181818;stroke-width:1.0;"/></g><!--link FilesystemScript to ExecutableScript--><g id="link_FilesystemScript_ExecutableScript"><path codeLine="108" d="M1268,514.64 C1268,542.6 1268,590.22 1268,625.1 " fill="none" id="FilesystemScript-to-ExecutableScript" style="stroke:#181818;stroke-width:1.0;"/><polygon fill="none" points="1275,625.35,1268,645.35,1261,625.35,1275,625.35" style="stroke:#181818;stroke-width:1.0;"/></g><!--link EmbeddedStringScript to ExecutableScript--><g id="link_EmbeddedStringScript_ExecutableScript"><path codeLine="109" d="M1093.28,514.64 C1127.21,544.52 1186.65,596.86 1226.66,632.09 " fill="none" id="EmbeddedStringScript-to-ExecutableScript" style="stroke:#181818;stroke-width:1.0;"/><polygon fill="none" points="1231.33,626.88,1241.72,645.35,1222.08,637.39,1231.33,626.88" style="stroke:#181818;stroke-width:1.0;"/></g><!--reverse link ProcessManager to EnvironmentManager--><g id="link_ProcessManager_EnvironmentManager"><path codeLine="129" d="M950.71,545.7 C952.48,546.15 954.24,546.58 956,547 C1183.7,600.82 1258.89,512.44 1481,586 C1509.67,595.5 1538.36,612.68 1561.47,628.92 " fill="none" id="ProcessManager-backto-EnvironmentManager" style="stroke:#181818;stroke-width:1.0;"/><polygon fill="#181818" points="938.08,542.18,942.7883,547.6419,949.6409,545.3965,944.9326,539.9346,938.08,542.18" style="stroke:#181818;stroke-width:1.0;"/><text fill="#000000" font-family="sans-serif" font-size="13" lengthAdjust="spacing" textLength="8" x="1544.6041" y="618.0683">1</text></g><!--reverse link ProcessManager to MainContext--><g id="link_ProcessManager_MainContext"><path codeLine="130" d="M771.25,557.36 C725.29,613.32 651.89,691.18 570,734 C494.92,773.25 460.72,737.26 383,771 C357.74,781.97 332.55,797.78 310.31,813.88 " fill="none" id="ProcessManager-backto-MainContext" style="stroke:#181818;stroke-width:1.0;"/><polygon fill="#181818" points="779.51,547.18,772.6246,549.3228,771.9543,556.5026,778.8397,554.3599,779.51,547.18" style="stroke:#181818;stroke-width:1.0;"/><text fill="#000000" font-family="sans-serif" font-size="13" lengthAdjust="spacing" textLength="8" x="310.1095" y="803.0395">1</text></g><!--reverse link EnvironmentManager to Environment--><g id="link_EnvironmentManager_Environment"><path codeLine="131" d="M1608.19,723.4 C1606.45,756.18 1604.23,797.94 1602.54,829.72 " fill="none" id="EnvironmentManager-backto-Environment" style="stroke:#181818;stroke-width:1.0;"/><polygon fill="#181818" points="1608.88,710.41,1604.5688,716.1905,1608.2465,722.3933,1612.5577,716.6128,1608.88,710.41" style="stroke:#181818;stroke-width:1.0;"/><text fill="#000000" font-family="sans-serif" font-size="13" lengthAdjust="spacing" textLength="23" x="1578.28" y="818.8895">0..*</text></g><!--link ScriptWorker to Environment--><!--link ScriptWorker to ProcedureInput--><!--link ExecutableScript to ProcedureInput--><!--link ExecutableScript to ProcedureState--><!--reverse link ScriptExecutionService to ProcessManager--><g id="link_ScriptExecutionService_ProcessManager"><path codeLine="139" d="M893.89,361.45 C880.47,385.03 865.54,411.26 852.7,433.81 " fill="none" id="ScriptExecutionService-backto-ProcessManager" style="stroke:#181818;stroke-width:1.0;"/><polygon fill="#181818" points="900.34,350.12,893.8946,353.3537,894.4006,360.547,900.846,357.3133,900.34,350.12" style="stroke:#181818;stroke-width:1.0;"/><text fill="#000000" font-family="sans-serif" font-size="13" lengthAdjust="spacing" textLength="8" x="848.0759" y="423.0504">1</text></g><!--link ScriptWorker to ProcWorker--><g id="link_ScriptWorker_ProcWorker"><path codeLine="140" d="M1114.72,943.23 C1093.47,974.79 1063.77,1010.63 1028,1032 C964.54,1069.91 781.73,1099.07 644.58,1116.43 " fill="none" id="ScriptWorker-to-ProcWorker" style="stroke:#181818;stroke-width:1.0;"/><polygon fill="none" points="645.41,1123.38,624.7,1118.9,643.68,1109.48,645.41,1123.38" style="stroke:#181818;stroke-width:1.0;"/></g><!--link MPQueue to Queue--><g id="link_MPQueue_Queue"><path codeLine="148" d="M206,1358.04 C206,1384.31 206,1418.78 206,1445.77 " fill="none" id="MPQueue-to-Queue" style="stroke:#181818;stroke-width:1.0;"/><polygon fill="none" points="213,1445.92,206,1465.92,199,1445.92,213,1445.92" style="stroke:#181818;stroke-width:1.0;"/></g><!--link EventBusWorker to QueueProcWorker--><g id="link_EventBusWorker_QueueProcWorker"><path codeLine="150" d="M480,710.41 C480,740.77 480,783.04 480,817.46 " fill="none" id="EventBusWorker-to-QueueProcWorker" style="stroke:#181818;stroke-width:1.0;"/><polygon fill="none" points="487,817.71,480,837.71,473,817.71,487,817.71" style="stroke:#181818;stroke-width:1.0;"/></g><!--SRC=[hLTRR-8u57xFhx1uMQW6klkAHfNOaXcXRIbRsXsjHYXoamDOJUpKTjgfElptjPq0yIKj6cqUKEBlt7pydUF3RrifIp4-FozpJ6LLvAEK5UTfZeKOPWHlE2wYgCJf8zu04eyuOO8b32HwYoAadZrKO4BHvy-ta4fCDpbSN2W9r3p678gVWSe_A_6DyKVWBLW_BsenUHgZwyNV5LHWOTfsigvesWTjOd00Tz7nbp89IBBo02u1qFqCOPgfL_vCKa2JnUm05oohSa3F15xGcd7rpOzU2LLB1PQ4KSJeORdNi_VGww5AmCZWeFpe69oqb9AnN7oGcMkrmKj69VoGJbgUT3B465qH8RytkLbP4WlEqlu03I_CcmKryZKQIgnG-KfAfIRw0n-eVVVRwNRYrXwTWBMriG7g55dWkihpHDjst4dW1Q5OmaVEWjGH4dDPbOaXnnWLLIw93WE487GpCaTcAsmhcR4NUhh66tuGakDKxbfa7FWapPctjxS2v9PbEpGQZRetPywcSuT1zqujTCNWkMg8u9vR9LqEu3Ka6v0rVIRqDMIopTopeKxg4FL-7utEUZOT3LDwV_IK42URhHoQZm1Dt4GCXpylGd8j4JQihJKR6oEJcUIf8yXksPrTkuOHMSNRgTfZk2npajODegksZobVffoKClu1QQKrzkt85gsh1qhCePyMcIuYyx6eYNd9YaBriaEbcyYMbLhahvuTKnArbQL-_JKRYaUD2LO6B9YUv9fP-NOCG0JqIvBjMncXSdKqye6LNUI_dTZkJNy_oEW-RxTs9BUWbXJx3qAORwf2aK8OMwoI2aJojGIXzLjtGVXKUxrZcTjtGfi_G9y9PrJxEO4_yL7w6bEbpmFSIJce3feeottLQWOUda4ENNYheeDU0-wKdOGeSknRat_kH7bhzgkENKbv8ksMw1wqbxAClJjZs1U5ecftfbHrI1tIbAI6YPzQnQ2XLKTkmtdb5Gq3fe1EItLDfM3lRmz7pJGn2jtbzg0q26E1-qa_ESDPNvWOngWcD7x8eOxA5q-nkiRNzCEzxQcnvvDZE927hqHsObz83k9LI2WwHUBY0R8CigNawXuFY1tir_VAkn6v_avG2VdlK8liMgeAXuC15jpF_vhVV9jxwvUtyUHkDl_g0RFfLUmjBcxZHHBF__60gvl9D6H5MP_-ww_Up-SXwSkRwyLLVEVxNTxTB1Rnr5l_CfbTESl14ZcaPwQxTI0zgcytjui7FRxKe2bunSbFUfnPlUVJwI5dpOZXD-9Jj5hpXqqNlwqRbNf-Qg6MbjKhwcdg-vOesj7LyDUKxDJQ8JgyHMR6-tzL3T-ZKEllc9lsURNJ7ONt6fWVTz7k-9_M6VuROhN-iKREbAwKzoEqCLulHiw_soFKSluV]--></g></svg>