<?xml version="1.0" encoding="UTF-8" standalone="no"?><svg xmlns="http://www.w3.org/2000/svg" xmlns:xlink="http://www.w3.org/1999/xlink" contentScriptType="application/ecmascript" contentStyleType="text/css" height="429px" preserveAspectRatio="none" style="width:414px;height:429px;" version="1.1" viewBox="0 0 414 429" width="414px" zoomAndPan="magnify"><defs><filter height="300%" id="f1qua8zwstktwg" width="300%" x="-1" y="-1"><feGaussianBlur result="blurOut" stdDeviation="2.0"/><feColorMatrix in="blurOut" result="blurOut2" type="matrix" values="0 0 0 0 0 0 0 0 0 0 0 0 0 0 0 0 0 0 .4 0"/><feOffset dx="4.0" dy="4.0" in="blurOut2" result="blurOut3"/><feBlend in="SourceGraphic" in2="blurOut3" mode="normal"/></filter></defs><g><!--MD5=[4caa97c3b43e5ccb768f5326915ee1d4]
cluster ska_oso_oet.procedure--><polygon fill="#FFFFFF" filter="url(#f1qua8zwstktwg)" points="14,16,204,16,211,38.2969,392,38.2969,392,417,14,417,14,16" style="stroke: #000000; stroke-width: 1.5;"/><line style="stroke: #000000; stroke-width: 1.5;" x1="14" x2="211" y1="38.2969" y2="38.2969"/><text fill="#000000" font-family="sans-serif" font-size="14" font-weight="bold" lengthAdjust="spacingAndGlyphs" textLength="184" x="18" y="30.9951">ska_oso_oet.procedure</text><!--MD5=[e05846e0557a046bf7b9258196848ed8]
cluster application_pkg--><polygon fill="#FFFFFF" filter="url(#f1qua8zwstktwg)" points="22,43,113,43,120,65.2969,272,65.2969,272,409,22,409,22,43" style="stroke: #000000; stroke-width: 1.5;"/><line style="stroke: #000000; stroke-width: 1.5;" x1="22" x2="120" y1="65.2969" y2="65.2969"/><text fill="#000000" font-family="sans-serif" font-size="14" font-weight="bold" lengthAdjust="spacingAndGlyphs" textLength="85" x="26" y="57.9951">application</text><!--MD5=[01b908eab77bdc64a587d21ad331408b]
cluster restserver--><rect fill="#FFFFFF" filter="url(#f1qua8zwstktwg)" height="331" style="stroke: #000000; stroke-width: 1.5;" width="234" x="30" y="70"/><text fill="#000000" font-family="sans-serif" font-size="14" font-weight="bold" lengthAdjust="spacingAndGlyphs" textLength="84" x="105" y="84.9951">restserver</text><!--MD5=[71c2ab1c1c8272e025db689c64a870a2]
cluster flask--><polygon fill="#FFFFFF" filter="url(#f1qua8zwstktwg)" points="280,197,323,197,330,219.2969,384,219.2969,384,401,280,401,280,197" style="stroke: #000000; stroke-width: 1.5;"/><line style="stroke: #000000; stroke-width: 1.5;" x1="280" x2="330" y1="219.2969" y2="219.2969"/><text fill="#000000" font-family="sans-serif" font-size="14" font-weight="bold" lengthAdjust="spacingAndGlyphs" textLength="37" x="284" y="211.9951">flask</text><!--MD5=[d26137e5d461602f48e26353ca7979f6]
class app--><rect fill="#FEFECE" filter="url(#f1qua8zwstktwg)" height="53.9375" id="app" style="stroke: #A80036; stroke-width: 1.5;" width="173" x="71.5" y="97"/><ellipse cx="86.5" cy="115.9688" fill="#ADD1B2" rx="11" ry="11" style="stroke: #A80036; stroke-width: 1.0;"/><path d="M89.4688,121.6094 Q88.8906,121.9063 88.25,122.0469 Q87.6094,122.2031 86.9063,122.2031 Q84.4063,122.2031 83.0781,120.5625 Q81.7656,118.9063 81.7656,115.7813 Q81.7656,112.6563 83.0781,111 Q84.4063,109.3438 86.9063,109.3438 Q87.6094,109.3438 88.25,109.5 Q88.9063,109.6563 89.4688,109.9531 L89.4688,112.6719 Q88.8438,112.0938 88.25,111.8281 Q87.6563,111.5469 87.0313,111.5469 Q85.6875,111.5469 85,112.625 Q84.3125,113.6875 84.3125,115.7813 Q84.3125,117.875 85,118.9531 Q85.6875,120.0156 87.0313,120.0156 Q87.6563,120.0156 88.25,119.75 Q88.8438,119.4688 89.4688,118.8906 L89.4688,121.6094 Z "/><text fill="#000000" font-family="sans-serif" font-size="12" font-style="italic" lengthAdjust="spacingAndGlyphs" textLength="145" x="98.5" y="113.1387">«function return value»</text><text fill="#000000" font-family="sans-serif" font-size="12" lengthAdjust="spacingAndGlyphs" textLength="24" x="159" y="127.1074">app</text><line style="stroke: #A80036; stroke-width: 1.5;" x1="72.5" x2="243.5" y1="134.9375" y2="134.9375"/><line style="stroke: #A80036; stroke-width: 1.5;" x1="72.5" x2="243.5" y1="142.9375" y2="142.9375"/><!--MD5=[ac5fbc7e172a153817156d672bf2c325]
class ServerSentEventsBlueprint--><rect fill="#FEFECE" filter="url(#f1qua8zwstktwg)" height="73.6094" id="ServerSentEventsBlueprint" style="stroke: #A80036; stroke-width: 1.5;" width="218" x="38" y="211"/><ellipse cx="61.55" cy="227" fill="#ADD1B2" rx="11" ry="11" style="stroke: #A80036; stroke-width: 1.0;"/><path d="M64.5188,232.6406 Q63.9406,232.9375 63.3,233.0781 Q62.6594,233.2344 61.9563,233.2344 Q59.4563,233.2344 58.1281,231.5938 Q56.8156,229.9375 56.8156,226.8125 Q56.8156,223.6875 58.1281,222.0313 Q59.4563,220.375 61.9563,220.375 Q62.6594,220.375 63.3,220.5313 Q63.9563,220.6875 64.5188,220.9844 L64.5188,223.7031 Q63.8938,223.125 63.3,222.8594 Q62.7063,222.5781 62.0813,222.5781 Q60.7375,222.5781 60.05,223.6563 Q59.3625,224.7188 59.3625,226.8125 Q59.3625,228.9063 60.05,229.9844 Q60.7375,231.0469 62.0813,231.0469 Q62.7063,231.0469 63.3,230.7813 Q63.8938,230.5 64.5188,229.9219 L64.5188,232.6406 Z "/><text fill="#000000" font-family="sans-serif" font-size="12" lengthAdjust="spacingAndGlyphs" textLength="167" x="77.45" y="231.1543">ServerSentEventsBlueprint</text><line style="stroke: #A80036; stroke-width: 1.5;" x1="39" x2="255" y1="243" y2="243"/><line style="stroke: #A80036; stroke-width: 1.5;" x1="39" x2="255" y1="251" y2="251"/><text fill="#000000" font-family="sans-serif" font-size="11" lengthAdjust="spacingAndGlyphs" textLength="206" x="44" y="265.2104">messages() -&gt; Generator[Message]</text><text fill="#000000" font-family="sans-serif" font-size="11" lengthAdjust="spacingAndGlyphs" textLength="49" x="44" y="278.0151">stream()</text><!--MD5=[bea5b0d46523efab5ea1c1d339f396f0]
class Message--><rect fill="#FEFECE" filter="url(#f1qua8zwstktwg)" height="48" id="Message" style="stroke: #A80036; stroke-width: 1.5;" width="88" x="103" y="345"/><ellipse cx="118" cy="361" fill="#ADD1B2" rx="11" ry="11" style="stroke: #A80036; stroke-width: 1.0;"/><path d="M120.9688,366.6406 Q120.3906,366.9375 119.75,367.0781 Q119.1094,367.2344 118.4063,367.2344 Q115.9063,367.2344 114.5781,365.5938 Q113.2656,363.9375 113.2656,360.8125 Q113.2656,357.6875 114.5781,356.0313 Q115.9063,354.375 118.4063,354.375 Q119.1094,354.375 119.75,354.5313 Q120.4063,354.6875 120.9688,354.9844 L120.9688,357.7031 Q120.3438,357.125 119.75,356.8594 Q119.1563,356.5781 118.5313,356.5781 Q117.1875,356.5781 116.5,357.6563 Q115.8125,358.7188 115.8125,360.8125 Q115.8125,362.9063 116.5,363.9844 Q117.1875,365.0469 118.5313,365.0469 Q119.1563,365.0469 119.75,364.7813 Q120.3438,364.5 120.9688,363.9219 L120.9688,366.6406 Z "/><text fill="#000000" font-family="sans-serif" font-size="12" lengthAdjust="spacingAndGlyphs" textLength="56" x="132" y="365.1543">Message</text><line style="stroke: #A80036; stroke-width: 1.5;" x1="104" x2="190" y1="377" y2="377"/><line style="stroke: #A80036; stroke-width: 1.5;" x1="104" x2="190" y1="385" y2="385"/><!--MD5=[56dc9bd079fa0794426dfac01e4747ad]
class Flask--><rect fill="#FEFECE" filter="url(#f1qua8zwstktwg)" height="48" id="Flask" style="stroke: #A80036; stroke-width: 1.5;" width="64" x="295" y="224"/><ellipse cx="310" cy="240" fill="#ADD1B2" rx="11" ry="11" style="stroke: #A80036; stroke-width: 1.0;"/><path d="M312.9688,245.6406 Q312.3906,245.9375 311.75,246.0781 Q311.1094,246.2344 310.4063,246.2344 Q307.9063,246.2344 306.5781,244.5938 Q305.2656,242.9375 305.2656,239.8125 Q305.2656,236.6875 306.5781,235.0313 Q307.9063,233.375 310.4063,233.375 Q311.1094,233.375 311.75,233.5313 Q312.4063,233.6875 312.9688,233.9844 L312.9688,236.7031 Q312.3438,236.125 311.75,235.8594 Q311.1563,235.5781 310.5313,235.5781 Q309.1875,235.5781 308.5,236.6563 Q307.8125,237.7188 307.8125,239.8125 Q307.8125,241.9063 308.5,242.9844 Q309.1875,244.0469 310.5313,244.0469 Q311.1563,244.0469 311.75,243.7813 Q312.3438,243.5 312.9688,242.9219 L312.9688,245.6406 Z "/><text fill="#000000" font-family="sans-serif" font-size="12" lengthAdjust="spacingAndGlyphs" textLength="32" x="324" y="244.1543">Flask</text><line style="stroke: #A80036; stroke-width: 1.5;" x1="296" x2="358" y1="256" y2="256"/><line style="stroke: #A80036; stroke-width: 1.5;" x1="296" x2="358" y1="264" y2="264"/><!--MD5=[687b898a26107f91307f914974ba425d]
class Blueprint--><rect fill="#FEFECE" filter="url(#f1qua8zwstktwg)" height="48" id="Blueprint" style="stroke: #A80036; stroke-width: 1.5;" width="88" x="288" y="345"/><ellipse cx="303" cy="361" fill="#ADD1B2" rx="11" ry="11" style="stroke: #A80036; stroke-width: 1.0;"/><path d="M305.9688,366.6406 Q305.3906,366.9375 304.75,367.0781 Q304.1094,367.2344 303.4063,367.2344 Q300.9063,367.2344 299.5781,365.5938 Q298.2656,363.9375 298.2656,360.8125 Q298.2656,357.6875 299.5781,356.0313 Q300.9063,354.375 303.4063,354.375 Q304.1094,354.375 304.75,354.5313 Q305.4063,354.6875 305.9688,354.9844 L305.9688,357.7031 Q305.3438,357.125 304.75,356.8594 Q304.1563,356.5781 303.5313,356.5781 Q302.1875,356.5781 301.5,357.6563 Q300.8125,358.7188 300.8125,360.8125 Q300.8125,362.9063 301.5,363.9844 Q302.1875,365.0469 303.5313,365.0469 Q304.1563,365.0469 304.75,364.7813 Q305.3438,364.5 305.9688,363.9219 L305.9688,366.6406 Z "/><text fill="#000000" font-family="sans-serif" font-size="12" lengthAdjust="spacingAndGlyphs" textLength="56" x="317" y="365.1543">Blueprint</text><line style="stroke: #A80036; stroke-width: 1.5;" x1="289" x2="375" y1="377" y2="377"/><line style="stroke: #A80036; stroke-width: 1.5;" x1="289" x2="375" y1="385" y2="385"/><!--MD5=[71723dd1a6f45f6c1cc9bac83e5a3aed]
reverse link app to ServerSentEventsBlueprint--><path d="M154.4225,164.3284 C153.0913,179.3341 151.5883,196.2773 150.2846,210.9731 " fill="none" id="app&lt;-ServerSentEventsBlueprint" style="stroke: #A80036; stroke-width: 1.0;"/><polygon fill="#FFFFFF" points="155.586,151.2123,151.0714,156.8353,154.5255,163.1653,159.0401,157.5423,155.586,151.2123" style="stroke: #A80036; stroke-width: 1.0;"/><!--MD5=[281bb0dbe94282fe1815a7a5ea90261b]
reverse link ServerSentEventsBlueprint to Message--><path d="M147,298.4878 C147,314.5944 147,331.6747 147,344.9903 " fill="none" id="ServerSentEventsBlueprint&lt;-Message" style="stroke: #A80036; stroke-width: 1.0;"/><polygon fill="#A80036" points="147,285.2913,143,291.2913,147,297.2913,151,291.2913,147,285.2913" style="stroke: #A80036; stroke-width: 1.0;"/><!--MD5=[ba95c7f4237f35f52038bfc61d34fc99]
link Flask to Blueprint--><!--MD5=[7bc91e66d2a1940da7a755ed03b9f1fc]
link app to Flask--><path d="M204.4791,151.1581 C225.6692,164.1903 250.719,180.5307 272,197 C277.3036,201.1045 282.6992,205.6215 287.9351,210.219 " fill="none" id="app-&gt;Flask" style="stroke: #A80036; stroke-width: 1.0;"/><polygon fill="none" points="292.8808,205.2561,302.9123,223.9208,283.4308,215.5856,292.8808,205.2561" style="stroke: #A80036; stroke-width: 1.0;"/><!--MD5=[ba85647e1184cfa2d18c00395cb919e8]
link ServerSentEventsBlueprint to Blueprint--><path d="M203.7633,285.1263 C227.4623,300.6267 254.8596,318.546 278.2311,333.8322 " fill="none" id="ServerSentEventsBlueprint-&gt;Blueprint" style="stroke: #A80036; stroke-width: 1.0;"/><polygon fill="none" points="282.2845,328.119,295.1907,344.9247,274.6213,339.8355,282.2845,328.119" style="stroke: #A80036; stroke-width: 1.0;"/><!--MD5=[f319dad275a6592820c447e6d5775112]
@startuml

package ska_oso_oet.procedure {

package application as application_pkg {

    package restserver <<Rectangle>> {
        class app <<function return value>> {
        }

        class ServerSentEventsBlueprint {
            messages() -> Generator[Message]
            stream()
        }

        class Message

        app o- - ServerSentEventsBlueprint
        ServerSentEventsBlueprint *- - Message
    }
}

package flask {
    class Flask
    class Blueprint

    Flask -down[hidden]- Blueprint
}
}

app -|> Flask
ServerSentEventsBlueprint - -|> Blueprint

@enduml

PlantUML version 1.2020.06(Sun Apr 05 12:38:32 GMT 2020)
(GPL source distribution)
Java Runtime: OpenJDK Runtime Environment
JVM: OpenJDK 64-Bit Server VM
Java Version: 14-ea+33
Operating System: Linux
Default Encoding: UTF-8
Language: en
Country: US
--></g></svg>