<?xml version="1.0" encoding="UTF-8" standalone="no"?><svg xmlns="http://www.w3.org/2000/svg" xmlns:xlink="http://www.w3.org/1999/xlink" contentStyleType="text/css" height="670px" preserveAspectRatio="none" style="width:555px;height:670px;background:#FFFFFF;" version="1.1" viewBox="0 0 555 670" width="555px" zoomAndPan="magnify"><defs/><g><!--cluster ska_oso_oet_client--><g id="cluster_ska_oso_oet_client"><path d="M8.5,6 L155.5,6 A3.75,3.75 0 0 1 158,8.5 L165,28.2969 L199.5,28.2969 A2.5,2.5 0 0 1 202,30.7969 L202,169.5 A2.5,2.5 0 0 1 199.5,172 L8.5,172 A2.5,2.5 0 0 1 6,169.5 L6,8.5 A2.5,2.5 0 0 1 8.5,6 " fill="none" style="stroke:#000000;stroke-width:1.5;"/><line style="stroke:#000000;stroke-width:1.5;" x1="6" x2="165" y1="28.2969" y2="28.2969"/><text fill="#000000" font-family="sans-serif" font-size="14" font-weight="bold" lengthAdjust="spacing" textLength="146" x="10" y="20.9951">ska_oso_oet_client</text></g><!--cluster restclient--><g id="cluster_restclient"><rect fill="none" height="99" rx="2.5" ry="2.5" style="stroke:#181818;stroke-width:1.0;" width="148" x="30" y="49"/><text fill="#000000" font-family="sans-serif" font-size="14" font-weight="bold" lengthAdjust="spacing" textLength="75" x="66.5" y="63.9951">restclient</text></g><!--cluster ska_oso_oet--><g id="cluster_ska_oso_oet"><path d="M232.5,6 L329.5,6 A3.75,3.75 0 0 1 332,8.5 L339,28.2969 L545.5,28.2969 A2.5,2.5 0 0 1 548,30.7969 L548,660.5 A2.5,2.5 0 0 1 545.5,663 L232.5,663 A2.5,2.5 0 0 1 230,660.5 L230,8.5 A2.5,2.5 0 0 1 232.5,6 " fill="none" style="stroke:#000000;stroke-width:1.5;"/><line style="stroke:#000000;stroke-width:1.5;" x1="230" x2="339" y1="28.2969" y2="28.2969"/><text fill="#000000" font-family="sans-serif" font-size="14" font-weight="bold" lengthAdjust="spacing" textLength="96" x="234" y="20.9951">ska_oso_oet</text></g><!--cluster main--><g id="cluster_main"><rect fill="none" height="345" rx="2.5" ry="2.5" style="stroke:#181818;stroke-width:1.0;" width="270" x="254" y="49"/><text fill="#000000" font-family="sans-serif" font-size="14" font-weight="bold" lengthAdjust="spacing" textLength="37" x="370.5" y="63.9951">main</text></g><!--cluster procedure--><g id="cluster_procedure"><path d="M256.5,473 L340.5,473 A3.75,3.75 0 0 1 343,475.5 L350,495.2969 L521.5,495.2969 A2.5,2.5 0 0 1 524,497.7969 L524,636.5 A2.5,2.5 0 0 1 521.5,639 L256.5,639 A2.5,2.5 0 0 1 254,636.5 L254,475.5 A2.5,2.5 0 0 1 256.5,473 " fill="none" style="stroke:#000000;stroke-width:1.5;"/><line style="stroke:#000000;stroke-width:1.5;" x1="254" x2="350" y1="495.2969" y2="495.2969"/><text fill="#000000" font-family="sans-serif" font-size="14" font-weight="bold" lengthAdjust="spacing" textLength="83" x="258" y="487.9951">procedure</text></g><!--cluster application--><g id="cluster_application"><rect fill="none" height="99" rx="2.5" ry="2.5" style="stroke:#181818;stroke-width:1.0;" width="222" x="278" y="516"/><text fill="#000000" font-family="sans-serif" font-size="14" font-weight="bold" lengthAdjust="spacing" textLength="85" x="346.5" y="530.9951">application</text></g><!--class RestClientUI--><g id="elem_RestClientUI"><rect codeLine="5" fill="#F1F1F1" height="48" id="RestClientUI" rx="2.5" ry="2.5" style="stroke:#181818;stroke-width:0.5;" width="116" x="46" y="84"/><ellipse cx="61" cy="100" fill="#ADD1B2" rx="11" ry="11" style="stroke:#181818;stroke-width:1.0;"/><path d="M63.9688,105.6406 Q63.3906,105.9375 62.75,106.0781 Q62.1094,106.2344 61.4063,106.2344 Q58.9063,106.2344 57.5781,104.5938 Q56.2656,102.9375 56.2656,99.8125 Q56.2656,96.6875 57.5781,95.0313 Q58.9063,93.375 61.4063,93.375 Q62.1094,93.375 62.75,93.5313 Q63.4063,93.6875 63.9688,93.9844 L63.9688,96.7031 Q63.3438,96.125 62.75,95.8594 Q62.1563,95.5781 61.5313,95.5781 Q60.1875,95.5781 59.5,96.6563 Q58.8125,97.7188 58.8125,99.8125 Q58.8125,101.9063 59.5,102.9844 Q60.1875,104.0469 61.5313,104.0469 Q62.1563,104.0469 62.75,103.7813 Q63.3438,103.5 63.9688,102.9219 L63.9688,105.6406 Z " fill="#000000"/><text fill="#000000" font-family="sans-serif" font-size="14" lengthAdjust="spacing" textLength="84" x="75" y="104.8467">RestClientUI</text><line style="stroke:#181818;stroke-width:0.5;" x1="47" x2="161" y1="116" y2="116"/><line style="stroke:#181818;stroke-width:0.5;" x1="47" x2="161" y1="124" y2="124"/></g><!--class ScriptExecutionServiceWorker--><g id="elem_ScriptExecutionServiceWorker"><rect codeLine="12" fill="#F1F1F1" height="113.1875" id="ScriptExecutionServiceWorker" rx="2.5" ry="2.5" style="stroke:#181818;stroke-width:0.5;" width="238" x="270" y="265"/><ellipse cx="285" cy="281" fill="#ADD1B2" rx="11" ry="11" style="stroke:#181818;stroke-width:1.0;"/><path d="M287.9688,286.6406 Q287.3906,286.9375 286.75,287.0781 Q286.1094,287.2344 285.4063,287.2344 Q282.9063,287.2344 281.5781,285.5938 Q280.2656,283.9375 280.2656,280.8125 Q280.2656,277.6875 281.5781,276.0313 Q282.9063,274.375 285.4063,274.375 Q286.1094,274.375 286.75,274.5313 Q287.4063,274.6875 287.9688,274.9844 L287.9688,277.7031 Q287.3438,277.125 286.75,276.8594 Q286.1563,276.5781 285.5313,276.5781 Q284.1875,276.5781 283.5,277.6563 Q282.8125,278.7188 282.8125,280.8125 Q282.8125,282.9063 283.5,283.9844 Q284.1875,285.0469 285.5313,285.0469 Q286.1563,285.0469 286.75,284.7813 Q287.3438,284.5 287.9688,283.9219 L287.9688,286.6406 Z " fill="#000000"/><text fill="#000000" font-family="sans-serif" font-size="14" lengthAdjust="spacing" textLength="206" x="299" y="285.8467">ScriptExecutionServiceWorker</text><line style="stroke:#181818;stroke-width:0.5;" x1="271" x2="507" y1="297" y2="297"/><line style="stroke:#181818;stroke-width:0.5;" x1="271" x2="507" y1="305" y2="305"/><text fill="#000000" font-family="sans-serif" font-size="14" lengthAdjust="spacing" textLength="76" x="276" y="321.9951">prepare(...)</text><text fill="#000000" font-family="sans-serif" font-size="14" lengthAdjust="spacing" textLength="53" x="276" y="338.292">start(...)</text><text fill="#000000" font-family="sans-serif" font-size="14" lengthAdjust="spacing" textLength="53" x="276" y="354.5889">stop(...)</text><text fill="#000000" font-family="sans-serif" font-size="14" lengthAdjust="spacing" textLength="41" x="276" y="370.8857">list(...)</text></g><!--class FastAPIWorker--><g id="elem_FastAPIWorker"><rect codeLine="19" fill="#F1F1F1" height="48" id="FastAPIWorker" rx="2.5" ry="2.5" style="stroke:#181818;stroke-width:0.5;" width="131" x="323.5" y="84"/><ellipse cx="338.5" cy="100" fill="#ADD1B2" rx="11" ry="11" style="stroke:#181818;stroke-width:1.0;"/><path d="M341.4688,105.6406 Q340.8906,105.9375 340.25,106.0781 Q339.6094,106.2344 338.9063,106.2344 Q336.4063,106.2344 335.0781,104.5938 Q333.7656,102.9375 333.7656,99.8125 Q333.7656,96.6875 335.0781,95.0313 Q336.4063,93.375 338.9063,93.375 Q339.6094,93.375 340.25,93.5313 Q340.9063,93.6875 341.4688,93.9844 L341.4688,96.7031 Q340.8438,96.125 340.25,95.8594 Q339.6563,95.5781 339.0313,95.5781 Q337.6875,95.5781 337,96.6563 Q336.3125,97.7188 336.3125,99.8125 Q336.3125,101.9063 337,102.9844 Q337.6875,104.0469 339.0313,104.0469 Q339.6563,104.0469 340.25,103.7813 Q340.8438,103.5 341.4688,102.9219 L341.4688,105.6406 Z " fill="#000000"/><text fill="#000000" font-family="sans-serif" font-size="14" lengthAdjust="spacing" textLength="99" x="352.5" y="104.8467">FastAPIWorker</text><line style="stroke:#181818;stroke-width:0.5;" x1="324.5" x2="453.5" y1="116" y2="116"/><line style="stroke:#181818;stroke-width:0.5;" x1="324.5" x2="453.5" y1="124" y2="124"/></g><!--class ScriptExecutionService--><g id="elem_ScriptExecutionService"><rect codeLine="25" fill="#F1F1F1" height="48" id="ScriptExecutionService" rx="2.5" ry="2.5" style="stroke:#181818;stroke-width:0.5;" width="189" x="294.5" y="551"/><ellipse cx="309.5" cy="567" fill="#ADD1B2" rx="11" ry="11" style="stroke:#181818;stroke-width:1.0;"/><path d="M312.4688,572.6406 Q311.8906,572.9375 311.25,573.0781 Q310.6094,573.2344 309.9063,573.2344 Q307.4063,573.2344 306.0781,571.5938 Q304.7656,569.9375 304.7656,566.8125 Q304.7656,563.6875 306.0781,562.0313 Q307.4063,560.375 309.9063,560.375 Q310.6094,560.375 311.25,560.5313 Q311.9063,560.6875 312.4688,560.9844 L312.4688,563.7031 Q311.8438,563.125 311.25,562.8594 Q310.6563,562.5781 310.0313,562.5781 Q308.6875,562.5781 308,563.6563 Q307.3125,564.7188 307.3125,566.8125 Q307.3125,568.9063 308,569.9844 Q308.6875,571.0469 310.0313,571.0469 Q310.6563,571.0469 311.25,570.7813 Q311.8438,570.5 312.4688,569.9219 L312.4688,572.6406 Z " fill="#000000"/><text fill="#000000" font-family="sans-serif" font-size="14" lengthAdjust="spacing" textLength="157" x="323.5" y="571.8467">ScriptExecutionService</text><line style="stroke:#181818;stroke-width:0.5;" x1="295.5" x2="482.5" y1="583" y2="583"/><line style="stroke:#181818;stroke-width:0.5;" x1="295.5" x2="482.5" y1="591" y2="591"/></g><!--link RestClientUI to FastAPIWorker--><g id="link_RestClientUI_FastAPIWorker"><path codeLine="31" d="M162.02,108 C208.81,108 274.62,108 323.34,108 " fill="none" id="RestClientUI-FastAPIWorker" style="stroke:#181818;stroke-width:1.0;"/><text fill="#000000" font-family="sans-serif" font-size="13" lengthAdjust="spacing" textLength="125" x="180.25" y="86.0669">Sends user request</text><polygon fill="#000000" points="244.25,96.6992,235.2049,93.7603,235.2049,99.6381,244.25,96.6992" style="stroke:#000000;stroke-width:1.0;"/><text fill="#000000" font-family="sans-serif" font-size="13" lengthAdjust="spacing" textLength="4" x="247.25" y="101.1997"> </text></g><!--link FastAPIWorker to ScriptExecutionServiceWorker--><g id="link_FastAPIWorker_ScriptExecutionServiceWorker"><path codeLine="32" d="M389,132.04 C389,163.62 389,221.37 389,264.66 " fill="none" id="FastAPIWorker-ScriptExecutionServiceWorker" style="stroke:#181818;stroke-width:1.0;"/><text fill="#000000" font-family="sans-serif" font-size="13" lengthAdjust="spacing" textLength="38" x="395.5" y="201.0669">relays</text><text fill="#000000" font-family="sans-serif" font-size="13" lengthAdjust="spacing" textLength="49" x="390" y="216.1997">request</text><polygon fill="#000000" points="411,231.832,413.9389,222.7869,408.0611,222.7869,411,231.832" style="stroke:#000000;stroke-width:1.0;"/><text fill="#000000" font-family="sans-serif" font-size="13" lengthAdjust="spacing" textLength="4" x="419" y="231.3325"> </text></g><!--link ScriptExecutionServiceWorker to ScriptExecutionService--><g id="link_ScriptExecutionServiceWorker_ScriptExecutionService"><path codeLine="33" d="M389,378 C389,432.11 389,511.75 389,550.75 " fill="none" id="ScriptExecutionServiceWorker-ScriptExecutionService" style="stroke:#181818;stroke-width:1.0;"/><text fill="#000000" font-family="sans-serif" font-size="13" lengthAdjust="spacing" textLength="48" x="402" y="423.0669">invokes</text><text fill="#000000" font-family="sans-serif" font-size="13" lengthAdjust="spacing" textLength="72" x="390" y="438.1997">commands</text><polygon fill="#000000" points="422.5,453.832,425.4389,444.7869,419.5611,444.7869,422.5,453.832" style="stroke:#000000;stroke-width:1.0;"/><text fill="#000000" font-family="sans-serif" font-size="13" lengthAdjust="spacing" textLength="4" x="430.5" y="453.3325"> </text></g><!--SRC=[XP9DQyCm38Rl-HM-RJiakOSI66E3tah3sAKGX2Co4yVs9ATiZFptkLa3-UY73pQs7htIQ_lXqtl7MPew3SPthKwaRLEfWJck5DG4RHGva0tKABY1qh8jBVfIQeN6Yzz8X342XEpFWSrcZzA3gJNc-HaxZK5Qx0FuCe3lsqcmZ_xd_cBDHR4MbBbJff2ad7_zHjbvPKs1T5GIFomrI1DuK2LqGFYO9CdJBC0Uo5ywjcvzgXKls61btjCRi7_URLTDZDvd7XrPYLL7E07763YdbOIJiQlNSEyg5cY_xcPOPyyLBonaea1JiUWuR0Y_kW0VZCY7p3aQnxUV90lv6dxuO9OwDzEkoWP1POwsmQ0O_dKBeSz1CXZx0m00]--></g></svg>