<?xml version="1.0" encoding="UTF-8" standalone="no"?><svg xmlns="http://www.w3.org/2000/svg" xmlns:xlink="http://www.w3.org/1999/xlink" contentStyleType="text/css" height="1451px" preserveAspectRatio="none" style="width:1634px;height:1451px;background:#FFFFFF;" version="1.1" viewBox="0 0 1634 1451" width="1634px" zoomAndPan="magnify"><defs/><g><!--cluster ska_oso_oet_client--><g id="cluster_ska_oso_oet_client"><path d="M1433.5,39.5659 L1580.5,39.5659 A3.75,3.75 0 0 1 1583,42.0659 L1590,61.8628 L1624.5,61.8628 A2.5,2.5 0 0 1 1627,64.3628 L1627,320.0659 A2.5,2.5 0 0 1 1624.5,322.5659 L1433.5,322.5659 A2.5,2.5 0 0 1 1431,320.0659 L1431,42.0659 A2.5,2.5 0 0 1 1433.5,39.5659 " fill="none" style="stroke:#000000;stroke-width:1.5;"/><line style="stroke:#000000;stroke-width:1.5;" x1="1431" x2="1590" y1="61.8628" y2="61.8628"/><text fill="#000000" font-family="sans-serif" font-size="14" font-weight="bold" lengthAdjust="spacing" textLength="146" x="1435" y="54.561">ska_oso_oet_client</text></g><!--cluster restclient--><g id="cluster_restclient"><rect fill="none" height="216" rx="2.5" ry="2.5" style="stroke:#181818;stroke-width:1.0;" width="148" x="1455" y="82.5659"/><text fill="#000000" font-family="sans-serif" font-size="14" font-weight="bold" lengthAdjust="spacing" textLength="75" x="1491.5" y="97.561">restclient</text></g><!--cluster ska_oso_oet--><g id="cluster_ska_oso_oet"><path d="M8.5,61.0659 L105.5,61.0659 A3.75,3.75 0 0 1 108,63.5659 L115,83.3628 L1308.5,83.3628 A2.5,2.5 0 0 1 1311,85.8628 L1311,1442.0659 A2.5,2.5 0 0 1 1308.5,1444.5659 L8.5,1444.5659 A2.5,2.5 0 0 1 6,1442.0659 L6,63.5659 A2.5,2.5 0 0 1 8.5,61.0659 " fill="none" style="stroke:#000000;stroke-width:1.5;"/><line style="stroke:#000000;stroke-width:1.5;" x1="6" x2="115" y1="83.3628" y2="83.3628"/><text fill="#000000" font-family="sans-serif" font-size="14" font-weight="bold" lengthAdjust="spacing" textLength="96" x="10" y="76.061">ska_oso_oet</text></g><!--cluster mptools--><g id="cluster_mptools"><rect fill="none" height="157" rx="2.5" ry="2.5" style="stroke:#181818;stroke-width:1.0;" width="288" x="991" y="112.0659"/><text fill="#000000" font-family="sans-serif" font-size="14" font-weight="bold" lengthAdjust="spacing" textLength="63" x="1103.5" y="127.061">mptools</text></g><!--cluster main--><g id="cluster_main"><rect fill="none" height="391.5" rx="2.5" ry="2.5" style="stroke:#181818;stroke-width:1.0;" width="437" x="517" y="107.0659"/><text fill="#000000" font-family="sans-serif" font-size="14" font-weight="bold" lengthAdjust="spacing" textLength="37" x="717" y="122.061">main</text></g><!--cluster ui--><g id="cluster_ui"><rect fill="none" height="350.5" rx="2.5" ry="2.5" style="stroke:#181818;stroke-width:1.0;" width="250" x="1037" y="531.5659"/><text fill="#000000" font-family="sans-serif" font-size="14" font-weight="bold" lengthAdjust="spacing" textLength="14" x="1155" y="546.561">ui</text></g><!--cluster procedure--><g id="cluster_procedure"><path d="M32.5,688.5659 L116.5,688.5659 A3.75,3.75 0 0 1 119,691.0659 L126,710.8628 L1010.5,710.8628 A2.5,2.5 0 0 1 1013,713.3628 L1013,1418.0659 A2.5,2.5 0 0 1 1010.5,1420.5659 L32.5,1420.5659 A2.5,2.5 0 0 1 30,1418.0659 L30,691.0659 A2.5,2.5 0 0 1 32.5,688.5659 " fill="none" style="stroke:#000000;stroke-width:1.5;"/><line style="stroke:#000000;stroke-width:1.5;" x1="30" x2="126" y1="710.8628" y2="710.8628"/><text fill="#000000" font-family="sans-serif" font-size="14" font-weight="bold" lengthAdjust="spacing" textLength="83" x="34" y="703.561">procedure</text></g><!--cluster procedure_ui--><g id="cluster_procedure_ui"><rect fill="none" height="118" rx="2.5" ry="2.5" style="stroke:#181818;stroke-width:1.0;" width="158" x="831" y="764.0659"/><text fill="#000000" font-family="sans-serif" font-size="14" font-weight="bold" lengthAdjust="spacing" textLength="14" x="903" y="779.061">ui</text></g><!--cluster application--><g id="cluster_application"><rect fill="none" height="665" rx="2.5" ry="2.5" style="stroke:#181818;stroke-width:1.0;" width="753" x="54" y="731.5659"/><text fill="#000000" font-family="sans-serif" font-size="14" font-weight="bold" lengthAdjust="spacing" textLength="85" x="388" y="746.561">application</text></g><!--class RestClientUI--><g id="elem_RestClientUI"><rect codeLine="5" fill="#F1F1F1" height="145.7813" id="RestClientUI" rx="2.5" ry="2.5" style="stroke:#181818;stroke-width:0.5;" width="116" x="1471" y="136.5659"/><ellipse cx="1486" cy="152.5659" fill="#ADD1B2" rx="11" ry="11" style="stroke:#181818;stroke-width:1.0;"/><path d="M1488.9688,158.2065 Q1488.3906,158.5034 1487.75,158.644 Q1487.1094,158.8003 1486.4063,158.8003 Q1483.9063,158.8003 1482.5781,157.1597 Q1481.2656,155.5034 1481.2656,152.3784 Q1481.2656,149.2534 1482.5781,147.5972 Q1483.9063,145.9409 1486.4063,145.9409 Q1487.1094,145.9409 1487.75,146.0972 Q1488.4063,146.2534 1488.9688,146.5503 L1488.9688,149.269 Q1488.3438,148.6909 1487.75,148.4253 Q1487.1563,148.144 1486.5313,148.144 Q1485.1875,148.144 1484.5,149.2222 Q1483.8125,150.2847 1483.8125,152.3784 Q1483.8125,154.4722 1484.5,155.5503 Q1485.1875,156.6128 1486.5313,156.6128 Q1487.1563,156.6128 1487.75,156.3472 Q1488.3438,156.0659 1488.9688,155.4878 L1488.9688,158.2065 Z " fill="#000000"/><text fill="#000000" font-family="sans-serif" font-size="14" lengthAdjust="spacing" textLength="84" x="1500" y="157.4126">RestClientUI</text><line style="stroke:#181818;stroke-width:0.5;" x1="1472" x2="1586" y1="168.5659" y2="168.5659"/><line style="stroke:#181818;stroke-width:0.5;" x1="1472" x2="1586" y1="176.5659" y2="176.5659"/><text fill="#000000" font-family="sans-serif" font-size="14" lengthAdjust="spacing" textLength="66" x="1477" y="193.561">create(...)</text><text fill="#000000" font-family="sans-serif" font-size="14" lengthAdjust="spacing" textLength="53" x="1477" y="209.8579">start(...)</text><text fill="#000000" font-family="sans-serif" font-size="14" lengthAdjust="spacing" textLength="53" x="1477" y="226.1548">stop(...)</text><text fill="#000000" font-family="sans-serif" font-size="14" lengthAdjust="spacing" textLength="41" x="1477" y="242.4517">list(...)</text><text fill="#000000" font-family="sans-serif" font-size="14" lengthAdjust="spacing" textLength="82" x="1477" y="258.7485">describe(...)</text><text fill="#000000" font-family="sans-serif" font-size="14" lengthAdjust="spacing" textLength="59" x="1477" y="275.0454">listen(...)</text></g><g id="elem_mptools_note"><path d="M1034.5,174.0659 L1034.5,244.5972 L1255.5,244.5972 L1255.5,184.0659 L1245.5,174.0659 L1034.5,174.0659 " fill="#FEFFDD" style="stroke:#181818;stroke-width:0.5;"/><path d="M1245.5,174.0659 L1245.5,184.0659 L1255.5,184.0659 L1245.5,174.0659 " fill="#FEFFDD" style="stroke:#181818;stroke-width:1.0;"/><text fill="#000000" font-family="sans-serif" font-size="13" lengthAdjust="spacing" textLength="200" x="1040.5" y="191.1328">See the ScriptExecutionService</text><text fill="#000000" font-family="sans-serif" font-size="13" lengthAdjust="spacing" textLength="183" x="1040.5" y="206.2656">view for more information on</text><text fill="#000000" font-family="sans-serif" font-size="13" lengthAdjust="spacing" textLength="21" x="1040.5" y="221.3984">the</text><text fill="#000000" font-family="monospace" font-size="13" lengthAdjust="spacing" textLength="56" x="1065.5" y="221.3984">mptools</text><text fill="#000000" font-family="sans-serif" font-size="13" lengthAdjust="spacing" textLength="95" x="1125.5" y="221.3984">module and its</text><text fill="#000000" font-family="sans-serif" font-size="13" lengthAdjust="spacing" textLength="60" x="1040.5" y="236.5313">contents.</text></g><!--class ScriptExecutionServiceWorker--><g id="elem_ScriptExecutionServiceWorker"><rect codeLine="28" fill="#F1F1F1" height="113.1875" id="ScriptExecutionServiceWorker" rx="2.5" ry="2.5" style="stroke:#181818;stroke-width:0.5;" width="238" x="533" y="369.5659"/><ellipse cx="548" cy="385.5659" fill="#ADD1B2" rx="11" ry="11" style="stroke:#181818;stroke-width:1.0;"/><path d="M550.9688,391.2065 Q550.3906,391.5034 549.75,391.644 Q549.1094,391.8003 548.4063,391.8003 Q545.9063,391.8003 544.5781,390.1597 Q543.2656,388.5034 543.2656,385.3784 Q543.2656,382.2534 544.5781,380.5972 Q545.9063,378.9409 548.4063,378.9409 Q549.1094,378.9409 549.75,379.0972 Q550.4063,379.2534 550.9688,379.5503 L550.9688,382.269 Q550.3438,381.6909 549.75,381.4253 Q549.1563,381.144 548.5313,381.144 Q547.1875,381.144 546.5,382.2222 Q545.8125,383.2847 545.8125,385.3784 Q545.8125,387.4722 546.5,388.5503 Q547.1875,389.6128 548.5313,389.6128 Q549.1563,389.6128 549.75,389.3472 Q550.3438,389.0659 550.9688,388.4878 L550.9688,391.2065 Z " fill="#000000"/><text fill="#000000" font-family="sans-serif" font-size="14" lengthAdjust="spacing" textLength="206" x="562" y="390.4126">ScriptExecutionServiceWorker</text><line style="stroke:#181818;stroke-width:0.5;" x1="534" x2="770" y1="401.5659" y2="401.5659"/><line style="stroke:#181818;stroke-width:0.5;" x1="534" x2="770" y1="409.5659" y2="409.5659"/><text fill="#000000" font-family="sans-serif" font-size="14" lengthAdjust="spacing" textLength="76" x="539" y="426.561">prepare(...)</text><text fill="#000000" font-family="sans-serif" font-size="14" lengthAdjust="spacing" textLength="53" x="539" y="442.8579">start(...)</text><text fill="#000000" font-family="sans-serif" font-size="14" lengthAdjust="spacing" textLength="53" x="539" y="459.1548">stop(...)</text><text fill="#000000" font-family="sans-serif" font-size="14" lengthAdjust="spacing" textLength="41" x="539" y="475.4517">list(...)</text></g><!--class FastAPIWorker--><g id="elem_FastAPIWorker"><rect codeLine="35" fill="#F1F1F1" height="48" id="FastAPIWorker" rx="2.5" ry="2.5" style="stroke:#181818;stroke-width:0.5;" width="131" x="806.5" y="402.0659"/><ellipse cx="821.5" cy="418.0659" fill="#ADD1B2" rx="11" ry="11" style="stroke:#181818;stroke-width:1.0;"/><path d="M824.4688,423.7065 Q823.8906,424.0034 823.25,424.144 Q822.6094,424.3003 821.9063,424.3003 Q819.4063,424.3003 818.0781,422.6597 Q816.7656,421.0034 816.7656,417.8784 Q816.7656,414.7534 818.0781,413.0972 Q819.4063,411.4409 821.9063,411.4409 Q822.6094,411.4409 823.25,411.5972 Q823.9063,411.7534 824.4688,412.0503 L824.4688,414.769 Q823.8438,414.1909 823.25,413.9253 Q822.6563,413.644 822.0313,413.644 Q820.6875,413.644 820,414.7222 Q819.3125,415.7847 819.3125,417.8784 Q819.3125,419.9722 820,421.0503 Q820.6875,422.1128 822.0313,422.1128 Q822.6563,422.1128 823.25,421.8472 Q823.8438,421.5659 824.4688,420.9878 L824.4688,423.7065 Z " fill="#000000"/><text fill="#000000" font-family="sans-serif" font-size="14" lengthAdjust="spacing" textLength="99" x="835.5" y="422.9126">FastAPIWorker</text><line style="stroke:#181818;stroke-width:0.5;" x1="807.5" x2="936.5" y1="434.0659" y2="434.0659"/><line style="stroke:#181818;stroke-width:0.5;" x1="807.5" x2="936.5" y1="442.0659" y2="442.0659"/></g><!--class EventBusWorker--><g id="elem_EventBusWorker"><rect codeLine="37" fill="#F1F1F1" height="96.8906" id="EventBusWorker" rx="2.5" ry="2.5" style="stroke:#181818;stroke-width:0.5;" width="147" x="785.5" y="161.0659"/><ellipse cx="800.5" cy="177.0659" fill="#ADD1B2" rx="11" ry="11" style="stroke:#181818;stroke-width:1.0;"/><path d="M803.4688,182.7065 Q802.8906,183.0034 802.25,183.144 Q801.6094,183.3003 800.9063,183.3003 Q798.4063,183.3003 797.0781,181.6597 Q795.7656,180.0034 795.7656,176.8784 Q795.7656,173.7534 797.0781,172.0972 Q798.4063,170.4409 800.9063,170.4409 Q801.6094,170.4409 802.25,170.5972 Q802.9063,170.7534 803.4688,171.0503 L803.4688,173.769 Q802.8438,173.1909 802.25,172.9253 Q801.6563,172.644 801.0313,172.644 Q799.6875,172.644 799,173.7222 Q798.3125,174.7847 798.3125,176.8784 Q798.3125,178.9722 799,180.0503 Q799.6875,181.1128 801.0313,181.1128 Q801.6563,181.1128 802.25,180.8472 Q802.8438,180.5659 803.4688,179.9878 L803.4688,182.7065 Z " fill="#000000"/><text fill="#000000" font-family="sans-serif" font-size="14" lengthAdjust="spacing" textLength="115" x="814.5" y="181.9126">EventBusWorker</text><line style="stroke:#181818;stroke-width:0.5;" x1="786.5" x2="931.5" y1="193.0659" y2="193.0659"/><line style="stroke:#181818;stroke-width:0.5;" x1="786.5" x2="931.5" y1="201.0659" y2="201.0659"/><text fill="#000000" font-family="sans-serif" font-size="14" lengthAdjust="spacing" textLength="92" x="791.5" y="218.061">main_loop(...)</text><text fill="#000000" font-family="sans-serif" font-size="14" lengthAdjust="spacing" textLength="92" x="791.5" y="234.3579">main_func(...)</text><text fill="#000000" font-family="sans-serif" font-size="14" lengthAdjust="spacing" textLength="86" x="791.5" y="250.6548">republish(...)</text></g><!--class app--><g id="elem_app"><rect codeLine="50" fill="#F1F1F1" height="56.2656" id="app" rx="2.5" ry="2.5" style="stroke:#181818;stroke-width:0.5;" width="173" x="1053.5" y="585.5659"/><ellipse cx="1068.5" cy="605.6987" fill="#ADD1B2" rx="11" ry="11" style="stroke:#181818;stroke-width:1.0;"/><path d="M1071.4688,611.3394 Q1070.8906,611.6362 1070.25,611.7769 Q1069.6094,611.9331 1068.9063,611.9331 Q1066.4063,611.9331 1065.0781,610.2925 Q1063.7656,608.6362 1063.7656,605.5112 Q1063.7656,602.3862 1065.0781,600.73 Q1066.4063,599.0737 1068.9063,599.0737 Q1069.6094,599.0737 1070.25,599.23 Q1070.9063,599.3862 1071.4688,599.6831 L1071.4688,602.4019 Q1070.8438,601.8237 1070.25,601.5581 Q1069.6563,601.2769 1069.0313,601.2769 Q1067.6875,601.2769 1067,602.355 Q1066.3125,603.4175 1066.3125,605.5112 Q1066.3125,607.605 1067,608.6831 Q1067.6875,609.7456 1069.0313,609.7456 Q1069.6563,609.7456 1070.25,609.48 Q1070.8438,609.1987 1071.4688,608.6206 L1071.4688,611.3394 Z " fill="#000000"/><text fill="#000000" font-family="sans-serif" font-size="12" font-style="italic" lengthAdjust="spacing" textLength="145" x="1080.5" y="601.7046">«function return value»</text><text fill="#000000" font-family="sans-serif" font-size="14" lengthAdjust="spacing" textLength="26" x="1140" y="617.5298">app</text><line style="stroke:#181818;stroke-width:0.5;" x1="1054.5" x2="1225.5" y1="625.8315" y2="625.8315"/><line style="stroke:#181818;stroke-width:0.5;" x1="1054.5" x2="1225.5" y1="633.8315" y2="633.8315"/></g><!--class ServerSentEventsBlueprint--><g id="elem_ServerSentEventsBlueprint"><rect codeLine="53" fill="#F1F1F1" height="48" id="ServerSentEventsBlueprint" rx="2.5" ry="2.5" style="stroke:#181818;stroke-width:0.5;" width="217" x="1053.5" y="818.0659"/><ellipse cx="1068.5" cy="834.0659" fill="#ADD1B2" rx="11" ry="11" style="stroke:#181818;stroke-width:1.0;"/><path d="M1071.4688,839.7065 Q1070.8906,840.0034 1070.25,840.144 Q1069.6094,840.3003 1068.9063,840.3003 Q1066.4063,840.3003 1065.0781,838.6597 Q1063.7656,837.0034 1063.7656,833.8784 Q1063.7656,830.7534 1065.0781,829.0972 Q1066.4063,827.4409 1068.9063,827.4409 Q1069.6094,827.4409 1070.25,827.5972 Q1070.9063,827.7534 1071.4688,828.0503 L1071.4688,830.769 Q1070.8438,830.1909 1070.25,829.9253 Q1069.6563,829.644 1069.0313,829.644 Q1067.6875,829.644 1067,830.7222 Q1066.3125,831.7847 1066.3125,833.8784 Q1066.3125,835.9722 1067,837.0503 Q1067.6875,838.1128 1069.0313,838.1128 Q1069.6563,838.1128 1070.25,837.8472 Q1070.8438,837.5659 1071.4688,836.9878 L1071.4688,839.7065 Z " fill="#000000"/><text fill="#000000" font-family="sans-serif" font-size="14" lengthAdjust="spacing" textLength="185" x="1082.5" y="838.9126">ServerSentEventsBlueprint</text><line style="stroke:#181818;stroke-width:0.5;" x1="1054.5" x2="1269.5" y1="850.0659" y2="850.0659"/><line style="stroke:#181818;stroke-width:0.5;" x1="1054.5" x2="1269.5" y1="858.0659" y2="858.0659"/></g><!--class ProcedureAPI--><g id="elem_ProcedureAPI"><rect codeLine="61" fill="#F1F1F1" height="48" id="ProcedureAPI" rx="2.5" ry="2.5" style="stroke:#181818;stroke-width:0.5;" width="125" x="847.5" y="818.0659"/><ellipse cx="862.5" cy="834.0659" fill="#ADD1B2" rx="11" ry="11" style="stroke:#181818;stroke-width:1.0;"/><path d="M865.4688,839.7065 Q864.8906,840.0034 864.25,840.144 Q863.6094,840.3003 862.9063,840.3003 Q860.4063,840.3003 859.0781,838.6597 Q857.7656,837.0034 857.7656,833.8784 Q857.7656,830.7534 859.0781,829.0972 Q860.4063,827.4409 862.9063,827.4409 Q863.6094,827.4409 864.25,827.5972 Q864.9063,827.7534 865.4688,828.0503 L865.4688,830.769 Q864.8438,830.1909 864.25,829.9253 Q863.6563,829.644 863.0313,829.644 Q861.6875,829.644 861,830.7222 Q860.3125,831.7847 860.3125,833.8784 Q860.3125,835.9722 861,837.0503 Q861.6875,838.1128 863.0313,838.1128 Q863.6563,838.1128 864.25,837.8472 Q864.8438,837.5659 865.4688,836.9878 L865.4688,839.7065 Z " fill="#000000"/><text fill="#000000" font-family="sans-serif" font-size="14" lengthAdjust="spacing" textLength="93" x="876.5" y="838.9126">ProcedureAPI</text><line style="stroke:#181818;stroke-width:0.5;" x1="848.5" x2="971.5" y1="850.0659" y2="850.0659"/><line style="stroke:#181818;stroke-width:0.5;" x1="848.5" x2="971.5" y1="858.0659" y2="858.0659"/></g><g id="elem_N1"><path d="M561,791.5659 L561,892.3628 L791,892.3628 L791,801.5659 L781,791.5659 L561,791.5659 " fill="#FEFFDD" style="stroke:#181818;stroke-width:0.5;"/><path d="M781,791.5659 L781,801.5659 L791,801.5659 L781,791.5659 " fill="#FEFFDD" style="stroke:#181818;stroke-width:1.0;"/><text fill="#000000" font-family="sans-serif" font-size="13" lengthAdjust="spacing" textLength="209" x="567" y="808.6328">See the Script Execution module</text><text fill="#000000" font-family="sans-serif" font-size="13" lengthAdjust="spacing" textLength="195" x="567" y="823.7656">view for information on objects</text><text fill="#000000" font-family="sans-serif" font-size="13" lengthAdjust="spacing" textLength="55" x="567" y="838.8984">from the</text><text fill="#000000" font-family="monospace" font-size="13" lengthAdjust="spacing" textLength="48" x="626" y="838.8984">domain</text><text fill="#000000" font-family="sans-serif" font-size="13" lengthAdjust="spacing" textLength="96" x="678" y="838.8984">Python module</text><text fill="#000000" font-family="sans-serif" font-size="13" lengthAdjust="spacing" textLength="206" x="567" y="854.0313">that are held as class properties</text><text fill="#000000" font-family="sans-serif" font-size="13" lengthAdjust="spacing" textLength="184" x="567" y="869.1641">of some of the classes in the</text><text fill="#000000" font-family="monospace" font-size="13" lengthAdjust="spacing" textLength="88" x="567" y="884.2969">application</text><text fill="#000000" font-family="sans-serif" font-size="13" lengthAdjust="spacing" textLength="58" x="659" y="884.2969">package.</text></g><!--class ScriptExecutionService--><g id="elem_ScriptExecutionService"><rect codeLine="76" fill="#F1F1F1" height="113.1875" id="ScriptExecutionService" rx="2.5" ry="2.5" style="stroke:#181818;stroke-width:0.5;" width="457" x="69.5" y="785.5659"/><ellipse cx="215.25" cy="801.5659" fill="#ADD1B2" rx="11" ry="11" style="stroke:#181818;stroke-width:1.0;"/><path d="M218.2188,807.2065 Q217.6406,807.5034 217,807.644 Q216.3594,807.8003 215.6563,807.8003 Q213.1563,807.8003 211.8281,806.1597 Q210.5156,804.5034 210.5156,801.3784 Q210.5156,798.2534 211.8281,796.5972 Q213.1563,794.9409 215.6563,794.9409 Q216.3594,794.9409 217,795.0972 Q217.6563,795.2534 218.2188,795.5503 L218.2188,798.269 Q217.5938,797.6909 217,797.4253 Q216.4063,797.144 215.7813,797.144 Q214.4375,797.144 213.75,798.2222 Q213.0625,799.2847 213.0625,801.3784 Q213.0625,803.4722 213.75,804.5503 Q214.4375,805.6128 215.7813,805.6128 Q216.4063,805.6128 217,805.3472 Q217.5938,805.0659 218.2188,804.4878 L218.2188,807.2065 Z " fill="#000000"/><text fill="#000000" font-family="sans-serif" font-size="14" lengthAdjust="spacing" textLength="157" x="235.75" y="806.4126">ScriptExecutionService</text><line style="stroke:#181818;stroke-width:0.5;" x1="70.5" x2="525.5" y1="817.5659" y2="817.5659"/><line style="stroke:#181818;stroke-width:0.5;" x1="70.5" x2="525.5" y1="825.5659" y2="825.5659"/><text fill="#000000" font-family="sans-serif" font-size="14" lengthAdjust="spacing" textLength="445" x="75.5" y="842.561">prepare(cmd: PrepareProcessCommand) -&gt; ProcedureSummary</text><text fill="#000000" font-family="sans-serif" font-size="14" lengthAdjust="spacing" textLength="400" x="75.5" y="858.8579">start(cmd: StartProcessCommand) -&gt; ProcedureSummary</text><text fill="#000000" font-family="sans-serif" font-size="14" lengthAdjust="spacing" textLength="433" x="75.5" y="875.1548">stop(cmd: StopProcessCommand) -&gt; List[ProcedureSummary]</text><text fill="#000000" font-family="sans-serif" font-size="14" lengthAdjust="spacing" textLength="373" x="75.5" y="891.4517">summarise(pids: List[int]) -&gt; List[[ProcedureSummary]</text></g><!--class ProcedureSummary--><g id="elem_ProcedureSummary"><rect codeLine="83" fill="#F1F1F1" height="113.1875" id="ProcedureSummary" rx="2.5" ry="2.5" style="stroke:#181818;stroke-width:0.5;" width="229" x="401.5" y="959.5659"/><ellipse cx="443.95" cy="975.5659" fill="#ADD1B2" rx="11" ry="11" style="stroke:#181818;stroke-width:1.0;"/><path d="M446.9188,981.2065 Q446.3406,981.5034 445.7,981.644 Q445.0594,981.8003 444.3563,981.8003 Q441.8563,981.8003 440.5281,980.1597 Q439.2156,978.5034 439.2156,975.3784 Q439.2156,972.2534 440.5281,970.5972 Q441.8563,968.9409 444.3563,968.9409 Q445.0594,968.9409 445.7,969.0972 Q446.3563,969.2534 446.9188,969.5503 L446.9188,972.269 Q446.2938,971.6909 445.7,971.4253 Q445.1063,971.144 444.4813,971.144 Q443.1375,971.144 442.45,972.2222 Q441.7625,973.2847 441.7625,975.3784 Q441.7625,977.4722 442.45,978.5503 Q443.1375,979.6128 444.4813,979.6128 Q445.1063,979.6128 445.7,979.3472 Q446.2938,979.0659 446.9188,978.4878 L446.9188,981.2065 Z " fill="#000000"/><text fill="#000000" font-family="sans-serif" font-size="14" lengthAdjust="spacing" textLength="136" x="464.05" y="980.4126">ProcedureSummary</text><line style="stroke:#181818;stroke-width:0.5;" x1="402.5" x2="629.5" y1="991.5659" y2="991.5659"/><text fill="#000000" font-family="sans-serif" font-size="14" lengthAdjust="spacing" textLength="38" x="407.5" y="1008.561">id: int</text><text fill="#000000" font-family="sans-serif" font-size="14" lengthAdjust="spacing" textLength="217" x="407.5" y="1024.8579">script: domain.ExecutableScript</text><text fill="#000000" font-family="sans-serif" font-size="14" lengthAdjust="spacing" textLength="96" x="407.5" y="1041.1548">script_args: ...</text><text fill="#000000" font-family="sans-serif" font-size="14" lengthAdjust="spacing" textLength="207" x="407.5" y="1057.4517">state: domain.ProcedureState</text><line style="stroke:#181818;stroke-width:0.5;" x1="402.5" x2="629.5" y1="1064.7534" y2="1064.7534"/></g><!--class ProcedureHistory--><g id="elem_ProcedureHistory"><rect codeLine="90" fill="#F1F1F1" height="80.5938" id="ProcedureHistory" rx="2.5" ry="2.5" style="stroke:#181818;stroke-width:0.5;" width="316" x="402" y="1141.5659"/><ellipse cx="496.25" cy="1157.5659" fill="#ADD1B2" rx="11" ry="11" style="stroke:#181818;stroke-width:1.0;"/><path d="M499.2188,1163.2065 Q498.6406,1163.5034 498,1163.644 Q497.3594,1163.8003 496.6563,1163.8003 Q494.1563,1163.8003 492.8281,1162.1597 Q491.5156,1160.5034 491.5156,1157.3784 Q491.5156,1154.2534 492.8281,1152.5972 Q494.1563,1150.9409 496.6563,1150.9409 Q497.3594,1150.9409 498,1151.0972 Q498.6563,1151.2534 499.2188,1151.5503 L499.2188,1154.269 Q498.5938,1153.6909 498,1153.4253 Q497.4063,1153.144 496.7813,1153.144 Q495.4375,1153.144 494.75,1154.2222 Q494.0625,1155.2847 494.0625,1157.3784 Q494.0625,1159.4722 494.75,1160.5503 Q495.4375,1161.6128 496.7813,1161.6128 Q497.4063,1161.6128 498,1161.3472 Q498.5938,1161.0659 499.2188,1160.4878 L499.2188,1163.2065 Z " fill="#000000"/><text fill="#000000" font-family="sans-serif" font-size="14" lengthAdjust="spacing" textLength="119" x="516.75" y="1162.4126">ProcedureHistory</text><line style="stroke:#181818;stroke-width:0.5;" x1="403" x2="717" y1="1173.5659" y2="1173.5659"/><text fill="#000000" font-family="sans-serif" font-size="14" lengthAdjust="spacing" textLength="304" x="408" y="1190.561">process_states: List[(ProcedureState, time)]</text><text fill="#000000" font-family="sans-serif" font-size="14" lengthAdjust="spacing" textLength="166" x="408" y="1206.8579">stacktrace: Optional[str]</text><line style="stroke:#181818;stroke-width:0.5;" x1="403" x2="717" y1="1214.1597" y2="1214.1597"/></g><!--class PrepareProcessCommand--><g id="elem_PrepareProcessCommand"><rect codeLine="97" fill="#F1F1F1" height="80.5938" id="PrepareProcessCommand" rx="2.5" ry="2.5" style="stroke:#181818;stroke-width:0.5;" width="240" x="126" y="975.5659"/><ellipse cx="153.15" cy="991.5659" fill="#ADD1B2" rx="11" ry="11" style="stroke:#181818;stroke-width:1.0;"/><path d="M156.1188,997.2065 Q155.5406,997.5034 154.9,997.644 Q154.2594,997.8003 153.5563,997.8003 Q151.0563,997.8003 149.7281,996.1597 Q148.4156,994.5034 148.4156,991.3784 Q148.4156,988.2534 149.7281,986.5972 Q151.0563,984.9409 153.5563,984.9409 Q154.2594,984.9409 154.9,985.0972 Q155.5563,985.2534 156.1188,985.5503 L156.1188,988.269 Q155.4938,987.6909 154.9,987.4253 Q154.3063,987.144 153.6813,987.144 Q152.3375,987.144 151.65,988.2222 Q150.9625,989.2847 150.9625,991.3784 Q150.9625,993.4722 151.65,994.5503 Q152.3375,995.6128 153.6813,995.6128 Q154.3063,995.6128 154.9,995.3472 Q155.4938,995.0659 156.1188,994.4878 L156.1188,997.2065 Z " fill="#000000"/><text fill="#000000" font-family="sans-serif" font-size="14" lengthAdjust="spacing" textLength="181" x="169.85" y="996.4126">PrepareProcessCommand</text><line style="stroke:#181818;stroke-width:0.5;" x1="127" x2="365" y1="1007.5659" y2="1007.5659"/><text fill="#000000" font-family="sans-serif" font-size="14" lengthAdjust="spacing" textLength="217" x="132" y="1024.561">script: domain.ExecutableScript</text><text fill="#000000" font-family="sans-serif" font-size="14" lengthAdjust="spacing" textLength="228" x="132" y="1040.8579">init_args: domain.ProcedureInput</text><line style="stroke:#181818;stroke-width:0.5;" x1="127" x2="365" y1="1048.1597" y2="1048.1597"/></g><!--class StartProcessCommand--><g id="elem_StartProcessCommand"><rect codeLine="102" fill="#F1F1F1" height="96.8906" id="StartProcessCommand" rx="2.5" ry="2.5" style="stroke:#181818;stroke-width:0.5;" width="243" x="123.5" y="1133.5659"/><ellipse cx="161.9" cy="1149.5659" fill="#ADD1B2" rx="11" ry="11" style="stroke:#181818;stroke-width:1.0;"/><path d="M164.8688,1155.2065 Q164.2906,1155.5034 163.65,1155.644 Q163.0094,1155.8003 162.3063,1155.8003 Q159.8063,1155.8003 158.4781,1154.1597 Q157.1656,1152.5034 157.1656,1149.3784 Q157.1656,1146.2534 158.4781,1144.5972 Q159.8063,1142.9409 162.3063,1142.9409 Q163.0094,1142.9409 163.65,1143.0972 Q164.3063,1143.2534 164.8688,1143.5503 L164.8688,1146.269 Q164.2438,1145.6909 163.65,1145.4253 Q163.0563,1145.144 162.4313,1145.144 Q161.0875,1145.144 160.4,1146.2222 Q159.7125,1147.2847 159.7125,1149.3784 Q159.7125,1151.4722 160.4,1152.5503 Q161.0875,1153.6128 162.4313,1153.6128 Q163.0563,1153.6128 163.65,1153.3472 Q164.2438,1153.0659 164.8688,1152.4878 L164.8688,1155.2065 Z " fill="#000000"/><text fill="#000000" font-family="sans-serif" font-size="14" lengthAdjust="spacing" textLength="159" x="181.1" y="1154.4126">StartProcessCommand</text><line style="stroke:#181818;stroke-width:0.5;" x1="124.5" x2="365.5" y1="1165.5659" y2="1165.5659"/><text fill="#000000" font-family="sans-serif" font-size="14" lengthAdjust="spacing" textLength="110" x="129.5" y="1182.561">process_uid: int</text><text fill="#000000" font-family="sans-serif" font-size="14" lengthAdjust="spacing" textLength="86" x="129.5" y="1198.8579">fn_name: str</text><text fill="#000000" font-family="sans-serif" font-size="14" lengthAdjust="spacing" textLength="231" x="129.5" y="1215.1548">run_args: domain.ProcedureInput</text><line style="stroke:#181818;stroke-width:0.5;" x1="124.5" x2="365.5" y1="1222.4565" y2="1222.4565"/></g><!--class StopProcessCommand--><g id="elem_StopProcessCommand"><rect codeLine="108" fill="#F1F1F1" height="80.5938" id="StopProcessCommand" rx="2.5" ry="2.5" style="stroke:#181818;stroke-width:0.5;" width="191" x="149.5" y="1291.5659"/><ellipse cx="164.5" cy="1307.5659" fill="#ADD1B2" rx="11" ry="11" style="stroke:#181818;stroke-width:1.0;"/><path d="M167.4688,1313.2065 Q166.8906,1313.5034 166.25,1313.644 Q165.6094,1313.8003 164.9063,1313.8003 Q162.4063,1313.8003 161.0781,1312.1597 Q159.7656,1310.5034 159.7656,1307.3784 Q159.7656,1304.2534 161.0781,1302.5972 Q162.4063,1300.9409 164.9063,1300.9409 Q165.6094,1300.9409 166.25,1301.0972 Q166.9063,1301.2534 167.4688,1301.5503 L167.4688,1304.269 Q166.8438,1303.6909 166.25,1303.4253 Q165.6563,1303.144 165.0313,1303.144 Q163.6875,1303.144 163,1304.2222 Q162.3125,1305.2847 162.3125,1307.3784 Q162.3125,1309.4722 163,1310.5503 Q163.6875,1311.6128 165.0313,1311.6128 Q165.6563,1311.6128 166.25,1311.3472 Q166.8438,1311.0659 167.4688,1310.4878 L167.4688,1313.2065 Z " fill="#000000"/><text fill="#000000" font-family="sans-serif" font-size="14" lengthAdjust="spacing" textLength="159" x="178.5" y="1312.4126">StopProcessCommand</text><line style="stroke:#181818;stroke-width:0.5;" x1="150.5" x2="339.5" y1="1323.5659" y2="1323.5659"/><text fill="#000000" font-family="sans-serif" font-size="14" lengthAdjust="spacing" textLength="110" x="155.5" y="1340.561">process_uid: int</text><text fill="#000000" font-family="sans-serif" font-size="14" lengthAdjust="spacing" textLength="105" x="155.5" y="1356.8579">run_abort: bool</text><line style="stroke:#181818;stroke-width:0.5;" x1="150.5" x2="339.5" y1="1364.1597" y2="1364.1597"/></g><path d="M1329,183.0659 L1399,183.0659 A3.75,3.75 0 0 1 1401.5,185.5659 L1408.5,205.3628 L1413,205.3628 A2.5,2.5 0 0 1 1415.5,207.8628 L1415.5,233.1597 A2.5,2.5 0 0 1 1413,235.6597 L1329,235.6597 A2.5,2.5 0 0 1 1326.5,233.1597 L1326.5,185.5659 A2.5,2.5 0 0 1 1329,183.0659 " fill="#F1F1F1" style="stroke:#181818;stroke-width:0.5;"/><line style="stroke:#181818;stroke-width:0.5;" x1="1326.5" x2="1408.5" y1="205.3628" y2="205.3628"/><text fill="#000000" font-family="sans-serif" font-size="14" lengthAdjust="spacing" textLength="69" x="1330.5" y="198.061">pypubsub</text><!--reverse link EventBusWorker to ScriptExecutionServiceWorker--><g id="link_EventBusWorker_ScriptExecutionServiceWorker"><path codeLine="43" d="M799.12,272.6159 C769.68,303.1259 734.46,339.6159 705.87,369.2459 " fill="none" id="EventBusWorker-backto-ScriptExecutionServiceWorker" style="stroke:#181818;stroke-width:1.0;"/><polygon fill="none" points="794.13,267.7059,813.06,258.1659,804.21,277.4259,794.13,267.7059" style="stroke:#181818;stroke-width:1.0;"/></g><!--reverse link EventBusWorker to FastAPIWorker--><g id="link_EventBusWorker_FastAPIWorker"><path codeLine="44" d="M863.11,278.3659 C865.68,320.7359 868.82,372.6559 870.6,401.9859 " fill="none" id="EventBusWorker-backto-FastAPIWorker" style="stroke:#181818;stroke-width:1.0;"/><polygon fill="none" points="856.11,278.5559,861.89,258.1659,870.08,277.7059,856.11,278.5559" style="stroke:#181818;stroke-width:1.0;"/></g><!--link EventBusWorker to mptools--><g id="link_EventBusWorker_mptools"><path codeLine="45" d="M932.69,209.5659 C948.5,209.5659 964.0575,209.5659 976.1263,209.5659 C979.1434,209.5659 981.9426,209.5659 984.4731,209.5659 C985.7384,209.5659 986.9365,209.5659 988.0611,209.5659 C988.6234,209.5659 989.1674,209.5659 989.6922,209.5659 C989.9546,209.5659 990.2122,209.5659 990.4649,209.5659 C990.5913,209.5659 990.7164,209.5659 990.8403,209.5659 " fill="none" id="EventBusWorker-mptools" style="stroke:#181818;stroke-width:1.0;stroke-dasharray:1.0,3.0;"/><text fill="#000000" font-family="sans-serif" font-size="13" lengthAdjust="spacing" textLength="30" x="950.57" y="202.6328">uses</text></g><!--link EventBusWorker to pypubsub--><g id="link_EventBusWorker_pypubsub"><path codeLine="46" d="M880.88,160.9559 C901.21,122.3259 935.52,71.0159 983,47.5659 C1040.38,19.2259 1215.11,16.3859 1271,47.5659 C1322.95,76.5559 1351.29,144.8659 1363.53,182.8759 " fill="none" id="EventBusWorker-pypubsub" style="stroke:#181818;stroke-width:1.0;stroke-dasharray:1.0,3.0;"/><text fill="#000000" font-family="sans-serif" font-size="13" lengthAdjust="spacing" textLength="30" x="1114" y="19.6328">uses</text></g><!--reverse link app to ServerSentEventsBlueprint--><g id="link_app_ServerSentEventsBlueprint"><path codeLine="55" d="M1143.93,654.9959 C1148.53,702.4059 1156.01,779.3759 1159.74,817.7559 " fill="none" id="app-backto-ServerSentEventsBlueprint" style="stroke:#181818;stroke-width:1.0;"/><polygon fill="none" points="1142.65,641.8859,1139.2488,648.2445,1143.8101,653.8297,1147.2113,647.4711,1142.65,641.8859" style="stroke:#181818;stroke-width:1.0;"/></g><!--reverse link app to ProcedureAPI--><g id="link_app_ProcedureAPI"><path codeLine="63" d="M1079.44,648.6459 C1064.85,658.0959 1049.8,668.9859 1037,680.5659 C989.84,723.2459 946.54,784.7159 924.76,817.8259 " fill="none" id="app-backto-ProcedureAPI" style="stroke:#181818;stroke-width:1.0;"/><polygon fill="none" points="1090.46,641.6959,1083.2513,641.5091,1080.3063,648.0914,1087.515,648.2782,1090.46,641.6959" style="stroke:#181818;stroke-width:1.0;"/></g><!--link ProcedureSummary to ProcedureHistory--><g id="link_ProcedureSummary_ProcedureHistory"><path codeLine="94" d="M530.9,1072.5859 C536.48,1093.4059 542.75,1116.7759 548.04,1136.4759 " fill="none" id="ProcedureSummary-to-ProcedureHistory" style="stroke:#181818;stroke-width:1.0;"/><polygon fill="#181818" points="549.36,1141.3959,550.8827,1131.6655,548.0601,1136.5678,543.1578,1133.7453,549.36,1141.3959" style="stroke:#181818;stroke-width:1.0;"/></g><!--link PrepareProcessCommand to StartProcessCommand--><!--link StartProcessCommand to StopProcessCommand--><!--reverse link FastAPIWorker to app--><g id="link_FastAPIWorker_app"><path codeLine="116" d="M916.17,457.6359 C967.62,493.2459 1051.81,551.5259 1100.96,585.5459 " fill="none" id="FastAPIWorker-backto-app" style="stroke:#181818;stroke-width:1.0;"/><polygon fill="#181818" points="905.4,450.1859,908.0554,456.8903,915.2654,457.0178,912.61,450.3134,905.4,450.1859" style="stroke:#181818;stroke-width:1.0;"/></g><!--link ScriptExecutionServiceWorker to ScriptExecutionService--><g id="link_ScriptExecutionServiceWorker_ScriptExecutionService"><path codeLine="117" d="M604.26,482.8959 C537.7,560.7459 417.51,701.2959 349.17,781.2259 " fill="none" id="ScriptExecutionServiceWorker-to-ScriptExecutionService" style="stroke:#181818;stroke-width:1.0;"/><polygon fill="#181818" points="345.55,785.4559,354.4441,781.2258,348.804,781.6596,348.3701,776.0194,345.55,785.4559" style="stroke:#181818;stroke-width:1.0;"/></g><!--link ScriptExecutionService to ProcedureSummary--><!--link ScriptExecutionService to PrepareProcessCommand--><!--link PrepareProcessCommand to ProcedureSummary--><!--SRC=[hLTjQniv4FxkNo7y9KcvTUZNK09DQRd0SGqrfHz2MEJTiQtBhYJqabx8-Rztf7sLLckdlHfZUwL7esVccHd9PtjZfBwwl9GLvSRMrQeGzMLHKQspaj6TelLY8MdnI7T0z2FDXHQv09CN5GDkoCk2uAi3AD2cdNZtxWiKXl9T1TVNBSozl6do1O4VFF3hxMZI0nHG0-UhrUeY6DU6AfCQ5d8wMZ6Tm9QW2yKsaCO33ySFY-Rpa0m0iWvShwKHejApVdDXW53TuNBtt4-k0OZP0raZFMa-_Wk5DKpmDQWdLWom9mRVoLOeKWi5X77yMLC798Bt86TdkMotMIuHMzeAj-ObOKOFEWYE7XkzwaS04JshG-GTPVo4f6dktuHw11L9B1L8gdw_nYtfWTCdgitxkzk6H3pvyGdzlx4wIT4vd5SYjQ-VsbfUJAVGBxj1NljPNaUZb5cP_NST4UkN1iwSm4Q-POhjzkQ-5CP0-P1rINX5h0RzsaNo6PtJTZDQ5MM9PIToX4g921SxdxKAZ5MSFD7AXkY9a2vEeDR8pvFKDxX2AiRD07IsHPOTWIOOIoKAA2rMqyjWQUGE5cmFoO-uDp2zw-0eLTHAnYm3s6HdH5MiQ4extZBOi-igVxyDXiD-GlfqQvj1WEsRIjXFYDZyW_lg0BjLecuRJ2bS7M1_kNis-xHbiwU6O9sJFLIbOzb420CgGHa6eMsn9LhKuBxT3XuB6bcvnm2vN8xYWmpQgAq2KD_D4XgbYp2ISzoeYhgyGidyWrTEwm-Yhh6dNf3iUX1pRN5GFK_iD7tDMrcxdxzc0vjHQqB8X8M_i1_UnsOUfdRy1DDmBbc9BS0lm_9u68oSi79O7ClxTaaYcWovTtKOCF9oN94cfLQDBdHJGQFJ33wdQeVqiT6cmcsWjpSmSyC_uScV60kHzEHbop2b3qrlq3ht6tQnF0yt_8COLiF5GufbyMWKBP3gP-aIaLRtsgWusEEdIPIpSUgqX4EdZDW1Lf2QwLQ9d4uu_BCICSuwWM8LRhcqvhGAYJf95cWZW9tBhItFEQqnmXZOoQIo_F-IZ2lnLpXw6XkXCBuRF9QFo1ydGqgyx7xFoX8udjY968R7H2B6mVBOkyI15jvAtk3HXitvbTSTpDqZDrwCEBxxktTt_S08u_2Plv5cfVZEUy9eRdGmBCxSln7jRmCags1hPe7HpIesEjXPp9mSuP9fBt_jieIUYncLcylP_9O_0000]--></g></svg>