<?xml version="1.0" encoding="UTF-8" standalone="no"?><svg xmlns="http://www.w3.org/2000/svg" xmlns:xlink="http://www.w3.org/1999/xlink" contentStyleType="text/css" height="670px" preserveAspectRatio="none" style="width:551px;height:670px;background:#FFFFFF;" version="1.1" viewBox="0 0 551 670" width="551px" zoomAndPan="magnify"><defs/><g><!--cluster ska_oso_oet_client--><g id="cluster_ska_oso_oet_client"><path d="M8.5,6 L155.5,6 A3.75,3.75 0 0 1 158,8.5 L165,28.2969 L199.5,28.2969 A2.5,2.5 0 0 1 202,30.7969 L202,169.5 A2.5,2.5 0 0 1 199.5,172 L8.5,172 A2.5,2.5 0 0 1 6,169.5 L6,8.5 A2.5,2.5 0 0 1 8.5,6 " fill="none" style="stroke:#000000;stroke-width:1.5;"/><line style="stroke:#000000;stroke-width:1.5;" x1="6" x2="165" y1="28.2969" y2="28.2969"/><text fill="#000000" font-family="sans-serif" font-size="14" font-weight="bold" lengthAdjust="spacing" textLength="146" x="10" y="20.9951">ska_oso_oet_client</text></g><!--cluster restclient--><g id="cluster_restclient"><rect fill="none" height="99" rx="2.5" ry="2.5" style="stroke:#181818;stroke-width:1.0;" width="148" x="30" y="49"/><text fill="#000000" font-family="sans-serif" font-size="14" font-weight="bold" lengthAdjust="spacing" textLength="75" x="66.5" y="63.9951">restclient</text></g><!--cluster ska_oso_oet--><g id="cluster_ska_oso_oet"><path d="M228.5,6 L325.5,6 A3.75,3.75 0 0 1 328,8.5 L335,28.2969 L541.5,28.2969 A2.5,2.5 0 0 1 544,30.7969 L544,660.5 A2.5,2.5 0 0 1 541.5,663 L228.5,663 A2.5,2.5 0 0 1 226,660.5 L226,8.5 A2.5,2.5 0 0 1 228.5,6 " fill="none" style="stroke:#000000;stroke-width:1.5;"/><line style="stroke:#000000;stroke-width:1.5;" x1="226" x2="335" y1="28.2969" y2="28.2969"/><text fill="#000000" font-family="sans-serif" font-size="14" font-weight="bold" lengthAdjust="spacing" textLength="96" x="230" y="20.9951">ska_oso_oet</text></g><!--cluster main--><g id="cluster_main"><rect fill="none" height="345" rx="2.5" ry="2.5" style="stroke:#181818;stroke-width:1.0;" width="270" x="250" y="49"/><text fill="#000000" font-family="sans-serif" font-size="14" font-weight="bold" lengthAdjust="spacing" textLength="37" x="366.5" y="63.9951">main</text></g><!--cluster procedure--><g id="cluster_procedure"><path d="M252.5,473 L336.5,473 A3.75,3.75 0 0 1 339,475.5 L346,495.2969 L517.5,495.2969 A2.5,2.5 0 0 1 520,497.7969 L520,636.5 A2.5,2.5 0 0 1 517.5,639 L252.5,639 A2.5,2.5 0 0 1 250,636.5 L250,475.5 A2.5,2.5 0 0 1 252.5,473 " fill="none" style="stroke:#000000;stroke-width:1.5;"/><line style="stroke:#000000;stroke-width:1.5;" x1="250" x2="346" y1="495.2969" y2="495.2969"/><text fill="#000000" font-family="sans-serif" font-size="14" font-weight="bold" lengthAdjust="spacing" textLength="83" x="254" y="487.9951">procedure</text></g><!--cluster application--><g id="cluster_application"><rect fill="none" height="99" rx="2.5" ry="2.5" style="stroke:#181818;stroke-width:1.0;" width="222" x="274" y="516"/><text fill="#000000" font-family="sans-serif" font-size="14" font-weight="bold" lengthAdjust="spacing" textLength="85" x="342.5" y="530.9951">application</text></g><!--class RestClientUI--><g id="elem_RestClientUI"><rect codeLine="5" fill="#F1F1F1" height="48" id="RestClientUI" rx="2.5" ry="2.5" style="stroke:#181818;stroke-width:0.5;" width="116" x="46" y="84"/><ellipse cx="61" cy="100" fill="#ADD1B2" rx="11" ry="11" style="stroke:#181818;stroke-width:1.0;"/><path d="M63.9688,105.6406 Q63.3906,105.9375 62.75,106.0781 Q62.1094,106.2344 61.4063,106.2344 Q58.9063,106.2344 57.5781,104.5938 Q56.2656,102.9375 56.2656,99.8125 Q56.2656,96.6875 57.5781,95.0313 Q58.9063,93.375 61.4063,93.375 Q62.1094,93.375 62.75,93.5313 Q63.4063,93.6875 63.9688,93.9844 L63.9688,96.7031 Q63.3438,96.125 62.75,95.8594 Q62.1563,95.5781 61.5313,95.5781 Q60.1875,95.5781 59.5,96.6563 Q58.8125,97.7188 58.8125,99.8125 Q58.8125,101.9063 59.5,102.9844 Q60.1875,104.0469 61.5313,104.0469 Q62.1563,104.0469 62.75,103.7813 Q63.3438,103.5 63.9688,102.9219 L63.9688,105.6406 Z " fill="#000000"/><text fill="#000000" font-family="sans-serif" font-size="14" lengthAdjust="spacing" textLength="84" x="75" y="104.8467">RestClientUI</text><line style="stroke:#181818;stroke-width:0.5;" x1="47" x2="161" y1="116" y2="116"/><line style="stroke:#181818;stroke-width:0.5;" x1="47" x2="161" y1="124" y2="124"/></g><!--class ScriptExecutionServiceWorker--><g id="elem_ScriptExecutionServiceWorker"><rect codeLine="12" fill="#F1F1F1" height="113.1875" id="ScriptExecutionServiceWorker" rx="2.5" ry="2.5" style="stroke:#181818;stroke-width:0.5;" width="238" x="266" y="265"/><ellipse cx="281" cy="281" fill="#ADD1B2" rx="11" ry="11" style="stroke:#181818;stroke-width:1.0;"/><path d="M283.9688,286.6406 Q283.3906,286.9375 282.75,287.0781 Q282.1094,287.2344 281.4063,287.2344 Q278.9063,287.2344 277.5781,285.5938 Q276.2656,283.9375 276.2656,280.8125 Q276.2656,277.6875 277.5781,276.0313 Q278.9063,274.375 281.4063,274.375 Q282.1094,274.375 282.75,274.5313 Q283.4063,274.6875 283.9688,274.9844 L283.9688,277.7031 Q283.3438,277.125 282.75,276.8594 Q282.1563,276.5781 281.5313,276.5781 Q280.1875,276.5781 279.5,277.6563 Q278.8125,278.7188 278.8125,280.8125 Q278.8125,282.9063 279.5,283.9844 Q280.1875,285.0469 281.5313,285.0469 Q282.1563,285.0469 282.75,284.7813 Q283.3438,284.5 283.9688,283.9219 L283.9688,286.6406 Z " fill="#000000"/><text fill="#000000" font-family="sans-serif" font-size="14" lengthAdjust="spacing" textLength="206" x="295" y="285.8467">ScriptExecutionServiceWorker</text><line style="stroke:#181818;stroke-width:0.5;" x1="267" x2="503" y1="297" y2="297"/><line style="stroke:#181818;stroke-width:0.5;" x1="267" x2="503" y1="305" y2="305"/><text fill="#000000" font-family="sans-serif" font-size="14" lengthAdjust="spacing" textLength="76" x="272" y="321.9951">prepare(...)</text><text fill="#000000" font-family="sans-serif" font-size="14" lengthAdjust="spacing" textLength="53" x="272" y="338.292">start(...)</text><text fill="#000000" font-family="sans-serif" font-size="14" lengthAdjust="spacing" textLength="53" x="272" y="354.5889">stop(...)</text><text fill="#000000" font-family="sans-serif" font-size="14" lengthAdjust="spacing" textLength="41" x="272" y="370.8857">list(...)</text></g><!--class FlaskWorker--><g id="elem_FlaskWorker"><rect codeLine="19" fill="#F1F1F1" height="48" id="FlaskWorker" rx="2.5" ry="2.5" style="stroke:#181818;stroke-width:0.5;" width="116" x="325" y="84"/><ellipse cx="340" cy="100" fill="#ADD1B2" rx="11" ry="11" style="stroke:#181818;stroke-width:1.0;"/><path d="M342.9688,105.6406 Q342.3906,105.9375 341.75,106.0781 Q341.1094,106.2344 340.4063,106.2344 Q337.9063,106.2344 336.5781,104.5938 Q335.2656,102.9375 335.2656,99.8125 Q335.2656,96.6875 336.5781,95.0313 Q337.9063,93.375 340.4063,93.375 Q341.1094,93.375 341.75,93.5313 Q342.4063,93.6875 342.9688,93.9844 L342.9688,96.7031 Q342.3438,96.125 341.75,95.8594 Q341.1563,95.5781 340.5313,95.5781 Q339.1875,95.5781 338.5,96.6563 Q337.8125,97.7188 337.8125,99.8125 Q337.8125,101.9063 338.5,102.9844 Q339.1875,104.0469 340.5313,104.0469 Q341.1563,104.0469 341.75,103.7813 Q342.3438,103.5 342.9688,102.9219 L342.9688,105.6406 Z " fill="#000000"/><text fill="#000000" font-family="sans-serif" font-size="14" lengthAdjust="spacing" textLength="84" x="354" y="104.8467">FlaskWorker</text><line style="stroke:#181818;stroke-width:0.5;" x1="326" x2="440" y1="116" y2="116"/><line style="stroke:#181818;stroke-width:0.5;" x1="326" x2="440" y1="124" y2="124"/></g><!--class ScriptExecutionService--><g id="elem_ScriptExecutionService"><rect codeLine="25" fill="#F1F1F1" height="48" id="ScriptExecutionService" rx="2.5" ry="2.5" style="stroke:#181818;stroke-width:0.5;" width="189" x="290.5" y="551"/><ellipse cx="305.5" cy="567" fill="#ADD1B2" rx="11" ry="11" style="stroke:#181818;stroke-width:1.0;"/><path d="M308.4688,572.6406 Q307.8906,572.9375 307.25,573.0781 Q306.6094,573.2344 305.9063,573.2344 Q303.4063,573.2344 302.0781,571.5938 Q300.7656,569.9375 300.7656,566.8125 Q300.7656,563.6875 302.0781,562.0313 Q303.4063,560.375 305.9063,560.375 Q306.6094,560.375 307.25,560.5313 Q307.9063,560.6875 308.4688,560.9844 L308.4688,563.7031 Q307.8438,563.125 307.25,562.8594 Q306.6563,562.5781 306.0313,562.5781 Q304.6875,562.5781 304,563.6563 Q303.3125,564.7188 303.3125,566.8125 Q303.3125,568.9063 304,569.9844 Q304.6875,571.0469 306.0313,571.0469 Q306.6563,571.0469 307.25,570.7813 Q307.8438,570.5 308.4688,569.9219 L308.4688,572.6406 Z " fill="#000000"/><text fill="#000000" font-family="sans-serif" font-size="14" lengthAdjust="spacing" textLength="157" x="319.5" y="571.8467">ScriptExecutionService</text><line style="stroke:#181818;stroke-width:0.5;" x1="291.5" x2="478.5" y1="583" y2="583"/><line style="stroke:#181818;stroke-width:0.5;" x1="291.5" x2="478.5" y1="591" y2="591"/></g><!--link RestClientUI to FlaskWorker--><g id="link_RestClientUI_FlaskWorker"><path codeLine="31" d="M162.15,108 C209.9,108 277.2,108 324.93,108 " fill="none" id="RestClientUI-FlaskWorker" style="stroke:#181818;stroke-width:1.0;"/><text fill="#000000" font-family="sans-serif" font-size="13" lengthAdjust="spacing" textLength="125" x="181" y="86.0669">Sends user request</text><polygon fill="#000000" points="245,96.6992,235.9549,93.7603,235.9549,99.6381,245,96.6992" style="stroke:#000000;stroke-width:1.0;"/><text fill="#000000" font-family="sans-serif" font-size="13" lengthAdjust="spacing" textLength="4" x="248" y="101.1997"> </text></g><!--link FlaskWorker to ScriptExecutionServiceWorker--><g id="link_FlaskWorker_ScriptExecutionServiceWorker"><path codeLine="32" d="M383.22,132.04 C383.52,163.62 384.06,221.37 384.47,264.66 " fill="none" id="FlaskWorker-ScriptExecutionServiceWorker" style="stroke:#181818;stroke-width:1.0;"/><text fill="#000000" font-family="sans-serif" font-size="13" lengthAdjust="spacing" textLength="38" x="390.5" y="201.0669">relays</text><text fill="#000000" font-family="sans-serif" font-size="13" lengthAdjust="spacing" textLength="49" x="385" y="216.1997">request</text><polygon fill="#000000" points="406.0471,231.8318,408.9007,222.7594,403.0231,222.8148,406.0471,231.8318" style="stroke:#000000;stroke-width:1.0;"/><text fill="#000000" font-family="sans-serif" font-size="13" lengthAdjust="spacing" textLength="4" x="414" y="231.3325"> </text></g><!--link ScriptExecutionServiceWorker to ScriptExecutionService--><g id="link_ScriptExecutionServiceWorker_ScriptExecutionService"><path codeLine="33" d="M385,378 C385,432.11 385,511.75 385,550.75 " fill="none" id="ScriptExecutionServiceWorker-ScriptExecutionService" style="stroke:#181818;stroke-width:1.0;"/><text fill="#000000" font-family="sans-serif" font-size="13" lengthAdjust="spacing" textLength="48" x="398" y="423.0669">invokes</text><text fill="#000000" font-family="sans-serif" font-size="13" lengthAdjust="spacing" textLength="72" x="386" y="438.1997">commands</text><polygon fill="#000000" points="418.5,453.832,421.4389,444.7869,415.5611,444.7869,418.5,453.832" style="stroke:#000000;stroke-width:1.0;"/><text fill="#000000" font-family="sans-serif" font-size="13" lengthAdjust="spacing" textLength="4" x="426.5" y="453.3325"> </text></g><!--SRC=[XP9DQyGW48Rl-HNUsXwItCEIIscXrmsbbuKmc26L6BMZMLfA_djdxGRoiHyU59rdtfbNVVWCmVaYpvq64uPUPzBskTJWVTeeQ0dw974WEsXH-0vgwsrjCTHIApH1_2Q2nmGG-d0Ex7Pxb05Cgx4ipzXfH6cnP_0vWkzli-2O_C_ZnPghOZqeSwTC9KcvyFADSWZAcWhfg2H-MEgGPd1K9NH0-9XbsTCYu0DGk7HitVPKAxzYsSgofrUUkqqBa_E5GqTMOZCGpi0f1ivf9U5aw-ebtBk85Jfkkudhuh7IXO52L6WQBmRF6yAlWT634MNCcuDfUlin2ixMyECFPgroC-sgB0igSxGTiYB_w1wuooZ9flu0]--></g></svg>