<?xml version="1.0" encoding="UTF-8" standalone="no"?><svg xmlns="http://www.w3.org/2000/svg" xmlns:xlink="http://www.w3.org/1999/xlink" contentStyleType="text/css" height="580px" preserveAspectRatio="none" style="width:501px;height:580px;background:#FFFFFF;" version="1.1" viewBox="0 0 501 580" width="501px" zoomAndPan="magnify"><defs/><g><!--MD5=[aca256e9a322ab67b7caf30bc3445c0f]
cluster ska_oso_oet.procedure.application--><g id="cluster_ska_oso_oet.procedure.application"><path d="M8.5,6 L254.5,6 A3.75,3.75 0 0 1 257,8.5 L264,28.4883 L491.5,28.4883 A2.5,2.5 0 0 1 494,30.9883 L494,570.5 A2.5,2.5 0 0 1 491.5,573 L8.5,573 A2.5,2.5 0 0 1 6,570.5 L6,8.5 A2.5,2.5 0 0 1 8.5,6 " style="stroke:#000000;stroke-width:1.5;fill:none;"/><line style="stroke:#000000;stroke-width:1.5;fill:none;" x1="6" x2="264" y1="28.4883" y2="28.4883"/><text fill="#000000" font-family="sans-serif" font-size="14" font-weight="bold" lengthAdjust="spacing" textLength="245" x="10" y="21.5352">ska_oso_oet.procedure.application</text></g><!--MD5=[c1d103f90895134f040fa18b35926cd5]
cluster restclient--><g id="cluster_restclient"><rect height="99" rx="2.5" ry="2.5" style="stroke:#181818;stroke-width:1.0;fill:none;" width="148" x="322" y="49"/><text fill="#000000" font-family="sans-serif" font-size="14" font-weight="bold" lengthAdjust="spacing" textLength="68" x="362" y="64.5352">restclient</text></g><!--MD5=[a70b0d373322012744ecc119c63f921b]
cluster main--><g id="cluster_main"><rect height="322" rx="2.5" ry="2.5" style="stroke:#181818;stroke-width:1.0;fill:none;" width="268" x="30" y="49"/><text fill="#000000" font-family="sans-serif" font-size="14" font-weight="bold" lengthAdjust="spacing" textLength="36" x="146" y="64.5352">main</text></g><!--MD5=[3ff016c1aa5003d713567a073e2181a6]
cluster application--><g id="cluster_application"><rect height="99" rx="2.5" ry="2.5" style="stroke:#181818;stroke-width:1.0;fill:none;" width="220" x="54" y="450"/><text fill="#000000" font-family="sans-serif" font-size="14" font-weight="bold" lengthAdjust="spacing" textLength="80" x="124" y="465.5352">application</text></g><!--MD5=[9d427ac4c893214c110f9de4912e3cde]
class RestClientUI--><g id="elem_RestClientUI"><rect codeLine="6" fill="#F1F1F1" height="48" id="RestClientUI" rx="2.5" ry="2.5" style="stroke:#181818;stroke-width:0.5;" width="115" x="338.5" y="84"/><ellipse cx="353.5" cy="100" fill="#ADD1B2" rx="11" ry="11" style="stroke:#181818;stroke-width:1.0;"/><path d="M355.9731,106.1431 Q355.3921,106.4419 354.7529,106.5913 Q354.1138,106.7407 353.4082,106.7407 Q350.9014,106.7407 349.5815,105.0889 Q348.2617,103.437 348.2617,100.3159 Q348.2617,97.1865 349.5815,95.5347 Q350.9014,93.8828 353.4082,93.8828 Q354.1138,93.8828 354.7612,94.0322 Q355.4087,94.1816 355.9731,94.4805 L355.9731,97.2031 Q355.3423,96.6221 354.7488,96.3523 Q354.1553,96.0825 353.5244,96.0825 Q352.1797,96.0825 351.4949,97.1492 Q350.8101,98.2158 350.8101,100.3159 Q350.8101,102.4077 351.4949,103.4744 Q352.1797,104.541 353.5244,104.541 Q354.1553,104.541 354.7488,104.2712 Q355.3423,104.0015 355.9731,103.4204 Z " fill="#000000"/><text fill="#000000" font-family="sans-serif" font-size="14" lengthAdjust="spacing" textLength="83" x="367.5" y="105.291">RestClientUI</text><line style="stroke:#181818;stroke-width:0.5;" x1="339.5" x2="452.5" y1="116" y2="116"/><line style="stroke:#181818;stroke-width:0.5;" x1="339.5" x2="452.5" y1="124" y2="124"/></g><!--MD5=[33f72e11af6101778dcafb71668d1add]
class ScriptExecutionServiceWorker--><g id="elem_ScriptExecutionServiceWorker"><rect codeLine="11" fill="#F1F1F1" height="113.9531" id="ScriptExecutionServiceWorker" rx="2.5" ry="2.5" style="stroke:#181818;stroke-width:0.5;" width="236" x="46" y="241"/><ellipse cx="61" cy="257" fill="#ADD1B2" rx="11" ry="11" style="stroke:#181818;stroke-width:1.0;"/><path d="M63.4731,263.1431 Q62.8921,263.4419 62.2529,263.5913 Q61.6138,263.7407 60.9082,263.7407 Q58.4014,263.7407 57.0815,262.0889 Q55.7617,260.437 55.7617,257.3159 Q55.7617,254.1865 57.0815,252.5347 Q58.4014,250.8828 60.9082,250.8828 Q61.6138,250.8828 62.2612,251.0322 Q62.9087,251.1816 63.4731,251.4805 L63.4731,254.2031 Q62.8423,253.6221 62.2488,253.3523 Q61.6553,253.0825 61.0244,253.0825 Q59.6797,253.0825 58.9949,254.1492 Q58.3101,255.2158 58.3101,257.3159 Q58.3101,259.4077 58.9949,260.4744 Q59.6797,261.541 61.0244,261.541 Q61.6553,261.541 62.2488,261.2712 Q62.8423,261.0015 63.4731,260.4204 Z " fill="#000000"/><text fill="#000000" font-family="sans-serif" font-size="14" lengthAdjust="spacing" textLength="204" x="75" y="262.291">ScriptExecutionServiceWorker</text><line style="stroke:#181818;stroke-width:0.5;" x1="47" x2="281" y1="273" y2="273"/><line style="stroke:#181818;stroke-width:0.5;" x1="47" x2="281" y1="281" y2="281"/><text fill="#000000" font-family="sans-serif" font-size="14" lengthAdjust="spacing" textLength="76" x="52" y="298.5352">prepare(...)</text><text fill="#000000" font-family="sans-serif" font-size="14" lengthAdjust="spacing" textLength="53" x="52" y="315.0234">start(...)</text><text fill="#000000" font-family="sans-serif" font-size="14" lengthAdjust="spacing" textLength="52" x="52" y="331.5117">stop(...)</text><text fill="#000000" font-family="sans-serif" font-size="14" lengthAdjust="spacing" textLength="42" x="52" y="348">list(...)</text></g><!--MD5=[17238aaf72f47361d520c29dfe37cd7f]
class FlaskWorker--><g id="elem_FlaskWorker"><rect codeLine="18" fill="#F1F1F1" height="48" id="FlaskWorker" rx="2.5" ry="2.5" style="stroke:#181818;stroke-width:0.5;" width="116" x="67" y="84"/><ellipse cx="82" cy="100" fill="#ADD1B2" rx="11" ry="11" style="stroke:#181818;stroke-width:1.0;"/><path d="M84.4731,106.1431 Q83.8921,106.4419 83.2529,106.5913 Q82.6138,106.7407 81.9082,106.7407 Q79.4014,106.7407 78.0815,105.0889 Q76.7617,103.437 76.7617,100.3159 Q76.7617,97.1865 78.0815,95.5347 Q79.4014,93.8828 81.9082,93.8828 Q82.6138,93.8828 83.2612,94.0322 Q83.9087,94.1816 84.4731,94.4805 L84.4731,97.2031 Q83.8423,96.6221 83.2488,96.3523 Q82.6553,96.0825 82.0244,96.0825 Q80.6797,96.0825 79.9949,97.1492 Q79.3101,98.2158 79.3101,100.3159 Q79.3101,102.4077 79.9949,103.4744 Q80.6797,104.541 82.0244,104.541 Q82.6553,104.541 83.2488,104.2712 Q83.8423,104.0015 84.4731,103.4204 Z " fill="#000000"/><text fill="#000000" font-family="sans-serif" font-size="14" lengthAdjust="spacing" textLength="84" x="96" y="105.291">FlaskWorker</text><line style="stroke:#181818;stroke-width:0.5;" x1="68" x2="182" y1="116" y2="116"/><line style="stroke:#181818;stroke-width:0.5;" x1="68" x2="182" y1="124" y2="124"/></g><!--MD5=[4048a361f681e6f68b2b7284d5ce3ea6]
class ScriptExecutionService--><g id="elem_ScriptExecutionService"><rect codeLine="23" fill="#F1F1F1" height="48" id="ScriptExecutionService" rx="2.5" ry="2.5" style="stroke:#181818;stroke-width:0.5;" width="187" x="70.5" y="485"/><ellipse cx="85.5" cy="501" fill="#ADD1B2" rx="11" ry="11" style="stroke:#181818;stroke-width:1.0;"/><path d="M87.9731,507.1431 Q87.3921,507.4419 86.7529,507.5913 Q86.1138,507.7407 85.4082,507.7407 Q82.9014,507.7407 81.5815,506.0889 Q80.2617,504.437 80.2617,501.3159 Q80.2617,498.1865 81.5815,496.5347 Q82.9014,494.8828 85.4082,494.8828 Q86.1138,494.8828 86.7612,495.0322 Q87.4087,495.1816 87.9731,495.4805 L87.9731,498.2031 Q87.3423,497.6221 86.7488,497.3523 Q86.1553,497.0825 85.5244,497.0825 Q84.1797,497.0825 83.4949,498.1492 Q82.8101,499.2158 82.8101,501.3159 Q82.8101,503.4077 83.4949,504.4744 Q84.1797,505.541 85.5244,505.541 Q86.1553,505.541 86.7488,505.2712 Q87.3423,505.0015 87.9731,504.4204 Z " fill="#000000"/><text fill="#000000" font-family="sans-serif" font-size="14" lengthAdjust="spacing" textLength="155" x="99.5" y="506.291">ScriptExecutionService</text><line style="stroke:#181818;stroke-width:0.5;" x1="71.5" x2="256.5" y1="517" y2="517"/><line style="stroke:#181818;stroke-width:0.5;" x1="71.5" x2="256.5" y1="525" y2="525"/></g><!--MD5=[f76a403b8d0d3eb90e056eb1b7f926e7]
link RestClientUI to FlaskWorker--><g id="link_RestClientUI_FlaskWorker"><path codeLine="29" d="M338.43,108 C292.69,108 229.02,108 183.14,108 " fill="none" id="RestClientUI-FlaskWorker" style="stroke:#181818;stroke-width:1.0;"/><text fill="#000000" font-family="sans-serif" font-size="13" lengthAdjust="spacing" textLength="119" x="201.25" y="86.5684">Sends user request</text><polygon fill="#000000" points="252.25,96.9658,261.2951,99.9047,261.2951,94.0269,252.25,96.9658" style="stroke:#000000;stroke-width:1.0;"/><text fill="#000000" font-family="sans-serif" font-size="13" lengthAdjust="spacing" textLength="4" x="265.25" y="101.8789"> </text></g><!--MD5=[6399b6d60bcae659e3ad728cd7e966e5]
link FlaskWorker to ScriptExecutionServiceWorker--><g id="link_FlaskWorker_ScriptExecutionServiceWorker"><path codeLine="30" d="M129.78,132.05 C135.36,158.92 144.76,204.27 152.31,240.63 " fill="none" id="FlaskWorker-ScriptExecutionServiceWorker" style="stroke:#181818;stroke-width:1.0;"/><text fill="#000000" font-family="sans-serif" font-size="13" lengthAdjust="spacing" textLength="37" x="151" y="177.5684">relays</text><text fill="#000000" font-family="sans-serif" font-size="13" lengthAdjust="spacing" textLength="47" x="146" y="192.8789">request</text><polygon fill="#000000" points="167.0158,208.1721,168.0558,198.7185,162.3005,199.9127,167.0158,208.1721" style="stroke:#000000;stroke-width:1.0;"/><text fill="#000000" font-family="sans-serif" font-size="13" lengthAdjust="spacing" textLength="4" x="174" y="208.1895"> </text></g><!--MD5=[640230681217722b70e4344c1111c0bc]
link ScriptExecutionServiceWorker to ScriptExecutionService--><g id="link_ScriptExecutionServiceWorker_ScriptExecutionService"><path codeLine="31" d="M164,355.01 C164,397.57 164,453.92 164,484.99 " fill="none" id="ScriptExecutionServiceWorker-ScriptExecutionService" style="stroke:#181818;stroke-width:1.0;"/><text fill="#000000" font-family="sans-serif" font-size="13" lengthAdjust="spacing" textLength="49" x="175" y="400.5684">invokes</text><text fill="#000000" font-family="sans-serif" font-size="13" lengthAdjust="spacing" textLength="69" x="165" y="415.8789">commands</text><polygon fill="#000000" points="196,431.2764,198.9389,422.2313,193.0611,422.2313,196,431.2764" style="stroke:#000000;stroke-width:1.0;"/><text fill="#000000" font-family="sans-serif" font-size="13" lengthAdjust="spacing" textLength="4" x="204" y="431.1895"> </text></g><!--MD5=[fbf04f1fb43d3e5d179dd777b2d123b2]
@startuml
'https://plantuml.com/class-diagram

package ska_oso_oet.procedure.application {

    package restclient <<Rectangle>> {
        class RestClientUI {
        }
    }

    package main <<Rectangle>> {
        class ScriptExecutionServiceWorker {
            prepare(...)
            start(...)
            stop(...)
            list(...)
        }

        class FlaskWorker {
        }
    }

    package application <<Rectangle>> {
        class ScriptExecutionService {
        }

    }


    RestClientUI - FlaskWorker : Sends user request\n >
    FlaskWorker - - ScriptExecutionServiceWorker : relays\nrequest\n >
    ScriptExecutionServiceWorker - - ScriptExecutionService : invokes\ncommands\n >
}


@enduml

@startuml

package ska_oso_oet.procedure.application {

    package restclient <<Rectangle>> {
        class RestClientUI {
        }
    }

    package main <<Rectangle>> {
        class ScriptExecutionServiceWorker {
            prepare(...)
            start(...)
            stop(...)
            list(...)
        }

        class FlaskWorker {
        }
    }

    package application <<Rectangle>> {
        class ScriptExecutionService {
        }

    }


    RestClientUI - FlaskWorker : Sends user request\n >
    FlaskWorker - - ScriptExecutionServiceWorker : relays\nrequest\n >
    ScriptExecutionServiceWorker - - ScriptExecutionService : invokes\ncommands\n >
}


@enduml

PlantUML version 1.2022.6(Tue Jun 21 18:34:49 BST 2022)
(GPL source distribution)
Java Runtime: OpenJDK Runtime Environment
JVM: OpenJDK 64-Bit Server VM
Default Encoding: UTF-8
Language: en
Country: GB
--></g></svg>