<?xml version="1.0" encoding="UTF-8" standalone="no"?><svg xmlns="http://www.w3.org/2000/svg" xmlns:xlink="http://www.w3.org/1999/xlink" contentStyleType="text/css" height="1812px" preserveAspectRatio="none" style="width:1325px;height:1812px;background:#FFFFFF;" version="1.1" viewBox="0 0 1325 1812" width="1325px" zoomAndPan="magnify"><defs/><g><!--cluster ska_oso_oet_client--><g id="cluster_ska_oso_oet_client"><path d="M1124.5,6 L1271.5,6 A3.75,3.75 0 0 1 1274,8.5 L1281,28.2969 L1315.5,28.2969 A2.5,2.5 0 0 1 1318,30.7969 L1318,267.5 A2.5,2.5 0 0 1 1315.5,270 L1124.5,270 A2.5,2.5 0 0 1 1122,267.5 L1122,8.5 A2.5,2.5 0 0 1 1124.5,6 " fill="none" style="stroke:#000000;stroke-width:1.5;"/><line style="stroke:#000000;stroke-width:1.5;" x1="1122" x2="1281" y1="28.2969" y2="28.2969"/><text fill="#000000" font-family="sans-serif" font-size="14" font-weight="bold" lengthAdjust="spacing" textLength="146" x="1126" y="20.9951">ska_oso_oet_client</text></g><!--cluster restclient--><g id="cluster_restclient"><rect fill="none" height="197" rx="2.5" ry="2.5" style="stroke:#181818;stroke-width:1.0;" width="148" x="1146" y="49"/><text fill="#000000" font-family="sans-serif" font-size="14" font-weight="bold" lengthAdjust="spacing" textLength="75" x="1182.5" y="63.9951">restclient</text></g><!--cluster ska_oso_oet--><g id="cluster_ska_oso_oet"><path d="M8.5,30.5 L105.5,30.5 A3.75,3.75 0 0 1 108,33 L115,52.7969 L1095.5,52.7969 A2.5,2.5 0 0 1 1098,55.2969 L1098,1802.5 A2.5,2.5 0 0 1 1095.5,1805 L8.5,1805 A2.5,2.5 0 0 1 6,1802.5 L6,33 A2.5,2.5 0 0 1 8.5,30.5 " fill="none" style="stroke:#000000;stroke-width:1.5;"/><line style="stroke:#000000;stroke-width:1.5;" x1="6" x2="115" y1="52.7969" y2="52.7969"/><text fill="#000000" font-family="sans-serif" font-size="14" font-weight="bold" lengthAdjust="spacing" textLength="96" x="10" y="45.4951">ska_oso_oet</text></g><!--cluster main--><g id="cluster_main"><rect fill="none" height="410.5" rx="2.5" ry="2.5" style="stroke:#181818;stroke-width:1.0;" width="437" x="568" y="73.5"/><text fill="#000000" font-family="sans-serif" font-size="14" font-weight="bold" lengthAdjust="spacing" textLength="37" x="768" y="88.4951">main</text></g><!--cluster ui--><g id="cluster_ui"><rect fill="none" height="107" rx="2.5" ry="2.5" style="stroke:#181818;stroke-width:1.0;" width="206" x="852" y="508"/><text fill="#000000" font-family="sans-serif" font-size="14" font-weight="bold" lengthAdjust="spacing" textLength="14" x="948" y="522.9951">ui</text></g><!--cluster procedure--><g id="cluster_procedure"><path d="M32.5,639 L116.5,639 A3.75,3.75 0 0 1 119,641.5 L126,661.2969 L1071.5,661.2969 A2.5,2.5 0 0 1 1074,663.7969 L1074,1778.5 A2.5,2.5 0 0 1 1071.5,1781 L32.5,1781 A2.5,2.5 0 0 1 30,1778.5 L30,641.5 A2.5,2.5 0 0 1 32.5,639 " fill="none" style="stroke:#000000;stroke-width:1.5;"/><line style="stroke:#000000;stroke-width:1.5;" x1="30" x2="126" y1="661.2969" y2="661.2969"/><text fill="#000000" font-family="sans-serif" font-size="14" font-weight="bold" lengthAdjust="spacing" textLength="83" x="34" y="653.9951">procedure</text></g><!--cluster procedure_ui--><g id="cluster_procedure_ui"><rect fill="none" height="99" rx="2.5" ry="2.5" style="stroke:#181818;stroke-width:1.0;" width="158" x="892" y="714.5"/><text fill="#000000" font-family="sans-serif" font-size="14" font-weight="bold" lengthAdjust="spacing" textLength="14" x="964" y="729.4951">ui</text></g><!--cluster application--><g id="cluster_application"><rect fill="none" height="635" rx="2.5" ry="2.5" style="stroke:#181818;stroke-width:1.0;" width="814" x="54" y="682"/><text fill="#000000" font-family="sans-serif" font-size="14" font-weight="bold" lengthAdjust="spacing" textLength="85" x="418.5" y="696.9951">application</text></g><!--cluster domain--><g id="cluster_domain"><rect fill="none" height="370" rx="2.5" ry="2.5" style="stroke:#181818;stroke-width:1.0;" width="669" x="210" y="1387"/><text fill="#000000" font-family="sans-serif" font-size="14" font-weight="bold" lengthAdjust="spacing" textLength="57" x="516" y="1401.9951">domain</text></g><!--class RestClientUI--><g id="elem_RestClientUI"><rect codeLine="5" fill="#F1F1F1" height="145.7813" id="RestClientUI" rx="2.5" ry="2.5" style="stroke:#181818;stroke-width:0.5;" width="116" x="1162" y="84"/><ellipse cx="1177" cy="100" fill="#ADD1B2" rx="11" ry="11" style="stroke:#181818;stroke-width:1.0;"/><path d="M1179.9688,105.6406 Q1179.3906,105.9375 1178.75,106.0781 Q1178.1094,106.2344 1177.4063,106.2344 Q1174.9063,106.2344 1173.5781,104.5938 Q1172.2656,102.9375 1172.2656,99.8125 Q1172.2656,96.6875 1173.5781,95.0313 Q1174.9063,93.375 1177.4063,93.375 Q1178.1094,93.375 1178.75,93.5313 Q1179.4063,93.6875 1179.9688,93.9844 L1179.9688,96.7031 Q1179.3438,96.125 1178.75,95.8594 Q1178.1563,95.5781 1177.5313,95.5781 Q1176.1875,95.5781 1175.5,96.6563 Q1174.8125,97.7188 1174.8125,99.8125 Q1174.8125,101.9063 1175.5,102.9844 Q1176.1875,104.0469 1177.5313,104.0469 Q1178.1563,104.0469 1178.75,103.7813 Q1179.3438,103.5 1179.9688,102.9219 L1179.9688,105.6406 Z " fill="#000000"/><text fill="#000000" font-family="sans-serif" font-size="14" lengthAdjust="spacing" textLength="84" x="1191" y="104.8467">RestClientUI</text><line style="stroke:#181818;stroke-width:0.5;" x1="1163" x2="1277" y1="116" y2="116"/><line style="stroke:#181818;stroke-width:0.5;" x1="1163" x2="1277" y1="124" y2="124"/><text fill="#000000" font-family="sans-serif" font-size="14" lengthAdjust="spacing" textLength="66" x="1168" y="140.9951">create(...)</text><text fill="#000000" font-family="sans-serif" font-size="14" lengthAdjust="spacing" textLength="53" x="1168" y="157.292">start(...)</text><text fill="#000000" font-family="sans-serif" font-size="14" lengthAdjust="spacing" textLength="53" x="1168" y="173.5889">stop(...)</text><text fill="#000000" font-family="sans-serif" font-size="14" lengthAdjust="spacing" textLength="41" x="1168" y="189.8857">list(...)</text><text fill="#000000" font-family="sans-serif" font-size="14" lengthAdjust="spacing" textLength="82" x="1168" y="206.1826">describe(...)</text><text fill="#000000" font-family="sans-serif" font-size="14" lengthAdjust="spacing" textLength="59" x="1168" y="222.4795">listen(...)</text></g><!--class ScriptExecutionServiceWorker--><g id="elem_ScriptExecutionServiceWorker"><rect codeLine="19" fill="#F1F1F1" height="178.375" id="ScriptExecutionServiceWorker" rx="2.5" ry="2.5" style="stroke:#181818;stroke-width:0.5;" width="238" x="584" y="290"/><ellipse cx="599" cy="306" fill="#ADD1B2" rx="11" ry="11" style="stroke:#181818;stroke-width:1.0;"/><path d="M601.9688,311.6406 Q601.3906,311.9375 600.75,312.0781 Q600.1094,312.2344 599.4063,312.2344 Q596.9063,312.2344 595.5781,310.5938 Q594.2656,308.9375 594.2656,305.8125 Q594.2656,302.6875 595.5781,301.0313 Q596.9063,299.375 599.4063,299.375 Q600.1094,299.375 600.75,299.5313 Q601.4063,299.6875 601.9688,299.9844 L601.9688,302.7031 Q601.3438,302.125 600.75,301.8594 Q600.1563,301.5781 599.5313,301.5781 Q598.1875,301.5781 597.5,302.6563 Q596.8125,303.7188 596.8125,305.8125 Q596.8125,307.9063 597.5,308.9844 Q598.1875,310.0469 599.5313,310.0469 Q600.1563,310.0469 600.75,309.7813 Q601.3438,309.5 601.9688,308.9219 L601.9688,311.6406 Z " fill="#000000"/><text fill="#000000" font-family="sans-serif" font-size="14" lengthAdjust="spacing" textLength="206" x="613" y="310.8467">ScriptExecutionServiceWorker</text><line style="stroke:#181818;stroke-width:0.5;" x1="585" x2="821" y1="322" y2="322"/><line style="stroke:#181818;stroke-width:0.5;" x1="585" x2="821" y1="330" y2="330"/><text fill="#000000" font-family="sans-serif" font-size="14" lengthAdjust="spacing" textLength="76" x="590" y="346.9951">prepare(...)</text><text fill="#000000" font-family="sans-serif" font-size="14" lengthAdjust="spacing" textLength="53" x="590" y="363.292">start(...)</text><text fill="#000000" font-family="sans-serif" font-size="14" lengthAdjust="spacing" textLength="53" x="590" y="379.5889">stop(...)</text><text fill="#000000" font-family="sans-serif" font-size="14" lengthAdjust="spacing" textLength="41" x="590" y="395.8857">list(...)</text><text fill="#000000" font-family="sans-serif" font-size="14" lengthAdjust="spacing" textLength="196" x="590" y="412.1826">on_load(evt: EventMessage)</text><text fill="#000000" font-family="sans-serif" font-size="14" lengthAdjust="spacing" textLength="190" x="590" y="428.4795">on_run(evt: EventMessage)</text><text fill="#000000" font-family="sans-serif" font-size="14" lengthAdjust="spacing" textLength="192" x="590" y="444.7764">on_env(evt: EventMessage)</text><text fill="#000000" font-family="sans-serif" font-size="14" lengthAdjust="spacing" textLength="220" x="590" y="461.0732">on_pubsub(evt: EventMessage)</text></g><!--class FastAPIWorker--><g id="elem_FastAPIWorker"><rect codeLine="30" fill="#F1F1F1" height="48" id="FastAPIWorker" rx="2.5" ry="2.5" style="stroke:#181818;stroke-width:0.5;" width="131" x="857.5" y="355"/><ellipse cx="872.5" cy="371" fill="#ADD1B2" rx="11" ry="11" style="stroke:#181818;stroke-width:1.0;"/><path d="M875.4688,376.6406 Q874.8906,376.9375 874.25,377.0781 Q873.6094,377.2344 872.9063,377.2344 Q870.4063,377.2344 869.0781,375.5938 Q867.7656,373.9375 867.7656,370.8125 Q867.7656,367.6875 869.0781,366.0313 Q870.4063,364.375 872.9063,364.375 Q873.6094,364.375 874.25,364.5313 Q874.9063,364.6875 875.4688,364.9844 L875.4688,367.7031 Q874.8438,367.125 874.25,366.8594 Q873.6563,366.5781 873.0313,366.5781 Q871.6875,366.5781 871,367.6563 Q870.3125,368.7188 870.3125,370.8125 Q870.3125,372.9063 871,373.9844 Q871.6875,375.0469 873.0313,375.0469 Q873.6563,375.0469 874.25,374.7813 Q874.8438,374.5 875.4688,373.9219 L875.4688,376.6406 Z " fill="#000000"/><text fill="#000000" font-family="sans-serif" font-size="14" lengthAdjust="spacing" textLength="99" x="886.5" y="375.8467">FastAPIWorker</text><line style="stroke:#181818;stroke-width:0.5;" x1="858.5" x2="987.5" y1="387" y2="387"/><line style="stroke:#181818;stroke-width:0.5;" x1="858.5" x2="987.5" y1="395" y2="395"/></g><!--class EventBusWorker--><g id="elem_EventBusWorker"><rect codeLine="33" fill="#F1F1F1" height="96.8906" id="EventBusWorker" rx="2.5" ry="2.5" style="stroke:#181818;stroke-width:0.5;" width="147" x="735.5" y="108.5"/><ellipse cx="750.5" cy="124.5" fill="#ADD1B2" rx="11" ry="11" style="stroke:#181818;stroke-width:1.0;"/><path d="M753.4688,130.1406 Q752.8906,130.4375 752.25,130.5781 Q751.6094,130.7344 750.9063,130.7344 Q748.4063,130.7344 747.0781,129.0938 Q745.7656,127.4375 745.7656,124.3125 Q745.7656,121.1875 747.0781,119.5313 Q748.4063,117.875 750.9063,117.875 Q751.6094,117.875 752.25,118.0313 Q752.9063,118.1875 753.4688,118.4844 L753.4688,121.2031 Q752.8438,120.625 752.25,120.3594 Q751.6563,120.0781 751.0313,120.0781 Q749.6875,120.0781 749,121.1563 Q748.3125,122.2188 748.3125,124.3125 Q748.3125,126.4063 749,127.4844 Q749.6875,128.5469 751.0313,128.5469 Q751.6563,128.5469 752.25,128.2813 Q752.8438,128 753.4688,127.4219 L753.4688,130.1406 Z " fill="#000000"/><text fill="#000000" font-family="sans-serif" font-size="14" lengthAdjust="spacing" textLength="115" x="764.5" y="129.3467">EventBusWorker</text><line style="stroke:#181818;stroke-width:0.5;" x1="736.5" x2="881.5" y1="140.5" y2="140.5"/><line style="stroke:#181818;stroke-width:0.5;" x1="736.5" x2="881.5" y1="148.5" y2="148.5"/><text fill="#000000" font-family="sans-serif" font-size="14" lengthAdjust="spacing" textLength="92" x="741.5" y="165.4951">main_loop(...)</text><text fill="#000000" font-family="sans-serif" font-size="14" lengthAdjust="spacing" textLength="92" x="741.5" y="181.792">main_func(...)</text><text fill="#000000" font-family="sans-serif" font-size="14" lengthAdjust="spacing" textLength="86" x="741.5" y="198.0889">republish(...)</text></g><!--class app--><g id="elem_app"><rect codeLine="44" fill="#F1F1F1" height="56.2656" id="app" rx="2.5" ry="2.5" style="stroke:#181818;stroke-width:0.5;" width="173" x="868.5" y="543"/><ellipse cx="883.5" cy="563.1328" fill="#ADD1B2" rx="11" ry="11" style="stroke:#181818;stroke-width:1.0;"/><path d="M886.4688,568.7734 Q885.8906,569.0703 885.25,569.2109 Q884.6094,569.3672 883.9063,569.3672 Q881.4063,569.3672 880.0781,567.7266 Q878.7656,566.0703 878.7656,562.9453 Q878.7656,559.8203 880.0781,558.1641 Q881.4063,556.5078 883.9063,556.5078 Q884.6094,556.5078 885.25,556.6641 Q885.9063,556.8203 886.4688,557.1172 L886.4688,559.8359 Q885.8438,559.2578 885.25,558.9922 Q884.6563,558.7109 884.0313,558.7109 Q882.6875,558.7109 882,559.7891 Q881.3125,560.8516 881.3125,562.9453 Q881.3125,565.0391 882,566.1172 Q882.6875,567.1797 884.0313,567.1797 Q884.6563,567.1797 885.25,566.9141 Q885.8438,566.6328 886.4688,566.0547 L886.4688,568.7734 Z " fill="#000000"/><text fill="#000000" font-family="sans-serif" font-size="12" font-style="italic" lengthAdjust="spacing" textLength="145" x="895.5" y="559.1387">«function return value»</text><text fill="#000000" font-family="sans-serif" font-size="14" lengthAdjust="spacing" textLength="26" x="955" y="574.9639">app</text><line style="stroke:#181818;stroke-width:0.5;" x1="869.5" x2="1040.5" y1="583.2656" y2="583.2656"/><line style="stroke:#181818;stroke-width:0.5;" x1="869.5" x2="1040.5" y1="591.2656" y2="591.2656"/></g><!--class ProcedureAPI--><g id="elem_ProcedureAPI"><rect codeLine="50" fill="#F1F1F1" height="48" id="ProcedureAPI" rx="2.5" ry="2.5" style="stroke:#181818;stroke-width:0.5;" width="125" x="908.5" y="749.5"/><ellipse cx="923.5" cy="765.5" fill="#ADD1B2" rx="11" ry="11" style="stroke:#181818;stroke-width:1.0;"/><path d="M926.4688,771.1406 Q925.8906,771.4375 925.25,771.5781 Q924.6094,771.7344 923.9063,771.7344 Q921.4063,771.7344 920.0781,770.0938 Q918.7656,768.4375 918.7656,765.3125 Q918.7656,762.1875 920.0781,760.5313 Q921.4063,758.875 923.9063,758.875 Q924.6094,758.875 925.25,759.0313 Q925.9063,759.1875 926.4688,759.4844 L926.4688,762.2031 Q925.8438,761.625 925.25,761.3594 Q924.6563,761.0781 924.0313,761.0781 Q922.6875,761.0781 922,762.1563 Q921.3125,763.2188 921.3125,765.3125 Q921.3125,767.4063 922,768.4844 Q922.6875,769.5469 924.0313,769.5469 Q924.6563,769.5469 925.25,769.2813 Q925.8438,769 926.4688,768.4219 L926.4688,771.1406 Z " fill="#000000"/><text fill="#000000" font-family="sans-serif" font-size="14" lengthAdjust="spacing" textLength="93" x="937.5" y="770.3467">ProcedureAPI</text><line style="stroke:#181818;stroke-width:0.5;" x1="909.5" x2="1032.5" y1="781.5" y2="781.5"/><line style="stroke:#181818;stroke-width:0.5;" x1="909.5" x2="1032.5" y1="789.5" y2="789.5"/></g><!--class ScriptExecutionService--><g id="elem_ScriptExecutionService"><rect codeLine="55" fill="#F1F1F1" height="113.1875" id="ScriptExecutionService" rx="2.5" ry="2.5" style="stroke:#181818;stroke-width:0.5;" width="457" x="395.5" y="717"/><ellipse cx="541.25" cy="733" fill="#ADD1B2" rx="11" ry="11" style="stroke:#181818;stroke-width:1.0;"/><path d="M544.2188,738.6406 Q543.6406,738.9375 543,739.0781 Q542.3594,739.2344 541.6563,739.2344 Q539.1563,739.2344 537.8281,737.5938 Q536.5156,735.9375 536.5156,732.8125 Q536.5156,729.6875 537.8281,728.0313 Q539.1563,726.375 541.6563,726.375 Q542.3594,726.375 543,726.5313 Q543.6563,726.6875 544.2188,726.9844 L544.2188,729.7031 Q543.5938,729.125 543,728.8594 Q542.4063,728.5781 541.7813,728.5781 Q540.4375,728.5781 539.75,729.6563 Q539.0625,730.7188 539.0625,732.8125 Q539.0625,734.9063 539.75,735.9844 Q540.4375,737.0469 541.7813,737.0469 Q542.4063,737.0469 543,736.7813 Q543.5938,736.5 544.2188,735.9219 L544.2188,738.6406 Z " fill="#000000"/><text fill="#000000" font-family="sans-serif" font-size="14" lengthAdjust="spacing" textLength="157" x="561.75" y="737.8467">ScriptExecutionService</text><line style="stroke:#181818;stroke-width:0.5;" x1="396.5" x2="851.5" y1="749" y2="749"/><line style="stroke:#181818;stroke-width:0.5;" x1="396.5" x2="851.5" y1="757" y2="757"/><text fill="#000000" font-family="sans-serif" font-size="14" lengthAdjust="spacing" textLength="445" x="401.5" y="773.9951">prepare(cmd: PrepareProcessCommand) -&gt; ProcedureSummary</text><text fill="#000000" font-family="sans-serif" font-size="14" lengthAdjust="spacing" textLength="400" x="401.5" y="790.292">start(cmd: StartProcessCommand) -&gt; ProcedureSummary</text><text fill="#000000" font-family="sans-serif" font-size="14" lengthAdjust="spacing" textLength="433" x="401.5" y="806.5889">stop(cmd: StopProcessCommand) -&gt; List[ProcedureSummary]</text><text fill="#000000" font-family="sans-serif" font-size="14" lengthAdjust="spacing" textLength="373" x="401.5" y="822.8857">summarise(pids: List[int]) -&gt; List[[ProcedureSummary]</text></g><!--class ProcedureSummary--><g id="elem_ProcedureSummary"><rect codeLine="62" fill="#F1F1F1" height="113.1875" id="ProcedureSummary" rx="2.5" ry="2.5" style="stroke:#181818;stroke-width:0.5;" width="229" x="203.5" y="1047"/><ellipse cx="245.95" cy="1063" fill="#ADD1B2" rx="11" ry="11" style="stroke:#181818;stroke-width:1.0;"/><path d="M248.9188,1068.6406 Q248.3406,1068.9375 247.7,1069.0781 Q247.0594,1069.2344 246.3563,1069.2344 Q243.8563,1069.2344 242.5281,1067.5938 Q241.2156,1065.9375 241.2156,1062.8125 Q241.2156,1059.6875 242.5281,1058.0313 Q243.8563,1056.375 246.3563,1056.375 Q247.0594,1056.375 247.7,1056.5313 Q248.3563,1056.6875 248.9188,1056.9844 L248.9188,1059.7031 Q248.2938,1059.125 247.7,1058.8594 Q247.1063,1058.5781 246.4813,1058.5781 Q245.1375,1058.5781 244.45,1059.6563 Q243.7625,1060.7188 243.7625,1062.8125 Q243.7625,1064.9063 244.45,1065.9844 Q245.1375,1067.0469 246.4813,1067.0469 Q247.1063,1067.0469 247.7,1066.7813 Q248.2938,1066.5 248.9188,1065.9219 L248.9188,1068.6406 Z " fill="#000000"/><text fill="#000000" font-family="sans-serif" font-size="14" lengthAdjust="spacing" textLength="136" x="266.05" y="1067.8467">ProcedureSummary</text><line style="stroke:#181818;stroke-width:0.5;" x1="204.5" x2="431.5" y1="1079" y2="1079"/><text fill="#000000" font-family="sans-serif" font-size="14" lengthAdjust="spacing" textLength="38" x="209.5" y="1095.9951">id: int</text><text fill="#000000" font-family="sans-serif" font-size="14" lengthAdjust="spacing" textLength="217" x="209.5" y="1112.292">script: domain.ExecutableScript</text><text fill="#000000" font-family="sans-serif" font-size="14" lengthAdjust="spacing" textLength="195" x="209.5" y="1128.5889">script_args: List[ArgCapture]</text><text fill="#000000" font-family="sans-serif" font-size="14" lengthAdjust="spacing" textLength="207" x="209.5" y="1144.8857">state: domain.ProcedureState</text><line style="stroke:#181818;stroke-width:0.5;" x1="204.5" x2="431.5" y1="1152.1875" y2="1152.1875"/></g><!--class ArgCapture--><g id="elem_ArgCapture"><rect codeLine="69" fill="#F1F1F1" height="96.8906" id="ArgCapture" rx="2.5" ry="2.5" style="stroke:#181818;stroke-width:0.5;" width="233" x="588.5" y="1055"/><ellipse cx="661.75" cy="1071" fill="#ADD1B2" rx="11" ry="11" style="stroke:#181818;stroke-width:1.0;"/><path d="M664.7188,1076.6406 Q664.1406,1076.9375 663.5,1077.0781 Q662.8594,1077.2344 662.1563,1077.2344 Q659.6563,1077.2344 658.3281,1075.5938 Q657.0156,1073.9375 657.0156,1070.8125 Q657.0156,1067.6875 658.3281,1066.0313 Q659.6563,1064.375 662.1563,1064.375 Q662.8594,1064.375 663.5,1064.5313 Q664.1563,1064.6875 664.7188,1064.9844 L664.7188,1067.7031 Q664.0938,1067.125 663.5,1066.8594 Q662.9063,1066.5781 662.2813,1066.5781 Q660.9375,1066.5781 660.25,1067.6563 Q659.5625,1068.7188 659.5625,1070.8125 Q659.5625,1072.9063 660.25,1073.9844 Q660.9375,1075.0469 662.2813,1075.0469 Q662.9063,1075.0469 663.5,1074.7813 Q664.0938,1074.5 664.7188,1073.9219 L664.7188,1076.6406 Z " fill="#000000"/><text fill="#000000" font-family="sans-serif" font-size="14" lengthAdjust="spacing" textLength="78" x="682.25" y="1075.8467">ArgCapture</text><line style="stroke:#181818;stroke-width:0.5;" x1="589.5" x2="820.5" y1="1087" y2="1087"/><text fill="#000000" font-family="sans-serif" font-size="14" lengthAdjust="spacing" textLength="40" x="594.5" y="1103.9951">fn: str</text><text fill="#000000" font-family="sans-serif" font-size="14" lengthAdjust="spacing" textLength="221" x="594.5" y="1120.292">fn_args: domain.ProcedureInput</text><text fill="#000000" font-family="sans-serif" font-size="14" lengthAdjust="spacing" textLength="68" x="594.5" y="1136.5889">time: float</text><line style="stroke:#181818;stroke-width:0.5;" x1="589.5" x2="820.5" y1="1143.8906" y2="1143.8906"/></g><!--class ProcedureHistory--><g id="elem_ProcedureHistory"><rect codeLine="76" fill="#F1F1F1" height="80.5938" id="ProcedureHistory" rx="2.5" ry="2.5" style="stroke:#181818;stroke-width:0.5;" width="316" x="130" y="1220"/><ellipse cx="224.25" cy="1236" fill="#ADD1B2" rx="11" ry="11" style="stroke:#181818;stroke-width:1.0;"/><path d="M227.2188,1241.6406 Q226.6406,1241.9375 226,1242.0781 Q225.3594,1242.2344 224.6563,1242.2344 Q222.1563,1242.2344 220.8281,1240.5938 Q219.5156,1238.9375 219.5156,1235.8125 Q219.5156,1232.6875 220.8281,1231.0313 Q222.1563,1229.375 224.6563,1229.375 Q225.3594,1229.375 226,1229.5313 Q226.6563,1229.6875 227.2188,1229.9844 L227.2188,1232.7031 Q226.5938,1232.125 226,1231.8594 Q225.4063,1231.5781 224.7813,1231.5781 Q223.4375,1231.5781 222.75,1232.6563 Q222.0625,1233.7188 222.0625,1235.8125 Q222.0625,1237.9063 222.75,1238.9844 Q223.4375,1240.0469 224.7813,1240.0469 Q225.4063,1240.0469 226,1239.7813 Q226.5938,1239.5 227.2188,1238.9219 L227.2188,1241.6406 Z " fill="#000000"/><text fill="#000000" font-family="sans-serif" font-size="14" lengthAdjust="spacing" textLength="119" x="244.75" y="1240.8467">ProcedureHistory</text><line style="stroke:#181818;stroke-width:0.5;" x1="131" x2="445" y1="1252" y2="1252"/><text fill="#000000" font-family="sans-serif" font-size="14" lengthAdjust="spacing" textLength="304" x="136" y="1268.9951">process_states: List[(ProcedureState, time)]</text><text fill="#000000" font-family="sans-serif" font-size="14" lengthAdjust="spacing" textLength="166" x="136" y="1285.292">stacktrace: Optional[str]</text><line style="stroke:#181818;stroke-width:0.5;" x1="131" x2="445" y1="1292.5938" y2="1292.5938"/></g><!--class PrepareProcessCommand--><g id="elem_PrepareProcessCommand"><rect codeLine="82" fill="#F1F1F1" height="80.5938" id="PrepareProcessCommand" rx="2.5" ry="2.5" style="stroke:#181818;stroke-width:0.5;" width="240" x="575" y="898"/><ellipse cx="602.15" cy="914" fill="#ADD1B2" rx="11" ry="11" style="stroke:#181818;stroke-width:1.0;"/><path d="M605.1188,919.6406 Q604.5406,919.9375 603.9,920.0781 Q603.2594,920.2344 602.5563,920.2344 Q600.0563,920.2344 598.7281,918.5938 Q597.4156,916.9375 597.4156,913.8125 Q597.4156,910.6875 598.7281,909.0313 Q600.0563,907.375 602.5563,907.375 Q603.2594,907.375 603.9,907.5313 Q604.5563,907.6875 605.1188,907.9844 L605.1188,910.7031 Q604.4938,910.125 603.9,909.8594 Q603.3063,909.5781 602.6813,909.5781 Q601.3375,909.5781 600.65,910.6563 Q599.9625,911.7188 599.9625,913.8125 Q599.9625,915.9063 600.65,916.9844 Q601.3375,918.0469 602.6813,918.0469 Q603.3063,918.0469 603.9,917.7813 Q604.4938,917.5 605.1188,916.9219 L605.1188,919.6406 Z " fill="#000000"/><text fill="#000000" font-family="sans-serif" font-size="14" lengthAdjust="spacing" textLength="181" x="618.85" y="918.8467">PrepareProcessCommand</text><line style="stroke:#181818;stroke-width:0.5;" x1="576" x2="814" y1="930" y2="930"/><text fill="#000000" font-family="sans-serif" font-size="14" lengthAdjust="spacing" textLength="217" x="581" y="946.9951">script: domain.ExecutableScript</text><text fill="#000000" font-family="sans-serif" font-size="14" lengthAdjust="spacing" textLength="228" x="581" y="963.292">init_args: domain.ProcedureInput</text><line style="stroke:#181818;stroke-width:0.5;" x1="576" x2="814" y1="970.5938" y2="970.5938"/></g><!--class StartProcessCommand--><g id="elem_StartProcessCommand"><rect codeLine="87" fill="#F1F1F1" height="96.8906" id="StartProcessCommand" rx="2.5" ry="2.5" style="stroke:#181818;stroke-width:0.5;" width="243" x="70.5" y="890"/><ellipse cx="108.9" cy="906" fill="#ADD1B2" rx="11" ry="11" style="stroke:#181818;stroke-width:1.0;"/><path d="M111.8688,911.6406 Q111.2906,911.9375 110.65,912.0781 Q110.0094,912.2344 109.3063,912.2344 Q106.8063,912.2344 105.4781,910.5938 Q104.1656,908.9375 104.1656,905.8125 Q104.1656,902.6875 105.4781,901.0313 Q106.8063,899.375 109.3063,899.375 Q110.0094,899.375 110.65,899.5313 Q111.3063,899.6875 111.8688,899.9844 L111.8688,902.7031 Q111.2438,902.125 110.65,901.8594 Q110.0563,901.5781 109.4313,901.5781 Q108.0875,901.5781 107.4,902.6563 Q106.7125,903.7188 106.7125,905.8125 Q106.7125,907.9063 107.4,908.9844 Q108.0875,910.0469 109.4313,910.0469 Q110.0563,910.0469 110.65,909.7813 Q111.2438,909.5 111.8688,908.9219 L111.8688,911.6406 Z " fill="#000000"/><text fill="#000000" font-family="sans-serif" font-size="14" lengthAdjust="spacing" textLength="159" x="128.1" y="910.8467">StartProcessCommand</text><line style="stroke:#181818;stroke-width:0.5;" x1="71.5" x2="312.5" y1="922" y2="922"/><text fill="#000000" font-family="sans-serif" font-size="14" lengthAdjust="spacing" textLength="110" x="76.5" y="938.9951">process_uid: int</text><text fill="#000000" font-family="sans-serif" font-size="14" lengthAdjust="spacing" textLength="86" x="76.5" y="955.292">fn_name: str</text><text fill="#000000" font-family="sans-serif" font-size="14" lengthAdjust="spacing" textLength="231" x="76.5" y="971.5889">run_args: domain.ProcedureInput</text><line style="stroke:#181818;stroke-width:0.5;" x1="71.5" x2="312.5" y1="978.8906" y2="978.8906"/></g><!--class StopProcessCommand--><g id="elem_StopProcessCommand"><rect codeLine="93" fill="#F1F1F1" height="80.5938" id="StopProcessCommand" rx="2.5" ry="2.5" style="stroke:#181818;stroke-width:0.5;" width="191" x="348.5" y="898"/><ellipse cx="363.5" cy="914" fill="#ADD1B2" rx="11" ry="11" style="stroke:#181818;stroke-width:1.0;"/><path d="M366.4688,919.6406 Q365.8906,919.9375 365.25,920.0781 Q364.6094,920.2344 363.9063,920.2344 Q361.4063,920.2344 360.0781,918.5938 Q358.7656,916.9375 358.7656,913.8125 Q358.7656,910.6875 360.0781,909.0313 Q361.4063,907.375 363.9063,907.375 Q364.6094,907.375 365.25,907.5313 Q365.9063,907.6875 366.4688,907.9844 L366.4688,910.7031 Q365.8438,910.125 365.25,909.8594 Q364.6563,909.5781 364.0313,909.5781 Q362.6875,909.5781 362,910.6563 Q361.3125,911.7188 361.3125,913.8125 Q361.3125,915.9063 362,916.9844 Q362.6875,918.0469 364.0313,918.0469 Q364.6563,918.0469 365.25,917.7813 Q365.8438,917.5 366.4688,916.9219 L366.4688,919.6406 Z " fill="#000000"/><text fill="#000000" font-family="sans-serif" font-size="14" lengthAdjust="spacing" textLength="159" x="377.5" y="918.8467">StopProcessCommand</text><line style="stroke:#181818;stroke-width:0.5;" x1="349.5" x2="538.5" y1="930" y2="930"/><text fill="#000000" font-family="sans-serif" font-size="14" lengthAdjust="spacing" textLength="110" x="354.5" y="946.9951">process_uid: int</text><text fill="#000000" font-family="sans-serif" font-size="14" lengthAdjust="spacing" textLength="105" x="354.5" y="963.292">run_abort: bool</text><line style="stroke:#181818;stroke-width:0.5;" x1="349.5" x2="538.5" y1="970.5938" y2="970.5938"/></g><!--class ExecutableScript--><g id="elem_ExecutableScript"><rect codeLine="104" fill="#F1F1F1" height="48" id="ExecutableScript" rx="2.5" ry="2.5" style="stroke:#181818;stroke-width:0.5;" width="148" x="653" y="1693"/><ellipse cx="668" cy="1709" fill="#A9DCDF" rx="11" ry="11" style="stroke:#181818;stroke-width:1.0;"/><path d="M668.1094,1704.3438 L666.9531,1709.4219 L669.2813,1709.4219 L668.1094,1704.3438 Z M666.625,1702.1094 L669.6094,1702.1094 L672.9688,1714.5 L670.5156,1714.5 L669.75,1711.4375 L666.4688,1711.4375 L665.7188,1714.5 L663.2813,1714.5 L666.625,1702.1094 Z " fill="#000000"/><text fill="#000000" font-family="sans-serif" font-size="14" font-style="italic" lengthAdjust="spacing" textLength="116" x="682" y="1713.8467">ExecutableScript</text><line style="stroke:#181818;stroke-width:0.5;" x1="654" x2="800" y1="1725" y2="1725"/><line style="stroke:#181818;stroke-width:0.5;" x1="654" x2="800" y1="1733" y2="1733"/></g><!--class GitScript--><g id="elem_GitScript"><rect codeLine="105" fill="#F1F1F1" height="48" id="GitScript" rx="2.5" ry="2.5" style="stroke:#181818;stroke-width:0.5;" width="90" x="773" y="1503.5"/><ellipse cx="788" cy="1519.5" fill="#ADD1B2" rx="11" ry="11" style="stroke:#181818;stroke-width:1.0;"/><path d="M790.9688,1525.1406 Q790.3906,1525.4375 789.75,1525.5781 Q789.1094,1525.7344 788.4063,1525.7344 Q785.9063,1525.7344 784.5781,1524.0938 Q783.2656,1522.4375 783.2656,1519.3125 Q783.2656,1516.1875 784.5781,1514.5313 Q785.9063,1512.875 788.4063,1512.875 Q789.1094,1512.875 789.75,1513.0313 Q790.4063,1513.1875 790.9688,1513.4844 L790.9688,1516.2031 Q790.3438,1515.625 789.75,1515.3594 Q789.1563,1515.0781 788.5313,1515.0781 Q787.1875,1515.0781 786.5,1516.1563 Q785.8125,1517.2188 785.8125,1519.3125 Q785.8125,1521.4063 786.5,1522.4844 Q787.1875,1523.5469 788.5313,1523.5469 Q789.1563,1523.5469 789.75,1523.2813 Q790.3438,1523 790.9688,1522.4219 L790.9688,1525.1406 Z " fill="#000000"/><text fill="#000000" font-family="sans-serif" font-size="14" lengthAdjust="spacing" textLength="58" x="802" y="1524.3467">GitScript</text><line style="stroke:#181818;stroke-width:0.5;" x1="774" x2="862" y1="1535.5" y2="1535.5"/><line style="stroke:#181818;stroke-width:0.5;" x1="774" x2="862" y1="1543.5" y2="1543.5"/></g><!--class FilesystemScript--><g id="elem_FilesystemScript"><rect codeLine="106" fill="#F1F1F1" height="48" id="FilesystemScript" rx="2.5" ry="2.5" style="stroke:#181818;stroke-width:0.5;" width="144" x="594" y="1503.5"/><ellipse cx="609" cy="1519.5" fill="#ADD1B2" rx="11" ry="11" style="stroke:#181818;stroke-width:1.0;"/><path d="M611.9688,1525.1406 Q611.3906,1525.4375 610.75,1525.5781 Q610.1094,1525.7344 609.4063,1525.7344 Q606.9063,1525.7344 605.5781,1524.0938 Q604.2656,1522.4375 604.2656,1519.3125 Q604.2656,1516.1875 605.5781,1514.5313 Q606.9063,1512.875 609.4063,1512.875 Q610.1094,1512.875 610.75,1513.0313 Q611.4063,1513.1875 611.9688,1513.4844 L611.9688,1516.2031 Q611.3438,1515.625 610.75,1515.3594 Q610.1563,1515.0781 609.5313,1515.0781 Q608.1875,1515.0781 607.5,1516.1563 Q606.8125,1517.2188 606.8125,1519.3125 Q606.8125,1521.4063 607.5,1522.4844 Q608.1875,1523.5469 609.5313,1523.5469 Q610.1563,1523.5469 610.75,1523.2813 Q611.3438,1523 611.9688,1522.4219 L611.9688,1525.1406 Z " fill="#000000"/><text fill="#000000" font-family="sans-serif" font-size="14" lengthAdjust="spacing" textLength="112" x="623" y="1524.3467">FilesystemScript</text><line style="stroke:#181818;stroke-width:0.5;" x1="595" x2="737" y1="1535.5" y2="1535.5"/><line style="stroke:#181818;stroke-width:0.5;" x1="595" x2="737" y1="1543.5" y2="1543.5"/></g><!--class ProcedureState--><g id="elem_ProcedureState"><rect codeLine="110" fill="#F1F1F1" height="210.9688" id="ProcedureState" rx="2.5" ry="2.5" style="stroke:#181818;stroke-width:0.5;" width="140" x="226" y="1422"/><ellipse cx="241" cy="1438" fill="#EB937F" rx="11" ry="11" style="stroke:#181818;stroke-width:1.0;"/><path d="M245.1094,1444 L237.3906,1444 L237.3906,1431.6094 L245.1094,1431.6094 L245.1094,1433.7656 L239.8438,1433.7656 L239.8438,1436.4375 L244.6094,1436.4375 L244.6094,1438.5938 L239.8438,1438.5938 L239.8438,1441.8438 L245.1094,1441.8438 L245.1094,1444 Z " fill="#000000"/><text fill="#000000" font-family="sans-serif" font-size="14" lengthAdjust="spacing" textLength="108" x="255" y="1442.8467">ProcedureState</text><line style="stroke:#181818;stroke-width:0.5;" x1="227" x2="365" y1="1454" y2="1454"/><text fill="#000000" font-family="sans-serif" font-size="14" lengthAdjust="spacing" textLength="73" x="232" y="1470.9951">UNKNOWN</text><text fill="#000000" font-family="sans-serif" font-size="14" lengthAdjust="spacing" textLength="71" x="232" y="1487.292">CREATING</text><text fill="#000000" font-family="sans-serif" font-size="14" lengthAdjust="spacing" textLength="30" x="232" y="1503.5889">IDLE</text><text fill="#000000" font-family="sans-serif" font-size="14" lengthAdjust="spacing" textLength="62" x="232" y="1519.8857">LOADING</text><text fill="#000000" font-family="sans-serif" font-size="14" lengthAdjust="spacing" textLength="80" x="232" y="1536.1826">INITIALISING</text><text fill="#000000" font-family="sans-serif" font-size="14" lengthAdjust="spacing" textLength="48" x="232" y="1552.4795">READY</text><text fill="#000000" font-family="sans-serif" font-size="14" lengthAdjust="spacing" textLength="64" x="232" y="1568.7764">RUNNING</text><text fill="#000000" font-family="sans-serif" font-size="14" lengthAdjust="spacing" textLength="76" x="232" y="1585.0732">COMPLETE</text><text fill="#000000" font-family="sans-serif" font-size="14" lengthAdjust="spacing" textLength="67" x="232" y="1601.3701">STOPPED</text><text fill="#000000" font-family="sans-serif" font-size="14" lengthAdjust="spacing" textLength="47" x="232" y="1617.667">FAILED</text><line style="stroke:#181818;stroke-width:0.5;" x1="227" x2="365" y1="1624.9688" y2="1624.9688"/></g><!--class ProcedureInput--><g id="elem_ProcedureInput"><rect codeLine="123" fill="#F1F1F1" height="80.5938" id="ProcedureInput" rx="2.5" ry="2.5" style="stroke:#181818;stroke-width:0.5;" width="158" x="401" y="1487"/><ellipse cx="424.55" cy="1503" fill="#ADD1B2" rx="11" ry="11" style="stroke:#181818;stroke-width:1.0;"/><path d="M427.5188,1508.6406 Q426.9406,1508.9375 426.3,1509.0781 Q425.6594,1509.2344 424.9563,1509.2344 Q422.4563,1509.2344 421.1281,1507.5938 Q419.8156,1505.9375 419.8156,1502.8125 Q419.8156,1499.6875 421.1281,1498.0313 Q422.4563,1496.375 424.9563,1496.375 Q425.6594,1496.375 426.3,1496.5313 Q426.9563,1496.6875 427.5188,1496.9844 L427.5188,1499.7031 Q426.8938,1499.125 426.3,1498.8594 Q425.7063,1498.5781 425.0813,1498.5781 Q423.7375,1498.5781 423.05,1499.6563 Q422.3625,1500.7188 422.3625,1502.8125 Q422.3625,1504.9063 423.05,1505.9844 Q423.7375,1507.0469 425.0813,1507.0469 Q425.7063,1507.0469 426.3,1506.7813 Q426.8938,1506.5 427.5188,1505.9219 L427.5188,1508.6406 Z " fill="#000000"/><text fill="#000000" font-family="sans-serif" font-size="14" lengthAdjust="spacing" textLength="107" x="440.45" y="1507.8467">ProcedureInput</text><line style="stroke:#181818;stroke-width:0.5;" x1="402" x2="558" y1="1519" y2="1519"/><text fill="#000000" font-family="sans-serif" font-size="14" lengthAdjust="spacing" textLength="62" x="407" y="1535.9951">args: List</text><text fill="#000000" font-family="sans-serif" font-size="14" lengthAdjust="spacing" textLength="146" x="407" y="1552.292">kwargs: Dict[str, Any]</text><line style="stroke:#181818;stroke-width:0.5;" x1="402" x2="558" y1="1559.5938" y2="1559.5938"/></g><!--reverse link EventBusWorker to ScriptExecutionServiceWorker--><g id="link_EventBusWorker_ScriptExecutionServiceWorker"><path codeLine="39" d="M783.75,210.4 C772.34,234.08 758.55,262.71 745.61,289.56 " fill="none" id="EventBusWorker-backto-ScriptExecutionServiceWorker" style="stroke:#181818;stroke-width:1.0;"/><polygon fill="#181818" points="786,205.74,778.4941,212.1166,783.8326,210.2458,785.7034,215.5844,786,205.74" style="stroke:#181818;stroke-width:1.0;"/></g><!--reverse link EventBusWorker to FastAPIWorker--><g id="link_EventBusWorker_FastAPIWorker"><path codeLine="40" d="M836.15,210.4 C859.96,256.34 893.43,320.94 911.06,354.96 " fill="none" id="EventBusWorker-backto-FastAPIWorker" style="stroke:#181818;stroke-width:1.0;"/><polygon fill="#181818" points="833.74,205.74,834.3254,215.5714,836.0387,210.1803,841.4298,211.8936,833.74,205.74" style="stroke:#181818;stroke-width:1.0;"/></g><!--reverse link app to ProcedureAPI--><g id="link_app_ProcedureAPI"><path codeLine="51" d="M958.2,612.09 C961.48,653.21 966.47,715.75 969.15,749.3 " fill="none" id="app-backto-ProcedureAPI" style="stroke:#181818;stroke-width:1.0;"/><polygon fill="none" points="957.16,599.04,953.6473,605.3377,958.1096,611.0024,961.6223,604.7046,957.16,599.04" style="stroke:#181818;stroke-width:1.0;"/></g><!--link ProcedureSummary to ArgCapture--><g id="link_ProcedureSummary_ArgCapture"><path codeLine="74" d="M432.51,1103.5 C477.79,1103.5 523.07,1103.5 568.35,1103.5 " fill="none" id="ProcedureSummary-to-ArgCapture" style="stroke:#181818;stroke-width:1.0;"/><polygon fill="none" points="568.45,1096.5,588.45,1103.5,568.45,1110.5,568.45,1096.5" style="stroke:#181818;stroke-width:1.0;"/></g><!--link ProcedureSummary to ProcedureHistory--><g id="link_ProcedureSummary_ProcedureHistory"><path codeLine="80" d="M307.25,1160.02 C303.78,1177.97 299.97,1197.63 296.67,1214.7 " fill="none" id="ProcedureSummary-to-ProcedureHistory" style="stroke:#181818;stroke-width:1.0;"/><polygon fill="#181818" points="295.66,1219.91,301.3068,1211.8407,296.6159,1215.0022,293.4544,1210.3113,295.66,1219.91" style="stroke:#181818;stroke-width:1.0;"/></g><!--link StartProcessCommand to PrepareProcessCommand--><!--link PrepareProcessCommand to StartProcessCommand--><!--link StopProcessCommand to StartProcessCommand--><!--link StartProcessCommand to StopProcessCommand--><!--reverse link FastAPIWorker to app--><g id="link_FastAPIWorker_app"><path codeLine="100" d="M929.13,416.41 C935.35,453.34 944.83,509.63 950.42,542.83 " fill="none" id="FastAPIWorker-backto-app" style="stroke:#181818;stroke-width:1.0;"/><polygon fill="#181818" points="926.92,403.3,923.9715,409.8808,928.912,415.1335,931.8605,408.5527,926.92,403.3" style="stroke:#181818;stroke-width:1.0;"/></g><!--reverse link ScriptExecutionServiceWorker to ScriptExecutionService--><g id="link_ScriptExecutionServiceWorker_ScriptExecutionService"><path codeLine="101" d="M682.7,480.85 C667.59,555.91 647.53,655.58 635.21,716.82 " fill="none" id="ScriptExecutionServiceWorker-backto-ScriptExecutionService" style="stroke:#181818;stroke-width:1.0;"/><polygon fill="#181818" points="685.27,468.08,680.1622,473.1702,682.8963,479.8429,688.0041,474.7527,685.27,468.08" style="stroke:#181818;stroke-width:1.0;"/></g><!--link GitScript to ExecutableScript--><g id="link_GitScript_ExecutableScript"><path codeLine="107" d="M806.66,1551.87 C789.88,1586.44 758.49,1651.11 740.53,1688.12 " fill="none" id="GitScript-to-ExecutableScript" style="stroke:#181818;stroke-width:1.0;"/><polygon fill="#181818" points="738.2,1692.93,745.7302,1686.582,740.3845,1688.4325,738.5341,1683.0868,738.2,1692.93" style="stroke:#181818;stroke-width:1.0;"/></g><!--link FilesystemScript to ExecutableScript--><g id="link_FilesystemScript_ExecutableScript"><path codeLine="108" d="M673.6,1551.87 C684.85,1586.44 705.89,1651.11 717.93,1688.12 " fill="none" id="FilesystemScript-to-ExecutableScript" style="stroke:#181818;stroke-width:1.0;"/><polygon fill="#181818" points="719.49,1692.93,720.5183,1683.135,717.9475,1688.1739,712.9086,1685.603,719.49,1692.93" style="stroke:#181818;stroke-width:1.0;"/></g><!--link ProcedureHistory to ProcedureState--><g id="link_ProcedureHistory_ProcedureState"><path codeLine="128" d="M289.2,1301.17 C290.12,1331.77 291.45,1375.65 292.68,1416.57 " fill="none" id="ProcedureHistory-to-ProcedureState" style="stroke:#181818;stroke-width:1.0;"/><polygon fill="#181818" points="292.84,1421.8,296.5813,1412.6894,292.6972,1416.802,288.5846,1412.9179,292.84,1421.8" style="stroke:#181818;stroke-width:1.0;"/></g><!--link ProcedureSummary to ProcedureInput--><g id="link_ProcedureSummary_ProcedureInput"><path codeLine="129" d="M412.56,1160.02 C432.96,1176.64 451.98,1196.74 464,1220 C507.47,1304.15 498.29,1419.21 488.61,1481.69 " fill="none" id="ProcedureSummary-to-ProcedureInput" style="stroke:#181818;stroke-width:1.0;"/><polygon fill="#181818" points="487.8,1486.83,493.14,1478.5545,488.571,1481.8898,485.2357,1477.3208,487.8,1486.83" style="stroke:#181818;stroke-width:1.0;"/></g><!--link ScriptExecutionService to ArgCapture--><!--link ScriptExecutionService to StopProcessCommand--><!--link StartProcessCommand to ProcedureSummary--><!--SRC=[jLPjRzem4FxEhyYtjTD2lwEf4WEwHME0IgjfgX0oYKij4jlo2rkryTztSO2y-0Xiqn12uUxn-UwvjxnvCKRgtisDJ0atDakxiSXkufHe7IQCh1N9EXr9uWrPqq1lo59eiHJKBEEKKMw2dvq0FWU0ejhi5U_VtzFO4BvEwUtj7fP_dEdW7e031toCAae7K9GOUjNjTgzhScs8CfXOI5-QCerW4wfZnLOKnrDUb-ywnUyE9G2yheMU4SRF13s7owKP_Q2nDKpmELLR5jElGcseQf0W5PL4_HyM15-cWYHNT6jwmMWBEVX2jOOOF9Yo_08KvTiBKDAkj5sr0NUT1bztH9l-BF88ye3EtWUhKIhpn43063zEzMnvxAk0Vxi2_bwQDN5yRCrcQ6Lus_3hUB8UrqdehbvWbfqfBo8b8F9mSdyW0cCL3xOajNNq3hCkbOXfOXMj02it4rqYbYsUbDxC3d28jAREtHHXY0Cg_1vk1tpAOk9YEdyjdfK6jDfXSPRqm1VtnxcazK1a6U79TG1vENevjo1KhvwTeY6TbNd- -7Sse3ht9eH4B8oXaP-QPXQ-7QTWcbv9bkXUSOnnioYDdB5IuHz9vVu8mYO3t-4YtoENZbwGYBpNkaLUo2gbHPvEu9T4hG_kzzLwG2IKCbrWt1jwD5wwcOlFXrLQHW9wvZqmhn3vthdcfH6Nre_7i0mSV8PvQneELVzv18UAhLzC-EksucHhPZu1LGBDpCzdHjDaLxIlral7sO7Sgpfdxvo_roZHySOe4aCmKvat5acVW9x57mLLROMzmtXGI3CYaVrfRJ7EpCN9Goi6QN1qiXHCsrDD0JN4ILuNM871plrN9viZv6zyT6wiX09-LqAahNd6qWLRxUc59GdbYn3ZhMO2uxLXe1bJntUclbRVmeg1rN7Pkix1EC3VHqLQMbSHMUcyMSpXzQIjCWl8HsPEwkvOIlKhl9zc2EHuqBLNwqrDE_Y9sX7ARHRKPmHIJ8-JpvFfruad7zoF-W_HvAEdY8RZaISSJ_j353o97gB-E9fZIhXX-CsNFauc67em_J8RZnxyk-SFqzbiDFJaT_ret12tRqZNemX5vKBpL9llXNB8OfFFr7T1dx-U6gpbapVwmzfyhU_0zbbS3XO83hwT4otjbjAXAT6cHXkvUSnhvHFlR64YllDo1bGsuMK7a9jy7iwCgTy0]--></g></svg>