<?xml version="1.0" encoding="UTF-8" standalone="no"?><svg xmlns="http://www.w3.org/2000/svg" xmlns:xlink="http://www.w3.org/1999/xlink" contentStyleType="text/css" height="929px" preserveAspectRatio="none" style="width:1254px;height:929px;background:#FFFFFF;" version="1.1" viewBox="0 0 1254 929" width="1254px" zoomAndPan="magnify"><defs/><g><!--cluster ska_oso_oet--><g id="cluster_ska_oso_oet"><path d="M8.5,6 L105.5,6 A3.75,3.75 0 0 1 108,8.5 L115,28.2969 L1244.5,28.2969 A2.5,2.5 0 0 1 1247,30.7969 L1247,787.5 A2.5,2.5 0 0 1 1244.5,790 L8.5,790 A2.5,2.5 0 0 1 6,787.5 L6,8.5 A2.5,2.5 0 0 1 8.5,6 " fill="none" style="stroke:#000000;stroke-width:1.5;"/><line style="stroke:#000000;stroke-width:1.5;" x1="6" x2="115" y1="28.2969" y2="28.2969"/><text fill="#000000" font-family="sans-serif" font-size="14" font-weight="bold" lengthAdjust="spacing" textLength="96" x="10" y="20.9951">ska_oso_oet</text></g><!--cluster mptools--><g id="cluster_mptools"><path d="M929.5,219 L993.5,219 A3.75,3.75 0 0 1 996,221.5 L1003,241.2969 L1212.5,241.2969 A2.5,2.5 0 0 1 1215,243.7969 L1215,354.5 A2.5,2.5 0 0 1 1212.5,357 L929.5,357 A2.5,2.5 0 0 1 927,354.5 L927,221.5 A2.5,2.5 0 0 1 929.5,219 " fill="none" style="stroke:#000000;stroke-width:1.5;"/><line style="stroke:#000000;stroke-width:1.5;" x1="927" x2="1003" y1="241.2969" y2="241.2969"/><text fill="#000000" font-family="sans-serif" font-size="14" font-weight="bold" lengthAdjust="spacing" textLength="63" x="931" y="233.9951">mptools</text></g><!--cluster main--><g id="cluster_main"><rect fill="none" height="321" rx="2.5" ry="2.5" style="stroke:#181818;stroke-width:1.0;" width="584" x="311" y="49"/><text fill="#000000" font-family="sans-serif" font-size="14" font-weight="bold" lengthAdjust="spacing" textLength="37" x="584.5" y="63.9951">main</text></g><!--cluster ui--><g id="cluster_ui"><rect fill="none" height="283" rx="2.5" ry="2.5" style="stroke:#181818;stroke-width:1.0;" width="397" x="826" y="443"/><text fill="#000000" font-family="sans-serif" font-size="14" font-weight="bold" lengthAdjust="spacing" textLength="14" x="1017.5" y="457.9951">ui</text></g><!--cluster procedure--><g id="cluster_procedure"><path d="M32.5,403 L116.5,403 A3.75,3.75 0 0 1 119,405.5 L126,425.2969 L431.5,425.2969 A2.5,2.5 0 0 1 434,427.7969 L434,763.5 A2.5,2.5 0 0 1 431.5,766 L32.5,766 A2.5,2.5 0 0 1 30,763.5 L30,405.5 A2.5,2.5 0 0 1 32.5,403 " fill="none" style="stroke:#000000;stroke-width:1.5;"/><line style="stroke:#000000;stroke-width:1.5;" x1="30" x2="126" y1="425.2969" y2="425.2969"/><text fill="#000000" font-family="sans-serif" font-size="14" font-weight="bold" lengthAdjust="spacing" textLength="83" x="34" y="417.9951">procedure</text></g><!--cluster procedure_ui--><g id="cluster_procedure_ui"><rect fill="none" height="115" rx="2.5" ry="2.5" style="stroke:#181818;stroke-width:1.0;" width="193" x="177" y="619"/><text fill="#000000" font-family="sans-serif" font-size="14" font-weight="bold" lengthAdjust="spacing" textLength="14" x="266.5" y="633.9951">ui</text></g><!--cluster procedure_application--><g id="cluster_procedure_application"><rect fill="none" height="115" rx="2.5" ry="2.5" style="stroke:#181818;stroke-width:1.0;" width="257" x="145" y="454"/><text fill="#000000" font-family="sans-serif" font-size="14" font-weight="bold" lengthAdjust="spacing" textLength="85" x="231" y="468.9951">application</text></g><!--cluster activity--><g id="cluster_activity"><path d="M460.5,403 L517.5,403 A3.75,3.75 0 0 1 520,405.5 L527,425.2969 L799.5,425.2969 A2.5,2.5 0 0 1 802,427.7969 L802,763.5 A2.5,2.5 0 0 1 799.5,766 L460.5,766 A2.5,2.5 0 0 1 458,763.5 L458,405.5 A2.5,2.5 0 0 1 460.5,403 " fill="none" style="stroke:#000000;stroke-width:1.5;"/><line style="stroke:#000000;stroke-width:1.5;" x1="458" x2="527" y1="425.2969" y2="425.2969"/><text fill="#000000" font-family="sans-serif" font-size="14" font-weight="bold" lengthAdjust="spacing" textLength="56" x="462" y="417.9951">activity</text></g><!--cluster activity_ui--><g id="cluster_activity_ui"><rect fill="none" height="115" rx="2.5" ry="2.5" style="stroke:#181818;stroke-width:1.0;" width="167" x="588" y="619"/><text fill="#000000" font-family="sans-serif" font-size="14" font-weight="bold" lengthAdjust="spacing" textLength="14" x="664.5" y="633.9951">ui</text></g><!--cluster activity_application--><g id="cluster_activity_application"><rect fill="none" height="115" rx="2.5" ry="2.5" style="stroke:#181818;stroke-width:1.0;" width="197" x="573" y="454"/><text fill="#000000" font-family="sans-serif" font-size="14" font-weight="bold" lengthAdjust="spacing" textLength="85" x="629" y="468.9951">application</text></g><!--cluster flask--><g id="cluster_flask"><path d="M726.5,823 L764.5,823 A3.75,3.75 0 0 1 767,825.5 L774,845.2969 L950.5,845.2969 A2.5,2.5 0 0 1 953,847.7969 L953,919.5 A2.5,2.5 0 0 1 950.5,922 L726.5,922 A2.5,2.5 0 0 1 724,919.5 L724,825.5 A2.5,2.5 0 0 1 726.5,823 " fill="none" style="stroke:#000000;stroke-width:1.5;"/><line style="stroke:#000000;stroke-width:1.5;" x1="724" x2="774" y1="845.2969" y2="845.2969"/><text fill="#000000" font-family="sans-serif" font-size="14" font-weight="bold" lengthAdjust="spacing" textLength="37" x="728" y="837.9951">flask</text></g><g id="elem_mptools_note"><path d="M970.5,262 L970.5,332.5313 L1191.5,332.5313 L1191.5,272 L1181.5,262 L970.5,262 " fill="#FEFFDD" style="stroke:#181818;stroke-width:0.5;"/><path d="M1181.5,262 L1181.5,272 L1191.5,272 L1181.5,262 " fill="#FEFFDD" style="stroke:#181818;stroke-width:1.0;"/><text fill="#000000" font-family="sans-serif" font-size="13" lengthAdjust="spacing" textLength="200" x="976.5" y="279.0669">See the ScriptExecutionService</text><text fill="#000000" font-family="sans-serif" font-size="13" lengthAdjust="spacing" textLength="183" x="976.5" y="294.1997">view for more information on</text><text fill="#000000" font-family="sans-serif" font-size="13" lengthAdjust="spacing" textLength="21" x="976.5" y="309.3325">the</text><text fill="#000000" font-family="monospace" font-size="13" lengthAdjust="spacing" textLength="56" x="1001.5" y="309.3325">mptools</text><text fill="#000000" font-family="sans-serif" font-size="13" lengthAdjust="spacing" textLength="95" x="1061.5" y="309.3325">module and its</text><text fill="#000000" font-family="sans-serif" font-size="13" lengthAdjust="spacing" textLength="60" x="976.5" y="324.4653">contents.</text></g><!--class ScriptExecutionServiceWorker--><g id="elem_ScriptExecutionServiceWorker"><rect codeLine="15" fill="#F1F1F1" height="113.1875" id="ScriptExecutionServiceWorker" rx="2.5" ry="2.5" style="stroke:#181818;stroke-width:0.5;" width="238" x="327" y="241"/><ellipse cx="342" cy="257" fill="#ADD1B2" rx="11" ry="11" style="stroke:#181818;stroke-width:1.0;"/><path d="M344.9688,262.6406 Q344.3906,262.9375 343.75,263.0781 Q343.1094,263.2344 342.4063,263.2344 Q339.9063,263.2344 338.5781,261.5938 Q337.2656,259.9375 337.2656,256.8125 Q337.2656,253.6875 338.5781,252.0313 Q339.9063,250.375 342.4063,250.375 Q343.1094,250.375 343.75,250.5313 Q344.4063,250.6875 344.9688,250.9844 L344.9688,253.7031 Q344.3438,253.125 343.75,252.8594 Q343.1563,252.5781 342.5313,252.5781 Q341.1875,252.5781 340.5,253.6563 Q339.8125,254.7188 339.8125,256.8125 Q339.8125,258.9063 340.5,259.9844 Q341.1875,261.0469 342.5313,261.0469 Q343.1563,261.0469 343.75,260.7813 Q344.3438,260.5 344.9688,259.9219 L344.9688,262.6406 Z " fill="#000000"/><text fill="#000000" font-family="sans-serif" font-size="14" lengthAdjust="spacing" textLength="206" x="356" y="261.8467">ScriptExecutionServiceWorker</text><line style="stroke:#181818;stroke-width:0.5;" x1="328" x2="564" y1="273" y2="273"/><line style="stroke:#181818;stroke-width:0.5;" x1="328" x2="564" y1="281" y2="281"/><text fill="#000000" font-family="sans-serif" font-size="14" lengthAdjust="spacing" textLength="76" x="333" y="297.9951">prepare(...)</text><text fill="#000000" font-family="sans-serif" font-size="14" lengthAdjust="spacing" textLength="53" x="333" y="314.292">start(...)</text><text fill="#000000" font-family="sans-serif" font-size="14" lengthAdjust="spacing" textLength="53" x="333" y="330.5889">stop(...)</text><text fill="#000000" font-family="sans-serif" font-size="14" lengthAdjust="spacing" textLength="41" x="333" y="346.8857">list(...)</text></g><!--class ActivityWorker--><g id="elem_ActivityWorker"><rect codeLine="22" fill="#F1F1F1" height="80.5938" id="ActivityWorker" rx="2.5" ry="2.5" style="stroke:#181818;stroke-width:0.5;" width="128" x="600" y="257"/><ellipse cx="615" cy="273" fill="#ADD1B2" rx="11" ry="11" style="stroke:#181818;stroke-width:1.0;"/><path d="M617.9688,278.6406 Q617.3906,278.9375 616.75,279.0781 Q616.1094,279.2344 615.4063,279.2344 Q612.9063,279.2344 611.5781,277.5938 Q610.2656,275.9375 610.2656,272.8125 Q610.2656,269.6875 611.5781,268.0313 Q612.9063,266.375 615.4063,266.375 Q616.1094,266.375 616.75,266.5313 Q617.4063,266.6875 617.9688,266.9844 L617.9688,269.7031 Q617.3438,269.125 616.75,268.8594 Q616.1563,268.5781 615.5313,268.5781 Q614.1875,268.5781 613.5,269.6563 Q612.8125,270.7188 612.8125,272.8125 Q612.8125,274.9063 613.5,275.9844 Q614.1875,277.0469 615.5313,277.0469 Q616.1563,277.0469 616.75,276.7813 Q617.3438,276.5 617.9688,275.9219 L617.9688,278.6406 Z " fill="#000000"/><text fill="#000000" font-family="sans-serif" font-size="14" lengthAdjust="spacing" textLength="96" x="629" y="277.8467">ActivityWorker</text><line style="stroke:#181818;stroke-width:0.5;" x1="601" x2="727" y1="289" y2="289"/><line style="stroke:#181818;stroke-width:0.5;" x1="601" x2="727" y1="297" y2="297"/><text fill="#000000" font-family="sans-serif" font-size="14" lengthAdjust="spacing" textLength="45" x="606" y="313.9951">run(...)</text><text fill="#000000" font-family="sans-serif" font-size="14" lengthAdjust="spacing" textLength="41" x="606" y="330.292">list(...)</text></g><!--class FlaskWorker--><g id="elem_FlaskWorker"><rect codeLine="27" fill="#F1F1F1" height="48" id="FlaskWorker" rx="2.5" ry="2.5" style="stroke:#181818;stroke-width:0.5;" width="116" x="763" y="273.5"/><ellipse cx="778" cy="289.5" fill="#ADD1B2" rx="11" ry="11" style="stroke:#181818;stroke-width:1.0;"/><path d="M780.9688,295.1406 Q780.3906,295.4375 779.75,295.5781 Q779.1094,295.7344 778.4063,295.7344 Q775.9063,295.7344 774.5781,294.0938 Q773.2656,292.4375 773.2656,289.3125 Q773.2656,286.1875 774.5781,284.5313 Q775.9063,282.875 778.4063,282.875 Q779.1094,282.875 779.75,283.0313 Q780.4063,283.1875 780.9688,283.4844 L780.9688,286.2031 Q780.3438,285.625 779.75,285.3594 Q779.1563,285.0781 778.5313,285.0781 Q777.1875,285.0781 776.5,286.1563 Q775.8125,287.2188 775.8125,289.3125 Q775.8125,291.4063 776.5,292.4844 Q777.1875,293.5469 778.5313,293.5469 Q779.1563,293.5469 779.75,293.2813 Q780.3438,293 780.9688,292.4219 L780.9688,295.1406 Z " fill="#000000"/><text fill="#000000" font-family="sans-serif" font-size="14" lengthAdjust="spacing" textLength="84" x="792" y="294.3467">FlaskWorker</text><line style="stroke:#181818;stroke-width:0.5;" x1="764" x2="878" y1="305.5" y2="305.5"/><line style="stroke:#181818;stroke-width:0.5;" x1="764" x2="878" y1="313.5" y2="313.5"/></g><!--class EventBusWorker--><g id="elem_EventBusWorker"><rect codeLine="30" fill="#F1F1F1" height="64.2969" id="EventBusWorker" rx="2.5" ry="2.5" style="stroke:#181818;stroke-width:0.5;" width="147" x="660.5" y="84"/><ellipse cx="675.5" cy="100" fill="#ADD1B2" rx="11" ry="11" style="stroke:#181818;stroke-width:1.0;"/><path d="M678.4688,105.6406 Q677.8906,105.9375 677.25,106.0781 Q676.6094,106.2344 675.9063,106.2344 Q673.4063,106.2344 672.0781,104.5938 Q670.7656,102.9375 670.7656,99.8125 Q670.7656,96.6875 672.0781,95.0313 Q673.4063,93.375 675.9063,93.375 Q676.6094,93.375 677.25,93.5313 Q677.9063,93.6875 678.4688,93.9844 L678.4688,96.7031 Q677.8438,96.125 677.25,95.8594 Q676.6563,95.5781 676.0313,95.5781 Q674.6875,95.5781 674,96.6563 Q673.3125,97.7188 673.3125,99.8125 Q673.3125,101.9063 674,102.9844 Q674.6875,104.0469 676.0313,104.0469 Q676.6563,104.0469 677.25,103.7813 Q677.8438,103.5 678.4688,102.9219 L678.4688,105.6406 Z " fill="#000000"/><text fill="#000000" font-family="sans-serif" font-size="14" lengthAdjust="spacing" textLength="115" x="689.5" y="104.8467">EventBusWorker</text><line style="stroke:#181818;stroke-width:0.5;" x1="661.5" x2="806.5" y1="116" y2="116"/><line style="stroke:#181818;stroke-width:0.5;" x1="661.5" x2="806.5" y1="124" y2="124"/><text fill="#000000" font-family="sans-serif" font-size="14" lengthAdjust="spacing" textLength="86" x="666.5" y="140.9951">republish(...)</text></g><!--class main_func--><g id="elem_main_func"><rect codeLine="34" fill="#F1F1F1" height="56.2656" id="main_func" rx="2.5" ry="2.5" style="stroke:#181818;stroke-width:0.5;" width="102" x="457" y="88"/><ellipse cx="472" cy="108.1328" fill="#ADD1B2" rx="11" ry="11" style="stroke:#181818;stroke-width:1.0;"/><path d="M474.9688,113.7734 Q474.3906,114.0703 473.75,114.2109 Q473.1094,114.3672 472.4063,114.3672 Q469.9063,114.3672 468.5781,112.7266 Q467.2656,111.0703 467.2656,107.9453 Q467.2656,104.8203 468.5781,103.1641 Q469.9063,101.5078 472.4063,101.5078 Q473.1094,101.5078 473.75,101.6641 Q474.4063,101.8203 474.9688,102.1172 L474.9688,104.8359 Q474.3438,104.2578 473.75,103.9922 Q473.1563,103.7109 472.5313,103.7109 Q471.1875,103.7109 470.5,104.7891 Q469.8125,105.8516 469.8125,107.9453 Q469.8125,110.0391 470.5,111.1172 Q471.1875,112.1797 472.5313,112.1797 Q473.1563,112.1797 473.75,111.9141 Q474.3438,111.6328 474.9688,111.0547 L474.9688,113.7734 Z " fill="#000000"/><text fill="#000000" font-family="sans-serif" font-size="12" font-style="italic" lengthAdjust="spacing" textLength="65" x="488.5" y="104.1387">«function»</text><text fill="#000000" font-family="sans-serif" font-size="14" lengthAdjust="spacing" textLength="70" x="486" y="119.9639">main_func</text><line style="stroke:#181818;stroke-width:0.5;" x1="458" x2="558" y1="128.2656" y2="128.2656"/><line style="stroke:#181818;stroke-width:0.5;" x1="458" x2="558" y1="136.2656" y2="136.2656"/></g><!--class create_app--><g id="elem_create_app"><rect codeLine="42" fill="#F1F1F1" height="56.2656" id="create_app" rx="2.5" ry="2.5" style="stroke:#181818;stroke-width:0.5;" width="109" x="842.5" y="493"/><ellipse cx="857.5" cy="513.1328" fill="#ADD1B2" rx="11" ry="11" style="stroke:#181818;stroke-width:1.0;"/><path d="M860.4688,518.7734 Q859.8906,519.0703 859.25,519.2109 Q858.6094,519.3672 857.9063,519.3672 Q855.4063,519.3672 854.0781,517.7266 Q852.7656,516.0703 852.7656,512.9453 Q852.7656,509.8203 854.0781,508.1641 Q855.4063,506.5078 857.9063,506.5078 Q858.6094,506.5078 859.25,506.6641 Q859.9063,506.8203 860.4688,507.1172 L860.4688,509.8359 Q859.8438,509.2578 859.25,508.9922 Q858.6563,508.7109 858.0313,508.7109 Q856.6875,508.7109 856,509.7891 Q855.3125,510.8516 855.3125,512.9453 Q855.3125,515.0391 856,516.1172 Q856.6875,517.1797 858.0313,517.1797 Q858.6563,517.1797 859.25,516.9141 Q859.8438,516.6328 860.4688,516.0547 L860.4688,518.7734 Z " fill="#000000"/><text fill="#000000" font-family="sans-serif" font-size="12" font-style="italic" lengthAdjust="spacing" textLength="65" x="877.5" y="509.1387">«function»</text><text fill="#000000" font-family="sans-serif" font-size="14" lengthAdjust="spacing" textLength="77" x="871.5" y="524.9639">create_app</text><line style="stroke:#181818;stroke-width:0.5;" x1="843.5" x2="950.5" y1="533.2656" y2="533.2656"/><line style="stroke:#181818;stroke-width:0.5;" x1="843.5" x2="950.5" y1="541.2656" y2="541.2656"/></g><!--class ServerSentEventsBlueprint--><g id="elem_ServerSentEventsBlueprint"><rect codeLine="43" fill="#F1F1F1" height="48" id="ServerSentEventsBlueprint" rx="2.5" ry="2.5" style="stroke:#181818;stroke-width:0.5;" width="217" x="842.5" y="662"/><ellipse cx="857.5" cy="678" fill="#ADD1B2" rx="11" ry="11" style="stroke:#181818;stroke-width:1.0;"/><path d="M860.4688,683.6406 Q859.8906,683.9375 859.25,684.0781 Q858.6094,684.2344 857.9063,684.2344 Q855.4063,684.2344 854.0781,682.5938 Q852.7656,680.9375 852.7656,677.8125 Q852.7656,674.6875 854.0781,673.0313 Q855.4063,671.375 857.9063,671.375 Q858.6094,671.375 859.25,671.5313 Q859.9063,671.6875 860.4688,671.9844 L860.4688,674.7031 Q859.8438,674.125 859.25,673.8594 Q858.6563,673.5781 858.0313,673.5781 Q856.6875,673.5781 856,674.6563 Q855.3125,675.7188 855.3125,677.8125 Q855.3125,679.9063 856,680.9844 Q856.6875,682.0469 858.0313,682.0469 Q858.6563,682.0469 859.25,681.7813 Q859.8438,681.5 860.4688,680.9219 L860.4688,683.6406 Z " fill="#000000"/><text fill="#000000" font-family="sans-serif" font-size="14" lengthAdjust="spacing" textLength="185" x="871.5" y="682.8467">ServerSentEventsBlueprint</text><line style="stroke:#181818;stroke-width:0.5;" x1="843.5" x2="1058.5" y1="694" y2="694"/><line style="stroke:#181818;stroke-width:0.5;" x1="843.5" x2="1058.5" y1="702" y2="702"/></g><g id="elem_app_note"><path d="M986.5,478 L986.5,517 L951.69,521 L986.5,525 L986.5,563.6641 A0,0 0 0 0 986.5,563.6641 L1207.5,563.6641 A0,0 0 0 0 1207.5,563.6641 L1207.5,488 L1197.5,478 L986.5,478 A0,0 0 0 0 986.5,478 " fill="#FEFFDD" style="stroke:#181818;stroke-width:0.5;"/><path d="M1197.5,478 L1197.5,488 L1207.5,488 L1197.5,478 " fill="#FEFFDD" style="stroke:#181818;stroke-width:0.5;"/><text fill="#000000" font-family="sans-serif" font-size="13" lengthAdjust="spacing" textLength="149" x="992.5" y="495.0669">create_app function will</text><text fill="#000000" font-family="sans-serif" font-size="13" lengthAdjust="spacing" textLength="162" x="992.5" y="510.1997">create a Flask application</text><text fill="#000000" font-family="sans-serif" font-size="13" lengthAdjust="spacing" textLength="197" x="992.5" y="525.3325">using ProcedureAPI, ActivityAPI</text><text fill="#000000" font-family="sans-serif" font-size="13" lengthAdjust="spacing" textLength="200" x="992.5" y="540.4653">and ServerSentEventsBlueprint</text><text fill="#000000" font-family="sans-serif" font-size="13" lengthAdjust="spacing" textLength="67" x="992.5" y="555.5981">blueprints.</text></g><!--class ProcedureAPI--><g id="elem_ProcedureAPI"><rect codeLine="61" fill="#F1F1F1" height="48" id="ProcedureAPI" rx="2.5" ry="2.5" style="stroke:#181818;stroke-width:0.5;" width="125" x="220.5" y="662"/><ellipse cx="235.5" cy="678" fill="#ADD1B2" rx="11" ry="11" style="stroke:#181818;stroke-width:1.0;"/><path d="M238.4688,683.6406 Q237.8906,683.9375 237.25,684.0781 Q236.6094,684.2344 235.9063,684.2344 Q233.4063,684.2344 232.0781,682.5938 Q230.7656,680.9375 230.7656,677.8125 Q230.7656,674.6875 232.0781,673.0313 Q233.4063,671.375 235.9063,671.375 Q236.6094,671.375 237.25,671.5313 Q237.9063,671.6875 238.4688,671.9844 L238.4688,674.7031 Q237.8438,674.125 237.25,673.8594 Q236.6563,673.5781 236.0313,673.5781 Q234.6875,673.5781 234,674.6563 Q233.3125,675.7188 233.3125,677.8125 Q233.3125,679.9063 234,680.9844 Q234.6875,682.0469 236.0313,682.0469 Q236.6563,682.0469 237.25,681.7813 Q237.8438,681.5 238.4688,680.9219 L238.4688,683.6406 Z " fill="#000000"/><text fill="#000000" font-family="sans-serif" font-size="14" lengthAdjust="spacing" textLength="93" x="249.5" y="682.8467">ProcedureAPI</text><line style="stroke:#181818;stroke-width:0.5;" x1="221.5" x2="344.5" y1="694" y2="694"/><line style="stroke:#181818;stroke-width:0.5;" x1="221.5" x2="344.5" y1="702" y2="702"/></g><!--class ScriptExecutionService--><g id="elem_ScriptExecutionService"><rect codeLine="65" fill="#F1F1F1" height="48" id="ScriptExecutionService" rx="2.5" ry="2.5" style="stroke:#181818;stroke-width:0.5;" width="189" x="188.5" y="497"/><ellipse cx="203.5" cy="513" fill="#ADD1B2" rx="11" ry="11" style="stroke:#181818;stroke-width:1.0;"/><path d="M206.4688,518.6406 Q205.8906,518.9375 205.25,519.0781 Q204.6094,519.2344 203.9063,519.2344 Q201.4063,519.2344 200.0781,517.5938 Q198.7656,515.9375 198.7656,512.8125 Q198.7656,509.6875 200.0781,508.0313 Q201.4063,506.375 203.9063,506.375 Q204.6094,506.375 205.25,506.5313 Q205.9063,506.6875 206.4688,506.9844 L206.4688,509.7031 Q205.8438,509.125 205.25,508.8594 Q204.6563,508.5781 204.0313,508.5781 Q202.6875,508.5781 202,509.6563 Q201.3125,510.7188 201.3125,512.8125 Q201.3125,514.9063 202,515.9844 Q202.6875,517.0469 204.0313,517.0469 Q204.6563,517.0469 205.25,516.7813 Q205.8438,516.5 206.4688,515.9219 L206.4688,518.6406 Z " fill="#000000"/><text fill="#000000" font-family="sans-serif" font-size="14" lengthAdjust="spacing" textLength="157" x="217.5" y="517.8467">ScriptExecutionService</text><line style="stroke:#181818;stroke-width:0.5;" x1="189.5" x2="376.5" y1="529" y2="529"/><line style="stroke:#181818;stroke-width:0.5;" x1="189.5" x2="376.5" y1="537" y2="537"/></g><!--entity procedure_domain--><g id="elem_procedure_domain"><rect fill="#F1F1F1" height="36.2969" rx="2.5" ry="2.5" style="stroke:#181818;stroke-width:0.5;" width="71" x="46.5" y="503"/><text fill="#000000" font-family="sans-serif" font-size="14" lengthAdjust="spacing" textLength="51" x="56.5" y="525.9951">domain</text></g><!--class ActivityAPI--><g id="elem_ActivityAPI"><rect codeLine="76" fill="#F1F1F1" height="48" id="ActivityAPI" rx="2.5" ry="2.5" style="stroke:#181818;stroke-width:0.5;" width="100" x="631" y="662"/><ellipse cx="646" cy="678" fill="#ADD1B2" rx="11" ry="11" style="stroke:#181818;stroke-width:1.0;"/><path d="M648.9688,683.6406 Q648.3906,683.9375 647.75,684.0781 Q647.1094,684.2344 646.4063,684.2344 Q643.9063,684.2344 642.5781,682.5938 Q641.2656,680.9375 641.2656,677.8125 Q641.2656,674.6875 642.5781,673.0313 Q643.9063,671.375 646.4063,671.375 Q647.1094,671.375 647.75,671.5313 Q648.4063,671.6875 648.9688,671.9844 L648.9688,674.7031 Q648.3438,674.125 647.75,673.8594 Q647.1563,673.5781 646.5313,673.5781 Q645.1875,673.5781 644.5,674.6563 Q643.8125,675.7188 643.8125,677.8125 Q643.8125,679.9063 644.5,680.9844 Q645.1875,682.0469 646.5313,682.0469 Q647.1563,682.0469 647.75,681.7813 Q648.3438,681.5 648.9688,680.9219 L648.9688,683.6406 Z " fill="#000000"/><text fill="#000000" font-family="sans-serif" font-size="14" lengthAdjust="spacing" textLength="68" x="660" y="682.8467">ActivityAPI</text><line style="stroke:#181818;stroke-width:0.5;" x1="632" x2="730" y1="694" y2="694"/><line style="stroke:#181818;stroke-width:0.5;" x1="632" x2="730" y1="702" y2="702"/></g><!--class ActivityService--><g id="elem_ActivityService"><rect codeLine="80" fill="#F1F1F1" height="48" id="ActivityService" rx="2.5" ry="2.5" style="stroke:#181818;stroke-width:0.5;" width="129" x="616.5" y="497"/><ellipse cx="631.5" cy="513" fill="#ADD1B2" rx="11" ry="11" style="stroke:#181818;stroke-width:1.0;"/><path d="M634.4688,518.6406 Q633.8906,518.9375 633.25,519.0781 Q632.6094,519.2344 631.9063,519.2344 Q629.4063,519.2344 628.0781,517.5938 Q626.7656,515.9375 626.7656,512.8125 Q626.7656,509.6875 628.0781,508.0313 Q629.4063,506.375 631.9063,506.375 Q632.6094,506.375 633.25,506.5313 Q633.9063,506.6875 634.4688,506.9844 L634.4688,509.7031 Q633.8438,509.125 633.25,508.8594 Q632.6563,508.5781 632.0313,508.5781 Q630.6875,508.5781 630,509.6563 Q629.3125,510.7188 629.3125,512.8125 Q629.3125,514.9063 630,515.9844 Q630.6875,517.0469 632.0313,517.0469 Q632.6563,517.0469 633.25,516.7813 Q633.8438,516.5 634.4688,515.9219 L634.4688,518.6406 Z " fill="#000000"/><text fill="#000000" font-family="sans-serif" font-size="14" lengthAdjust="spacing" textLength="97" x="645.5" y="517.8467">ActivityService</text><line style="stroke:#181818;stroke-width:0.5;" x1="617.5" x2="744.5" y1="529" y2="529"/><line style="stroke:#181818;stroke-width:0.5;" x1="617.5" x2="744.5" y1="537" y2="537"/></g><!--entity activity_domain--><g id="elem_activity_domain"><rect fill="#F1F1F1" height="36.2969" rx="2.5" ry="2.5" style="stroke:#181818;stroke-width:0.5;" width="71" x="474.5" y="503"/><text fill="#000000" font-family="sans-serif" font-size="14" lengthAdjust="spacing" textLength="51" x="484.5" y="525.9951">domain</text></g><!--class Flask--><g id="elem_Flask"><rect codeLine="90" fill="#F1F1F1" height="48" id="Flask" rx="2.5" ry="2.5" style="stroke:#181818;stroke-width:0.5;" width="67" x="869.5" y="858"/><ellipse cx="884.5" cy="874" fill="#ADD1B2" rx="11" ry="11" style="stroke:#181818;stroke-width:1.0;"/><path d="M887.4688,879.6406 Q886.8906,879.9375 886.25,880.0781 Q885.6094,880.2344 884.9063,880.2344 Q882.4063,880.2344 881.0781,878.5938 Q879.7656,876.9375 879.7656,873.8125 Q879.7656,870.6875 881.0781,869.0313 Q882.4063,867.375 884.9063,867.375 Q885.6094,867.375 886.25,867.5313 Q886.9063,867.6875 887.4688,867.9844 L887.4688,870.7031 Q886.8438,870.125 886.25,869.8594 Q885.6563,869.5781 885.0313,869.5781 Q883.6875,869.5781 883,870.6563 Q882.3125,871.7188 882.3125,873.8125 Q882.3125,875.9063 883,876.9844 Q883.6875,878.0469 885.0313,878.0469 Q885.6563,878.0469 886.25,877.7813 Q886.8438,877.5 887.4688,876.9219 L887.4688,879.6406 Z " fill="#000000"/><text fill="#000000" font-family="sans-serif" font-size="14" lengthAdjust="spacing" textLength="35" x="898.5" y="878.8467">Flask</text><line style="stroke:#181818;stroke-width:0.5;" x1="870.5" x2="935.5" y1="890" y2="890"/><line style="stroke:#181818;stroke-width:0.5;" x1="870.5" x2="935.5" y1="898" y2="898"/></g><!--class Blueprint--><g id="elem_Blueprint"><rect codeLine="91" fill="#F1F1F1" height="48" id="Blueprint" rx="2.5" ry="2.5" style="stroke:#181818;stroke-width:0.5;" width="94" x="740" y="858"/><ellipse cx="755" cy="874" fill="#ADD1B2" rx="11" ry="11" style="stroke:#181818;stroke-width:1.0;"/><path d="M757.9688,879.6406 Q757.3906,879.9375 756.75,880.0781 Q756.1094,880.2344 755.4063,880.2344 Q752.9063,880.2344 751.5781,878.5938 Q750.2656,876.9375 750.2656,873.8125 Q750.2656,870.6875 751.5781,869.0313 Q752.9063,867.375 755.4063,867.375 Q756.1094,867.375 756.75,867.5313 Q757.4063,867.6875 757.9688,867.9844 L757.9688,870.7031 Q757.3438,870.125 756.75,869.8594 Q756.1563,869.5781 755.5313,869.5781 Q754.1875,869.5781 753.5,870.6563 Q752.8125,871.7188 752.8125,873.8125 Q752.8125,875.9063 753.5,876.9844 Q754.1875,878.0469 755.5313,878.0469 Q756.1563,878.0469 756.75,877.7813 Q757.3438,877.5 757.9688,876.9219 L757.9688,879.6406 Z " fill="#000000"/><text fill="#000000" font-family="sans-serif" font-size="14" lengthAdjust="spacing" textLength="62" x="769" y="878.8467">Blueprint</text><line style="stroke:#181818;stroke-width:0.5;" x1="741" x2="833" y1="890" y2="890"/><line style="stroke:#181818;stroke-width:0.5;" x1="741" x2="833" y1="898" y2="898"/></g><!--reverse link EventBusWorker to ScriptExecutionServiceWorker--><g id="link_EventBusWorker_ScriptExecutionServiceWorker"><path codeLine="36" d="M659.02,158.12 C634.54,171.96 607.38,187.77 583,203 C564.07,214.82 544.05,228.06 525.33,240.76 " fill="none" id="EventBusWorker-backto-ScriptExecutionServiceWorker" style="stroke:#181818;stroke-width:1.0;"/><polygon fill="none" points="655.85,151.87,676.71,148.19,662.7,164.08,655.85,151.87" style="stroke:#181818;stroke-width:1.0;"/></g><!--reverse link EventBusWorker to FlaskWorker--><g id="link_EventBusWorker_FlaskWorker"><path codeLine="37" d="M757.94,166.4 C774.84,201.26 796.71,246.38 809.75,273.29 " fill="none" id="EventBusWorker-backto-FlaskWorker" style="stroke:#181818;stroke-width:1.0;"/><polygon fill="none" points="751.58,169.32,749.15,148.27,764.18,163.21,751.58,169.32" style="stroke:#181818;stroke-width:1.0;"/></g><!--reverse link EventBusWorker to ActivityWorker--><g id="link_EventBusWorker_ActivityWorker"><path codeLine="38" d="M714.47,167.08 C703.42,195.42 689.79,230.37 679.48,256.8 " fill="none" id="EventBusWorker-backto-ActivityWorker" style="stroke:#181818;stroke-width:1.0;"/><polygon fill="none" points="708.02,164.36,721.81,148.27,721.06,169.44,708.02,164.36" style="stroke:#181818;stroke-width:1.0;"/></g><!--reverse link FlaskWorker to create_app--><g id="link_FlaskWorker_create_app"><path codeLine="56" d="M833.26,334.22 C848.46,378.52 874.03,453.05 887.71,492.91 " fill="none" id="FlaskWorker-backto-create_app" style="stroke:#181818;stroke-width:1.0;"/><polygon fill="#181818" points="828.99,321.79,827.1532,328.7632,832.8836,333.1408,834.7204,326.1675,828.99,321.79" style="stroke:#181818;stroke-width:1.0;"/></g><!--link ScriptExecutionServiceWorker to ScriptExecutionService--><g id="link_ScriptExecutionServiceWorker_ScriptExecutionService"><path codeLine="70" d="M405.08,354.11 C372.55,398.32 328.43,458.26 303.11,492.67 " fill="none" id="ScriptExecutionServiceWorker-to-ScriptExecutionService" style="stroke:#181818;stroke-width:1.0;"/><polygon fill="#181818" points="300.12,496.74,308.6814,491.8714,303.0879,492.7162,302.2432,487.1227,300.12,496.74" style="stroke:#181818;stroke-width:1.0;"/></g><!--link ActivityWorker to ActivityService--><g id="link_ActivityWorker_ActivityService"><path codeLine="85" d="M667.04,338.1 C670.43,382.28 675.83,452.66 678.82,491.66 " fill="none" id="ActivityWorker-to-ActivityService" style="stroke:#181818;stroke-width:1.0;"/><polygon fill="#181818" points="679.21,496.72,682.5303,487.4477,678.8385,491.7338,674.5524,488.042,679.21,496.72" style="stroke:#181818;stroke-width:1.0;"/></g><!--link create_app to Flask--><g id="link_create_app_Flask"><path codeLine="94" d="M921.12,549.23 C934.04,562.1 950.98,576.47 969,585 C1012.99,605.81 1045.55,565.87 1077,603 C1133.02,669.13 1123.25,724.7 1077,798 C1050.71,839.68 997.1,860.87 956.3,871.35 " fill="none" id="create_app-to-Flask" style="stroke:#181818;stroke-width:1.0;"/><polygon fill="none" points="957.68,878.22,936.63,875.85,954.56,864.57,957.68,878.22" style="stroke:#181818;stroke-width:1.0;"/></g><!--link ServerSentEventsBlueprint to Blueprint--><g id="link_ServerSentEventsBlueprint_Blueprint"><path codeLine="95" d="M931.54,710.02 C903.94,742.67 853.05,802.87 819.62,842.42 " fill="none" id="ServerSentEventsBlueprint-to-Blueprint" style="stroke:#181818;stroke-width:1.0;"/><polygon fill="none" points="824.94,846.96,806.69,857.71,814.25,837.92,824.94,846.96" style="stroke:#181818;stroke-width:1.0;"/></g><!--link ActivityAPI to Blueprint--><g id="link_ActivityAPI_Blueprint"><path codeLine="96" d="M693.58,710.02 C711.06,742.02 743,800.47 764.61,840.01 " fill="none" id="ActivityAPI-to-Blueprint" style="stroke:#181818;stroke-width:1.0;"/><polygon fill="none" points="770.83,836.8,774.28,857.71,758.54,843.52,770.83,836.8" style="stroke:#181818;stroke-width:1.0;"/></g><!--link ProcedureAPI to Blueprint--><g id="link_ProcedureAPI_Blueprint"><path codeLine="97" d="M342.79,710.02 C437.79,746.58 622.49,817.68 721.15,855.65 " fill="none" id="ProcedureAPI-to-Blueprint" style="stroke:#181818;stroke-width:1.0;"/><polygon fill="none" points="723.82,849.18,739.97,862.9,718.79,862.25,723.82,849.18" style="stroke:#181818;stroke-width:1.0;"/></g><!--link EventBusWorker to mptools--><g id="link_EventBusWorker_mptools"><path codeLine="99" d="M807.56,143.57 C837.8,157.47 871.22,177.08 895,203 C910.035,219.395 919.96,242.3025 926.1625,261.34 C926.3563,261.9349 926.5465,262.5261 926.7331,263.1131 C926.7798,263.2599 926.8262,263.4064 926.8724,263.5526 " fill="none" id="EventBusWorker-mptools" style="stroke:#181818;stroke-width:1.0;stroke-dasharray:1.0,3.0;"/><text fill="#000000" font-family="sans-serif" font-size="13" lengthAdjust="spacing" textLength="30" x="885" y="191.0669">uses</text></g><!--link procedure_application to procedure_ui--><!--link activity_application to activity_ui--><!--link create_app to ServerSentEventsBlueprint--><!--SRC=[dLPDZziW4BtxLw1S-g4wkQzMbdQbhTJRgZdqiAei5ayI50o8ZwHLc_zUx1YC2KvswqCIcCUycSVCE1zsnaXzjrf9XhcnBLiIqQu8mrgN3SLRXTkYa9ZiyHQGtkDQQ54BCEXFKI3tU5ChZH1CksqqF5mOG5XxIzsjWt4DWCmEq9eeAitJBo3MKC7Ne0wKZB03XIFQ28LQeG1Hxdwsk0CYmGEeyxDO33IBXSCsbZbgtY1gT80HmGrmevTX1nmYH7LAyi6Ke_lxxq0Cvbi6LHMbriip4_iFeVQW8d3lLO742ZukbyjF4uCsM9dSjf2Nkupg13i4FSRqG0mzKFCx6uMo_B-SVdMV-mkF5x2dWvFtqUeyDqZxwhXsDxWwtUkDvSI9ttrrobRLYBegUcbb-RTA0Wb7upIk8nCLvy59qLXwesI80coWnb9EqqiAooK5QktOUahzo2n8HRafBfhBUPesLiJW_QCZPIm187oMetF0AEbxAa2ifdoBdfKWq5W53y_VlWH9t2BWkWwRZzMZNlrEhlD6NqCYg6ImCMMKHonqV8MVombgSX7In-x7L79BJha0gQ_SsdWdiHgvwlNE8psdBB7XDjsDkPWXRaG_iYQSmzuStUcDNLLMS_7acW0FbH8HJPNtWBS9dokysxe7ZlV9xidUfNVWUhFSwNnn0kUOJyLfVFTk-dOzUul6ShGUMyyTY-P0sGslCtYsMy-WqKEaUcgAEo6r5Saxe7nfX37G_2pztu0xDrr0kxIoZL4suiXVThHfWBipSOyMsIjD3aIbDL5WYfgVMVy0]--></g></svg>