<?xml version="1.0" encoding="UTF-8" standalone="no"?><svg xmlns="http://www.w3.org/2000/svg" xmlns:xlink="http://www.w3.org/1999/xlink" contentScriptType="application/ecmascript" contentStyleType="text/css" height="852px" preserveAspectRatio="none" style="width:391px;height:852px;" version="1.1" viewBox="0 0 391 852" width="391px" zoomAndPan="magnify"><defs><filter height="300%" id="fp45ce0q5fomm" width="300%" x="-1" y="-1"><feGaussianBlur result="blurOut" stdDeviation="2.0"/><feColorMatrix in="blurOut" result="blurOut2" type="matrix" values="0 0 0 0 0 0 0 0 0 0 0 0 0 0 0 0 0 0 .4 0"/><feOffset dx="4.0" dy="4.0" in="blurOut2" result="blurOut3"/><feBlend in="SourceGraphic" in2="blurOut3" mode="normal"/></filter></defs><g><polygon fill="#FEFECE" filter="url(#fp45ce0q5fomm)" points="204,119,216,131,204,143,192,131,204,119" style="stroke: #A80036; stroke-width: 1.5;"/><polygon fill="#FEFECE" filter="url(#fp45ce0q5fomm)" points="116,455,128,467,116,479,104,467,116,455" style="stroke: #A80036; stroke-width: 1.5;"/><rect fill="#FEFECE" filter="url(#fp45ce0q5fomm)" height="50" rx="12.5" ry="12.5" style="stroke: #A80036; stroke-width: 1.5;" width="91" x="158.5" y="8"/><line style="stroke: #A80036; stroke-width: 1.5;" x1="158.5" x2="249.5" y1="34.2969" y2="34.2969"/><text fill="#000000" font-family="sans-serif" font-size="14" lengthAdjust="spacingAndGlyphs" textLength="71" x="168.5" y="25.9951">CREATING</text><rect fill="#FEFECE" filter="url(#fp45ce0q5fomm)" height="50" rx="12.5" ry="12.5" style="stroke: #A80036; stroke-width: 1.5;" width="92" x="100" y="220"/><line style="stroke: #A80036; stroke-width: 1.5;" x1="100" x2="192" y1="246.2969" y2="246.2969"/><text fill="#000000" font-family="sans-serif" font-size="14" lengthAdjust="spacingAndGlyphs" textLength="72" x="110" y="237.9951">PREP_ENV</text><rect fill="#FEFECE" filter="url(#fp45ce0q5fomm)" height="50" rx="12.5" ry="12.5" style="stroke: #A80036; stroke-width: 1.5;" width="50" x="179" y="331"/><line style="stroke: #A80036; stroke-width: 1.5;" x1="179" x2="229" y1="357.2969" y2="357.2969"/><text fill="#000000" font-family="sans-serif" font-size="14" lengthAdjust="spacingAndGlyphs" textLength="30" x="189" y="348.9951">IDLE</text><rect fill="#FEFECE" filter="url(#fp45ce0q5fomm)" height="50" rx="12.5" ry="12.5" style="stroke: #A80036; stroke-width: 1.5;" width="82" x="163" y="442"/><line style="stroke: #A80036; stroke-width: 1.5;" x1="163" x2="245" y1="468.2969" y2="468.2969"/><text fill="#000000" font-family="sans-serif" font-size="14" lengthAdjust="spacingAndGlyphs" textLength="62" x="173" y="459.9951">LOADING</text><rect fill="#FEFECE" filter="url(#fp45ce0q5fomm)" height="50" rx="12.5" ry="12.5" style="stroke: #A80036; stroke-width: 1.5;" width="100" x="6" y="569"/><line style="stroke: #A80036; stroke-width: 1.5;" x1="6" x2="106" y1="595.2969" y2="595.2969"/><text fill="#000000" font-family="sans-serif" font-size="14" lengthAdjust="spacingAndGlyphs" textLength="80" x="16" y="586.9951">INITIALISING</text><rect fill="#FEFECE" filter="url(#fp45ce0q5fomm)" height="50" rx="12.5" ry="12.5" style="stroke: #A80036; stroke-width: 1.5;" width="68" x="82" y="680"/><line style="stroke: #A80036; stroke-width: 1.5;" x1="82" x2="150" y1="706.2969" y2="706.2969"/><text fill="#000000" font-family="sans-serif" font-size="14" lengthAdjust="spacingAndGlyphs" textLength="48" x="92" y="697.9951">READY</text><rect fill="#FEFECE" filter="url(#fp45ce0q5fomm)" height="50" rx="12.5" ry="12.5" style="stroke: #A80036; stroke-width: 1.5;" width="84" x="11" y="791"/><line style="stroke: #A80036; stroke-width: 1.5;" x1="11" x2="95" y1="817.2969" y2="817.2969"/><text fill="#000000" font-family="sans-serif" font-size="14" lengthAdjust="spacingAndGlyphs" textLength="64" x="21" y="808.9951">RUNNING</text><rect fill="#FEFECE" filter="url(#fp45ce0q5fomm)" height="50" rx="12.5" ry="12.5" style="stroke: #A80036; stroke-width: 1.5;" width="96" x="130" y="791"/><line style="stroke: #A80036; stroke-width: 1.5;" x1="130" x2="226" y1="817.2969" y2="817.2969"/><text fill="#000000" font-family="sans-serif" font-size="14" lengthAdjust="spacingAndGlyphs" textLength="76" x="140" y="808.9951">COMPLETE</text><rect fill="#FEFECE" filter="url(#fp45ce0q5fomm)" height="50" rx="12.5" ry="12.5" style="stroke: #A80036; stroke-width: 1.5;" width="93" x="261.5" y="791"/><line style="stroke: #A80036; stroke-width: 1.5;" x1="261.5" x2="354.5" y1="817.2969" y2="817.2969"/><text fill="#000000" font-family="sans-serif" font-size="14" lengthAdjust="spacingAndGlyphs" textLength="73" x="271.5" y="808.9951">UNKNOWN</text><!--MD5=[588bdae0e3889d2162b51c3f7ba204f5]
link CREATING to git--><path d="M204,58.2374 C204,75.6127 204,98.2476 204,113.6261 " fill="none" id="CREATING-&gt;git" style="stroke: #A80036; stroke-width: 1.0;"/><polygon fill="#A80036" points="204,118.9403,208,109.9403,204,113.9403,200,109.9403,204,118.9403" style="stroke: #A80036; stroke-width: 1.0;"/><!--MD5=[387d3d8ce15232fe1caee0addca26ab9]
link git to PREP_ENV--><path d="M195.9422,135.1501 C184.4363,141.5534 163.6287,155.0085 154,173 C147.2416,185.6282 144.913,201.2694 144.4105,214.744 " fill="none" id="git-&gt;PREP_ENV" style="stroke: #A80036; stroke-width: 1.0;"/><polygon fill="#A80036" points="144.3008,219.9833,148.4884,211.069,144.4055,214.9844,140.4902,210.9015,144.3008,219.9833" style="stroke: #A80036; stroke-width: 1.0;"/><text fill="#000000" font-family="sans-serif" font-size="13" lengthAdjust="spacingAndGlyphs" textLength="80" x="155" y="186.0669">run GitScript</text><!--MD5=[704ceb657f3c9eda88b411e9ef7cafe4]
link git to IDLE--><path d="M210.9301,136.343 C219.6548,143.5569 234.2024,157.3275 240,173 C259.1911,224.8785 236.7389,289.0086 219.6753,325.9379 " fill="none" id="git-&gt;IDLE" style="stroke: #A80036; stroke-width: 1.0;"/><polygon fill="#A80036" points="217.4137,330.744,224.865,324.3036,219.5426,326.2198,217.6263,320.8974,217.4137,330.744" style="stroke: #A80036; stroke-width: 1.0;"/><text fill="#000000" font-family="sans-serif" font-size="13" lengthAdjust="spacingAndGlyphs" textLength="130" x="249" y="249.5669">run FilesystemScript</text><!--MD5=[7ca5bb55f49e0b2b2b6ef3cb4ee07d4d]
link PREP_ENV to IDLE--><path d="M159.1611,270.1876 C167.8374,286.7923 179.2423,308.6189 188.3784,326.1036 " fill="none" id="PREP_ENV-&gt;IDLE" style="stroke: #A80036; stroke-width: 1.0;"/><polygon fill="#A80036" points="190.891,330.9121,190.2682,321.083,188.5755,326.4806,183.1778,324.7878,190.891,330.9121" style="stroke: #A80036; stroke-width: 1.0;"/><!--MD5=[99b2569e710cfbcdcebdd6e70fbb6dc0]
link IDLE to LOADING--><path d="M193.1185,381.1876 C190.8566,397.6504 190.6483,419.2461 192.4936,436.6543 " fill="none" id="IDLE-&gt;LOADING" style="stroke: #A80036; stroke-width: 1.0;"/><polygon fill="#A80036" points="193.1322,441.9121,196.0176,432.4954,192.5292,436.9486,188.076,433.4602,193.1322,441.9121" style="stroke: #A80036; stroke-width: 1.0;"/><!--MD5=[d69afbb80cb45939fd0923789cea60b1]
link LOADING to IDLE--><path d="M215.5071,441.9121 C217.9108,425.4701 218.1401,403.8763 216.1951,386.4512 " fill="none" id="LOADING-&gt;IDLE" style="stroke: #A80036; stroke-width: 1.0;"/><polygon fill="#A80036" points="215.5216,381.1876,212.6962,390.6225,216.1562,386.1472,220.6315,389.6072,215.5216,381.1876" style="stroke: #A80036; stroke-width: 1.0;"/><!--MD5=[172f8003c97c37e8b7bf63eb63f1d571]
link IDLE to init--><path d="M184.0314,381.1876 C165.332,404.7744 138.2792,438.8978 124.6051,456.1458 " fill="none" id="IDLE-&gt;init" style="stroke: #A80036; stroke-width: 1.0;"/><polygon fill="#A80036" points="121.4301,460.1507,130.1558,455.5831,124.5363,456.2326,123.8869,450.6132,121.4301,460.1507" style="stroke: #A80036; stroke-width: 1.0;"/><!--MD5=[fd542e5154302cc3a86cbd73115cb5fb]
link init to INITIALISING--><path d="M111.4666,474.6992 C105.3522,485.2154 94.276,504.7384 86,522 C79.4824,535.594 72.96,550.981 67.6696,564.0307 " fill="none" id="init-&gt;INITIALISING" style="stroke: #A80036; stroke-width: 1.0;"/><polygon fill="#A80036" points="65.7785,568.7251,72.8519,561.8718,67.6469,564.0873,65.4314,558.8824,65.7785,568.7251" style="stroke: #A80036; stroke-width: 1.0;"/><text fill="#000000" font-family="sans-serif" font-size="13" lengthAdjust="spacingAndGlyphs" textLength="62" x="87" y="535.0669">has init fn</text><!--MD5=[64bcb157a210d06e03cb1613397d556d]
link init to READY--><path d="M122.1135,473.0753 C131.158,482.5433 147.7114,501.8349 154,522 C170.4567,574.7701 148.1851,638.3432 131.4404,674.9751 " fill="none" id="init-&gt;READY" style="stroke: #A80036; stroke-width: 1.0;"/><polygon fill="#A80036" points="129.2225,679.7429,136.6456,673.2701,131.3316,675.2095,129.3922,669.8955,129.2225,679.7429" style="stroke: #A80036; stroke-width: 1.0;"/><text fill="#000000" font-family="sans-serif" font-size="13" lengthAdjust="spacingAndGlyphs" textLength="55" x="161" y="598.5669">no init fn</text><!--MD5=[d713fe5b221fcf330af3bd64f6206e49]
link INITIALISING to READY--><path d="M69.6149,619.1876 C78.5904,635.7923 90.3886,657.6189 99.8398,675.1036 " fill="none" id="INITIALISING-&gt;READY" style="stroke: #A80036; stroke-width: 1.0;"/><polygon fill="#A80036" points="102.439,679.9121,101.678,670.0927,100.0613,675.5136,94.6404,673.897,102.439,679.9121" style="stroke: #A80036; stroke-width: 1.0;"/><!--MD5=[6b4abe7ea6ff7c16155b8fbcb061f04e]
link READY to RUNNING--><path d="M90.8228,730.1876 C79.1171,746.7923 66.5369,768.6189 58.51,786.1036 " fill="none" id="READY-&gt;RUNNING" style="stroke: #A80036; stroke-width: 1.0;"/><polygon fill="#A80036" points="56.3713,790.9121,63.6836,784.3144,58.4033,786.3436,56.374,781.0632,56.3713,790.9121" style="stroke: #A80036; stroke-width: 1.0;"/><!--MD5=[7d6e5709d898df405e14926b2bf2e656]
link RUNNING to READY--><path d="M78.7462,790.9121 C90.583,774.3283 103.1824,752.5036 111.1164,735.0015 " fill="none" id="RUNNING-&gt;READY" style="stroke: #A80036; stroke-width: 1.0;"/><polygon fill="#A80036" points="113.226,730.1876,105.95,736.8253,111.2191,734.7672,113.2773,740.0363,113.226,730.1876" style="stroke: #A80036; stroke-width: 1.0;"/><!--MD5=[fd1503195ee8254cc0d4818c99c95074]
link READY to COMPLETE--><path d="M130.0688,730.1876 C139.3435,746.7923 151.5349,768.6189 161.3011,786.1036 " fill="none" id="READY-&gt;COMPLETE" style="stroke: #A80036; stroke-width: 1.0;"/><polygon fill="#A80036" points="163.9869,790.9121,163.0902,781.1041,161.5487,786.5469,156.1059,785.0053,163.9869,790.9121" style="stroke: #A80036; stroke-width: 1.0;"/><!--MD5=[34c4b951e15a8358c798548890aa6a91]
link READY to UNKNOWN--><path d="M150.3258,724.8446 C180.8814,742.5096 225.8929,768.5318 260.01,788.2558 " fill="none" id="READY-&gt;UNKNOWN" style="stroke: #A80036; stroke-width: 1.0;"/><polygon fill="#A80036" points="264.5372,790.8731,258.7478,782.9055,260.2086,788.3705,254.7436,789.8313,264.5372,790.8731" style="stroke: #A80036; stroke-width: 1.0;"/><!--MD5=[91f4c18c07a2241f32989c575d3f30ea]
@startuml

state git <<choice>>
state init <<choice>>

CREATING - -> git

git - -> PREP_ENV : run GitScript
git - -> IDLE : run FilesystemScript

PREP_ENV - -> IDLE

IDLE - -> LOADING
LOADING - -> IDLE

IDLE - -> init

init - -> INITIALISING : has init fn
init - -> READY : no init fn

INITIALISING - -> READY
READY - -> RUNNING
RUNNING - -> READY

READY - -> COMPLETE
READY - -> UNKNOWN

@enduml

PlantUML version 1.2020.06(Sun Apr 05 12:38:32 GMT 2020)
(GPL source distribution)
Java Runtime: OpenJDK Runtime Environment
JVM: OpenJDK 64-Bit Server VM
Java Version: 14-ea+33
Operating System: Linux
Default Encoding: UTF-8
Language: en
Country: US
--></g></svg>